<?xml version="1.0" encoding="utf-8"?>
<!-- Generator: Adobe Illustrator 15.0.0, SVG Export Plug-In . SVG Version: 6.00 Build 0)  -->
<!DOCTYPE svg PUBLIC "-//W3C//DTD SVG 1.1//EN" "http://www.w3.org/Graphics/SVG/1.1/DTD/svg11.dtd">
<svg version="1.1" id="Layer_1" xmlns="http://www.w3.org/2000/svg" xmlns:xlink="http://www.w3.org/1999/xlink" x="0px" y="0px"
	 width="576px" height="468px" viewBox="0 0 576 468" enable-background="new 0 0 576 468" xml:space="preserve">
<g>
	<path fill="#3E1517" d="M288,442.3c-168.17,0-182.512-18.016-192.079-43.346S68.337,261.045,68.337,226.146
		c0-56.856,82.742-73.74,219.662-73.74c136.92,0,219.663,16.884,219.663,73.74c0,34.898-18.016,147.478-27.582,172.808
		C470.512,424.284,456.17,442.3,288,442.3"/>
	<path fill="#4F1111" d="M483.129,389.065c9.229-34.4,22.58-118.966,24.338-155.731c-26.725,4.523-47.648,21.842-47.648,69.926
		C459.818,341.944,463.914,372.772,483.129,389.065z"/>
	<path fill="#4F1111" d="M68.381,229.051c0.882,37.35,17.793,142.556,27.19,168.903c39.746,0.076,87.561-7.143,111.504-24.895
		c27.334-20.262,40.441-74.165,13.398-101.208C188.04,239.416,111.521,231.105,68.381,229.051z"/>
	<polygon fill="#4F1111" points="442.367,456.06 381.881,456.06 376.57,417.915 447.678,417.915 	"/>
	<polygon fill="#4F1111" points="194.119,456.06 133.63,456.06 128.322,417.915 199.43,417.915 	"/>
	<path fill="#E6E7E8" d="M288,231.977c84.165,0,160.875-5.924,218.756-15.643c-9.248-49.004-90.059-63.928-218.756-63.928
		c-128.697,0-209.508,14.924-218.755,63.928C127.124,226.053,203.835,231.977,288,231.977z"/>
	<path fill="#E6E7E8" d="M288,400.048c-69.246,0-133.408,4.018-186.227,10.848C114.491,429.757,147.712,442.3,288,442.3
		c140.288,0,173.508-12.543,186.227-31.404C421.408,404.065,357.246,400.048,288,400.048z"/>
	<g>
		<path fill="#D1D3D4" d="M67.132,243.914c0.387,4.67,0.885,9.756,1.479,15.197h135.393c-10.599-6.236-23.061-11.232-36.395-15.197
			H67.132z"/>
		<path fill="#D1D3D4" d="M76.864,318.783h158.617c0.479-5.111,0.491-10.221-0.071-15.197H74.49
			C75.252,308.646,76.05,313.725,76.864,318.783z"/>
		<path fill="#D1D3D4" d="M84.842,363.259c1.101,5.447,2.188,10.555,3.243,15.193h110.865c3.127-1.684,6.056-3.463,8.656-5.393
			c3.649-2.703,7.018-6.041,10.098-9.801H84.842z"/>
		<path fill="#D1D3D4" d="M70.347,273.748c0.623,4.936,1.295,10.014,2.018,15.197H231.91c-2.127-5.57-5.229-10.684-9.274-15.197
			H70.347z"/>
		<path fill="#D1D3D4" d="M79.306,333.42c0.892,5.188,1.799,10.278,2.708,15.198h144.972c2.367-4.814,4.332-9.914,5.789-15.198
			H79.306z"/>
	</g>
	<path fill="#E6E7E8" d="M393.066,331.389c0,17.388-14.092,31.483-31.482,31.483c-17.381,0-31.477-14.096-31.477-31.483
		c0-17.385,14.096-31.479,31.477-31.479C378.975,299.91,393.066,314.004,393.066,331.389z"/>
	<g>
		<path fill="#FFFFFF" d="M423.168,269.809c-34.01-34.012-89.154-34.012-123.164,0l24.688,24.684
			c20.375-20.375,53.414-20.379,73.789,0L423.168,269.809z"/>
	</g>
	<path fill="#ED1C24" d="M363.613,279.307l-2.031-30.283l-2.027,30.283C360.908,279.254,362.26,279.254,363.613,279.307z"/>
	<path fill="#A7A9AC" d="M346.488,378.45c0,5.355-4.336,9.691-9.689,9.691s-9.693-4.336-9.693-9.691c0-5.352,4.34-9.689,9.693-9.689
		S346.488,373.099,346.488,378.45z"/>
	<g>
		<path fill="#D1D3D4" d="M505.652,273.748h-42.934c-1.219,4.576-2.117,9.645-2.686,15.197h43.602
			C504.357,283.762,505.029,278.684,505.652,273.748z"/>
		<path fill="#D1D3D4" d="M499.137,318.783c0.812-5.059,1.609-10.137,2.373-15.197h-42.221c0.002,5.219,0.09,10.281,0.271,15.197
			H499.137z"/>
		<path fill="#D1D3D4" d="M493.986,348.618c0.908-4.92,1.816-10.01,2.707-15.198h-36.209c0.486,5.306,1.137,10.397,2.02,15.198
			H493.986z"/>
		<path fill="#D1D3D4" d="M468.479,259.111h38.908c0.596-5.441,1.094-10.527,1.48-15.197h-27.596
			C476.275,247.766,471.951,252.762,468.479,259.111z"/>
		<path fill="#D1D3D4" d="M487.914,378.452c1.055-4.639,2.145-9.746,3.242-15.193h-24.93c1.875,5.594,4.195,10.699,7.115,15.193
			H487.914z"/>
	</g>
</g>
<linearGradient id="SVGID_1_" gradientUnits="userSpaceOnUse" x1="68.3374" y1="297.3535" x2="507.6621" y2="297.3535">
	<stop  offset="0" style="stop-color:#000000"/>
	<stop  offset="0.07" style="stop-color:#000000;stop-opacity:0.8625"/>
	<stop  offset="0.5092" style="stop-color:#000000;stop-opacity:0"/>
	<stop  offset="0.9325" style="stop-color:#000000;stop-opacity:0.8625"/>
	<stop  offset="1" style="stop-color:#000000"/>
</linearGradient>
<path opacity="0.2" fill="url(#SVGID_1_)" d="M288,442.3c-168.17,0-182.512-18.016-192.079-43.346S68.337,261.045,68.337,226.146
	c0-56.856,82.742-73.74,219.662-73.74c136.92,0,219.663,16.884,219.663,73.74c0,34.898-18.016,147.478-27.582,172.808
	C470.512,424.284,456.17,442.3,288,442.3"/>
<path opacity="0.3" fill="#F0D693" stroke="#000000" stroke-width="0.5" stroke-miterlimit="10" d="M288,442.3
	c-168.17,0-182.512-18.016-192.079-43.346S68.337,261.045,68.337,226.146c0-56.856,82.742-73.74,219.662-73.74
	c136.92,0,219.663,16.884,219.663,73.74c0,34.898-18.016,147.478-27.582,172.808C470.512,424.284,456.17,442.3,288,442.3"/>
</svg>
