<?xml version="1.0" encoding="utf-8"?>
<!-- Generator: Adobe Illustrator 15.0.0, SVG Export Plug-In . SVG Version: 6.00 Build 0)  -->
<!DOCTYPE svg PUBLIC "-//W3C//DTD SVG 1.1//EN" "http://www.w3.org/Graphics/SVG/1.1/DTD/svg11.dtd">
<svg version="1.1" id="Layer_1" xmlns="http://www.w3.org/2000/svg" xmlns:xlink="http://www.w3.org/1999/xlink" x="0px" y="0px"
	 width="576px" height="468px" viewBox="0 0 576 468" enable-background="new 0 0 576 468" xml:space="preserve">
<g>
	<polygon fill="#003432" points="178.025,455.348 136.055,455.348 133.879,410.568 180.201,410.568 	"/>
	<polygon fill="#003232" points="439.938,455.348 397.968,455.348 395.792,410.568 442.112,410.568 	"/>
	<path fill="#003432" d="M287.996,446.002c-142.623,0-219.33-3.176-219.33-125.442v-77.833c0-122.266,76.707-125.442,219.33-125.442
		c142.624,0,219.331,3.176,219.331,125.442v77.833C507.327,442.826,430.62,446.002,287.996,446.002z"/>
	<path fill="#467684" d="M287.996,130.329c-146.74,0-206.285,4.307-206.285,112.398v77.833
		c0,108.089,59.545,112.399,206.285,112.399c146.741,0,206.288-4.311,206.288-112.399v-77.833
		C494.284,134.636,434.737,130.329,287.996,130.329z"/>
	
		<line fill="none" stroke="#48331B" stroke-width="4.3475" stroke-linecap="round" stroke-miterlimit="10" x1="128.309" y1="178.083" x2="447.683" y2="178.083"/>
	
		<line fill="none" stroke="#48331B" stroke-width="4.3475" stroke-linecap="round" stroke-miterlimit="10" x1="126.135" y1="188.855" x2="449.858" y2="188.855"/>
	
		<line fill="none" stroke="#48331B" stroke-width="4.3475" stroke-linecap="round" stroke-miterlimit="10" x1="123.963" y1="199.627" x2="452.03" y2="199.627"/>
	
		<line fill="none" stroke="#48331B" stroke-width="4.3475" stroke-linecap="round" stroke-miterlimit="10" x1="121.787" y1="210.398" x2="454.204" y2="210.398"/>
	
		<line fill="none" stroke="#48331B" stroke-width="4.3475" stroke-linecap="round" stroke-miterlimit="10" x1="119.613" y1="221.174" x2="456.38" y2="221.174"/>
	
		<line fill="none" stroke="#48331B" stroke-width="4.3475" stroke-linecap="round" stroke-miterlimit="10" x1="117.441" y1="231.947" x2="458.554" y2="231.947"/>
	
		<line fill="none" stroke="#48331B" stroke-width="4.3475" stroke-linecap="round" stroke-miterlimit="10" x1="115.27" y1="242.717" x2="460.724" y2="242.717"/>
	
		<line fill="none" stroke="#48331B" stroke-width="4.3475" stroke-linecap="round" stroke-miterlimit="10" x1="113.094" y1="253.494" x2="462.899" y2="253.494"/>
	
		<line fill="none" stroke="#48331B" stroke-width="4.3475" stroke-linecap="round" stroke-miterlimit="10" x1="110.918" y1="264.268" x2="465.075" y2="264.268"/>
	
		<line fill="none" stroke="#48331B" stroke-width="4.3475" stroke-linecap="round" stroke-miterlimit="10" x1="108.748" y1="275.04" x2="467.245" y2="275.04"/>
	
		<line fill="none" stroke="#48331B" stroke-width="4.3475" stroke-linecap="round" stroke-miterlimit="10" x1="106.57" y1="285.815" x2="469.419" y2="285.815"/>
	<path fill="#003432" d="M437.903,317.069H138.092c-7.176,0-13.043,5.87-13.043,13.044v48.299c0,7.176,5.867,13.045,13.043,13.045
		h299.812c7.172,0,13.041-5.869,13.041-13.045v-48.299C450.944,322.939,445.075,317.069,437.903,317.069z"/>
	<g>
		<g>
			<circle fill="#E7C157" cx="173.666" cy="354.266" r="26.879"/>
			<path fill="#F0D697" d="M190.779,354.266c0,9.451-7.664,17.107-17.113,17.107s-17.111-7.656-17.111-17.107
				c0-9.455,7.662-17.113,17.111-17.113S190.779,344.811,190.779,354.266z"/>
		</g>
		<g>
			<path fill="#E7C157" d="M429.208,354.266c0,14.844-12.037,26.877-26.879,26.877c-14.848,0-26.883-12.033-26.883-26.877
				c0-14.846,12.035-26.883,26.883-26.883C417.171,327.383,429.208,339.42,429.208,354.266z"/>
			<path fill="#F0D697" d="M419.44,354.266c0,9.451-7.662,17.107-17.111,17.107c-9.451,0-17.115-7.656-17.115-17.107
				c0-9.455,7.664-17.113,17.115-17.113C411.778,337.152,419.44,344.811,419.44,354.266z"/>
		</g>
	</g>
	<rect x="212.045" y="329.957" fill="#F0D693" width="151.903" height="24.309"/>
</g>
<linearGradient id="SVGID_1_" gradientUnits="userSpaceOnUse" x1="68.666" y1="281.6436" x2="507.3271" y2="281.6436">
	<stop  offset="0" style="stop-color:#000000"/>
	<stop  offset="0.07" style="stop-color:#000000;stop-opacity:0.8625"/>
	<stop  offset="0.5092" style="stop-color:#000000;stop-opacity:0"/>
	<stop  offset="0.9325" style="stop-color:#000000;stop-opacity:0.8625"/>
	<stop  offset="1" style="stop-color:#000000"/>
</linearGradient>
<path opacity="0.2" fill="url(#SVGID_1_)" d="M287.996,446.002c-142.623,0-219.33-3.176-219.33-125.442v-77.833
	c0-122.266,76.707-125.442,219.33-125.442c142.624,0,219.331,3.176,219.331,125.442v77.833
	C507.327,442.826,430.62,446.002,287.996,446.002z"/>
</svg>
