<?xml version="1.0" encoding="utf-8"?>
<!-- Generator: Adobe Illustrator 15.0.0, SVG Export Plug-In . SVG Version: 6.00 Build 0)  -->
<!DOCTYPE svg PUBLIC "-//W3C//DTD SVG 1.1//EN" "http://www.w3.org/Graphics/SVG/1.1/DTD/svg11.dtd">
<svg version="1.1" id="Layer_1" xmlns="http://www.w3.org/2000/svg" xmlns:xlink="http://www.w3.org/1999/xlink" x="0px" y="0px"
	 width="576px" height="468px" viewBox="0 0 576 468" enable-background="new 0 0 576 468" xml:space="preserve">
<g>
	<path fill="#58AA55" d="M143.738,424.715c0,0-29.246-145.646-29.246-249.485c0-103.838,92.488-152.937,174.376-152.937
		c81.885,0,174.371,49.099,174.371,152.937c0,103.839-29.244,249.485-29.244,249.485H143.738z"/>
	<path fill="#1A6734" d="M177.667,424.715c0,0-53.229-232.841-4.684-259.119c0.628,4.726-20.167-111.718,115.883-111.718
		c34.512,0,129.338,10.528,115.883,111.718c48.547,26.278-4.684,259.119-4.684,259.119H177.667z"/>
	<path fill="#8DCB88" d="M196.054,424.715c0,0-47.637-224.741-10.204-252.099c-9.941-77.795,42.183-104.7,103.017-104.7
		s112.957,26.905,103.016,104.7c37.434,27.357-10.203,252.099-10.203,252.099H196.054z"/>
	<path fill="#1F451F" d="M318.737,301.205c0,16.678-13.521,30.197-30.201,30.197c-16.678,0-30.197-13.52-30.197-30.197
		c0-16.682,13.52-30.201,30.197-30.201C305.216,271.004,318.737,284.523,318.737,301.205z"/>
	<path fill="#1A6734" d="M307.831,301.205c0,10.654-8.637,19.293-19.295,19.293c-10.654,0-19.293-8.639-19.293-19.293
		c0-10.658,8.639-19.297,19.293-19.297C299.194,281.908,307.831,290.547,307.831,301.205z"/>
	<g>
		<path fill="#1A6734" d="M243.276,369.732c0,9.691-7.855,17.549-17.552,17.549c-9.689,0-17.546-7.857-17.546-17.549
			c0-9.689,7.856-17.547,17.546-17.547C235.421,352.186,243.276,360.043,243.276,369.732z"/>
		<circle fill="#1A6734" cx="351.353" cy="369.732" r="17.547"/>
	</g>
	<path fill="#1F451F" d="M190.072,203.348c-26.447,21.206,34.441,66.725,47.993,55.855
		C251.616,248.336,216.514,182.146,190.072,203.348z M212.854,124.067c-9.359,33.34,39.188,120.188,62.002,120.188h2.865V82.243
		C252.802,83.619,222.129,91.025,212.854,124.067z M387.005,203.348c-26.441-21.202-61.543,44.988-47.992,55.855
		C352.563,270.072,413.452,224.554,387.005,203.348z M364.222,124.067c-9.273-33.039-39.943-40.448-64.861-41.825v162.012h2.861
		C325.036,244.255,373.583,157.407,364.222,124.067z"/>
	<g>
		<defs>
			<path id="SVGID_1_" d="M190.072,203.348c-26.447,21.206,34.441,66.725,47.993,55.855
				C251.616,248.336,216.514,182.146,190.072,203.348z M212.854,124.067c-9.359,33.34,39.188,120.188,62.002,120.188h2.865V82.243
				C252.802,83.619,222.129,91.025,212.854,124.067z M387.005,203.348c-26.441-21.202-61.543,44.988-47.992,55.855
				C352.563,270.072,413.452,224.554,387.005,203.348z M364.222,124.067c-9.273-33.039-39.943-40.448-64.861-41.825v162.012h2.861
				C325.036,244.255,373.583,157.407,364.222,124.067z"/>
		</defs>
		<clipPath id="SVGID_2_">
			<use xlink:href="#SVGID_1_"  overflow="visible"/>
		</clipPath>
		<g clip-path="url(#SVGID_2_)">
			<g>
				
					<line fill="none" stroke="#E8C453" stroke-width="1.2515" stroke-miterlimit="10" x1="219.423" y1="-31.519" x2="550.612" y2="299.672"/>
				
					<line fill="none" stroke="#E8C453" stroke-width="1.2515" stroke-miterlimit="10" x1="195.338" y1="-31.519" x2="526.526" y2="299.672"/>
				
					<line fill="none" stroke="#E8C453" stroke-width="1.2515" stroke-miterlimit="10" x1="171.252" y1="-31.519" x2="502.442" y2="299.672"/>
				
					<line fill="none" stroke="#E8C453" stroke-width="1.2515" stroke-miterlimit="10" x1="147.168" y1="-31.519" x2="478.356" y2="299.672"/>
				
					<line fill="none" stroke="#E8C453" stroke-width="1.2515" stroke-miterlimit="10" x1="123.082" y1="-31.519" x2="454.271" y2="299.672"/>
				
					<line fill="none" stroke="#E8C453" stroke-width="1.2515" stroke-miterlimit="10" x1="98.998" y1="-31.519" x2="430.187" y2="299.672"/>
				
					<line fill="none" stroke="#E8C453" stroke-width="1.2515" stroke-miterlimit="10" x1="74.912" y1="-31.519" x2="406.101" y2="299.672"/>
				
					<line fill="none" stroke="#E8C453" stroke-width="1.2515" stroke-miterlimit="10" x1="50.827" y1="-31.519" x2="382.017" y2="299.672"/>
				
					<line fill="none" stroke="#E8C453" stroke-width="1.2515" stroke-miterlimit="10" x1="26.742" y1="-31.519" x2="357.931" y2="299.672"/>
				
					<line fill="none" stroke="#E8C453" stroke-width="1.2515" stroke-miterlimit="10" x1="2.656" y1="-31.519" x2="333.845" y2="299.672"/>
				
					<line fill="none" stroke="#E8C453" stroke-width="1.2515" stroke-miterlimit="10" x1="-21.428" y1="-31.519" x2="309.761" y2="299.672"/>
				
					<line fill="none" stroke="#E8C453" stroke-width="1.2515" stroke-miterlimit="10" x1="-45.514" y1="-31.519" x2="285.676" y2="299.672"/>
				
					<line fill="none" stroke="#E8C453" stroke-width="1.2515" stroke-miterlimit="10" x1="-69.598" y1="-31.519" x2="261.593" y2="299.672"/>
				
					<line fill="none" stroke="#E8C453" stroke-width="1.2515" stroke-miterlimit="10" x1="-93.684" y1="-31.519" x2="237.507" y2="299.672"/>
			</g>
			<g>
				
					<line fill="none" stroke="#E8C453" stroke-width="1.2515" stroke-miterlimit="10" x1="339.571" y1="299.674" x2="670.761" y2="-31.517"/>
				
					<line fill="none" stroke="#E8C453" stroke-width="1.2515" stroke-miterlimit="10" x1="315.485" y1="299.674" x2="646.675" y2="-31.517"/>
				
					<line fill="none" stroke="#E8C453" stroke-width="1.2515" stroke-miterlimit="10" x1="291.399" y1="299.674" x2="622.591" y2="-31.517"/>
				
					<line fill="none" stroke="#E8C453" stroke-width="1.2515" stroke-miterlimit="10" x1="267.317" y1="299.674" x2="598.505" y2="-31.517"/>
				
					<line fill="none" stroke="#E8C453" stroke-width="1.2515" stroke-miterlimit="10" x1="243.233" y1="299.674" x2="574.421" y2="-31.517"/>
				
					<line fill="none" stroke="#E8C453" stroke-width="1.2515" stroke-miterlimit="10" x1="219.146" y1="299.674" x2="550.335" y2="-31.517"/>
				
					<line fill="none" stroke="#E8C453" stroke-width="1.2515" stroke-miterlimit="10" x1="195.062" y1="299.674" x2="526.251" y2="-31.517"/>
				
					<line fill="none" stroke="#E8C453" stroke-width="1.2515" stroke-miterlimit="10" x1="170.977" y1="299.674" x2="502.165" y2="-31.517"/>
				
					<line fill="none" stroke="#E8C453" stroke-width="1.2515" stroke-miterlimit="10" x1="146.891" y1="299.674" x2="478.079" y2="-31.517"/>
				
					<line fill="none" stroke="#E8C453" stroke-width="1.2515" stroke-miterlimit="10" x1="122.807" y1="299.674" x2="453.995" y2="-31.517"/>
				
					<line fill="none" stroke="#E8C453" stroke-width="1.2515" stroke-miterlimit="10" x1="98.721" y1="299.674" x2="429.909" y2="-31.517"/>
				
					<line fill="none" stroke="#E8C453" stroke-width="1.2515" stroke-miterlimit="10" x1="74.636" y1="299.674" x2="405.825" y2="-31.517"/>
				
					<line fill="none" stroke="#E8C453" stroke-width="1.2515" stroke-miterlimit="10" x1="50.551" y1="299.674" x2="381.739" y2="-31.517"/>
				
					<line fill="none" stroke="#E8C453" stroke-width="1.2515" stroke-miterlimit="10" x1="26.466" y1="299.674" x2="357.655" y2="-31.517"/>
			</g>
		</g>
	</g>
	<path fill="none" stroke="#E8C453" stroke-width="5.0062" stroke-miterlimit="10" d="M190.072,203.348
		c-26.447,21.206,34.441,66.725,47.993,55.855C251.616,248.336,216.514,182.146,190.072,203.348z M212.854,124.067
		c-9.359,33.34,39.188,120.188,62.002,120.188h2.865V82.243C252.802,83.619,222.129,91.025,212.854,124.067z M387.005,203.348
		c-26.441-21.202-61.543,44.988-47.992,55.855C352.563,270.072,413.452,224.554,387.005,203.348z M364.222,124.067
		c-9.273-33.039-39.943-40.448-64.861-41.825v162.012h2.861C325.036,244.255,373.583,157.407,364.222,124.067z"/>
	<rect x="137.424" y="424.715" fill="#1A6734" width="302.884" height="15.932"/>
	<rect x="132.418" y="440.646" fill="#1F451F" width="64.904" height="15.93"/>
	<rect x="380.409" y="440.646" fill="#1F451F" width="64.906" height="15.93"/>
</g>
<linearGradient id="SVGID_3_" gradientUnits="userSpaceOnUse" x1="114.4922" y1="223.5039" x2="463.2393" y2="223.5039">
	<stop  offset="0" style="stop-color:#000000"/>
	<stop  offset="0.07" style="stop-color:#000000;stop-opacity:0.8625"/>
	<stop  offset="0.5092" style="stop-color:#000000;stop-opacity:0"/>
	<stop  offset="0.9325" style="stop-color:#000000;stop-opacity:0.8625"/>
	<stop  offset="1" style="stop-color:#000000"/>
</linearGradient>
<path opacity="0.2" fill="url(#SVGID_3_)" d="M143.738,424.715c0,0-29.246-145.646-29.246-249.485
	c0-103.838,92.488-152.937,174.376-152.937c81.885,0,174.371,49.099,174.371,152.937c0,103.839-29.244,249.485-29.244,249.485
	H143.738z"/>
<linearGradient id="SVGID_4_" gradientUnits="userSpaceOnUse" x1="287.1343" y1="424" x2="287.1342" y2="21.5786">
	<stop  offset="0" style="stop-color:#000000"/>
	<stop  offset="0.0896" style="stop-color:#000000;stop-opacity:0.9104"/>
	<stop  offset="1" style="stop-color:#000000;stop-opacity:0"/>
</linearGradient>
<path opacity="0.3" fill="url(#SVGID_4_)" d="M142.007,424c0,0-29.246-145.646-29.246-249.485
	c0-103.838,92.488-152.937,174.376-152.937c81.885,0,174.371,49.099,174.371,152.937c0,103.839-29.244,249.485-29.244,249.485
	H142.007z"/>
</svg>
