<?xml version="1.0" encoding="utf-8"?>
<!-- Generator: Adobe Illustrator 15.0.0, SVG Export Plug-In . SVG Version: 6.00 Build 0)  -->
<!DOCTYPE svg PUBLIC "-//W3C//DTD SVG 1.1//EN" "http://www.w3.org/Graphics/SVG/1.1/DTD/svg11.dtd">
<svg version="1.1" id="Layer_1" xmlns="http://www.w3.org/2000/svg" xmlns:xlink="http://www.w3.org/1999/xlink" x="0px" y="0px"
	 width="504px" height="504px" viewBox="0 0 504 504" enable-background="new 0 0 504 504" xml:space="preserve">
<path fill="#D56A27" stroke="#231F20" stroke-width="2" stroke-miterlimit="10" d="M344.059,499.854H159.805
	c-72.684,0-131.61-58.922-131.61-131.606V135.754c0-72.687,58.927-131.608,131.61-131.608h184.253
	c72.688,0,131.61,58.922,131.61,131.608v232.492C475.669,440.932,416.745,499.854,344.059,499.854"/>
<g>
	<g>
		<defs>
			<rect id="SVGID_1_" x="61.994" y="65.321" width="379.848" height="405.384"/>
		</defs>
		<clipPath id="SVGID_2_">
			<use xlink:href="#SVGID_1_"  overflow="visible"/>
		</clipPath>
		<g clip-path="url(#SVGID_2_)">
			<g>
				<defs>
					<rect id="SVGID_3_" x="61.994" y="65.319" width="379.848" height="405.386"/>
				</defs>
				<clipPath id="SVGID_4_">
					<use xlink:href="#SVGID_3_"  overflow="visible"/>
				</clipPath>
				<g clip-path="url(#SVGID_4_)">
					
						<image overflow="visible" enable-background="new    " width="836" height="891" xlink:href="78FAD233.png"  transform="matrix(0.4544 0 0 0.455 61.9937 65.3184)">
					</image>
				</g>
			</g>
		</g>
		<path clip-path="url(#SVGID_2_)" fill="#F3EDD8" d="M405.522,161.883c-6.273-33.26-30.416-63.892-64.76-70.428
			c-37.366-7.112-71.575,13.164-96.101,39.712c-16.004-22.503-43.24-36.39-71.105-34.98c-30.049,1.521-58.312,21.567-70.271,49.08
			c-14.327,32.961-4.822,71.989,9.664,103.198c14.061,30.294,35.407,57.219,61.94,77.537c20.763,15.898,47.129,26.262,66.986,43.646
			c1.315,1.731,2.895,3.231,4.705,4.391c1.893,1.881,3.737,3.814,5.463,5.877c-6.817,7.883-12.693,16.703-13.407,26.096
			c-0.837,10.98,7.464,22.912,19.52,20.478c13.931-2.816,17.329-18.447,13.684-30.229c-1.743-5.637-4.524-10.914-7.938-15.809
			c10.636-12.271,22.695-23.496,34.531-34.375C349.606,299.045,420.389,240.696,405.522,161.883 M263.463,411.561
			c-3.682,8.535-14.095,7.08-15.812-1.707c-1.239-6.323,3.033-12.528,6.568-17.342c1.188-1.619,2.434-3.195,3.678-4.775
			C262.498,394.746,266.777,403.875,263.463,411.561 M252.068,366.924c-1.27-1.197-2.564-2.344-3.867-3.469
			c-3.865-5.797-1.035-14.375,1.928-19.967c1.682-3.172,3.577-6.283,5.596-9.352c6.064,5.961,10.896,12.973,10.402,20.956
			C265.732,361.465,258.874,370.275,252.068,366.924 M272.714,297.494c-1.293-4.121-3.435-7.797-6.198-11.115
			c2.219-2.035,4.478-3.977,6.658-5.822c22.148-18.686,54.105-40.811,45.271-74.489c-3.783-14.427-15.567-24.641-30.743-24.801
			c-17.729-0.184-31.348,11.293-42.328,24.026c-12.477-22.633-45.568-25.474-59.909-1.967c-17.735,29.071,12.3,53.841,35.918,65.335
			c9.294,4.522,22.765,9.812,32.32,17.771c-4.517,4.979-8.335,10.457-10.506,16.588c-0.971,2.744-1.375,5.693-1.223,8.539
			c-10.436-7.656-21.346-14.637-32.133-21.774c-22.457-14.863-45.515-31.164-59.35-54.895c-14.708-25.24-16.487-60.384,8.515-79.922
			c29.287-22.884,61.622,3.779,83.036,24.622c-0.225,3.67,4.975,6.787,8.012,3.167c17.062-20.327,37.364-44.061,66.354-43.919
			c32.042,0.155,43.927,34.419,35.489,60.939c-8.679,27.28-31.46,46.435-50.82,66.216
			C291.215,276.066,281.727,286.584,272.714,297.494 M257.689,317.195c-0.889,0.086-1.851-0.031-2.881-0.404
			c-5.083-1.838-3.777-9.865-1.914-13.645c1.807-3.662,4.299-7.045,7.108-10.209c2.618,3.477,4.435,7.379,5.021,11.811
			C265.6,309.096,262.927,316.691,257.689,317.195 M242.607,215.348c1.734,1.529,4.488,1.923,6.367-0.396
			c10.963-13.524,28.493-31.104,47.799-22.915c15.373,6.521,16.695,27.055,10.666,40.386c-7.392,16.341-22.705,27.076-36.17,38.097
			c-3.633,2.974-7.486,6.133-11.183,9.531c-14.417-11.883-36.511-18.82-49.334-27.447c-15.029-10.109-29.446-29.025-16.3-46.661
			c12.347-16.556,37.093-11.933,44.509,6.667C239.681,214.414,241.109,215.234,242.607,215.348 M270.191,338.219
			c-2.559-4.162-5.808-7.906-9.373-11.377c0.537-0.73,1.101-1.445,1.646-2.172c2.208-2.926,28.023-34.068,39.645-46.053
			c12.157-12.535,24.662-24.764,35.99-38.075c15.996-18.793,29.466-43.537,24.898-69.031c-4.482-25.021-24.329-42.969-50.263-41.517
			c-28.019,1.566-48.236,22.018-65.487,42.199c-18.213-17.784-39.615-36.355-66.731-34.73c-21.31,1.276-38.985,17.406-46.151,36.932
			c-19.549,53.273,30.747,96.492,69.831,122.359c12.549,8.307,25.311,16.346,37.229,25.561c2.381,1.838,5.112,3.89,7.865,6.131
			c-0.829,1.21-1.683,2.404-2.501,3.621c-4.633,6.894-9.101,14.634-9.405,22.947c-22.744-16.34-48.723-27.643-69.719-46.725
			c-25.607-23.277-45.012-53.416-55.447-86.418c-6.865-21.711-10.312-46.179-2.626-68.168c6.071-17.365,19.383-31.671,35.474-40.476
			c52.309-28.626,98.82,32.801,98.744,32.66c23.814-26.57,64.552-54.855,101.346-44.208c33.519,9.698,52.795,45.008,53.085,78.256
			c0.679,78.178-72.556,126.356-123.24,176.129C275.491,349.918,273.57,343.711,270.191,338.219"/>
	</g>
</g>
</svg>
