<?xml version="1.0" encoding="utf-8"?>
<!-- Generator: Adobe Illustrator 15.0.0, SVG Export Plug-In . SVG Version: 6.00 Build 0)  -->
<!DOCTYPE svg PUBLIC "-//W3C//DTD SVG 1.1//EN" "http://www.w3.org/Graphics/SVG/1.1/DTD/svg11.dtd">
<svg version="1.1" id="Layer_1" xmlns="http://www.w3.org/2000/svg" xmlns:xlink="http://www.w3.org/1999/xlink" x="0px" y="0px"
	 width="504px" height="504px" viewBox="0 0 504 504" enable-background="new 0 0 504 504" xml:space="preserve">
<path fill="#3E7299" stroke="#231F20" stroke-width="2" stroke-miterlimit="10" d="M344.128,499.854H159.874
	c-72.686,0-131.61-58.922-131.61-131.607v-232.49c0-72.686,58.925-131.608,131.61-131.608h184.254
	c72.687,0,131.609,58.923,131.609,131.608v232.49C475.737,440.932,416.812,499.854,344.128,499.854"/>
<g>
	<g>
		<defs>
			<rect id="SVGID_1_" x="64.191" y="90.741" width="386.23" height="361.607"/>
		</defs>
		<clipPath id="SVGID_2_">
			<use xlink:href="#SVGID_1_"  overflow="visible"/>
		</clipPath>
		<g clip-path="url(#SVGID_2_)">
			<g>
				<defs>
					<rect id="SVGID_3_" x="64.189" y="90.741" width="386.232" height="361.607"/>
				</defs>
				<clipPath id="SVGID_4_">
					<use xlink:href="#SVGID_3_"  overflow="visible"/>
				</clipPath>
				<g transform="matrix(1 0 0 1 0 0)" clip-path="url(#SVGID_4_)">
					
						<image overflow="visible" enable-background="new    " width="849" height="797" xlink:href="8D5FA490.png"  transform="matrix(0.4549 0 0 0.4537 64.1899 90.7412)">
					</image>
				</g>
			</g>
		</g>
		<path clip-path="url(#SVGID_2_)" fill="#F3EDD8" d="M406.7,161.936c-12.785-27.795-38.896-45.28-69.529-46.428
			c-33.93-1.269-63.83,15.614-88.02,37.979c-20.414-18.996-44.659-35.046-72.987-37.271c-30.517-2.399-61.142,11.667-72.556,41.317
			c-13.135,34.117,0.87,71.73,16.116,102.677c14.615,29.661,34.04,56.985,57.175,80.604c23.618,24.107,50.871,44.188,80.794,59.649
			c-0.116,0.074-0.229,0.153-0.34,0.229c-4.859,3.142,0.906,10.079,5.738,6.958c1.299-0.841,2.566-1.725,3.855-2.575
			c0.055,0.025,0.104,0.052,0.158,0.076c3.312,1.576,5.797-1.21,5.867-4.1c19.656-13.438,69.566-58.468,74.427-63.649
			c23.815-25.408,46.707-53.795,59.397-86.587C417.837,222.3,419.688,190.172,406.7,161.936 M325.856,124.764
			c28.272-2.527,54.336,9.746,68.692,33.469c-11.104,13.522-32.75,30.385-32.75,30.385c-11.961-8.412-43.647-36.206-56.473-43.651
			c-11.348-6.589-9.137-3.162-18.893,4.416c-8.412,6.535-16.654,13.309-24.869,20.12c0.701-1.354,0.666-3.009-0.752-4.49
			c-1.692-1.765-3.422-3.523-5.172-5.271C275.302,141.635,298.663,127.194,325.856,124.764 M161.898,125.294
			c31.233-3.058,58.561,13.908,80.778,34.45c-1.234,1.241-2.461,2.492-3.663,3.758c-3.941,4.148,1.74,11.168,5.741,6.958
			c1.439-1.518,2.909-3.02,4.395-4.507c1.598,1.592,3.17,3.193,4.708,4.8c1.42,1.48,3.217,1.697,4.766,1.193
			c-5.025,4.171-10.048,8.342-15.091,12.478c-19.317-17.135-38.635-34.274-57.95-51.411c-0.812-0.718-2.529-0.666-3.298,0.113
			c-13.432,13.652-26.865,27.301-40.301,40.954c-7.728-8.238-15.456-16.479-23.189-24.717
			C128.208,136.07,143.075,127.14,161.898,125.294 M107.494,189.751c-0.146-4.201,0.084-8.273,0.602-12.224
			c11.133,8.979,22.268,17.957,33.398,26.934c0.744,1.375,2.507,2.193,4.006,0.857c13.797-12.287,27.597-24.574,41.396-36.862
			c19.247,14.446,38.495,28.895,57.742,43.342c1.093,0.82,2.239,0.635,3.063-0.012c0.189-0.093,0.379-0.209,0.562-0.361
			c17.665-14.491,35.33-28.984,52.994-43.476c19.064,14.223,38.129,28.442,57.197,42.665c0.969,0.724,1.979,0.654,2.771,0.182
			c0.775,0.282,1.675,0.25,2.523-0.336c13.549-9.314,27.098-18.625,40.646-27.939c1.812,7.353,2.628,14.702,2.646,22.011
			c-16.023,12.167-32.047,24.335-48.07,36.499l-48.567-41.189c-0.316-0.269-0.642-0.438-0.966-0.534
			c-0.661-0.584-1.594-0.787-2.629-0.176c-21.805,12.84-41.347,28.568-58.58,47.063l-61.399-46.476
			c-1.242-0.938-2.552-0.577-3.379,0.295c-0.427,0.07-0.861,0.254-1.275,0.61c-13.875,11.892-27.748,23.785-41.623,35.679
			c-10.202-9.055-20.403-18.105-30.604-27.158C108.6,202.7,107.722,196.221,107.494,189.751 M266.301,394.727
			c-17.077-8.438-33.31-18.506-48.488-29.97c1.004-0.709,2.007-1.418,3.009-2.126c0.146,0.116,0.303,0.225,0.479,0.316
			c14.141,7.486,28.28,14.971,42.42,22.457c1.524,0.806,2.756-0.031,3.243-1.278c9.464-6.156,18.929-12.313,28.392-18.472
			c0.181,0.404,0.457,0.756,0.857,0.979c1.439,0.803,2.881,1.604,4.322,2.402C289.538,378.126,278.111,386.699,266.301,394.727
			 M340.604,331.577c-4.983,5.302-10.125,10.446-15.366,15.479c-4.746-3.621-9.49-7.242-14.236-10.863
			c-1.266-0.965-2.602-0.566-3.424,0.347c-0.123,0.056-0.244,0.104-0.365,0.183c-14.854,9.406-29.713,18.813-44.571,28.219
			c-0.373-0.303-0.879-0.49-1.529-0.49c-0.541,0-1.002,0.143-1.397,0.365c-18.937-8.623-36.044-20.119-51.265-34.297
			c-1.345-1.252-2.848-0.597-3.598,0.643c-0.058,0.023-0.115,0.037-0.174,0.066c-5.463,2.724-10.929,5.445-16.392,8.17
			c-6.598-6.434-12.923-13.146-18.918-20.15l29.639-18.113c20.777,12.66,41.556,25.319,62.333,37.979
			c0.231,0.142,0.466,0.231,0.695,0.301c0.756,1.306,2.536,2.123,4.116,0.959l53.323-39.287l29.312,21.552
			C346.048,325.695,343.312,328.697,340.604,331.577 M382.378,278.78c-5.348,5.067-10.695,10.135-16.043,15.2
			c-16.574-10.369-33.152-20.741-49.727-31.111c-1.562-0.979-39.46,29.277-55.821,43.229c-0.018-0.009-0.027-0.021-0.047-0.031
			c-21.111-11.887-42.222-23.774-63.337-35.664c-1.158-0.65-2.342-0.395-3.188,0.261c-0.409,0.065-0.825,0.223-1.228,0.526
			c-12.707,9.537-25.411,19.072-38.115,28.611c-1.23-1.349-2.461-2.697-3.687-4.045c-3.708-5.301-7.271-10.704-10.627-16.238
			c-3.266-5.38-6.513-10.978-9.635-16.738c3.86,3.521,7.72,7.041,11.581,10.562c0.61,0.56,1.253,0.726,1.843,0.636
			c0.835,0.426,1.866,0.455,2.822-0.274c15.26-11.685,30.517-23.364,45.774-35.048c19.907,13.044,39.814,26.088,59.721,39.131
			c0.97,0.635,1.964,0.561,2.755,0.121c0.531-0.115,1.054-0.395,1.498-0.879c14.78-16.168,32.407-28.99,52.272-38.21
			c0.418-0.193,0.735-0.449,0.977-0.74c15.557,10.589,31.111,21.178,46.668,31.769c0.262,0.18,0.525,0.288,0.787,0.368
			c0.865,1.013,2.338,1.447,3.615,0.291c11.975-10.858,24.975-20.217,38.989-28.1C395.856,254.943,389.646,267.143,382.378,278.78"
			/>
	</g>
</g>
</svg>
