<?xml version="1.0" encoding="utf-8"?>
<!-- Generator: Adobe Illustrator 15.0.0, SVG Export Plug-In . SVG Version: 6.00 Build 0)  -->
<!DOCTYPE svg PUBLIC "-//W3C//DTD SVG 1.1//EN" "http://www.w3.org/Graphics/SVG/1.1/DTD/svg11.dtd">
<svg version="1.1" id="Layer_1" xmlns="http://www.w3.org/2000/svg" xmlns:xlink="http://www.w3.org/1999/xlink" x="0px" y="0px"
	 width="504px" height="504px" viewBox="0 0 504 504" enable-background="new 0 0 504 504" xml:space="preserve">
<path fill="#9E216E" stroke="#231F20" stroke-width="2" stroke-miterlimit="10" d="M344.128,504H159.873
	c-72.686,0-131.609-58.924-131.609-131.611V139.901c0-72.688,58.924-131.61,131.609-131.61h184.255
	c72.688,0,131.608,58.923,131.608,131.61v232.488C475.736,445.076,416.814,504,344.128,504"/>
<g>
	<g>
		<defs>
			<rect id="SVGID_1_" x="54.03" y="81.752" width="396.264" height="369.818"/>
		</defs>
		<clipPath id="SVGID_2_">
			<use xlink:href="#SVGID_1_"  overflow="visible"/>
		</clipPath>
		<g clip-path="url(#SVGID_2_)">
			<g>
				<defs>
					<rect id="SVGID_3_" x="54.03" y="81.752" width="396.264" height="369.818"/>
				</defs>
				<clipPath id="SVGID_4_">
					<use xlink:href="#SVGID_3_"  overflow="visible"/>
				</clipPath>
				<g transform="matrix(1 0 0 1 3.814697e-06 7.629395e-06)" clip-path="url(#SVGID_4_)">
					
						<image overflow="visible" enable-background="new    " width="871" height="814" xlink:href="4411F530.png"  transform="matrix(0.455 0 0 0.4543 54.0303 81.752)">
					</image>
				</g>
			</g>
		</g>
		<path clip-path="url(#SVGID_2_)" fill="#F1E9D5" d="M197.534,234.577c9.913,7.315,24.354,4.043,29.506-7.359
			c5.055-11.188-1.873-24.371-13.421-27.609c-12.343-3.458-24.077,4.103-28.201,15.786c-1.249,3.544,1.619,6.187,4.494,6.357
			C190.645,226.687,193.135,231.33,197.534,234.577 M218.67,215.962c0.606,1.79,0.734,3.781,0.188,5.867
			c-0.188,0.712-0.462,1.369-0.779,1.987C218.276,221.199,218.473,218.583,218.67,215.962 M215.968,226.533
			c-1.052,0.936-2.287,1.635-3.622,2.043c1.641-3.284,3.059-6.651,4.232-10.116C216.374,221.152,216.172,223.842,215.968,226.533
			 M213.73,209.992c1.024,0.61,1.944,1.361,2.731,2.229c-1.385,5.403-3.325,10.584-5.826,15.557
			C211.669,221.85,212.698,215.921,213.73,209.992 M208.771,208.331c0.963,0.105,1.898,0.332,2.793,0.651
			c-1.481,3.651-2.96,7.303-4.438,10.957C207.674,216.068,208.222,212.2,208.771,208.331 M210.752,216.037
			c-0.747,4.313-1.499,8.628-2.248,12.939c-0.995-0.083-1.984-0.313-2.941-0.697c0.178-0.093,0.334-0.239,0.423-0.46
			C207.574,223.892,209.164,219.964,210.752,216.037 M204.154,227.377c-0.013,0.081,0.004,0.151,0.009,0.223
			c-0.376-0.221-0.742-0.472-1.1-0.75c-0.861-0.676-1.55-1.427-2.113-2.223c1.802-4.266,3.604-8.531,5.406-12.796
			C205.622,217.012,204.887,222.197,204.154,227.377 M205.095,208.496c0.216-0.041,0.433-0.07,0.651-0.1
			c-0.581,1.373-1.159,2.746-1.74,4.119C204.367,211.175,204.731,209.835,205.095,208.496 M199.343,216.801
			c0.909-1.451,1.816-2.906,2.724-4.357c-0.838,3.099-1.677,6.197-2.52,9.296C199.089,220.148,199.05,218.465,199.343,216.801"/>
		<path clip-path="url(#SVGID_2_)" fill="#F1E9D5" d="M246.015,243.935c-1.344-0.227-2.423,0.082-3.247,0.685
			c-9.756,1.427-17.56,9.679-17.673,20.181c-0.137,12.885,10.808,22.689,23.354,22.834c12.209,0.139,23.423-9.361,23.379-21.924
			C271.779,251.165,258.146,245.967,246.015,243.935 M234.915,267.91c-0.1-0.426-0.186-0.855-0.241-1.301
			c-0.308-2.443,0.111-4.674,1.054-6.562C235.457,262.668,235.187,265.287,234.915,267.91 M240.352,275.619
			c-1.184-0.797-2.237-1.768-3.113-2.887c0.256-0.062,0.486-0.229,0.608-0.576c1.095-3.146,2.186-6.293,3.277-9.443
			C240.867,267.016,240.611,271.316,240.352,275.619 M241.599,255.564c-1.229,3.537-2.457,7.074-3.685,10.61l0.015-8.967
			c0-0.041-0.015-0.076-0.022-0.115c1.796-1.721,4.186-2.825,6.839-3.094c-0.597,3.299-1.19,6.601-1.788,9.896
			c0.155-2.627,0.315-5.26,0.471-7.889C243.491,254.969,241.966,254.506,241.599,255.564 M247.05,278.047
			c-1.565-0.174-3.091-0.58-4.505-1.213c0.872-4.82,1.74-9.641,2.612-14.459c-0.052,4.551-0.104,9.1-0.155,13.648
			c-0.012,1.213,1.699,1.436,1.893,0.209c0.133-0.873,0.271-1.746,0.404-2.619C247.217,275.092,247.132,276.568,247.05,278.047
			 M248.397,254.252c-0.453,2.898-0.902,5.799-1.354,8.695c0.033-2.984,0.066-5.971,0.1-8.955c0.278,0.025,0.557,0.041,0.839,0.086
			c0.167,0.023,0.312,0.01,0.472,0.021C248.435,254.152,248.408,254.193,248.397,254.252 M250.282,254.412
			c0.946,0.225,1.893,0.479,2.81,0.785c-0.535,6.215-1.822,12.221-3.871,18.047l1.065-18.785
			C250.29,254.441,250.282,254.43,250.282,254.412 M255.557,276.383c-1.529,0.832-3.2,1.408-4.903,1.637
			c-0.431,0.058-0.861,0.095-1.291,0.111c1.71-4.059,3.05-8.205,4.015-12.443c0.03,1.752,0.06,3.5,0.089,5.252
			c0.02,1.009,1.422,1.535,1.834,0.441c0.646-1.725,1.299-3.447,1.944-5.172C256.684,269.6,256.119,272.992,255.557,276.383
			 M255.27,266.064c-0.06-3.359-0.115-6.722-0.17-10.084c1.168,0.522,2.271,1.147,3.242,1.92
			C257.318,260.619,256.294,263.344,255.27,266.064 M260.225,259.855c0.604,0.791,1.14,1.649,1.51,2.67
			c0.264,0.707,0.412,1.406,0.517,2.098c-0.394-0.535-1.362-0.648-1.666,0.166c-0.709,1.902-1.418,3.801-2.127,5.703
			L260.225,259.855z M259.43,273.318c0.977-2.609,1.948-5.221,2.924-7.834C262.523,268.438,261.355,271.156,259.43,273.318"/>
		<path clip-path="url(#SVGID_2_)" fill="#F1E9D5" d="M307.653,239.708c10.558-4.713,15.271-17.693,9.899-28.053
			c-4.928-9.5-17.062-12.129-25.902-7.201c-11.434,1.443-17.696,14.315-12.994,24.682
			C283.573,239.983,296.947,244.485,307.653,239.708 M309.553,216.94c1.15,2.83,0.98,5.875-0.186,8.481
			c-0.363-0.313-0.942-0.38-1.283-0.019c-0.771-4.142-1.54-8.281-2.309-12.421c-0.033-0.167-0.111-0.298-0.205-0.415
			C307.282,213.464,308.722,214.899,309.553,216.94 M306.822,229c-0.722,0.674-1.533,1.258-2.436,1.726
			c0.278-3.457,0.549-6.915,0.827-10.37C305.749,223.24,306.284,226.119,306.822,229 M304.788,212.203
			c-0.435,0.002-0.854,0.271-0.897,0.82c-0.318,4.024-0.639,8.051-0.957,12.075c-0.709-4.534-1.418-9.065-2.127-13.601
			C302.18,211.446,303.534,211.695,304.788,212.203 M297.374,212.233c0.485-0.198,0.987-0.338,1.491-0.457
			c0.383,3.531,0.449,7.051,0.197,10.576c-0.395-3.115-0.791-6.234-1.185-9.35c-0.045-0.361-0.282-0.588-0.571-0.701
			C297.325,212.277,297.352,212.258,297.374,212.233 M288.486,216.472c0.553-0.647,1.184-1.229,1.963-1.672
			c0.586,0.193,1.214,0.245,1.852,0.162c-0.631,4.466-1.262,8.934-1.893,13.403C289.771,224.401,289.128,220.436,288.486,216.472
			 M292.041,230.379c0.449-3.185,0.898-6.368,1.348-9.55c0.652,3.642,1.303,7.282,1.951,10.925
			C294.18,231.466,293.076,230.984,292.041,230.379 M295.652,222.686c-0.479-2.672-0.959-5.345-1.434-8.019
			c-0.029-0.154-0.089-0.278-0.167-0.388c0.2-0.129,0.404-0.234,0.601-0.403c0.123-0.102,0.254-0.189,0.371-0.282
			c0.356-0.066,0.668-0.18,0.963-0.308C295.875,216.418,295.764,219.554,295.652,222.686 M297.15,232.045
			c0.041-0.097,0.07-0.2,0.074-0.326l0.246-6.825c0.211,1.674,0.422,3.344,0.633,5.018c0.143,1.124,1.687,0.967,1.887-0.043
			c0.378-1.946,0.66-3.887,0.854-5.824c0.396,2.531,0.79,5.059,1.184,7.589C300.432,232.077,298.775,232.212,297.15,232.045"/>
		<path clip-path="url(#SVGID_2_)" fill="#F1E9D5" d="M350.741,185.462c8.579-7.838,8.26-22.431-0.546-30.003
			c-6.271-5.397-14.528-5.693-20.389-1.826c-0.505,0.015-1.027,0.082-1.569,0.268c-12.005,4.159-14.678,19.161-7.585,28.812
			C327.808,192.454,341.872,193.563,350.741,185.462 M346.503,166.076c1.678,3.645,1.225,7.771-0.946,10.848
			c-0.019-4.134-0.037-8.27-0.056-12.404C345.909,165.022,346.258,165.543,346.503,166.076 M342.685,162.061
			c-0.819,2.824-1.645,5.649-2.464,8.476c0.155-3.219,0.118-6.442-0.11-9.682C340.996,161.146,341.872,161.552,342.685,162.061
			 M343.619,165.636c0.019,4.455,0.037,8.908,0.06,13.365c-0.529,0.431-1.112,0.818-1.744,1.154
			c-0.957,0.501-1.898,0.809-2.831,1.005C340.61,175.988,342.113,170.811,343.619,165.636 M337.044,181.399
			c-0.624-0.004-1.229-0.086-1.822-0.208c1.055-5.537,2.107-11.077,3.165-16.614C338.535,170.207,338.09,175.802,337.044,181.399
			 M337.252,160.406c-0.938,4.938-1.882,9.882-2.824,14.821c-0.44-4.078-0.884-8.152-1.329-12.231
			C334.005,161.241,335.526,160.465,337.252,160.406 M333.092,180.5c-1.396-0.631-2.646-1.555-3.688-2.674
			c1.112-2.437,1.978-4.926,2.582-7.496C332.356,173.72,332.725,177.111,333.092,180.5 M330.628,167.46
			c-0.498,2.996-1.336,5.889-2.531,8.69c-0.171-0.263-0.338-0.526-0.489-0.798c-0.148-2.282-0.298-4.564-0.448-6.845
			C328.367,168.551,329.618,168.207,330.628,167.46"/>
		<path clip-path="url(#SVGID_2_)" fill="#F1E9D5" d="M332.149,252.027c-0.779-0.152-1.622-0.139-2.521,0.154
			c-11.822,3.84-17.407,17.245-11.956,28.409c5.759,11.801,21.342,15.199,31.925,7.85c10.357-7.188,12.617-22.116,3.989-31.58
			C347.791,250.5,339.33,249.161,332.149,252.027 M325.588,272.752c0.234-0.91,0.468-1.824,0.705-2.74
			c0.13,2.045,0.26,4.088,0.395,6.131C326.159,275.062,325.785,273.916,325.588,272.752 M327.258,277.182
			c0.521,0.168,1.232-0.115,1.332-0.77c0.111-0.76,0.223-1.514,0.338-2.273c0.016,1.764,0.033,3.527,0.057,5.291
			C328.327,278.744,327.748,277.99,327.258,277.182 M331.284,281.314c0.233-3.254,0.468-6.506,0.701-9.761
			c0.294,3.527,0.587,7.056,0.876,10.58C332.312,281.902,331.785,281.629,331.284,281.314 M333.106,262.082
			c0.574-0.482,1.16-0.873,1.759-1.186c-0.319,3.621-0.639,7.246-0.957,10.867C333.637,268.537,333.374,265.309,333.106,262.082
			 M334.843,282.764c0.432-4.893,0.861-9.785,1.296-14.678c0.819,4.924,1.645,9.854,2.469,14.777
			C337.292,283.057,336.03,283.012,334.843,282.764 M339.104,274.312c-0.771-4.627-1.544-9.252-2.318-13.883
			c-0.016-0.099-0.057-0.179-0.093-0.259c1.039-0.271,2.077-0.325,3.091-0.19C339.556,264.76,339.33,269.537,339.104,274.312
			 M343.245,281.213c-0.892,0.508-1.763,0.885-2.624,1.168c0.232-4.914,0.464-9.826,0.697-14.74
			c0.778,4.438,1.559,8.873,2.335,13.312C343.512,281.037,343.39,281.131,343.245,281.213 M345.709,263.781
			c-0.346,3.996-0.69,7.994-1.035,11.99c-0.888-5.06-1.773-10.113-2.661-15.17c1.438,0.598,2.762,1.553,3.878,2.75
			C345.794,263.475,345.72,263.615,345.709,263.781 M346.312,278.857c0.298-3.441,0.595-6.885,0.892-10.326
			c0.612,1.834,1.225,3.664,1.833,5.496C348.637,275.73,347.757,277.383,346.312,278.857"/>
		<path clip-path="url(#SVGID_2_)" fill="#F1E9D5" d="M314.136,307.781c-5.299-4.334-12.309-4.842-18.135-2.348
			c-0.942-0.019-1.931,0.248-2.88,0.907c-8.405,5.843-10.857,18.431-4.164,26.531c6.498,7.856,19.056,8.994,26.389,1.735
			C323.009,327.021,322.516,314.641,314.136,307.781 M295.891,326.258c-1.475-2.152-1.646-4.555-0.988-6.775
			c0.279-0.61,0.558-1.225,0.836-1.836c0.021-0.035,0.045-0.067,0.066-0.1l0.481,9.17
			C296.156,326.559,296.005,326.426,295.891,326.258 M299.932,329.393c-0.584-0.225-1.137-0.518-1.66-0.854
			c0.758-2.416,1.516-4.828,2.271-7.24C300.339,323.994,300.131,326.695,299.932,329.393 M297.99,323.102
			c-0.131-2.502-0.264-5.006-0.395-7.504c1.002-0.865,2.135-1.521,3.344-1.899C299.953,316.832,298.975,319.967,297.99,323.102
			 M303.052,313.344c1.218-0.031,2.464,0.24,3.692,0.885c-0.987,5.289-2.628,10.347-4.913,15.189
			C302.239,324.059,302.645,318.701,303.052,313.344 M303.643,329.992c1.51-3.244,2.745-6.58,3.699-10.008
			c0.044,2.715,0.093,5.432,0.133,8.152c0.004,0.202,0.074,0.366,0.167,0.512C306.433,329.469,305.061,329.918,303.643,329.992
			 M309.346,327.146c-0.06-3.685-0.119-7.363-0.179-11.047C311.954,319.186,312.065,323.898,309.346,327.146"/>
		<path clip-path="url(#SVGID_2_)" fill="#F1E9D5" d="M204.089,308.055c-0.019,0-0.038,0.004-0.059,0.006
			c-1.915,0.119-3.741,0.433-5.376,0.961c-2.462,0.795-3.161,2.806-2.729,4.718c-5.062,5.897-6.814,14.163-2.963,21.696
			c4.871,9.523,16.559,13.572,26.193,8.931c9.516-4.584,14.45-16.654,8.749-26.076C223.604,311.176,212.865,307.52,204.089,308.055
			 M201.41,322.488c-0.234,1.639-0.472,3.277-0.705,4.914c-0.362-2.988,0.52-6.115,3.104-8.478
			c-0.249,1.011-0.496,2.021-0.744,3.027C202.583,321.479,201.538,321.604,201.41,322.488 M202.477,332.268l2.68-10.926
			c0.139,4.693,0.28,9.385,0.417,14.076C204.338,334.611,203.291,333.525,202.477,332.268 M206.928,317.408
			c0.832,0.078,1.682,0.201,2.546,0.387c-0.736,3.688-1.471,7.377-2.208,11.064C207.152,325.045,207.039,321.227,206.928,317.408
			 M213.222,336.508c-1.992,0.586-3.866,0.494-5.534-0.07c0.33-1.662,0.662-3.324,0.992-4.985c-0.104,1.424-0.21,2.854-0.315,4.276
			c-0.063,0.881,1.202,1.521,1.718,0.658c1.513-2.547,2.795-5.158,3.894-7.846c-0.286,2.467-0.572,4.939-0.857,7.406
			C213.092,336.174,213.141,336.355,213.222,336.508 M210.58,331.52c0.322-4.396,0.646-8.793,0.972-13.19
			c1.169,0.348,2.297,0.766,3.333,1.231C213.892,323.736,212.476,327.713,210.58,331.52 M216.812,320.543
			c0.425,0.254,0.818,0.512,1.165,0.773c1.266,0.961,2.06,2.121,2.488,3.365c-1.34,2.983-3.058,5.731-5.094,8.311L216.812,320.543z
			 M216.046,335.223c1.792-2.117,3.336-4.363,4.646-6.748C220.191,331.15,218.425,333.713,216.046,335.223"/>
		<path clip-path="url(#SVGID_2_)" fill="#F1E9D5" d="M149.278,254.896c-1.636,1.723-1.685,3.905-0.899,5.66
			c-2.548,5.1-2.707,11.266,0.565,16.592c5.467,8.893,17.605,11.455,26.038,5.164c8.823-6.582,9.921-19.158,2.702-27.379
			C170.249,246.47,156.858,246.91,149.278,254.896 M162.356,276.08c-0.902-0.283-1.744-0.736-2.507-1.305
			c1.394-2.728,2.616-5.512,3.676-8.355C163.136,269.639,162.746,272.857,162.356,276.08 M159.116,271.957
			c0.39-3.645,0.779-7.289,1.169-10.934c0.245-0.138,0.486-0.271,0.754-0.4c1.219-0.572,1.959-1.449,2.345-2.426
			c0.234-0.016,0.464,0.018,0.694,0.023C162.859,262.965,161.221,267.545,159.116,271.957 M167.554,275.746
			c-1.097,0.492-2.195,0.689-3.253,0.656c0.95-4.469,2.54-8.601,4.794-12.48C168.581,267.863,168.067,271.805,167.554,275.746
			 M165.358,267.072c0.345-2.834,0.687-5.67,1.031-8.506c0.995,0.301,1.962,0.813,2.882,1.533
			C167.74,262.34,166.438,264.658,165.358,267.072 M170.041,274.102c-0.131,0.119-0.267,0.215-0.4,0.322
			c0.534-4.086,1.067-8.172,1.6-12.26C173.823,265.83,173.601,270.898,170.041,274.102"/>
		<path clip-path="url(#SVGID_2_)" fill="#F1E9D5" d="M178.903,182.874c1.603-9.405-4.094-18.157-12.363-21.759
			c-0.545-1.438-1.757-2.598-3.735-2.832c-10.853-1.287-22.215,5.789-24.158,16.978c-1.87,10.747,5.875,22.362,16.804,24.135
			C165.977,201.1,177.096,193.474,178.903,182.874 M167.177,173.045c1.874,2.159,2.93,4.971,2.445,7.984
			c-0.375,2.32-1.666,4.427-3.443,6.031C166.513,182.389,166.845,177.717,167.177,173.045 M161.74,169.438
			c0.965,0.315,1.893,0.754,2.753,1.301c-1.023,3.559-2.048,7.116-3.072,10.673C161.744,177.435,161.857,173.444,161.74,169.438
			 M165.101,175.478c-0.311,4.353-0.62,8.707-0.93,13.061c-1.006,0.594-2.09,1.041-3.21,1.313
			C162.341,185.059,163.722,180.27,165.101,175.478 M156.593,168.162c0.182-0.052,0.36-0.12,0.546-0.163
			c0.46,0.359,1.043,0.606,1.692,0.775c-0.826,3.276-1.651,6.556-2.479,9.834c0.13-3.295,0.26-6.593,0.386-9.886
			C156.749,168.492,156.682,168.312,156.593,168.162 M150.535,186.005c-0.971-1.231-1.717-2.644-2.162-4.14
			c0.81-2.417,1.616-4.835,2.424-7.251C150.709,178.414,150.622,182.209,150.535,186.005 M152.801,169.871
			c0.627-0.418,1.295-0.769,1.988-1.07c-0.738,3.647-1.477,7.299-2.219,10.95C152.648,176.456,152.723,173.164,152.801,169.871
			 M154.389,180.307c-0.093,2.405-0.188,4.813-0.28,7.218c-0.039,1.002,1.553,1.552,1.831,0.442
			c1.317-5.226,2.635-10.45,3.951-15.679c0.02,5.993-0.476,11.945-1.461,17.864c-0.805-0.008-1.61-0.107-2.397-0.33
			c-1.176-0.334-2.264-0.902-3.243-1.622L154.389,180.307z"/>
		<path clip-path="url(#SVGID_2_)" fill="#F1E9D5" d="M400.029,148.044c-16.647-27.298-49.155-45.429-81.426-40.898
			c-14.143,1.985-26.853,7.838-38.086,15.991c-0.57,0.211-1.108,0.59-1.58,1.153c-11.289,8.517-21.037,19.35-29.161,30.914
			c-17.909-21.73-42.015-39.94-70.852-42.021c-32.505-2.342-63.717,17.938-78.484,46.298
			c-35.431,68.044,12.385,139.301,64.812,181.406c24.19,19.428,50.332,36.211,77.755,50.606c-1.944,1.055-3.878,2.133-5.837,3.164
			c-7.496,3.94-2.828,16.406,4.742,12.424c5.158-2.711,10.269-5.514,15.341-8.387c6.082,2.967,12.217,5.83,18.41,8.571
			c7.818,3.464,11.639-9.286,3.893-12.717c-2.867-1.271-5.711-2.594-8.558-3.918c27.294-16.559,53.07-35.566,76.594-57.223
			C397.068,287.865,439.967,213.546,400.029,148.044 M400.349,185.325c-0.85,0.616-1.695,1.232-2.542,1.848
			c-0.025-0.011-0.056-0.019-0.082-0.031c0.644-1.692,1.288-3.386,1.935-5.08C399.907,183.146,400.137,184.234,400.349,185.325
			 M396.015,186.293c-1.105-0.657-2.111-1.464-2.969-2.41c1.955-1.039,3.729-2.294,5.325-3.783
			C397.588,182.163,396.801,184.226,396.015,186.293 M397.722,174.901c0.252,0.805,0.485,1.614,0.716,2.421
			c-1.885,2.076-4.049,3.73-6.554,5.022c0-0.004-0.004-0.012-0.007-0.016c1.645-3.358,3.284-6.717,4.924-10.076
			C397.112,173.132,397.436,174.008,397.722,174.901 M390.838,180.152c-0.097-0.271-0.22-0.531-0.294-0.812
			c-0.312-1.191-0.419-2.372-0.345-3.519l4.146-2.852L390.838,180.152z M395.502,168.84c0.107,0.271,0.219,0.54,0.327,0.812
			c-0.798,0.547-1.596,1.095-2.391,1.644C394.125,170.477,394.812,169.657,395.502,168.84 M376.428,142.416
			c-0.835,0.219-0.924,1.225-0.481,1.681c-2.419,0.713-4.884,0.49-7.104-0.39c1.181-0.724,2.356-1.445,3.536-2.169
			c0.824-0.505,1.651-1.012,2.477-1.518C376.046,139.049,376.569,139.849,376.428,142.416 M372.784,136.786
			c0.484,0.416,0.965,0.839,1.438,1.264c-1.238,0.514-2.485,1.301-3.699,2.134C371.277,139.049,372.03,137.917,372.784,136.786
			 M366.653,142.575c-0.734-0.475-1.425-1.017-2.057-1.625c1.915-1.307,3.829-2.613,5.744-3.919
			C369.113,138.878,367.886,140.727,366.653,142.575 M369.392,134.062c-1.339,1.102-2.675,2.204-4.011,3.307
			c-0.865,0.471-1.726,0.942-2.591,1.417c-0.107-0.159-0.196-0.326-0.297-0.487c1.609-1.929,3.218-3.858,4.824-5.786
			C368.022,133.011,368.705,133.541,369.392,134.062 M363.12,132.173c0.238,0.487,0.476,0.978,0.709,1.466
			c0.012,0.019,0.03,0.031,0.041,0.05c-0.765,0.918-1.532,1.839-2.301,2.761c-0.36-0.911-0.612-1.857-0.731-2.831
			C361.599,133.136,362.359,132.654,363.12,132.173 M303.137,127.319c1.451,0.839,2.592,2.004,3.403,3.381
			c-1.418,5.047-2.839,10.096-4.261,15.145C302.564,139.669,302.852,133.494,303.137,127.319 M307.323,134.908l-0.078,6.401
			c-0.635,1.631-1.614,3.131-2.943,4.34C305.309,142.068,306.317,138.489,307.323,134.908 M297.415,128.139
			c1.132-0.625,2.271-1.241,3.429-1.806c0.012,0.004,0.022,0.01,0.037,0.014c-0.843,4.835-2.13,9.529-3.874,14.104
			C297.141,136.348,297.277,132.244,297.415,128.139 M287.279,143.335c0.943-3.55,1.89-7.099,2.836-10.646
			c0.642-0.449,1.283-0.902,1.938-1.332c0.021,3.53-0.383,7.054-1.229,10.602c-0.254,1.039,1.559,1.484,1.828,0.44
			c0.914-3.539,1.83-7.079,2.742-10.617c-0.15,4.569-0.299,9.142-0.451,13.714c-0.037,1.081,1.373,1.443,1.832,0.441
			c1.666-3.63,3.033-7.329,4.115-11.107c-0.203,4.376-0.404,8.751-0.607,13.124c-5.307,1.769-10.327-0.4-13.2-4.251
			C287.169,143.606,287.234,143.492,287.279,143.335 M285.564,136.617c-0.024,1.418-0.051,2.837-0.08,4.255
			c-0.383-0.954-0.635-1.963-0.762-2.999C285.002,137.454,285.287,137.035,285.564,136.617 M256.09,170.658
			c3.043,4.82,3.312,11.249-0.705,14.904c-0.078-3.249-0.158-6.496-0.236-9.745c-0.026-1.111-1.737-0.978-1.883,0.041
			c-0.029,0.193-0.056,0.386-0.084,0.577c-0.07-0.911-0.146-1.824-0.22-2.736C254.221,173.049,255.333,171.973,256.09,170.658
			 M249.202,188.225c1.099-3.279,1.629-6.923,2.175-10.479c0.004,0.024,0.011,0.049,0.015,0.071c0.197,2.438,0.39,4.874,0.587,7.312
			c0.044,0.56,0.489,0.803,0.935,0.777c0.074,0.393,0.148,0.782,0.223,1.176c-0.887,0.435-1.893,0.775-3.028,1.006
			c-0.312,0.063-0.608,0.104-0.905,0.14C249.202,188.227,249.202,188.225,249.202,188.225 M247.937,173.702
			c0.223,0.132,0.449,0.241,0.676,0.331c-0.315,1.128-0.631,2.254-0.95,3.379C247.755,176.177,247.844,174.94,247.937,173.702
			 M247.688,184.315c0.282-0.712,0.567-1.421,0.85-2.13c-0.13,1.099-0.249,2.301-0.672,3.197c-0.241,0.287-0.482,0.573-0.72,0.861
			C247.324,185.599,247.507,184.958,247.688,184.315 M246.074,173.099c-0.271,3.735-0.546,7.472-0.816,11.209
			c-0.223-3.026-0.441-6.051-0.661-9.075C245.091,174.52,245.584,173.81,246.074,173.099 M243.217,186.737
			c-1.596-1.179-2.709-2.907-3.273-4.785c0.694-0.998,1.385-2,2.078-3.002C242.203,181.558,242.597,184.148,243.217,186.737
			 M241.914,175.769c-0.798,1.154-1.596,2.309-2.394,3.459c-0.041-2.292,0.738-4.509,2.457-5.97
			C241.933,174.099,241.914,174.936,241.914,175.769 M212.285,141.044c-1.014,1.178-2.218,2.172-3.552,2.928
			c1.093-1.804,2.188-3.605,3.282-5.409C212.269,139.365,212.346,140.194,212.285,141.044 M209.321,136.866
			c0.37,0.221,0.735,0.439,1.101,0.666c-0.579,0.957-1.159,1.915-1.74,2.87C208.896,139.224,209.11,138.043,209.321,136.866
			 M206.739,135.386c0.263,0.148,0.534,0.278,0.8,0.429c-1.166,2.682-2.329,5.364-3.494,8.048c-0.065-0.88-0.128-1.761-0.191-2.644
			c0.948-1.896,1.896-3.791,2.845-5.686C206.724,135.483,206.724,135.439,206.739,135.386 M205.167,134.546
			c-0.095,0.081-0.18,0.184-0.243,0.313c-0.445,0.887-0.891,1.775-1.334,2.664c-0.095-1.324-0.19-2.649-0.283-3.975
			C203.934,133.862,204.546,134.214,205.167,134.546 M201.009,132.458c0.193,0.089,0.387,0.182,0.579,0.273
			c-0.054,0.072-0.104,0.149-0.137,0.244c-0.325,0.979-0.653,1.954-0.98,2.934C200.651,134.759,200.829,133.609,201.009,132.458
			 M201.732,138.129l0.195,2.716c-0.703,1.401-1.404,2.806-2.106,4.208c-0.122-0.037-0.244-0.056-0.363-0.096
			C200.215,142.678,200.974,140.406,201.732,138.129 M194.155,129.739c1.458,0.501,2.909,1.033,4.338,1.625
			c-0.946,1.62-2.117,3.03-3.509,4.303c0.028-1.312,0.058-2.623,0.087-3.937c0.016-0.723-0.619-1.086-1.157-1.004
			C193.992,130.395,194.073,130.067,194.155,129.739 M193.057,137.342c-0.002,0.104-0.004,0.204-0.006,0.307
			c-0.021,0.829,0.855,1.354,1.55,0.836c1.655-1.239,3.031-2.631,4.2-4.186c-0.495,3.191-0.988,6.387-1.484,9.578
			c-1.736-1.232-3.545-3.403-4.824-5.808C192.689,137.833,192.882,137.591,193.057,137.342 M191.758,128.978
			c0.008-0.008,0.011-0.019,0.015-0.026c0.199,0.06,0.39,0.132,0.585,0.193c-0.403,1.655-0.808,3.31-1.21,4.961
			C191.35,132.396,191.554,130.689,191.758,128.978 M245.524,377.859c-0.768-0.414-1.54-0.822-2.308-1.24
			c1.109-2.418,2.219-4.834,3.332-7.25C246.208,372.199,245.866,375.027,245.524,377.859 M243.075,372.383
			c0.093-0.936,0.183-1.871,0.271-2.811c0.653-1.301,1.577-2.521,2.668-3.58C245.035,368.119,244.056,370.252,243.075,372.383
			 M254.061,382.355c-2.192-1.129-4.382-2.273-6.562-3.437c1.251-3.767,2.505-7.532,3.756-11.297
			c-0.309,4.01-0.616,8.022-0.925,12.032c-0.081,1.058,1.447,1.48,1.834,0.445c0.693-1.873,1.388-3.746,2.081-5.615l-0.56,2.656
			c-0.184,0.869,0.883,1.254,1.49,0.846L254.061,382.355z M248.342,370.363c0.267-2.23,0.538-4.465,0.805-6.697
			c0.55-0.301,1.106-0.555,1.674-0.762C249.996,365.393,249.169,367.879,248.342,370.363 M252.742,373.076
			c0.275-3.592,0.55-7.184,0.824-10.771c1.072-0.066,2.097,0.031,3.072,0.254C255.34,366.064,254.041,369.568,252.742,373.076
			 M261.979,379.934c-0.403,0.394-0.688,0.816-0.924,1.248c-1.433,0.857-2.854,1.728-4.293,2.566c-0.062-0.031-0.13-0.066-0.197-0.1
			c2.438-4.072,4.395-8.334,5.891-12.812c0.134,2.697,0.268,5.396,0.4,8.099C262.58,379.273,262.311,379.615,261.979,379.934
			 M256.77,379.393c1.279-4.996,2.561-9.994,3.836-14.994c0.506,0.373,0.98,0.775,1.41,1.224
			C260.803,370.453,259.051,375.035,256.77,379.393 M264.596,375.807c-0.111-2.242-0.224-4.49-0.335-6.733
			C265.133,371.189,265.33,373.551,264.596,375.807 M378.803,226.601c-0.085-0.638-0.178-1.28-0.232-1.926
			c-0.18-2.045-1.566-13.697,3.622-10.758c0.178,0.101,0.354,0.245,0.529,0.404C381.868,218.593,380.562,222.685,378.803,226.601
			 M380.858,226.586c-0.309,1.962-0.615,3.927-0.925,5.89c-0.223-0.872-0.423-1.748-0.598-2.631
			C379.875,228.772,380.384,227.685,380.858,226.586 M377.972,232.387c0.212,0.881,0.438,1.757,0.69,2.629
			c-0.538-0.347-1.051-0.722-1.536-1.13C377.426,233.392,377.693,232.888,377.972,232.387 M375.716,232.532
			c-0.26-0.286-0.505-0.581-0.739-0.887c-0.044-1.095-0.059-2.189-0.028-3.275c0.318-0.095,0.59-0.336,0.642-0.759l0.913-7.273
			c0,3.113,0.309,6.187,0.872,9.216C376.851,230.557,376.298,231.55,375.716,232.532 M384.34,216.608
			c0.766,1.443,1.434,3.177,1.955,4.639c-0.601,5.344-1.206,10.688-1.807,16.031c-0.668-0.111-1.345-0.258-2.02-0.468
			c-0.416-0.128-0.819-0.278-1.222-0.439C382.28,229.784,383.308,223.195,384.34,216.608 M386.099,216.655
			c-0.375-0.692-0.826-1.603-1.377-2.496c0.057-0.365,0.111-0.731,0.171-1.095c0.758,0.063,1.519,0.189,2.282,0.382l-0.493,4.36
			C386.488,217.42,386.307,217.035,386.099,216.655 M388.329,227.588c0.553,2.186,0.961,4.401,1.235,6.661
			c0.138,1.121,1.695,0.977,1.886-0.041c0.065-0.354,0.13-0.708,0.196-1.064c0.244,1.097,0.489,2.193,0.733,3.288
			c-1.914,0.705-3.922,1.079-5.996,1.017C386.781,234.083,387.427,230.798,388.329,227.588 M389.346,214.204
			c0.643,0.271,1.254,0.578,1.837,0.92c-0.386,0.755-0.765,1.511-1.12,2.274C389.824,216.332,389.583,215.268,389.346,214.204
			 M391.472,223.683c-0.236-1.049-0.471-2.097-0.705-3.146c0.605-1.466,1.277-2.911,1.997-4.346
			c0.025,0.019,0.057,0.037,0.081,0.056C392.389,218.727,391.929,221.206,391.472,223.683 M393.784,221.595
			c0.353,4.587,0.701,9.174,1.05,13.761c-0.219,0.118-0.452,0.211-0.675,0.318c-0.546-2.427-1.092-4.854-1.633-7.28
			C392.945,226.126,393.364,223.861,393.784,221.595 M396.407,231.072c-0.309-4.042-0.615-8.083-0.924-12.126
			C397.84,222.428,397.565,226.772,396.407,231.072 M398.516,232.936c-0.281,0.227-0.583,0.427-0.876,0.639
			c1.007-3.166,1.675-6.413,1.488-9.444c0.326,0.627,0.635,1.262,0.92,1.903C399.603,228.345,399.091,230.646,398.516,232.936
			 M385.779,203.564c-10.6-1.054-20.206,5.704-22.399,16.165c-2.159,10.288,3.451,20.145,12.718,24.688
			c6.004,2.948,12.539,3.103,18.544,1.221c-2.775,7.752-6.216,15.282-10.189,22.452c-15.749,28.414-39.781,51.525-64.7,71.91
			c-14.531,11.887-29.758,22.908-45.552,33.047c0.118-10.477-7.88-20.586-20.418-20.215c-10.706,0.318-19.111,8.9-20.48,18.252
			c-13.67-7.857-26.967-16.361-39.819-25.498c-26.236-18.658-51.774-40.096-69.403-67.385c-9.146-14.156-16.18-29.963-19.713-46.397
			c4.639,3.57,10.517,5.548,16.431,5.108c11.119-0.83,19.547-9.955,17.415-21.311c-2.076-11.073-11.562-16.729-21.566-19.429
			c-0.891-1.269-2.371-2.105-4.367-1.809c-0.759,0.109-1.5,0.269-2.227,0.464c-1.523-0.13-2.694,0.412-3.485,1.31
			c-1.524,0.74-2.928,1.674-4.196,2.758c0.439-4.266,1.148-8.53,2.188-12.777c7.123-29.073,29.251-54.083,59.676-59.048
			c6.338-1.036,12.485-1.01,18.419-0.142c-2.653,8.057,1.06,19.054,8.29,24.203c10.547,7.505,23.453,3.371,29.966-6.075
			c6.923,5.634,13.251,12.128,18.888,18.911c-5.351,2.523-9.399,7.44-10.101,13.827c-1.035,9.418,6.546,18.184,15.642,19.734
			c9.178,1.561,18.365-4.445,21.582-13.011c3.039-8.088,0.273-16.811-5.559-22.685c4.496-6.212,9.529-12.238,15.059-17.705
			c0.799,2.294,1.997,4.486,3.659,6.483c5.853,7.028,16.528,9.307,24.878,5.748c14.046-5.985,16.002-24.778,6.939-34.278
			c7.027-2.004,14.473-2.814,22.303-2.074c6.613,0.627,12.898,2.212,18.792,4.591c-3.267,7.874-2,17.161,4.821,23.62
			c7.854,7.444,18.966,7.358,27.142,1.633c1.992,2.694,3.822,5.521,5.492,8.449c-7.771,5.508-11.905,15.976-8.498,25.25
			c3.18,8.665,11.378,13.604,19.998,13.958c0.323,4.778,0.297,9.56-0.026,14.328C397.718,207.378,392.333,204.217,385.779,203.564
			 M374.568,217.387c-0.884,3.566-1.385,7.154-1.507,10.776c-0.604-1.699-0.851-3.548-0.594-5.478
			C372.747,220.597,373.5,218.831,374.568,217.387 M105.807,209.631c-0.013,3.06-0.023,6.119-0.035,9.176
			C104.392,215.711,104.521,212.383,105.807,209.631 M115.999,214.626c-0.186,3.295-0.369,6.594-0.557,9.894
			c-0.052,0.953,1.309,1.443,1.744,0.61c-0.119,0.712-0.237,1.425-0.356,2.136c-2.642-0.445-5.134-1.637-7.181-3.381
			c0.759-1.948,1.405-3.917,1.944-5.912c-0.009,2.142-0.021,4.283-0.029,6.424c-0.004,0.979,1.542,1.573,1.829,0.441
			L115.999,214.626z M113.49,216.831c0.017-3.911,0.037-7.826,0.056-11.737c0.921,0.207,1.839,0.452,2.75,0.727
			C115.36,209.491,114.426,213.161,113.49,216.831 M108.332,221.925c-0.174-5.058-0.345-10.117-0.518-15.178
			c0.88-0.897,1.928-1.651,3.13-2.186c0.23,0.043,0.468,0.097,0.702,0.14C111.453,210.635,110.344,216.367,108.332,221.925
			 M120.211,218.554c0.48-2.878,0.961-5.754,1.439-8.632c0.177-1.052-1.528-1.482-1.831-0.439c-0.674,2.305-1.345,4.612-2.017,6.917
			c0.182-3.293,0.369-6.587,0.553-9.882c1.944,0.734,3.795,1.66,5.403,2.901L120.211,218.554z M123.592,215.094
			c-0.416,3.992-0.829,7.989-1.247,11.982c-0.436,0.118-0.891,0.211-1.365,0.28c-0.735,0.105-1.468,0.135-2.197,0.116
			C120.386,223.347,121.988,219.22,123.592,215.094 M127.94,216.783c-1.083,2.025-2.163,4.054-3.247,6.078
			c0.397-3.8,0.791-7.6,1.188-11.4c0.352,0.401,0.709,0.798,1.018,1.247c0.798,1.165,1.351,2.373,1.673,3.576
			C128.321,216.348,128.089,216.504,127.94,216.783 M128.902,218.987c-0.049,2.713-1.303,5.169-3.6,6.739
			C126.503,223.479,127.703,221.232,128.902,218.987"/>
	</g>
</g>
</svg>
