<?xml version="1.0" encoding="utf-8"?>
<!-- Generator: Adobe Illustrator 15.0.0, SVG Export Plug-In . SVG Version: 6.00 Build 0)  -->
<!DOCTYPE svg PUBLIC "-//W3C//DTD SVG 1.1//EN" "http://www.w3.org/Graphics/SVG/1.1/DTD/svg11.dtd">
<svg version="1.1" id="Layer_1" xmlns="http://www.w3.org/2000/svg" xmlns:xlink="http://www.w3.org/1999/xlink" x="0px" y="0px"
	 width="504px" height="504px" viewBox="0 0 504 504" enable-background="new 0 0 504 504" xml:space="preserve">
<path fill="#105C2D" stroke="#231F20" stroke-width="2" stroke-miterlimit="10" d="M344.127,499.855H159.873
	c-72.685,0-131.61-58.925-131.61-131.611V135.756c0-72.688,58.926-131.61,131.61-131.61h184.254
	c72.687,0,131.609,58.923,131.609,131.61v232.488C475.736,440.932,416.812,499.855,344.127,499.855"/>
<g>
	<g>
		<defs>
			<rect id="SVGID_1_" x="52.011" y="65.729" width="398.095" height="379.85"/>
		</defs>
		<clipPath id="SVGID_2_">
			<use xlink:href="#SVGID_1_"  overflow="visible"/>
		</clipPath>
		<g clip-path="url(#SVGID_2_)">
			<g>
				<defs>
					<rect id="SVGID_3_" x="52.011" y="65.729" width="398.086" height="379.85"/>
				</defs>
				<clipPath id="SVGID_4_">
					<use xlink:href="#SVGID_3_"  overflow="visible"/>
				</clipPath>
				<g transform="matrix(1 0 0 1 3.814697e-06 0)" clip-path="url(#SVGID_4_)">
					
						<image overflow="visible" enable-background="new    " width="876" height="836" xlink:href="35C2C530.png"  transform="matrix(0.4544 0 0 0.4544 52.0112 65.7285)">
					</image>
				</g>
			</g>
		</g>
		<path clip-path="url(#SVGID_2_)" fill="#F3EDD8" d="M367.524,101.402c-42.232-22.853-93.809-8.515-120.357,29.127
			c-27.908-21.625-62.757-36.563-98.336-26.686c-9.982,2.772-19.198,7.805-26.884,14.436c-14.632,9.069-25.602,23.665-31.302,41.112
			c-10.562,32.331-0.827,66.806,14.118,96.062c14.61,28.594,34.621,54.426,58.237,76.15c7.56,6.951,15.51,13.455,23.776,19.518
			c18.066,17.213,37.563,32.895,58.204,46.963c-1.746,1.66,0.53,4.824,2.729,3.336c0.369-0.248,0.728-0.51,1.095-0.76
			c1.79,0.918,3.807-0.853,3.396-2.363c1.351-0.938,2.663-1.924,4.004-2.873c29.53-13.932,57.31-34.285,79.342-59.334
			c21.336-19.354,39.521-41.363,50.729-67.148c6.719-9.229,12.694-18.9,17.525-29.107c6.279-13.261,10.242-27.817,10.922-42.321
			C420.373,160.041,403.251,120.732,367.524,101.402 M363.142,105.266c21.352,10.936,35.923,29.383,42.75,50.307
			c-1.676-3.169-3.589-6.262-5.783-9.245c-16.979-23.082-45.441-36.779-73.936-37.052c-26.632-0.255-51.946,10.144-72.766,26.293
			c-0.651-0.547-1.309-1.095-1.969-1.636C275.9,98.867,323.581,85,363.142,105.266 M380.198,170.791
			c-9.251-20.787-28.812-36.295-50.925-41.212c5.709-0.093,11.441,0.186,17.171,0.717c11.888,5.189,22.456,13.226,29.988,23.887
			c11.478,16.239,13.55,35.565,10.318,54.358C387.438,195.704,385.562,182.843,380.198,170.791 M252.986,162.243
			c-0.698,1.093-1.379,2.196-2.021,3.328c-1.089-1.031-2.189-2.052-3.305-3.062c3.02-2.928,6.157-5.767,9.388-8.505
			c1.047,0.107,1.874-0.75,2.096-1.756c0.063-0.052,0.129-0.104,0.193-0.155c0.123,0.105,0.251,0.208,0.377,0.313
			c-2.257,2.507-4.396,5.101-6.4,7.774C252.801,160.862,252.758,161.604,252.986,162.243 M253.127,169.123
			c-0.154,0.379-0.311,0.753-0.453,1.136c-0.347-0.338-0.681-0.683-1.027-1.017c0.056-0.067,0.104-0.138,0.155-0.204
			C252.224,169.193,252.688,169.22,253.127,169.123 M244.755,151.028c0.903-0.759,1.804-1.523,2.726-2.26
			c1.843,0.998,3.665,2.019,5.467,3.054c-2.941,2.531-5.793,5.14-8.543,7.807c-1.59-1.375-3.214-2.719-4.855-4.043
			c0.668-0.62,1.361-1.218,2.045-1.822C243.398,155.105,245.647,152.832,244.755,151.028 M259.382,146.559
			c-1.464-1.148-2.958-2.258-4.485-3.315c13.002-9.029,27.578-15.705,43.158-18.474
			C284.128,129.587,271.125,137.357,259.382,146.559 M299.445,128.948c6.688-2.289,13.617-3.905,20.771-4.668
			c1.111-0.119,2.232-0.18,3.354-0.249c2.393,0.299,4.771,0.717,7.137,1.221c-10.312,0.041-20.538,1.222-30.472,4.197
			c-1.43,0.301-2.854,0.631-4.26,1.017C297.12,129.936,298.279,129.431,299.445,128.948 M301.764,133.508
			c4.879-0.973,9.89-1.405,14.939-1.227c26.85,0.968,51.97,19.124,61.198,44.346c5.569,15.211,6.135,30.474,3.288,45.375
			c-0.787-11.754-3.457-23.349-8.464-34.231c-10.216-22.214-30.584-40.101-54.922-44.728c-19.456-3.696-39.655,2.39-53.696,15.5
			C273.214,146.427,287.082,137.836,301.764,133.508 M334.365,118.335c-5.438-0.28-10.808,0.041-16.078,0.843
			c-0.375-0.021-0.753-0.065-1.132-0.082c-16.369-0.726-32.207,3.191-46.757,10.126c14.062-8.226,29.648-13.707,46.05-15.204
			c21.695-1.978,44.075,3.979,61.725,16.664c-2.396-0.445-4.806-0.884-7.224-1.307C359.881,122.829,347.123,118.998,334.365,118.335
			 M158.372,107.344c31.697-5.248,61.307,8.709,85.76,27.77c-0.278,0.445-0.573,0.88-0.843,1.33
			c-1.714-0.844-3.449-1.646-5.206-2.392c-16.957-13.318-37.503-21.854-58.414-22.944c-8.03-2.072-16.374-3.108-25.043-2.761
			c-0.486,0.019-0.967,0.059-1.451,0.089C154.89,108.008,156.62,107.635,158.372,107.344 M132.472,117.413
			c2.15-0.9,4.371-1.69,6.676-2.34c6.902-1.948,13.723-2.738,20.431-2.62c-7.925,1.507-15.753,4.197-23.303,8.261
			c-11.729,6.314-21.169,15.811-27.539,26.888c-0.323,0.31-0.623,0.642-0.94,0.959C111.898,135.784,120.916,124.907,132.472,117.413
			 M205.157,126.445c-2.601-0.132-5.212-0.169-7.824-0.087c-7.82-1.028-15.743-1.148-23.698-0.086
			c-1.934-0.182-3.876-0.322-5.835-0.384c-16.078-0.488-32.77,3.702-46.645,12.182c5.639-6.151,12.453-11.345,20.178-15.093
			c12.259-5.946,25.135-8.236,37.85-7.616C188.171,117.827,196.865,121.689,205.157,126.445 M201.015,119.239
			c7.703,2.365,15.174,5.711,22.212,9.869c-2.628-0.643-5.277-1.188-7.951-1.611C210.657,124.475,205.903,121.695,201.015,119.239
			 M191.739,134.177c-3.397-0.654-6.858-1.124-10.393-1.332c-0.319-0.015-0.637-0.007-0.956-0.021
			c1.091-0.25,2.188-0.471,3.286-0.679C186.39,132.711,189.08,133.383,191.739,134.177 M170.924,131.09
			c-2.555,0.868-5.054,1.87-7.505,2.963c-5.787,1.148-11.33,3.037-16.475,5.637c3.94-2.295,8.227-4.243,12.844-5.798
			C163.487,132.645,167.204,131.735,170.924,131.09 M103.941,179.178c1.653,0.15,3.379-0.955,2.888-3.004
			c-0.711-2.979-1.138-5.919-1.331-8.81c1.36-5.77,3.55-11.359,6.473-16.59c11.615-11.116,27.377-18.076,43.791-20.008
			c-18.596,7.044-34.49,21.06-40.073,40.754c-1.683,5.939-2.46,12.092-2.562,18.339c-1.681,5.025-2.913,10.163-3.716,15.362
			C105.355,196.792,103.669,187.919,103.941,179.178 M118.556,188.966c0.107-0.81,0.233-1.616,0.371-2.418
			c8.55-21.14,24.87-39.004,45.657-48.4c2.028-0.384,4.099-0.683,6.226-0.862c5.299-0.455,10.47-0.293,15.51,0.373
			c-21.713,0.672-42.166,12.304-54.045,30.678c-15.032,23.253-9.632,49.378,2.112,72.787c0.003,0.003,0.003,0.011,0.009,0.015
			c1.8,8.62,4.668,17.128,8.374,25.319c-4.611-6.912-9.014-14.188-12.792-21.779c-6.147-15.291-10.632-31.363-12.003-47.302
			c-0.019-0.237-0.027-0.471-0.046-0.707C118.006,194.112,118.207,191.545,118.556,188.966 M132.42,226.767
			c-4.756-12.452-7.108-25.488-4.088-38.499c5.429-23.371,26.726-42.089,50.271-45.668c8.853-1.346,17.687-0.744,26.125,1.415
			c-21.746-1.388-42.433,10.038-55.593,26.982C135.906,188.026,131.188,207.387,132.42,226.767 M195.125,130.754
			c0.493-0.026,0.987-0.041,1.482-0.062c8.194,1.074,16.299,3.191,24.214,5.999c5.793,4.239,11.326,8.764,16.555,13.349
			c-0.701,0.732-1.408,1.464-2.095,2.213C223.074,143.013,209.573,135.396,195.125,130.754 M235.574,142.765
			c1.16,0.54,2.299,1.113,3.445,1.673c-0.145,0.307-0.289,0.612-0.432,0.923C237.586,144.492,236.589,143.621,235.574,142.765
			 M230.371,135.688c1.849,0.635,3.665,1.354,5.467,2.109c0.293,0.232,0.584,0.464,0.876,0.698
			C234.615,137.522,232.505,136.58,230.371,135.688 M105.807,138.963c-2.854,5.8-4.762,12.043-5.542,18.541
			c-0.635,0.909-1.262,1.828-1.853,2.776c-3.25,5.243-5.608,10.73-7.201,16.368C92.94,163.128,97.908,149.867,105.807,138.963
			 M94.529,181.51c1.159-5.315,3.004-10.268,5.404-14.838c0.076,1.579,0.216,3.167,0.433,4.765
			c-2.082,13.814,0.271,28.279,8.192,41.261c-0.895,12.146,0.543,24.511,4.328,36.5c1.742,5.52,3.869,10.885,6.304,16.11
			C101.958,241.004,87.905,211.892,94.529,181.51 M123.413,278.699c4.117,5.297,8.437,10.455,12.927,15.459
			c6.1,8.535,12.766,16.695,19.594,24.549C143.875,306.463,132.965,293.072,123.413,278.699 M138.339,289.447
			c-3.912-5.709-7.574-11.568-10.897-17.592c-11.59-21.021-17.608-44.579-13.541-67.896c0.985,14.966,5.765,29.815,12.568,43.365
			c0.091,0.179,0.189,0.354,0.28,0.536c1.414,3.393,2.865,6.695,4.312,9.883c10.861,23.911,25.566,45.948,43.351,65.266
			c2.409,2.617,4.882,5.173,7.4,7.679C166.098,318.326,151.531,304.518,138.339,289.447 M247.585,370.984
			c-8.661-4-17.134-8.385-25.409-13.111c-28.259-18.604-52.432-43.146-70.736-71.689c8.961,11.408,18.835,22.113,29.159,32.002
			c15.283,14.642,32.126,27.568,50.129,38.619c5.581,4.318,11.298,8.469,17.136,12.455
			C247.443,369.77,247.388,370.4,247.585,370.984 M145.267,262.891c-0.833-1.945-1.592-3.934-2.317-5.934
			c11.279,19.49,24.707,37.82,39.557,54.66c2.125,2.408,4.288,4.775,6.478,7.119C170.594,303.4,154.898,285.396,145.267,262.891
			 M182.419,340.859c-6.321-6.312-12.595-12.814-18.666-19.539c1.223,1.084,2.443,2.166,3.674,3.229
			c16.475,14.254,34.332,26.811,53.24,37.529c8.522,5.541,17.394,10.553,26.567,14.988c-0.641,0.432-0.9,1.022-0.886,1.623
			c-0.341,0.205-0.687,0.403-1.027,0.61c-19.9-8.368-38.75-19.069-56.101-31.805C186.932,345.309,184.662,343.1,182.419,340.859
			 M248.733,395.432c-0.646-0.445-1.299-0.887-1.946-1.332c0.522-0.338,1.033-0.69,1.553-1.031c0.002,0.619,0.287,1.23,0.734,1.736
			c0.019,0.113,0.037,0.228,0.069,0.338C249.006,395.238,248.872,395.338,248.733,395.432 M243.239,391.254
			c-0.105,0.07-0.191,0.146-0.28,0.221c-10.96-7.67-21.583-15.803-31.832-24.387c9.554,5.57,19.438,10.562,29.6,14.955
			c-0.747,0.439-1.482,0.898-2.233,1.33c-2.414,1.389,0.013,4.98,2.421,3.594c1.607-0.926,3.195-1.881,4.789-2.832
			c1.724,0.705,3.455,1.4,5.195,2.068C248.36,387.91,245.809,389.594,243.239,391.254 M255.246,383.248
			c-1.655-0.621-3.303-1.258-4.943-1.91c1.367-0.846,2.74-1.684,4.099-2.543c1.522,0.65,3.053,1.277,4.582,1.904
			C257.745,381.557,256.493,382.396,255.246,383.248 M250.728,372.414c0.056-0.027,0.111-0.043,0.167-0.074
			c0.284-0.158,0.568-0.316,0.854-0.477c0.583,0.389,1.167,0.775,1.75,1.166c-0.192,0.127-0.392,0.254-0.586,0.377
			C252.183,373.074,251.457,372.74,250.728,372.414 M280.757,371.143c-3.342,2.23-6.687,4.42-10.024,6.584
			c6.322-4.539,12.57-9.186,18.716-13.957C286.587,366.268,283.682,368.717,280.757,371.143 M263.021,377.887
			c-0.188-0.201-0.437-0.373-0.756-0.502c-1.154-0.467-2.301-0.949-3.449-1.428c1.152-0.752,2.31-1.5,3.453-2.264
			c0.582,0.266,1.156,0.545,1.738,0.811c2.368,1.076,4.209-2.23,2.372-3.613c0.818-0.563,1.623-1.143,2.438-1.711
			c9.918-5.158,19.479-10.957,28.64-17.322C286.293,360.938,274.809,369.617,263.021,377.887 M259.491,367.52
			c3.924-2.211,7.86-4.455,11.801-6.723c-3.446,2.518-6.935,4.98-10.467,7.381C260.38,367.959,259.938,367.732,259.491,367.52
			 M332.972,331.133c-6.842,6.264-14.017,12.25-21.416,17.986c7.78-7.625,15.318-15.49,22.534-23.648
			c0.259-0.244,0.523-0.479,0.779-0.725c4.246-4.039,8.517-8.168,12.774-12.357C343.156,318.887,338.228,325.135,332.972,331.133
			 M300.501,344.494c1.808-1.568,3.583-3.174,5.36-4.777c1.917-1.26,3.821-2.533,5.719-3.824
			C307.962,338.855,304.271,341.73,300.501,344.494 M359.983,302.139c1.039-1.809,2.047-3.637,3.025-5.477
			c1.434-1.531,2.883-3.045,4.293-4.6C364.987,295.498,362.534,298.85,359.983,302.139 M369.413,269.059
			c-8.673,14.396-18.761,27.938-30.05,40.404c-1.781,1.551-3.573,3.084-5.396,4.58c-2.833,2.332-5.717,4.598-8.628,6.82
			c18.299-18.926,35.221-40.025,47.263-63.258C371.699,261.469,370.638,265.287,369.413,269.059 M375.312,242.095
			c-0.264,0.676-0.516,1.354-0.79,2.026c-13.186,25.949-31.667,49.734-51.468,70.93c-8.418,9.012-17.287,17.57-26.558,25.662
			c-13.036,8.232-26.431,15.92-39.868,23.463c-0.021-0.689-0.35-1.375-1.107-1.811c-13.688-7.873-27.839-16.049-41.427-25.08
			c-24.265-21.785-45.454-46.953-62.669-74.74c-4.406-7.107-9.086-14.758-13.164-22.762c-3.06-16.547-2.138-33.823,4.451-49.393
			c8.62-20.373,27.001-37.657,49.259-41.466c12.563-2.152,25.715,0.402,36.649,6.655c0.903,0.642,1.805,1.289,2.695,1.954
			c-0.105,0.107-0.213,0.211-0.316,0.318c-1.95,1.993,1.313,4.84,3.262,2.847c0.171-0.171,0.349-0.34,0.521-0.512
			c1.685,1.332,3.345,2.697,4.978,4.093c-1.594,1.863,1.069,4.312,2.977,3.014c3.006,3.577,5.503,7.604,7.377,12.012
			c-0.079,1.559,1.466,2.396,2.739,2.119c0.612-0.087,1.181-0.4,1.526-0.872c0.646-0.227,1.222-0.701,1.574-1.492
			c14.144-31.65,53.873-39.398,82.182-22.369C367.474,174.337,378.944,209.316,375.312,242.095 M380.882,241.03
			c0.033-0.071,0.066-0.138,0.099-0.204c12.714-27.196,17.617-61.023,0.181-87.408c-5.873-8.884-13.757-16.149-22.762-21.697
			c2.175,0.315,4.344,0.649,6.508,1.006c9.511,4.959,17.868,11.956,23.909,20.926c18.121,26.911,6.791,61.564-5.302,88.489
			c-1.262,2.807-2.587,5.583-3.949,8.336C380.115,247.344,380.568,244.193,380.882,241.03 M400.859,203.965
			c-0.597,5.652-1.651,11.281-3.041,16.794c-0.15-0.567-0.469-1.022-0.886-1.353C398.525,214.328,399.878,209.16,400.859,203.965
			 M387.842,247.973c-1.893,3.927-3.899,7.783-6.098,11.529c-0.268-0.506-0.771-0.895-1.358-1.074
			c2.653-5.033,5.149-10.158,7.461-15.372c0.842-1.893,1.666-3.825,2.481-5.779C389.642,240.913,388.799,244.474,387.842,247.973
			 M398.822,240.177c-1.889,3.804-3.974,7.515-6.158,11.17c0.736-2.558,1.395-5.155,1.994-7.782
			c0.012-0.027,0.025-0.056,0.039-0.083c0.662-1.561,1.305-3.149,1.924-4.758c0.739-0.011,1.479-0.336,2.038-1.128
			c1.553-2.21,2.967-4.474,4.305-6.764C401.715,234.005,400.336,237.126,398.822,240.177 M402.49,219.783
			c4.991-21.305,4.86-44.192-5.354-63.515c-4.335-8.199-10.407-15.215-17.561-20.924c1.769,0.332,3.528,0.666,5.28,0.998
			c0.147,0.025,0.287,0.035,0.426,0.035c3.384,3.035,6.53,6.356,9.389,9.951c9.707,12.21,14.52,26.292,15.556,40.803
			C409.758,198.213,407.22,209.298,402.49,219.783"/>
	</g>
</g>
</svg>
