<?xml version="1.0" encoding="utf-8"?>
<!-- Generator: Adobe Illustrator 15.0.0, SVG Export Plug-In . SVG Version: 6.00 Build 0)  -->
<!DOCTYPE svg PUBLIC "-//W3C//DTD SVG 1.1//EN" "http://www.w3.org/Graphics/SVG/1.1/DTD/svg11.dtd">
<svg version="1.1" id="Layer_1" xmlns="http://www.w3.org/2000/svg" xmlns:xlink="http://www.w3.org/1999/xlink" x="0px" y="0px"
	 width="587px" height="503px" viewBox="0 0 587 503" enable-background="new 0 0 587 503" xml:space="preserve">
<path fill="#FFFFFF" d="M268.237,164.109c-0.423-0.409-1.361-0.371-1.536-0.135c-0.449,0.605-1.033,1.324-0.937,2.406
	c0.702-0.142,1.343,0.104,1.906,0.288c0.262-0.283,0.921-0.888,1.051-1.139c0.069-0.127,0.026-0.667-0.026-0.813
	C268.648,164.584,268.35,164.22,268.237,164.109z"/>
<path fill="#FFFFFF" d="M269.707,183.287c0.067-0.208,0-0.919,0-1.149c-0.428,0-1.758-0.137-2.122,0
	c-0.348,0.128-0.716,0.444-0.837,0.823c-0.066,0.208,0,0.917,0,1.149c0.428,0,1.758,0.132,2.123,0
	C269.221,183.981,269.586,183.663,269.707,183.287z"/>
<path fill="#FFFFFF" d="M263.296,174.545c-0.104,0.206,0,0.948,0,1.177c0.426,0,1.759,0.135,2.121,0
	c0.35-0.127,0.702-0.449,0.839-0.822c0.052-0.142,0.024-0.667-0.028-0.811c-0.046-0.135-0.402-0.451-0.475-0.574
	c-0.268-0.449-0.812-0.281-1.124-0.142C264.125,173.6,263.562,174.018,263.296,174.545z"/>
<path fill="#FFFFFF" d="M282.699,167.338c-0.208-0.106-1.078-0.049-1.279,0.05c-0.346,0.166-0.771,0.397-0.86,0.775
	c-0.097,0.401,0,1.707,0,2.134h2.499c-0.146-0.704,0.273-1.345,0.273-1.87C283.332,168.127,282.869,167.428,282.699,167.338z"/>
<path fill="#FFFFFF" d="M279.08,184.601h-2.465c0,0.43-0.133,1.761,0,2.122c0.127,0.351,0.444,0.724,0.823,0.837
	c0.241,0.075,1.089,0.047,1.191-0.043c0.486-0.43,0.936-1.139,0.452-1.834C279.006,185.575,279.08,184.833,279.08,184.601z"/>
<path fill="#FFFFFF" d="M279.121,173.846c0.781,0.917,1.798,0.458,2.919,0.265v-2.364c-0.705,0.144-1.345-0.277-1.871-0.274
	c-0.299,0-1.021,0.466-1.089,0.633C278.952,172.416,278.958,173.656,279.121,173.846z"/>
<path fill="#FFFFFF" d="M273.645,163.175c-1.035-0.293-2.042,0.404-2.209,1.206c-0.107,0.506,0.258,0.832,0.649,0.983
	c0.248,0.099,1.397,0.062,1.693-0.06c0.35-0.142,0.728-0.39,0.863-0.763c0.052-0.144,0.038-0.686-0.038-0.794
	C274.482,163.577,273.858,163.234,273.645,163.175z"/>
<path fill="#FFFFFF" d="M276.12,177.696c-0.427,0-1.759-0.135-2.12,0c-0.35,0.13-0.75,0.446-0.84,0.825
	c-0.097,0.402,0,1.707,0,2.137c0.428,0,1.856,0.194,2.121,0c0.463-0.338,0.728-1.036,0.836-1.646
	C276.163,178.757,276.12,177.958,276.12,177.696z"/>
<path fill="#FFFFFF" d="M266.256,161.913c0.425,0,1.853,0.194,2.123,0c0.458-0.336,0.725-1.033,0.832-1.645
	c0.047-0.255,0.004-1.052,0.004-1.367l-2.959,0.539V161.913z"/>
<path fill="#FFFFFF" d="M263.793,152.214c-0.015,0.097,0.367,0.537,0.488,0.572c0.273,0.081,1.213,0.087,1.479,0
	c0.179-0.059,0.682-0.562,0.742-0.74c0.087-0.265,0.038-1.196-0.04-1.468c-0.036-0.121-0.433-0.513-0.532-0.504
	c-0.658,0.083-1.085-0.468-1.588-0.307c-0.249,0.081-0.714,0.631-0.794,0.876C263.386,151.15,263.874,151.559,263.793,152.214z"/>
<path fill="#FFFFFF" d="M270.036,152.046c0.31,0.127,1.449,0,1.781,0c0.243-0.478,0.817-0.91,0.633-1.433
	c-0.093-0.263-0.435-0.964-0.606-1.033c-0.307-0.13-1.446,0-1.777,0c-0.244,0.478-0.815,0.91-0.634,1.432
	C269.525,151.276,269.868,151.978,270.036,152.046z"/>
<path fill="#FFFFFF" d="M276.12,164.036c0.148,0.345,0.447,0.721,0.823,0.837c0.239,0.071,1.075,0.047,1.275-0.047
	c0.346-0.167,0.726-0.402,0.861-0.775c0.053-0.146,0.025-0.667-0.026-0.813c-0.048-0.132-0.303-0.614-0.619-0.761
	c-0.495-0.232-1.447-0.007-2.315-0.052C276.12,162.736,276.007,163.771,276.12,164.036z"/>
<path fill="#FFFFFF" d="M275.381,152.042c0.578-0.258,1.419-0.279,1.725-0.809c0.189-0.326,0-1.718,0-2.146h-2.448
	c-0.159,0.752-0.252,1.553-0.19,2.426C274.487,151.768,274.929,152.238,275.381,152.042z"/>
<path fill="#FFFFFF" d="M279.38,155.994c0.147,0.08,0.723,0.066,0.851,0c0.248-0.133,0.896-0.769,1.028-1.012
	c0.083-0.151,0.106-0.79,0.04-0.965c-0.047-0.123-0.461-0.492-0.574-0.492h-2.631c0,0.232-0.102,0.983,0,1.142
	C278.425,155.188,278.862,155.706,279.38,155.994z"/>
<path fill="#FFFFFF" d="M280.541,176.443c-0.518-0.248-0.983,0.38-1.46,0.626v2.601h2.465c0-0.425,0.123-1.749,0-2.137
	C281.469,177.283,280.808,176.571,280.541,176.443z"/>
<path fill="#FFFFFF" d="M262.144,161.913c0.312,0.127,1.446,0,1.782,0c0.242-0.478,0.813-0.913,0.628-1.433
	c-0.089-0.265-0.435-0.964-0.601-1.035c-0.312-0.127-1.446,0-1.779,0c-0.244,0.478-0.816,0.912-0.631,1.432
	C261.632,161.14,261.978,161.842,262.144,161.913z"/>
<path fill="#FFFFFF" d="M286.434,170.517c-0.525-0.184-0.955,0.388-1.436,0.634v2.6h2.467v-2.631
	C287.465,171.004,286.693,170.609,286.434,170.517z"/>
<path fill="#FFFFFF" d="M284.486,180.388c-0.516-0.245-0.982,0.383-1.461,0.627c0,0.234-0.09,1.061,0,1.286
	c0.104,0.253,0.761,0.933,1.079,1.054c0.585,0.225,0.988-0.617,1.39-1.106c0.054-0.068,0.033-0.625-0.034-0.754
	C285.33,181.247,284.755,180.516,284.486,180.388z"/>
<path fill="#FFFFFF" d="M292.547,149.581c0.35-0.13,0.704-0.452,0.836-0.825c0.053-0.142,0.029-0.664-0.023-0.811
	c-0.047-0.134-0.346-0.494-0.459-0.607c-0.422-0.412-1.125-0.255-1.645-0.123c-0.312,0.083-0.728,0.345-0.832,0.723
	c-0.084,0.302,0,1.314,0,1.643C290.854,149.581,292.186,149.715,292.547,149.581z"/>
<path fill="#FFFFFF" d="M283.848,159.939c0.309,0.127,1.446,0,1.779,0c0.244-0.48,0.816-0.911,0.631-1.435
	c-0.09-0.26-0.435-0.962-0.601-1.031c-0.31-0.128-1.447,0-1.782,0c-0.24,0.478-0.813,0.908-0.629,1.433
	C283.337,159.166,283.68,159.871,283.848,159.939z"/>
<path fill="#036797" d="M299.569,142.496c-0.038-0.036-0.077-0.071-0.101-0.097c-0.199,0.397-0.785,1.582-0.918,1.995
	c-0.181,0.558-0.309,1.183-0.422,1.824C298.584,144.972,299.065,143.732,299.569,142.496z"/>
<g>
	<g>
		
			<radialGradient id="SVGID_1_" cx="294.627" cy="303.1807" r="345.2809" gradientTransform="matrix(1 0 0 0.9993 0 -0.0222)" gradientUnits="userSpaceOnUse">
			<stop  offset="0.0056" style="stop-color:#ED2224"/>
			<stop  offset="0.6629" style="stop-color:#721011"/>
			<stop  offset="1" style="stop-color:#010101"/>
		</radialGradient>
		<path fill-rule="evenodd" clip-rule="evenodd" fill="url(#SVGID_1_)" d="M320.783,495.081
			c-27.719-62.27-158.401-129.546-196.421-211.847c-25.719-55.661,0.947-121.794,48.403-154.063
			c38.082-25.938,108.24-30.082,147.922,25.444c39.758-55.526,110.016-51.382,148.143-25.444
			c47.453,32.269,73.238,98.402,48.354,154.063C480.244,366.005,341.93,429.894,320.783,495.081z"/>
		
			<radialGradient id="SVGID_2_" cx="333.5684" cy="281.5034" r="246.8491" gradientTransform="matrix(1 0 0 0.9993 0 -0.0222)" gradientUnits="userSpaceOnUse">
			<stop  offset="0.0056" style="stop-color:#ED2224"/>
			<stop  offset="1" style="stop-color:#721011"/>
		</radialGradient>
		<path fill-rule="evenodd" clip-rule="evenodd" fill="url(#SVGID_2_)" d="M320.775,484.524
			c-26.199-58.848-149.698-122.433-185.629-200.208c-24.307-52.604,0.896-115.102,45.743-145.596
			c35.99-24.512,102.294-28.429,139.792,24.046c37.574-52.475,103.969-48.558,140.002-24.046
			c44.844,30.494,69.217,92.992,45.697,145.596C471.473,362.538,340.762,422.922,320.775,484.524z"/>
	</g>
</g>
<g>
	<g>
		<g>
			<path d="M27.353,64.967c2.043,5.559,3.13,8.335,5.422,13.885c-1.948,0.819-2.917,1.231-4.846,2.059
				c12.237,28.166,28.906,56.045,48.531,83.714c-1.999,0.666-2.995,0.996-4.983,1.646c-20.058-27.279-37.188-54.776-49.944-82.571
				c-1.899,0.84-2.844,1.262-4.724,2.111c-2.543-5.366-3.755-8.05-6.057-13.424C17.282,69.356,20.606,67.87,27.353,64.967z"/>
			<path d="M53.283,97.074c-0.24-4.272,0.122-7.669,0.982-10.166c0.86-2.496,2.187-4.081,3.911-4.733
				c0.887-0.335,1.896-0.208,3.016,0.38c1.124,0.59,2.271,1.547,3.44,2.863c1.167,1.314,2.329,2.95,3.489,4.898
				c1.16,1.951,2.221,4.093,3.205,6.424c5.66,13.423,12.148,26.803,19.32,40.147c-1.724,0.602-2.583,0.903-4.294,1.504
				c-7.017-12.634-13.411-25.301-19.063-38.006c-1.629-3.665-3.168-6.31-4.709-7.931c-1.538-1.621-2.893-2.208-4.064-1.764
				c-0.525,0.2-1,0.598-1.421,1.199c-0.42,0.6-0.778,1.361-1.062,2.29c-0.285,0.928-0.499,1.994-0.637,3.188
				c-0.137,1.191-0.195,2.485-0.169,3.881c6.401,13.542,13.697,27.031,21.728,40.476c-1.676,0.598-2.512,0.896-4.175,1.49
				c-16.102-26.128-29.392-52.434-38.686-78.978c1.067-1.862,1.611-2.795,2.722-4.667c0.61-0.25,0.916-0.375,1.528-0.623
				C42.447,71.708,47.47,84.414,53.283,97.074z"/>
			<path d="M106.146,132.966c-1.509,0.511-3.267,0.269-5.295-0.721c-2.027-0.991-4.156-2.547-6.368-4.671
				c-2.213-2.126-4.418-4.732-6.585-7.827c-2.164-3.093-4.122-6.523-5.816-10.295c-2.024-4.508-3.531-8.785-4.522-12.843
				c-0.993-4.059-1.446-7.691-1.394-10.887c0.053-3.196,0.626-5.872,1.672-8.011c1.046-2.14,2.571-3.553,4.531-4.221
				c1.746-0.595,3.555-0.477,5.412,0.357c1.859,0.834,3.652,2.2,5.381,4.092c1.735,1.899,3.353,4.222,4.884,6.974
				c1.532,2.752,2.849,5.74,3.983,8.96c-7.557,2.465-11.285,3.725-18.627,6.281c1.562,3.796,3.286,7.247,5.127,10.353
				c1.84,3.105,3.679,5.715,5.476,7.824c1.798,2.109,3.516,3.667,5.134,4.667c1.617,0.998,3.016,1.302,4.198,0.901
				c0.998-0.337,1.78-1.06,2.35-2.168c0.572-1.109,0.959-2.441,1.17-3.995c0.211-1.552,0.246-3.269,0.103-5.141
				c-0.143-1.874-0.443-3.744-0.91-5.605c0.78,0.398,1.17,0.598,1.949,0.998c0.8,3.081,1.354,6.045,1.666,8.882
				c0.312,2.839,0.407,5.383,0.27,7.634c-0.137,2.248-0.509,4.126-1.136,5.628C108.172,131.632,107.296,132.576,106.146,132.966z
				 M94.081,91.35c-0.778-2.173-1.656-4.139-2.642-5.895c-0.986-1.755-2.004-3.215-3.065-4.379c-1.064-1.167-2.132-2.003-3.21-2.506
				c-1.08-0.502-2.092-0.591-3.035-0.269c-0.781,0.267-1.401,0.916-1.853,1.943c-0.451,1.025-0.718,2.305-0.789,3.839
				c-0.069,1.53,0.062,3.287,0.405,5.257c0.343,1.969,0.902,4.044,1.678,6.216C86.526,93.853,89.029,93.01,94.081,91.35z"/>
			<path d="M131.417,61.222c1.272,6.043,1.955,9.065,3.404,15.105c-4.168,1.166-6.24,1.759-10.361,2.963
				c5.542,20.752,12.619,41.463,20.826,62.148c-2.282,0.739-3.417,1.109-5.675,1.848c-14.894-35.525-26.322-71.144-32.137-106.933
				c2.993-0.875,4.495-1.304,7.503-2.15c3.01-0.85,4.519-1.269,7.542-2.09c0.854,6.045,1.33,9.067,2.386,15.109
				c-2.949,0.81-4.418,1.222-7.35,2.057c1.163,5.983,1.796,8.974,3.155,14.954C124.972,63.005,127.113,62.402,131.417,61.222z"/>
			<path d="M164.831,114.566c-1.889,0.538-3.844,0.254-5.898-0.851c-2.052-1.104-4.062-2.834-6.015-5.193
				c-1.95-2.355-3.788-5.25-5.476-8.681c-1.687-3.43-3.089-7.205-4.157-11.319c-1.125-4.335-1.775-8.503-1.939-12.508
				c-0.164-4.005,0.128-7.592,0.854-10.763c0.727-3.17,1.88-5.816,3.42-7.928c1.538-2.108,3.417-3.437,5.597-3.976
				c2.179-0.538,4.312-0.278,6.387,0.778c2.073,1.055,3.984,2.73,5.743,5.018c1.76,2.289,3.302,5.105,4.646,8.446
				c1.345,3.341,2.378,7.01,3.134,11.018c0.839,4.441,1.314,8.715,1.438,12.806c0.125,4.094-0.071,7.772-0.601,11.029
				c-0.529,3.258-1.375,5.96-2.554,8.101C168.23,112.686,166.717,114.029,164.831,114.566z M164.589,109.985
				c0.982-0.275,1.724-1.123,2.247-2.536c0.521-1.408,0.845-3.194,0.98-5.346c0.134-2.155,0.069-4.604-0.193-7.355
				c-0.262-2.753-0.706-5.606-1.332-8.554c-0.905-4.263-1.873-8.209-2.928-11.824c-1.056-3.615-2.208-6.711-3.486-9.292
				c-1.277-2.58-2.676-4.512-4.213-5.787c-1.538-1.277-3.235-1.687-5.078-1.226c-0.949,0.238-1.762,1.035-2.429,2.391
				c-0.665,1.351-1.143,3.104-1.417,5.246c-0.274,2.145-0.329,4.581-0.153,7.307c0.176,2.73,0.61,5.572,1.302,8.527
				c0.999,4.265,2.199,8.22,3.565,11.864c1.365,3.64,2.814,6.752,4.307,9.33c1.495,2.58,3.01,4.53,4.527,5.849
				C161.805,109.896,163.238,110.365,164.589,109.985z"/>
			<path d="M172.051,49.72c2.282-0.504,3.426-0.752,5.716-1.242c0.559,4.426,0.854,6.639,1.479,11.064
				c0.313-1.757,0.695-3.45,1.142-5.075s0.951-3.08,1.514-4.352c0.563-1.272,1.185-2.312,1.858-3.121
				c0.673-0.808,1.402-1.289,2.181-1.447c0.635-0.128,1.246-0.055,1.83,0.216s1.115,0.679,1.591,1.231
				c0.477,0.554,0.881,1.231,1.21,2.035c0.33,0.803,0.547,1.675,0.655,2.615c0.215,1.881,0.095,3.36-0.369,4.439
				c-0.462,1.078-1.207,1.726-2.237,1.941c-0.64,0.134-1.17,0.105-1.587-0.084c-0.417-0.19-0.804-0.426-1.161-0.706
				c-0.356-0.278-0.716-0.521-1.068-0.721c-0.355-0.201-0.774-0.257-1.255-0.153c-0.373,0.081-0.725,0.387-1.044,0.922
				c-0.321,0.537-0.617,1.256-0.884,2.155c-0.266,0.899-0.514,1.949-0.74,3.143c-0.226,1.189-0.433,2.486-0.617,3.882
				c2.06,13.515,4.531,27.031,7.337,40.551c-2.023,0.525-3.03,0.792-5.041,1.324C178.232,88.798,174.648,69.26,172.051,49.72z"/>
			<path d="M215.824,92.518c-0.383,2.812-1.048,5.121-2.001,6.935c-0.953,1.812-2.266,2.922-3.957,3.326
				c-0.877,0.209-1.691,0.065-2.431-0.428c-0.744-0.495-1.423-1.29-2.036-2.378c-0.612-1.087-1.154-2.441-1.619-4.051
				c-0.465-1.611-0.854-3.429-1.159-5.448c-2.067-13.665-3.849-27.322-5.276-40.974c-2.017,0.39-3.023,0.588-5.035,0.989
				c-0.127-1.15-0.19-1.725-0.315-2.875c1.628-0.322,2.906-1.169,3.842-2.544c0.937-1.376,1.648-3.124,2.143-5.25
				c0.494-2.127,0.828-4.542,1.003-7.238c0.176-2.699,0.308-5.551,0.405-8.557c0.681-0.116,1.022-0.173,1.704-0.287
				c0.548,7.924,0.864,11.886,1.574,19.81c2.636-0.482,3.957-0.717,6.601-1.179c0.163,1.937,0.247,2.903,0.417,4.839
				c-2.628,0.467-3.94,0.706-6.56,1.193c1.317,13.614,2.957,27.234,4.857,40.863c0.121,0.863,0.309,1.655,0.567,2.381
				c0.255,0.72,0.554,1.331,0.889,1.829c0.335,0.499,0.709,0.873,1.109,1.113c0.4,0.24,0.804,0.317,1.203,0.226
				c0.597-0.136,1.098-0.571,1.507-1.312c0.407-0.738,0.738-1.613,0.987-2.623C214.877,91.533,215.193,91.862,215.824,92.518z"/>
			<path d="M219.907,40.586c0.965,13.599,2.171,27.207,3.565,40.826c0.146,1.426,0.445,2.742,0.892,3.938
				c0.448,1.2,0.993,2.21,1.629,3.02c0.638,0.813,1.35,1.421,2.129,1.82c0.784,0.4,1.589,0.515,2.418,0.344
				c0.538-0.111,1.093-0.466,1.659-1.068c0.567-0.603,1.108-1.385,1.622-2.35c0.515-0.964,0.989-2.058,1.42-3.272
				c0.434-1.215,0.774-2.489,1.022-3.822c-1.086-13.844-2.039-27.674-2.82-41.493c2.359-0.337,3.541-0.501,5.906-0.82
				c0.953,18.833,2.161,37.69,3.532,56.573c-2.153,0.43-3.227,0.648-5.37,1.089c-0.358-4.255-0.534-6.383-0.877-10.638
				c-0.35,1.714-0.827,3.371-1.422,4.961c-0.598,1.596-1.263,3.019-1.993,4.272c-0.73,1.252-1.499,2.282-2.312,3.092
				c-0.812,0.809-1.607,1.298-2.387,1.467c-1.162,0.25-2.304,0.022-3.438-0.698c-1.135-0.721-2.178-1.798-3.134-3.236
				s-1.786-3.194-2.488-5.262c-0.7-2.065-1.194-4.332-1.473-6.804c-1.549-13.668-2.881-27.326-3.942-40.975
				C216.386,41.157,217.559,40.964,219.907,40.586z"/>
			<path d="M246.291,36.794c2.37-0.299,3.555-0.444,5.929-0.725c0.158,4.083,0.238,6.125,0.403,10.208
				c1.629-4.016,3.399-7.068,5.288-9.171s3.86-3.251,5.893-3.458c1.045-0.106,2.043,0.232,2.987,1.012
				c0.943,0.779,1.773,1.887,2.486,3.324c0.712,1.433,1.285,3.145,1.722,5.131c0.438,1.983,0.676,4.114,0.717,6.398
				c0.226,13.112,0.413,26.237,0.546,39.376c-2.21,0.37-3.311,0.558-5.512,0.939c-0.271-12.606-0.574-25.2-0.88-37.783
				c-0.09-3.632-0.599-6.342-1.536-8.127c-0.937-1.785-2.105-2.605-3.492-2.448c-0.629,0.071-1.29,0.34-1.979,0.802
				c-0.689,0.461-1.384,1.091-2.076,1.888c-0.693,0.798-1.38,1.735-2.06,2.815c-0.679,1.08-1.321,2.273-1.93,3.573
				c0.563,13.806,1.186,27.626,1.839,41.46c-2.173,0.407-3.259,0.613-5.423,1.031C248.117,74.265,247.119,55.517,246.291,36.794z"/>
			<path d="M299.221,84.815c-2.244,0.303-3.364,0.459-5.602,0.776c0.097-2.919,0.141-4.379,0.227-7.298
				c-0.699,1.047-1.381,2.116-2.047,3.197c-0.667,1.081-1.383,2.091-2.146,3.033c-0.76,0.939-1.595,1.734-2.497,2.385
				c-0.904,0.652-1.945,1.071-3.119,1.252c-1.086,0.168-2.073-0.022-2.947-0.571c-0.877-0.551-1.623-1.389-2.244-2.507
				c-0.624-1.121-1.104-2.483-1.439-4.091c-0.335-1.607-0.509-3.377-0.517-5.308c-0.01-2.332,0.224-4.476,0.705-6.419
				c0.481-1.94,1.149-3.71,2-5.299c0.852-1.589,1.856-3.024,3.01-4.298c1.153-1.272,2.378-2.43,3.679-3.469
				c1.3-1.038,2.649-1.973,4.037-2.803c1.389-0.83,2.753-1.604,4.086-2.318c0.017-1.332,0.025-1.999,0.039-3.331
				c0.025-2.418-0.097-4.452-0.355-6.103c-0.259-1.652-0.644-2.98-1.146-3.972c-0.501-0.991-1.122-1.688-1.837-2.086
				c-0.718-0.398-1.534-0.568-2.431-0.502c-1.008,0.074-1.834,0.372-2.465,0.888c-0.634,0.517-1.132,1.179-1.49,1.979
				c-0.358,0.8-0.601,1.702-0.725,2.703c-0.125,1.002-0.183,2.006-0.178,3.014c0.004,0.939-0.035,1.851-0.116,2.732
				c-0.079,0.88-0.226,1.656-0.445,2.336c-0.219,0.677-0.518,1.236-0.891,1.676c-0.374,0.441-0.864,0.69-1.446,0.752
				c-0.457,0.048-0.879-0.066-1.257-0.346c-0.379-0.28-0.707-0.697-0.987-1.242c-0.281-0.544-0.5-1.201-0.657-1.966
				c-0.155-0.756-0.239-1.598-0.251-2.51c-0.023-1.788,0.285-3.498,0.918-5.111s1.495-3.033,2.585-4.251
				c1.091-1.22,2.372-2.214,3.849-2.979c1.473-0.761,3.034-1.196,4.669-1.305c1.993-0.132,3.678,0.103,5.051,0.698
				s2.48,1.482,3.315,2.65c0.837,1.168,1.434,2.613,1.788,4.333c0.355,1.722,0.513,3.627,0.479,5.731
				C300.21,58.169,299.804,71.486,299.221,84.815z M294.364,54.506c-0.853,0.574-1.736,1.222-2.648,1.943
				c-0.91,0.719-1.81,1.52-2.678,2.39c-0.869,0.871-1.702,1.819-2.486,2.824c-0.784,1.005-1.472,2.065-2.063,3.175
				c-0.589,1.108-1.059,2.276-1.403,3.49c-0.346,1.218-0.519,2.472-0.525,3.746c-0.007,1.311,0.112,2.548,0.362,3.707
				c0.249,1.156,0.581,2.151,0.994,2.979c0.415,0.829,0.896,1.464,1.439,1.904c0.543,0.439,1.118,0.62,1.714,0.536
				c0.63-0.088,1.237-0.335,1.811-0.726c0.579-0.395,1.141-0.899,1.69-1.5c0.552-0.604,1.104-1.301,1.661-2.084
				c0.557-0.782,1.132-1.606,1.721-2.469C294.156,66.459,294.241,62.474,294.364,54.506z"/>
			<path d="M322.354,75.576c-0.955,2.412-2.126,4.374-3.492,5.879c-1.364,1.503-2.958,2.369-4.781,2.586
				c-0.947,0.113-1.747-0.077-2.401-0.574c-0.652-0.495-1.178-1.248-1.567-2.259c-0.391-1.012-0.651-2.249-0.787-3.713
				c-0.136-1.46-0.156-3.101-0.061-4.912c0.655-12.267,1.106-24.524,1.351-36.772c-2.098,0.094-3.145,0.145-5.24,0.255
				c0.015-1.038,0.018-1.557,0.029-2.596c1.693-0.081,3.097-0.675,4.205-1.771c1.111-1.1,2.031-2.558,2.756-4.373
				c0.725-1.814,1.301-3.908,1.719-6.269c0.418-2.364,0.783-4.87,1.096-7.512c0.699-0.005,1.05-0.007,1.749-0.01
				c-0.021,7.081-0.063,10.62-0.203,17.694c2.733-0.083,4.104-0.117,6.841-0.171c-0.048,1.718-0.074,2.577-0.131,4.294
				c-2.728,0.073-4.091,0.116-6.813,0.215c-0.312,12.139-0.86,24.287-1.635,36.443c-0.048,0.768-0.012,1.48,0.104,2.137
				c0.117,0.66,0.298,1.221,0.538,1.689c0.241,0.467,0.548,0.827,0.909,1.073c0.359,0.247,0.755,0.351,1.178,0.309
				c0.642-0.063,1.245-0.406,1.813-1.014c0.568-0.611,1.084-1.342,1.539-2.207C321.583,74.631,321.842,74.946,322.354,75.576z"/>
			<path d="M337.73,81.58c-1.931,0.171-3.664-0.291-5.222-1.408c-1.555-1.116-2.858-2.717-3.93-4.81
				c-1.071-2.093-1.861-4.604-2.377-7.521c-0.517-2.918-0.666-6.09-0.443-9.499c0.267-4.072,0.831-7.87,1.724-11.367
				c0.891-3.494,2.033-6.518,3.445-9.055c1.413-2.537,3.073-4.511,4.982-5.92c1.906-1.409,4.001-2.096,6.267-2.075
				c2.017,0.019,3.839,0.619,5.452,1.773c1.611,1.153,2.957,2.69,4.022,4.598c1.065,1.906,1.826,4.098,2.281,6.571
				c0.455,2.471,0.545,5.048,0.279,7.749c-8.952,0.076-13.418,0.189-22.33,0.554c-0.221,3.379-0.187,6.503,0.099,9.363
				c0.283,2.856,0.775,5.298,1.488,7.316c0.714,2.021,1.635,3.57,2.771,4.651c1.137,1.082,2.439,1.561,3.93,1.454
				c1.258-0.089,2.503-0.516,3.736-1.273c1.232-0.757,2.388-1.717,3.462-2.87c1.075-1.153,2.032-2.462,2.869-3.919
				c0.836-1.455,1.484-2.939,1.933-4.45c0.614,0.466,0.922,0.698,1.533,1.162c-0.719,2.496-1.694,4.852-2.905,7.076
				c-1.211,2.223-2.541,4.19-3.983,5.902c-1.442,1.712-2.951,3.107-4.524,4.182C340.717,80.838,339.199,81.449,337.73,81.58z
				 M347.086,46.795c0.15-1.859,0.08-3.587-0.211-5.186c-0.291-1.601-0.755-2.992-1.392-4.173c-0.635-1.178-1.417-2.11-2.338-2.79
				c-0.922-0.68-1.933-1.025-3.03-1.024c-0.908,0.001-1.802,0.341-2.681,1.032c-0.874,0.686-1.662,1.628-2.371,2.821
				c-0.709,1.194-1.317,2.618-1.827,4.269c-0.51,1.649-0.867,3.434-1.075,5.344C338.122,46.907,341.107,46.847,347.086,46.795z"/>
			<path d="M410.33,13.729c-7.668,27.064-18.017,54.055-29.547,81.133c2.459-28.581,1.554-57.068-2.391-85.471
				c3.382,0.365,5.074,0.561,8.467,0.977c1.771,13.448,2.834,26.913,3.162,40.399c4.438-12.784,8.393-25.579,11.839-38.365
				C405.244,12.907,406.938,13.172,410.33,13.729z"/>
			<path d="M419.766,79.011c-2.198-0.069-4.064-0.66-5.617-1.795c-1.557-1.138-2.756-2.675-3.608-4.622
				c-0.854-1.951-1.353-4.242-1.504-6.87c-0.15-2.63,0.091-5.437,0.732-8.397c0.675-3.118,1.67-6.025,3.002-8.684
				c1.333-2.659,2.89-4.922,4.695-6.764c1.806-1.841,3.81-3.2,6.024-4.071c2.214-0.871,4.516-1.106,6.888-0.732
				c2.368,0.373,4.461,1.25,6.238,2.592c1.779,1.342,3.198,3.007,4.237,4.974c1.041,1.969,1.658,4.168,1.845,6.591
				c0.186,2.425-0.107,4.931-0.875,7.537c-0.852,2.89-2.087,5.553-3.673,8.023c-1.587,2.47-3.398,4.612-5.399,6.438
				c-2.003,1.826-4.124,3.264-6.351,4.308C424.178,78.579,421.964,79.079,419.766,79.011z M421.758,76.116
				c1.134,0.047,2.301-0.307,3.496-1.054c1.192-0.746,2.351-1.758,3.46-3.034c1.111-1.279,2.131-2.781,3.053-4.516
				c0.921-1.734,1.665-3.579,2.23-5.539c0.816-2.833,1.356-5.505,1.627-8.024c0.27-2.515,0.196-4.769-0.219-6.758
				c-0.415-1.99-1.208-3.632-2.354-4.922c-1.151-1.292-2.741-2.103-4.755-2.398c-1.036-0.152-2.11,0.1-3.218,0.757
				c-1.107,0.657-2.156,1.632-3.159,2.926c-1.002,1.291-1.911,2.843-2.727,4.648c-0.814,1.803-1.446,3.757-1.907,5.84
				c-0.666,3.011-1.099,5.857-1.291,8.523c-0.191,2.667-0.134,5.001,0.193,6.985c0.328,1.985,0.943,3.559,1.859,4.726
				C418.964,75.441,420.196,76.05,421.758,76.116z"/>
			<path d="M460.083,23.35c0.502,0.131,0.957,0.356,1.371,0.674c0.409,0.313,0.748,0.687,1.011,1.109
				c0.263,0.424,0.449,0.886,0.556,1.388c0.105,0.5,0.103,1.008-0.005,1.512c-0.107,0.505-0.309,0.958-0.604,1.356
				c-0.297,0.399-0.644,0.723-1.045,0.977c-0.398,0.254-0.839,0.423-1.326,0.512c-0.483,0.088-0.976,0.071-1.47-0.048
				c-0.489-0.118-0.937-0.327-1.328-0.628c-0.389-0.301-0.711-0.666-0.968-1.085c-0.254-0.416-0.435-0.882-0.542-1.387
				c-0.107-0.504-0.111-1.025-0.013-1.539c0.1-0.518,0.294-0.987,0.58-1.396c0.285-0.407,0.618-0.746,1.012-1.003
				c0.395-0.257,0.83-0.427,1.306-0.511C459.091,23.194,459.582,23.218,460.083,23.35z M452.443,43.28
				c1.942-0.517,2.918-0.766,4.868-1.242c0.716,0.151,1.069,0.227,1.785,0.38c-3.328,12.474-7.515,24.892-12.419,37.258
				c-2.266-0.184-3.4-0.27-5.669-0.429C445.514,67.303,449.365,55.315,452.443,43.28z"/>
			<path d="M465.411,82.287c-1.855-0.214-3.398-0.833-4.647-1.891c-1.25-1.057-2.157-2.43-2.735-4.129
				c-0.579-1.699-0.808-3.663-0.7-5.884c0.108-2.225,0.602-4.568,1.476-7.001c0.97-2.699,2.245-5.175,3.851-7.385
				c1.605-2.211,3.401-4.049,5.406-5.484c2.006-1.437,4.122-2.415,6.368-2.931s4.485-0.47,6.695,0.115
				c1.715,0.454,3.222,1.087,4.518,1.882c1.295,0.794,2.327,1.687,3.093,2.668c0.766,0.981,1.246,2.022,1.441,3.11
				c0.197,1.089,0.067,2.164-0.388,3.229c-0.201,0.473-0.513,0.891-0.926,1.257c-0.414,0.366-0.879,0.661-1.384,0.885
				c-0.506,0.225-1.034,0.375-1.584,0.45c-0.551,0.076-1.067,0.059-1.546-0.055c-0.531-0.126-0.974-0.346-1.309-0.657
				c-0.335-0.312-0.587-0.672-0.757-1.079c-0.17-0.406-0.244-0.844-0.23-1.31c0.014-0.466,0.105-0.925,0.283-1.376
				c0.298-0.754,0.504-1.484,0.613-2.187c0.107-0.704,0.057-1.349-0.138-1.928c-0.195-0.581-0.569-1.095-1.13-1.547
				c-0.56-0.45-1.354-0.809-2.376-1.069c-1.382-0.351-2.732-0.347-4.044,0.017c-1.313,0.364-2.532,1.003-3.651,1.909
				c-1.119,0.905-2.126,2.059-3.025,3.435c-0.901,1.379-1.652,2.898-2.252,4.543c-0.812,2.228-1.355,4.383-1.633,6.439
				c-0.278,2.059-0.286,3.888-0.012,5.484c0.275,1.595,0.838,2.899,1.696,3.915c0.86,1.019,2.042,1.624,3.557,1.84
				c1.335,0.19,2.606,0.122,3.808-0.199c1.202-0.321,2.361-0.82,3.466-1.493s2.165-1.483,3.186-2.433
				c1.021-0.949,2.013-1.958,2.975-3.031c0.547,0.448,0.822,0.672,1.365,1.117c-1.432,1.864-2.955,3.501-4.55,4.924
				c-1.593,1.422-3.22,2.592-4.865,3.517c-1.643,0.922-3.303,1.592-4.975,1.998C468.68,82.358,467.036,82.475,465.411,82.287z"/>
			<path d="M496.08,86.844c-1.884-0.346-3.438-1.013-4.665-2.043c-1.228-1.029-2.102-2.306-2.635-3.837
				c-0.534-1.534-0.698-3.269-0.508-5.199c0.189-1.93,0.79-3.945,1.802-6.002c1.209-2.457,2.647-4.669,4.327-6.584
				c1.681-1.914,3.493-3.444,5.468-4.574c1.974-1.13,4.063-1.82,6.27-2.059c2.204-0.239,4.423,0.041,6.633,0.812
				c1.968,0.687,3.597,1.659,4.873,2.881c1.275,1.22,2.188,2.57,2.729,4.028c0.543,1.458,0.718,2.97,0.524,4.528
				c-0.193,1.56-0.751,3.058-1.68,4.515c-8.509-2.755-12.828-4.01-21.534-6.302c-1.008,2.005-1.713,3.924-2.116,5.745
				c-0.404,1.818-0.507,3.431-0.303,4.833c0.203,1.405,0.717,2.567,1.543,3.496c0.825,0.928,1.964,1.537,3.408,1.845
				c1.22,0.26,2.505,0.321,3.856,0.194c1.354-0.127,2.681-0.382,3.976-0.763c1.292-0.38,2.513-0.874,3.655-1.478
				c1.142-0.604,2.112-1.268,2.905-2.002c0.466,0.444,0.698,0.665,1.16,1.105c-1.288,1.211-2.776,2.278-4.452,3.219
				c-1.674,0.94-3.408,1.725-5.179,2.347c-1.771,0.623-3.53,1.06-5.281,1.309C499.11,87.106,497.517,87.108,496.08,86.844z
				 M513.381,68.884c0.602-1.04,0.962-2.07,1.076-3.101c0.114-1.027,0.014-1.994-0.31-2.892c-0.324-0.901-0.852-1.707-1.581-2.411
				c-0.725-0.701-1.627-1.239-2.7-1.597c-0.889-0.295-1.844-0.377-2.862-0.242c-1.019,0.135-2.018,0.454-2.989,0.958
				c-0.971,0.505-1.902,1.188-2.787,2.04c-0.883,0.853-1.651,1.841-2.303,2.95C504.748,66.205,507.643,67.063,513.381,68.884z"/>
		</g>
	</g>
</g>
<path fill="#E2E0CF" d="M302.705,203.113c-0.518-0.5-1.666-0.455-1.881-0.165c-0.55,0.741-1.266,1.621-1.146,2.946
	c0.859-0.173,1.645,0.127,2.333,0.353c0.321-0.347,1.128-1.088,1.287-1.395c0.085-0.156,0.032-0.816-0.031-0.996
	C303.209,203.694,302.844,203.249,302.705,203.113z"/>
<path fill="#E2E0CF" d="M303.6,214.919c-0.102,0.185-0.08,0.996,0,1.207c0.061,0.153,0.541,0.547,0.704,0.604
	c0.179,0.064,0.85,0.082,1.007,0c0.307-0.162,1.1-0.938,1.258-1.233c0.102-0.191,0.134-0.973,0.051-1.184
	c-0.059-0.153-0.539-0.547-0.701-0.605c-0.183-0.063-0.852-0.081-1.01,0C304.604,213.871,303.762,214.624,303.6,214.919z"/>
<path fill="#E2E0CF" d="M305.111,209.683c0.136,0.31,0.929,1.143,1.316,1.294c0.718,0.272,1.245-0.735,1.702-1.355
	c0.104-0.145,0-1.065,0-1.349h-3.019C305.111,208.557,305.007,209.449,305.111,209.683z"/>
<path fill="#E2E0CF" d="M311.753,228.205v-3.016c-0.523,0-2.11-0.093-2.616,0c-0.156,0.029-0.562,0.48-0.794,0.678
	c0.232,0.694,0.531,1.476,0.354,2.338H311.753z"/>
<path fill="#E2E0CF" d="M312.357,219.75c-0.522,0-2.152-0.165-2.596,0c-0.428,0.159-0.917,0.547-1.027,1.01
	c-0.118,0.492,0,2.09,0,2.617c0.523,0,2.272,0.237,2.597,0c0.567-0.414,0.892-1.268,1.024-2.015
	C312.41,221.049,312.357,220.072,312.357,219.75z"/>
<path fill="#E2E0CF" d="M309.327,201.969c-1.267-0.359-2.501,0.495-2.706,1.477c-0.131,0.619,0.316,1.019,0.796,1.204
	c0.304,0.122,1.711,0.075,2.073-0.073c0.428-0.173,0.891-0.478,1.056-0.935c0.064-0.177,0.047-0.839-0.046-0.973
	C310.353,202.461,309.589,202.042,309.327,201.969z"/>
<path fill="#E2E0CF" d="M296.654,215.892c-0.126,0.252,0,1.161,0,1.441c0.522,0,2.154,0.166,2.598,0
	c0.429-0.156,0.859-0.55,1.027-1.007c0.063-0.174,0.029-0.816-0.034-0.993c-0.056-0.165-0.493-0.553-0.581-0.703
	c-0.328-0.55-0.994-0.344-1.377-0.174C297.67,214.734,296.98,215.246,296.654,215.892z"/>
<rect x="311.753" y="235.453" fill="#E2E0CF" width="3.022" height="3.022"/>
<rect x="297.258" y="242.703" fill="#E2E0CF" width="3.021" height="3.02"/>
<rect x="305.111" y="236.061" fill="#E2E0CF" width="3.019" height="3.019"/>
<path fill="#E2E0CF" d="M306.328,241.774c-0.613-0.411-1.648-0.434-2.146,0.313c-0.411,0.614-0.434,1.656,0.312,2.148
	c0.613,0.411,1.655,0.434,2.147-0.31C307.053,243.309,307.076,242.272,306.328,241.774z"/>
<path fill="#E2E0CF" d="M308.057,230.243c-0.715-0.272-1.283,0.828-1.74,1.45c-0.104,0.142,0,1.065,0,1.346h3.022
	c0-0.281,0.104-1.175,0-1.41C309.199,231.319,308.447,230.391,308.057,230.243z"/>
<path fill="#E2E0CF" d="M302.068,230.295c-0.634-0.301-1.203,0.469-1.789,0.767c0,0.287-0.121,1.312,0,1.554
	c0.203,0.426,0.55,0.863,1.007,1.028c0.177,0.064,0.829,0.038,0.961-0.04c0.417-0.24,0.886-0.513,1.051-0.97
	c0.064-0.173,0.044-0.825-0.043-0.984C303.098,231.345,302.393,230.451,302.068,230.295z"/>
<path fill="#E2E0CF" d="M304.505,226.596c0.082-0.255,0-1.126,0-1.407c-0.523,0-2.152-0.167-2.598,0
	c-0.427,0.156-0.878,0.544-1.025,1.007c-0.081,0.254,0,1.123,0,1.407c0.523,0,2.152,0.162,2.599,0
	C303.91,227.446,304.357,227.056,304.505,226.596z"/>
<path fill="#E2E0CF" d="M297.86,236.663v2.582c0.587,0.298,1.128,1.001,1.759,0.701c0.327-0.157,1.152-0.962,1.263-1.268
	c0.13-0.359,0-1.61,0-2.015H297.86z"/>
<path fill="#E2E0CF" d="M313.564,240.287h-3.019v3.056c0.862-0.173,1.647,0.128,2.331,0.354c0.265-0.267,0.891-0.782,0.961-0.964
	c0.144-0.364-0.088-0.707-0.273-1.016C313.435,241.49,313.564,240.57,313.564,240.287z"/>
<rect x="293.031" y="231.227" fill="#E2E0CF" width="3.02" height="3.022"/>
<path fill="#E2E0CF" d="M261.528,247.812c-1.47-0.521-3.439-0.874-4.165-0.36c-3.616-0.347-6.656-1.436-10.025-1.765
	c-0.42-0.043-1.615-0.724-2.036-0.796c-5.407-0.923-10.91-2.098-16.316-2.976c-2.243-0.362-4.067-0.912-6.12-0.999
	c-0.436-0.017-0.969,0.521-1.108,0.981c-0.09,0.292,0,1.289,0,1.61l2.237,1.213c3.094,0.197,5.931,0.839,8.634,1.308l22.936,3.746
	c2.102,0.356,4.858,0.084,7.254,0.151c0.08-0.405-0.035-0.845-0.311-1.167C262.281,248.49,261.476,247.795,261.528,247.812z"/>
<path fill="#E2E0CF" d="M309.941,214.115c-0.169,0.463,0,2.093,0,2.616c0.402,0,1.658,0.127,2.015,0
	c0.307-0.113,1.112-0.938,1.238-1.233c0.29-0.677-0.304-1.36-0.851-1.766c-0.342-0.254-0.778-0.44-1.238-0.295
	C310.894,213.501,310.017,213.912,309.941,214.115z"/>
<path fill="#E2E0CF" d="M232.932,304.914c0.162-0.052,0.722,0,0.908,0v3.022h3.019l6.638-2.124c1.262-0.478,2.252-1.315,3.841-1.506
	c0.297-0.041,1.125-0.938,1.033-0.897c6.183-2.668,12.018-5.118,17.479-7.858v-1.509h-3.135l-20.409,7.579
	c-0.43,0.156-1.328,0.237-1.56-0.389c-0.394-1.053-0.967-2.235-2.046-2.689c-1.843-0.044-3.001,0.727-4.288,1.155
	c-7.328,2.438-14.009,5.36-20.492,8.571c-1.213,0.6-2.539,1.022-3.346,2.081c-0.822,1.085-0.86,2.675,0.22,3.625
	c0.115,0.106,1.326,0.161,1.499,0l2.416-2.229c4.384-1.331,7.947-3.256,11.886-4.703L232.932,304.914z"/>
<path fill="#E2E0CF" d="M388.365,228.384c9.25-3.198,19.264-5.743,29.678-7.798c1.723-0.764,4.003-1.105,5.611-2.035l3.062-0.614
	c0.438-0.086,1.614-1.409,1.829-1.85c0.32-0.651-0.295-1.337-0.828-1.766c-0.443-0.353-1.095-0.318-1.6-0.008
	c-0.412,0.251-2.134,0.133-2.625,0.292l-13.503,4.492c-2.15,0.515-3.933,0.92-6.24,1.557c0.165-0.046-0.584-0.084-0.79,0
	c-0.236,0.098-0.794,0.822-0.978,0.845c-3.403,0.394-6.273,1.265-9.12,2.57c-1.899,0.122-3.92,0.435-4.972,1.754
	c-0.261,0.324-0.45,0.758-0.306,1.219C387.65,227.255,388.121,227.965,388.365,228.384z"/>
<path fill="#E2E0CF" d="M388.229,264.977c5.771,1.487,11.953,2.486,17.906,3.658c0.209,0.043,0.631,0.509,0.692,0.625
	c0.33,0.608-0.253,1.04-0.736,1.228c-0.308,0.118-1.714-0.076-2.077,0.076c-0.427,0.173-0.891,0.474-1.056,0.932
	c-0.063,0.179-0.039,0.827,0.041,0.964c0.241,0.414,0.531,0.976,0.941,0.981c11.545,0.118,21.528,2.353,32.331,3.184
	c0.233,0.017,0.753-0.547,0.812-0.701c0.081-0.208,0.103-1.019,0-1.21c-0.159-0.295-1.03-1.143-1.346-1.175
	c-2.505-0.243-5.2-0.355-7.21-0.897c-1.178,0.622-2.198-0.22-3.209-0.122c-2.111-0.521-4.461-0.625-6.07-1.731
	c0.848-0.416,1.691-0.787,2.435-1.293c0.1-0.066,0.098-0.94-0.035-1.048c-1.364-1.103-3.671-1.144-5.618-1.542
	c-3.552-0.733-7.309-0.747-10.82-1.868c-1.597,0.194-3.359-0.153-4.861-0.619c-2.128-0.66-4.824-0.843-7.241-1.254
	c-0.408-0.069-1.639-0.526-2.284-0.526h-4.156c-0.086,0.429,0.027,0.869,0.303,1.192
	C387.201,264.097,387.974,264.913,388.229,264.977z"/>
<path fill="#E2E0CF" d="M315.982,228.205h-3.019c0,0.527-0.163,2.156,0,2.599c0.155,0.429,0.544,0.886,1.007,1.024
	c0.295,0.093,1.334,0.058,1.459-0.052c0.596-0.526,1.146-1.395,0.553-2.246C315.893,229.397,315.982,228.489,315.982,228.205z"/>
<path fill="#E2E0CF" d="M217.326,220.957c0.456,0.214,2.122,0.168,2.608,0.339c6.851,2.376,14.281,4.182,21.17,6.527
	c1.124-0.023,1.987,0.48,2.97,0.782c5.847,1.78,11.774,3.676,18.154,5.019c0.626,0.133,1.101-0.157,1.488-0.597
	c0.493-0.555,0.556-1.812-0.295-2.09c-6.906-2.234-13.777-4.254-20.539-6.593c-1.134,0.064-1.991-0.48-2.981-0.753
	c-6.171-1.713-12.567-3.517-18.398-5.488c-1.643-0.556-3.38-0.784-5.331-0.792c-0.312,0.607-1.108,1.201-0.782,1.812
	C215.64,219.591,216.875,220.749,217.326,220.957z"/>
<path fill="#E2E0CF" d="M419.677,238.909l-6.076,0.096c-4.649,1.103-11.753,0.703-17.878,1.111
	c-0.355,0.026-1.003,0.021-1.323,0.211c-0.69,0.411-1.386,0.891-1.708,1.537c-0.126,0.252,0,1.161,0,1.404
	c3.738,0.341,6.734,0.185,10.067,0.063c0.526-0.02,2.093-0.628,2.616-0.628h9.102c0.825,0,1.732-0.715,2.141-0.564
	c1.35,0.489,2.676,0.191,3.735,0.237c0.973-0.512,2.085-0.735,3.145-0.868l5.804-0.012c0.709,0,1.652-0.385,2.048-1.001
	c0.184-0.289,0-1.615,0-2.02l-9.066-0.012C421.424,238.458,420.58,238.946,419.677,238.909z"/>
<path fill="#E2E0CF" d="M387.098,289.796c1.903,0.432,3.918,0.803,5.555,1.61c2.125,1.048,4.545,1.82,7.264,2.445
	c2.144,0.495,4.469,0.973,6.212,2.004c0.247,0.147,1.198-0.048,1.35,0.017c7.691,3.167,15.624,5.71,23.819,8.221
	c0.502-0.713,1.227-1.005,1.861-1.364c0-0.35,0.12-1.375,0-1.621c-0.201-0.422-0.548-0.868-1.006-1.023
	c-0.216-0.073-1.004,0.087-1.208,0l-2.819-1.208c-0.306-0.133-1.481,0.104-1.811,0c-0.234-0.075-0.803-0.742-0.83-0.747
	l-8.021-2.003c-5.721-1.745-11.734-3.627-17.316-5.725c-1.877-0.113-3.451-0.793-5.361-1.293c-0.186-0.05-0.965-0.953-1.288-1.103
	c-0.2-0.093-1.003,0.087-1.209,0l-2.818-1.21h-3.021c-0.142,0-0.645,0.452-0.705,0.604c-0.08,0.212-0.101,1.022,0,1.207
	C385.905,288.902,386.759,289.719,387.098,289.796z"/>
<path fill="#E2E0CF" d="M213.162,267.437c3.634,0.075,8.093-0.312,11.004,0.423c12.482,0.544,25.778,0.278,36.841-1.36
	c0.515-0.075,0.989-0.452,1.084-0.883c0.104-0.477-0.46-1.224-0.998-1.229l-47.443-0.48c-0.489-0.006-1.208,0.879-1.562,1.514
	c-0.098,0.182-0.035,0.865,0.042,0.999C212.374,266.832,212.663,267.425,213.162,267.437z"/>
<path fill="#E2E0CF" d="M285.121,242.368c-0.64-0.227-1.169,0.477-1.757,0.772v2.583h3.021c0-0.521,0.168-2.153,0-2.617
	C286.313,242.903,285.443,242.48,285.121,242.368z"/>
<path fill="#E2E0CF" d="M290.884,239.021c0.109,0.322,0.534,1.192,0.735,1.265c0.463,0.167,2.096,0,2.619,0v-3.019h-2.582
	C291.357,237.853,290.658,238.382,290.884,239.021z"/>
<path fill="#E2E0CF" d="M294.641,226.393c-0.31,0.139-1.111,0.938-1.268,1.265c-0.301,0.634,0.398,1.172,0.701,1.757h1.977v-3.021
	C295.768,226.393,294.876,226.289,294.641,226.393z"/>
<path fill="#E2E0CF" d="M299.041,210.965c0.365,0.142,0.705-0.093,1.014-0.275c0.225-0.13,1.151,0,1.432,0v-3.019h-3.059
	c0.178,0.862-0.123,1.644-0.348,2.327C298.347,210.268,298.858,210.89,299.041,210.965z"/>
<rect x="294.238" y="221.565" fill="#E2E0CF" width="3.02" height="3.016"/>
<path fill="#E2E0CF" d="M291.035,242.099c-0.426,0.185-0.857,0.549-1.025,1.007c-0.062,0.18-0.062,0.828,0,1.007
	c0.059,0.163,0.452,0.643,0.603,0.707c0.211,0.081,0.978,0.029,1.198-0.035c0.26-0.075,1.129-0.463,1.221-0.671
	c0.148-0.335,0-1.609,0-2.014C292.626,242.099,291.357,241.959,291.035,242.099z"/>
<path fill="#E2E0CF" d="M285.599,237.873c-0.425,0.179-0.885,0.544-1.023,1.007c-0.09,0.292,0,1.285,0,1.571
	c0.583,0.298,1.121,1.005,1.759,0.701c0.324-0.154,1.146-0.958,1.259-1.268c0.13-0.356,0-1.613,0-2.012
	C287.19,237.873,285.923,237.733,285.599,237.873z"/>
<path fill="#E2E0CF" d="M286.386,231.829v3.022c0.285,0,1.204,0.122,1.396,0c0.639-0.405,1.303-0.932,1.627-1.575
	c0.125-0.255,0-1.164,0-1.447H286.386z"/>
<path fill="#E2E0CF" d="M316.563,194.056c-0.634-0.301-1.204,0.469-1.788,0.764v2.582c0.399,0,1.668,0.139,1.993,0
	c0.427-0.182,0.86-0.55,1.025-1.007c0.063-0.176,0.043-0.828-0.041-0.984C317.594,195.104,316.889,194.212,316.563,194.056z"/>
<path fill="#E2E0CF" d="M307.527,198.207c0.025,0.159,0.451,0.648,0.603,0.706c0.21,0.082,0.984,0.064,1.209,0
	c0.262-0.075,1.097-0.495,1.207-0.706c0.131-0.252,0.039-1.297-0.037-1.598c-0.044-0.162-0.388-0.648-0.736-0.915
	c-0.45-0.341-1.435-0.055-2.245-0.081C307.527,196.114,307.434,197.703,307.527,198.207z"/>
<rect x="296.654" y="191.364" fill="#E2E0CF" width="3.018" height="3.016"/>
<path fill="#E2E0CF" d="M302.926,193.112c0.066,0.226,0.613,0.608,0.775,0.666c0.18,0.064,0.838,0.046,0.961-0.046
	c0.625-0.434,1.305-0.894,1.654-1.528c0.103-0.182,0.033-0.851-0.031-1.03c-0.054-0.162-0.419-0.657-0.57-0.718
	c-0.21-0.081-0.984-0.063-1.21,0c-0.261,0.078-0.966,0.564-1.204,0.707C303.532,191.943,302.737,192.476,302.926,193.112z"/>
<path fill="#E2E0CF" d="M297.264,188.547c-0.019,0.119,0.449,0.657,0.597,0.7c0.335,0.099,1.486,0.108,1.812,0
	c0.221-0.072,0.836-0.688,0.908-0.905c0.107-0.324,0.047-1.465-0.049-1.797c-0.043-0.148-0.529-0.628-0.65-0.617
	c-0.806,0.101-1.329-0.573-1.945-0.376c-0.305,0.099-0.875,0.773-0.973,1.074C296.766,187.245,297.362,187.746,297.264,188.547z"/>
<path fill="#E2E0CF" d="M300.279,200.424c0.521,0,2.27,0.237,2.6,0c0.562-0.411,0.888-1.265,1.02-2.015
	c0.057-0.312,0.004-1.288,0.004-1.673l-3.623,0.66V200.424z"/>
<path fill="#E2E0CF" d="M304.908,188.342c0.379,0.156,1.773,0,2.18,0c0.298-0.585,1.001-1.115,0.775-1.754
	c-0.113-0.322-0.533-1.182-0.741-1.265c-0.376-0.159-1.771,0-2.177,0c-0.299,0.584-0.998,1.114-0.775,1.754
	C304.283,187.398,304.703,188.258,304.908,188.342z"/>
<rect x="317.188" y="184.116" fill="#E2E0CF" width="3.022" height="3.016"/>
<path fill="#E2E0CF" d="M312.357,203.023c0.183,0.423,0.548,0.883,1.008,1.025c0.293,0.086,1.316,0.058,1.562-0.058
	c0.423-0.206,0.89-0.492,1.055-0.95c0.064-0.179,0.03-0.816-0.031-0.996c-0.059-0.162-0.372-0.752-0.759-0.932
	c-0.605-0.284-1.772-0.009-2.835-0.064C312.357,201.431,312.219,202.699,312.357,203.023z"/>
<path fill="#E2E0CF" d="M311.453,188.336c0.708-0.315,1.738-0.342,2.111-0.99c0.232-0.399,0-2.104,0-2.628h-2.997
	c-0.194,0.92-0.309,1.901-0.233,2.97C310.357,188,310.898,188.577,311.453,188.336z"/>
<path fill="#E2E0CF" d="M311.354,193.778c0.307-0.11,1.095-0.938,1.256-1.233c0.099-0.188,0.133-0.973,0.053-1.181
	c-0.061-0.156-0.549-0.576-0.706-0.607c-0.507-0.09-2.093,0-2.617,0v3.021C309.738,193.778,310.994,193.905,311.354,193.778z"/>
<path fill="#E2E0CF" d="M316.351,193.176c0.179,0.099,0.886,0.081,1.042,0c0.304-0.162,1.096-0.94,1.259-1.239
	c0.102-0.185,0.13-0.967,0.049-1.181c-0.058-0.151-0.565-0.603-0.703-0.603h-3.222c0,0.284-0.125,1.204,0,1.398
	C315.18,192.189,315.716,192.823,316.351,193.176z"/>
<rect x="286.989" y="226.393" fill="#E2E0CF" width="3.021" height="3.021"/>
<path fill="#E2E0CF" d="M376.982,246.127c-1.357-6.831-2.656-13.656-4.035-20.174c-2.268-10.733-4.764-20.974-6.975-31.741
	c-0.933-4.539-2.096-9.384-3.027-14.07l-2.588-2.654l-2.9-0.622c-0.318-0.067-1.109-1.04-1.314-1.094
	c-3.117-0.825-5.881-1.908-8.747-2.915c-5.141-0.376-10.929-0.257-16.313-0.211l-7.85,0.611c-0.886,0.076-1.722,0.567-2.616,0.637
	c-0.304-0.506-1.06-0.15-1.451-0.092c-8.563,1.297-17.27,2.402-25.534,4.258c-0.498,0.113-2.348-0.246-2.614,0.014l-3.57,3.474
	c-1.503,2.758-3.005,5.32-3.634,8.637c-1.009,5.332-2.086,10.64-3.157,15.677c-1.126,5.285-1.898,10.567-3.104,15.688
	c-0.122,0.51-1.079,1.968-1.042,2.368c0.119,1.215-0.504,2.075-0.796,3.05c-2.458,8.183-5.112,16.571-4.324,27.839
	c1.817,7.097,3.061,14.756,4.998,21.732c0.146,0.509,1.033,1.913,1.181,2.42c0.249,0.839-0.287,1.632-0.46,2.304
	c-0.388,1.5-1.129,2.663-1.5,3.954c-0.408,1.43-0.819,2.828-0.683,4.603c0.041,0.526,0.24,2.459,0.723,2.761
	c1.644,1.019,3.347,2.31,4.782,3.992c0.385,0.964,0.906,1.979,1.687,2.654c0.255,1.151,0.776,2.297,0.633,3.577l-1.349,7.756
	c0.034,6.472,0.113,11.335-0.247,17.303c-0.57,2.07-0.2,4.822-0.917,6.625c-0.202,0.507-0.254,1.786-0.139,2.072
	c0.643,1.552,0.677,3.216,0.822,4.814c0.88,0.399,1.627,0.95,2.213,1.595c0.121,0.136,1.009-0.032,1.119,0.009
	c1.103,0.434,2.168,0.729,2.736,1.551c0.034,1.291,0.531,2.368,0.467,3.479l0.041,9.558l3.444,3.525c0.145,0.135,0.922-0.08,1.083,0
	c0.321,0.16,1.106,1.121,1.418,1.158c1.552,0.191,2.842,0.809,4.389,1.117c1.511,0.301,3.658,0.047,5.479,0.116
	c1.526,0.503,3.019,1.013,4.8,1.222c0.127,1.511-0.166,2.808-0.588,3.918c-0.125,0.319,0.66,1.756,0.908,2.131
	c0.235,0.348,1.211,1.211,1.512,1.512c-0.118,0.06-0.355,0.224-0.607,0.373c1.434,3.523,1.686,7.381,0.958,11.096
	c-0.265,4.2-0.051,8.389,0.293,12.789c0.016,0.203,0.026,0.406,0.038,0.609c0.669,0.777,1.104,1.813,1.127,3.119
	c0.039,2.132,0.172,4.255,0.242,6.375c1.043,0.011,2.166-0.022,3.438-0.139c0.066-0.005,1.337,0.505,1.759,0.505h12.194
	c0.534-1.422,1.288-2.753,2.203-4.005c-0.05-0.044-0.112-0.084-0.156-0.129c-0.248-0.254-0.654-1.067-0.64-1.282l1.184-16.316
	c0.014-0.173,0.043-0.411,0.086-0.652c-0.106-1.113-0.113-2.241-0.033-3.368c-0.728-2.736-0.6-5.697,0.533-8.206
	c-0.069-0.112-0.135-0.223-0.192-0.323c-0.153-0.26-0.205-1.436-0.078-1.797c0.736-2.081,1.994-3.731,3.451-6.082
	c0.414-0.394,1.652-0.775,2.932-1.36c7.361,0.081,14.507-0.55,19.428-3.126l2.865-2.889c1.21-1.708,1.584-4.081,2.355-6.041
	c-0.048-2.724,0.172-5.601-0.144-8.05c0.157-0.729,0.265-1.506,0.573-2.118c-0.004-0.164-0.012-0.324,0-0.497
	c0.218-3.281,0.476-6.544,0.916-9.793c-0.151-0.163-0.319-0.373-0.334-0.466c-0.324-2.177-1.08-4.379-1-6.452
	c0.117-3.042-0.24-5.561,0.103-8.854c0.587-5.69,0.138-12.417,0.251-18.377c0.446-1.132,0.752-2.196,1.537-2.737
	c3.225-0.536,5.258-2.568,6.889-4.742l-0.085-10.243c1.583-4.495,3.438-8.191,4.563-12.244c0.582-2.101,0.973-4.139,1.508-5.653
	C378.552,255.152,377.866,250.573,376.982,246.127z M352.826,283.976c0.093-0.422,0.677-1.644,0.926-1.998
	c0.631-0.888,1.771-1.76,3.326-1.499c0.113,0.02,0.588,0.541,0.582,0.729c-0.029,1.221-0.49,2.391-0.592,3.578l-0.014,4.738
	c0,0.785-0.443,1.806-1.242,1.959c-0.61,0.122-1.067-0.59-1.418-1.099c-0.775-1.138-1.1-2.704-1.522-4.203
	C352.756,285.771,352.736,284.398,352.826,283.976z M349.393,346.61c0.405,0.599-0.098,1.374-0.504,1.785l-2.463,2.386
	c-13.549,0.218-28.195,1.229-41.938,0.233c-0.361-0.025-1.661-1.339-1.854-1.867c-0.271-0.753,0.388-1.545,0.49-2.559
	c0.023-0.249,0.917-1.204,1.179-1.204h3.826c3.212,1.192,8.521,1.112,12.486,0.607c0.527-0.067,2.091-0.607,2.613-0.607h23.929
	C347.975,345.385,348.953,345.958,349.393,346.61z M295.798,184.151c-0.022-0.59,0.649-1.586,1.46-1.945v1.91h3.057
	c-0.174-0.863,0.127-1.65,0.353-2.339c-0.226-0.2-0.632-0.637-0.792-0.683c-0.261-0.075-1.129,0-1.407,0v-1.233
	c0.808-0.029,1.725-0.066,2.443-0.107c1.187-0.066,2.323-0.671,3.85-0.425c0.098,0.015,0.509,0.437,0.745,0.64
	c-0.338,0.732-0.555,1.73-0.346,2.938c0.353,0,1.588,0.104,1.962,0c0.464-0.127,0.727-0.637,0.967-1.048
	c0.081-0.136,0.116-0.799,0.041-0.967c-0.105-0.234-0.73-0.799-0.892-1.016c-0.255-0.341-0.389-0.767-0.301-1.195h3.236
	c0.288,0,0.543-0.666,0.977-0.643v3.26c0,0.139,0.945,0.625,1.264,0.734c0.641,0.226,1.172-0.474,1.758-0.772v-2.782
	c0-0.434,0.598-0.851,1.023-1.007c0.445-0.162,2.075,0,2.633,0c0.027,0.432-0.553,0.651-0.64,0.976c-0.135,0.518,0,2.125,0,2.648
	h3.022c0-0.524,0.139-2.13,0-2.648c-0.087-0.324-0.666-0.544-0.643-0.943c1.393-0.287,2.635-0.68,4.33-0.657
	c-0.02,0.944-0.83,1.817-0.574,2.449c0.307,0.735,0.893,1.76,1.599,1.479c0.46-0.182,1.431-1.132,1.63-1.491
	c0.102-0.185,0.118-1.036,0-1.245c-0.281-0.48-0.999-0.584-1.52-0.859c0.211-0.191,0.805-0.929,1.045-0.941
	c1.312-0.063,2.741,0.191,3.835-0.121c1.319-0.376,3.21-0.643,5.048-0.405c0.298,0.04,1.723,1.337,1.656,1.658l-9.249,44.978
	c-0.448,2.153-0.835,4.729-1.241,7.242c-0.759,4.681-1.994,8.996-2.399,14.111c-0.058,0.721-0.355,1.6-1.103,2.028
	c-1.441,0.826-3.485,1.054-6.056,1.338c-0.632-0.269-2.31-0.446-3.647-0.976c-0.665-0.264-1.191,0.472-1.973,0.243
	c-0.881,0.999-2.169,1.508-3.653,2.168c-0.909-0.139-1.853-0.863-2.556-1.185c-1.81-0.257-3.511,0.032-4.871,0.403
	c0.006,0-0.564,0.66-0.801,0.723c-0.45,0.116-2.024,0.18-2.366,0c-1.146-0.61-2.438-0.914-3.577-1.256l-5.06,2.53
	c-0.469,0.234-1.456-0.167-2.055-0.48c-0.976-0.51-2.137-0.926-3.488-1.089c-0.776-0.66-1.418-1.51-2.15-2.257
	c-0.104-0.11-0.104-0.872-0.053-1.083c0.625-2.53,0.996-4.747,1.534-7.543l4.799-16.921L295.798,184.151z M318.79,306.046
	c-0.229,0.2-0.632,0.623-0.793,0.681c-0.501,0.185-2.097,0.605-2.619,0.605h-17.096c-0.388,0-0.877-1.266-1.021-2.013
	c-0.044-0.234,0.043-0.987-0.05-1.221c-0.127-0.324-0.619-0.561-0.587-1.059l18.95-0.445c1.558,0.092,3.525,0.164,5.215,0.196
	c0.148,0.003,0.51,0.254,0.631,0.312l-2.981,0.597C318.261,304.572,318.562,305.354,318.79,306.046z M288.614,339.075
	c-0.243-0.13-1.782,0.087-2.199-0.035c-0.58-0.163-1.337-0.429-1.388-0.788c-0.509-3.804-0.21-6.46-0.367-9.569
	c0.431-2.535,0.707-6.084,0.486-9.442c1.262-6.095,0.663-11.397,0.759-17.143c-0.811-4.773-2.09-8.785-3.213-13.266l-3.241-9.888
	c-0.672-3.167-1.198-5.946-1.74-9.083c0.095-1.002-0.743-2.026-0.061-3.317c-1.037-4.092-2.61-8.156-3.338-12.77l-0.037-5.647
	c0.277-2.021,1.139-3.65,1.305-5.737c1.103-3.094,1.606-6.434,2.547-9.702c0.885-3.077,1.566-6.371,2.294-9.699
	c0.09-0.423,0.689-1.618,0.785-2.041l8.637-37.492c0.079-0.331,0.64-1.204,1.334-0.839c0.179,0.092,0.665,0.584,0.644,0.691
	l-12.38,50.94c-1.068,4.382-2.052,9.21-2.915,13.911l0.023,4.811c0.15,4.631,1.673,9.202,3.441,12.696l7.384,30.166
	c0.62,2.123,1.517,4.528,2.181,6.82c0.251,0.862-0.23,1.581-0.803,1.974c0.082,0.984,0.655,1.841,0.655,2.663v3.062h13.488
	c0.158,0,0.299,0.089,0.426,0.217c2.697-0.234,5.379-0.244,8.113-0.233c0.094-0.071,0.188-0.118,0.245-0.128
	c2.902-0.538,4.672-0.173,7.696-0.347c0.562-0.036,2.119-0.712,2.646-0.712h7.481c0.581,0,1.577-1.064,1.577-1.627v-3.409
	c0-0.435-0.643-1.054-1.1-1.071l-6.733-0.354c1.911-0.805,4.091-1.546,6.566-1.138c0.355,0.062,1.654-1.409,1.907-1.907
	c0.182-0.348-0.275-1.054,0.338-1.419c-0.688-4.038-0.5-9.08-1.152-13.418c-0.844-5.633-1.209-12.127-1.809-17.952
	c-0.402-3.928-1.403-6.64-1.572-10.46c-0.248-5.726-0.149-11.434,0.614-16.496c2.638-17.485,6.05-34.236,10.16-50.355
	c0.075-0.301-0.047-1.297,0.028-1.601c0.104-0.419,0.762-1.6,0.857-2.02c0.515-2.278,0.653-5.091,1.342-7.216
	c0.162-0.507,0.881-1.957,1.123-2.443c0.302,0.325,1.703,1.401,1.625,1.737c-4.16,18.287-8.386,36.679-11.438,56.072
	c-0.457,2.9-0.898,5.326-1.342,8.244c0.162,2.983-0.115,5.893-0.898,8.678c0.227,0.671,0.754,1.893,0.863,3.19l0.087,3.809
	c0.373,4.312,1.326,8.632,1.606,14.113l1.268,7.919c-0.513,0.811,0.252,1.977-0.15,3.728c0.177,0.53,0.727,1.751,0.813,3.048
	l0.017,6.642c0,0.423,0.504,1.69,0.498,1.754c-0.309,5.435,0.137,9.306-0.04,14.374c-0.072,1.995-0.451,3.341-0.625,5.807
	c-0.249,3.58-1.222,6.565-1.858,10.096c-0.029,3.572-0.035,7.575-0.521,10.913c-0.02,0.144-0.526,1.4-0.781,1.749
	c-0.666,0.926-1.783,1.372-3.076,1.817l-35.874-0.014C290.774,339.896,289.633,339.613,288.614,339.075z M311.163,361.371
	c-0.046-0.11-0.087-0.871-0.013-1.085c0.157-0.46,0.66-1.011,1.025-1.011h8.238c0.139,0,0.561,0.483,0.812,0.698
	c-0.202,0.948-1.004,1.944-1.073,3.122c-0.012,0.275-0.863,1.121-1.152,1.314c-0.376,0.252-1.8,1.033-2.137,0.918
	c-1.309-0.46-2.587-0.949-4.173-1.232C311.892,363.543,311.594,362.475,311.163,361.371z M315.378,380.006v-3.817
	c0-0.522,0.358-2.156,0.616-2.666c0.315-0.628,1.003-1.126,1.658-1.474c0.336-0.18,1.934-0.31,2.154-0.086l2.217,2.211V378
	c0,0.523-0.298,2.223-0.62,2.691c-0.553,0.799-1.62,1.094-2.721,1.525c-0.109,0.045-0.973,0.154-1.142,0.012
	C316.777,381.575,316.109,380.756,315.378,380.006z M321.114,401.559c-0.261,0.24-1.002,1.047-1.308,1.207
	c-0.156,0.08-0.847,0.08-1.006,0c-0.304-0.16-1.308-0.967-1.308-1.211l0.014-9.053c0.108-1.22,1.771-1.854,3.474-1.32
	c-0.059-0.018,0.559,0.405,0.519,0.689C321.104,394.661,320.286,398.371,321.114,401.559z M324.125,386.417
	c-0.093,0.179-0.55,0.644-0.693,0.644h-5.435c-0.281,0-1.149-0.452-1.4-0.629c-0.368-0.256-0.901-0.892-0.603-0.999
	c2.062-0.729,5.135-1.117,7.375-0.202C323.592,385.323,324.489,385.723,324.125,386.417z M357.5,302.523
	c-0.964,4.099-0.115,10.191-0.555,15.068c-0.096,1.054-0.258,2.177-0.803,3.208c0.104,10.778-0.069,21.354-0.347,31.631
	c-0.023,0.743-0.532,1.406-1.024,1.969c-0.082,0.092-0.846-0.05-0.927,0.045c-0.892,1.013-2.183,1.517-3.45,2.07
	c-1.719,0.749-3.779,1.201-5.824,1.534l-3.218,0.02c-0.427,0-1.755,0.701-2.107,0.603c-1.536-0.434-2.837-1.25-3.923-2.229
	c-7.58-0.798-16.414-0.266-25.404-0.474l-2.391,1.296c0,0.203,0.122,0.909,0,1.054c-0.654,0.767-1.477,1.435-2.234,2.177
	c-4.452-0.07-8.152-1.042-11.068-2.738l-2.307-2.408l0.115-10.009c0.764-0.105,1.713-0.16,2.711-0.573
	c0.49-0.203,1.124,0.715,1.599,1.396c0.336,0.483-0.526,0.885-0.306,1.641c0.427,1.485,0.826,3.006,1.557,4.321
	c1.568,1.025,3.525,1.812,5.707,2.292l42.879,0.008c1.754-0.44,3.456-0.97,5.06-1.948c0.811-0.943,1.419-2.432,1.951-4.076
	c0.489-15.994,0.151-35.434,0.284-52.943c0-0.408,0.59-1.699,0.88-2.012c0.37-0.411,0.723-1.192,1.493-0.926
	c1.157,0.405,1.963,1.303,2.691,2.174C357.862,297.012,358.07,300.104,357.5,302.523z M361.301,283.438
	c-0.379-0.162-0.383-0.571-0.232-0.877c0.122-0.257,0.934-1.083,1.145-1.132c0.367-0.081,1.375-0.55,1.34,0.88
	C363.535,282.815,362.422,283.918,361.301,283.438z"/>
<path fill="#E2E0CF" d="M295.244,200.424c0.382,0.156,1.771,0,2.182,0c0.295-0.584,0.996-1.117,0.77-1.754
	c-0.109-0.324-0.533-1.181-0.735-1.268c-0.382-0.156-1.771,0-2.179,0c-0.299,0.584-1,1.117-0.773,1.754
	C294.618,199.478,295.041,200.337,295.244,200.424z"/>
<path fill="#E2E0CF" d="M318.398,223.377h-3.056c0.173,0.863-0.128,1.645-0.355,2.339c0.228,0.197,0.636,0.648,0.796,0.677
	c0.506,0.092,2.092,0,2.615,0V223.377z"/>
<path fill="#E2E0CF" d="M290.815,223.979c0.155-0.029,0.646-0.452,0.706-0.602c0.08-0.214,0.051-0.996-0.053-1.181
	c-0.2-0.359-1.092-1.372-1.482-1.563c-0.631-0.307-1.204,0.466-1.789,0.765v2.582C288.722,223.979,290.308,224.071,290.815,223.979z
	"/>
<path fill="#E2E0CF" d="M295.781,209.542c-0.109-0.321-0.535-1.193-0.737-1.268c-0.46-0.168-2.093,0-2.62,0v3.022h2.582
	C295.307,210.71,296.008,210.178,295.781,209.542z"/>
<path fill="#E2E0CF" d="M294.317,206.242c0.731,0.237,1.239-0.854,1.733-1.454c0.066-0.081,0.031-0.752-0.032-0.932
	c-0.058-0.162-0.434-0.59-0.562-0.735c-0.457-0.509-1.219-0.22-1.854-0.254c0.169,0.833-0.131,1.618-0.356,2.301
	C293.512,205.437,294.005,206.138,294.317,206.242z"/>
<path fill="#E2E0CF" d="M291.932,218.225c0.718,0.272,1.294-0.715,1.702-1.354c0.157-0.243,0-1.548,0-1.951
	c-0.403,0-1.67-0.139-1.995,0c-0.424,0.182-0.858,0.55-1.026,1.007c-0.063,0.177-0.082,0.846,0,1.008
	C290.774,217.235,291.544,218.074,291.932,218.225z"/>
<path fill="#E2E0CF" d="M434.816,339.955c-1.289-1.187-2.884-2.035-4.898-2.442c-0.295-0.058-1.066-1.028-1.389-1.188
	c-0.162-0.081-0.846,0.081-1.008,0c-0.322-0.162-1.086-1.049-1.407-1.209c-0.163-0.082-0.791-0.024-0.745,0.005
	c-4.674-3.132-9.9-5.343-14.519-8.226c-0.675-0.42-1.394-1.141-1.267-2.049h3.242c0.26,0,1.318-1.002,1.283-1.257
	c-0.216-1.638-1.297-2.668-2.677-3.308c-7.935-3.676-15.468-7.875-23.578-11.428c-0.26-0.112-1.161-0.182-1.405-0.315
	c-0.319-0.169-1.115-1.01-1.238-1.042c-2.538-0.66-4.333-2.009-6.434-2.83c-0.994-0.391-2.061-0.852-3.133-1.013
	c-0.178-0.029-0.711,0.506-0.771,0.66c-0.082,0.208-0.086,1.001,0,1.207c0.094,0.217,0.688,0.796,0.906,0.906l8.456,4.229
	c0.232,0.12,0.771,0.802,1.005,0.906c0.169,0.076,0.848-0.08,1.01,0c0.32,0.162,1.085,1.048,1.407,1.208
	c0.161,0.084,0.841-0.075,1.009,0c0.234,0.107,0.773,0.795,1.057,0.921c4.411,1.964,8.322,4.506,12.744,6.74
	c0.083,0.041,0.639,0.6,0.734,0.776c0.336,0.614-0.25,1.111-0.651,1.209l-2.813,0.619c-0.298,0.067-1.244,0.955-1.264,1.233
	c-0.064,1.025,0.685,1.807,1.419,2.049c0.291,0.095,0.865,0.735,0.748,0.686c3.046,1.266,5.878,2.308,8.354,3.599
	c9.279,4.828,18.568,9.665,27.883,14.18c0.315,0.154,0.933,0,1.115,0v-4.229L434.816,339.955z"/>
<path fill="#E2E0CF" d="M320.194,239.968c-0.993-0.075-1.819,0.741-2.073,1.534c-0.397,1.242,0.654,1.905,1.477,2.081
	c0.912,0.195,1.322-0.79,1.822-1.363c0.059-0.07,0.041-0.747-0.042-0.903C321.218,241.01,320.472,239.988,320.194,239.968z"/>
<rect x="319.607" y="228.812" fill="#E2E0CF" width="3.018" height="3.016"/>
<path fill="#E2E0CF" d="M322.603,223.047c-0.632-0.301-1.202,0.469-1.79,0.767c0,0.287-0.109,1.3,0,1.575
	c0.127,0.31,0.932,1.143,1.321,1.291c0.716,0.275,1.209-0.755,1.701-1.355c0.065-0.083,0.04-0.764-0.041-0.923
	C323.635,224.098,322.932,223.203,322.603,223.047z"/>
<rect x="322.625" y="218.543" fill="#E2E0CF" width="3.021" height="3.022"/>
<path fill="#E2E0CF" d="M320.414,207.066c-0.256-0.13-1.32-0.061-1.566,0.061c-0.423,0.203-0.943,0.486-1.054,0.949
	c-0.118,0.492,0,2.09,0,2.614h3.06c-0.179-0.862,0.336-1.647,0.336-2.29C321.189,208.033,320.622,207.177,320.414,207.066z"/>
<path fill="#E2E0CF" d="M324.987,210.959c-0.644-0.226-1.17,0.475-1.758,0.776v3.184h3.02v-3.222
	C326.249,211.556,325.305,211.073,324.987,210.959z"/>
<rect x="318.398" y="236.061" fill="#E2E0CF" width="3.021" height="3.019"/>
<path fill="#E2E0CF" d="M316.031,215.035c0.958,1.123,2.202,0.562,3.576,0.324v-2.895c-0.864,0.176-1.648-0.339-2.291-0.335
	c-0.367,0-1.251,0.57-1.334,0.775C315.825,213.284,315.834,214.803,316.031,215.035z"/>
<path fill="#E2E0CF" d="M317.771,218.216c-0.634-0.304-1.203,0.466-1.788,0.767v3.184h3.019c0-0.521,0.151-2.142,0-2.617
	C318.908,219.244,318.098,218.373,317.771,218.216z"/>
<path fill="#E2E0CF" d="M327.861,196.8c0.46,0.168,2.092,0,2.619,0v-3.022h-2.582c-0.301,0.584-1.002,1.117-0.775,1.754
	C327.236,195.854,327.659,196.725,327.861,196.8z"/>
<path fill="#E2E0CF" d="M324.24,186.53c0.178,0.063,0.846,0.081,1.004,0c0.305-0.159,1.092-0.947,1.149-1.083
	c0.567-1.358-0.521-2.043-1.341-2.211c-0.911-0.194-1.325,0.787-1.823,1.36c-0.061,0.07-0.036,0.75,0.042,0.886
	C323.511,185.894,323.78,186.362,324.24,186.53z"/>
<path fill="#E2E0CF" d="M324.437,207.469c-0.081,0.156-0.038,0.828,0.041,0.967c0.243,0.411,0.503,0.938,0.966,1.048
	c0.498,0.115,2.096,0,2.617,0v-3.057c-0.862,0.173-1.644-0.128-2.334-0.354C325.404,206.421,324.599,207.165,324.437,207.469z"/>
<rect x="330.48" y="176.866" fill="#E2E0CF" width="3.016" height="3.019"/>
<path fill="#E2E0CF" d="M321.82,198.007c0.379,0.156,1.771,0,2.18,0c0.298-0.587,0.999-1.115,0.772-1.757
	c-0.11-0.318-0.532-1.178-0.735-1.262c-0.379-0.156-1.771,0-2.182,0c-0.295,0.584-0.996,1.112-0.771,1.754
	C321.195,197.061,321.615,197.923,321.82,198.007z"/>
<rect x="322.023" y="188.947" fill="#E2E0CF" width="3.019" height="3.019"/>
<rect x="326.854" y="199.819" fill="#E2E0CF" width="3.02" height="3.019"/>
<rect x="328.061" y="188.947" fill="#E2E0CF" width="3.021" height="3.019"/>
<path fill="#E2E0CF" d="M332.472,185.323c0.428-0.159,0.862-0.553,1.024-1.01c0.064-0.174,0.035-0.813-0.029-0.993
	c-0.058-0.165-0.422-0.605-0.561-0.744c-0.519-0.503-1.379-0.312-2.015-0.15c-0.382,0.101-0.892,0.422-1.019,0.886
	c-0.103,0.371,0,1.609,0,2.012C330.399,185.323,332.029,185.488,332.472,185.323z"/>
<path fill="#E2E0CF" d="M319.607,203.002c0.587,0.298,1.154,1.068,1.789,0.767c0.326-0.156,1.072-1.03,1.229-1.334
	c0.084-0.16,0.034-0.816-0.029-0.993c-0.058-0.165-0.396-0.648-0.74-0.915c-0.452-0.344-1.437-0.058-2.248-0.081V203.002z"/>
<path fill="#E2E0CF" d="M312.1,208.419c-0.102,0.185-0.08,0.996,0,1.207c0.061,0.153,0.541,0.547,0.704,0.604
	c0.179,0.064,0.85,0.082,1.007,0c0.307-0.162,1.1-0.938,1.258-1.233c0.102-0.191,0.134-0.973,0.051-1.184
	c-0.059-0.153-0.539-0.547-0.701-0.605c-0.183-0.063-0.852-0.081-1.01,0C313.104,207.371,312.262,208.124,312.1,208.419z"/>
<path fill="#E2E0CF" d="M305.397,220.12h-3.019v3.056c0.862-0.173,1.647,0.128,2.331,0.354c0.265-0.267,0.891-0.782,0.961-0.964
	c0.144-0.364-0.088-0.707-0.273-1.016C305.268,221.323,305.397,220.403,305.397,220.12z"/>
</svg>
