<?xml version="1.0" encoding="utf-8"?>
<!-- Generator: Adobe Illustrator 15.0.0, SVG Export Plug-In . SVG Version: 6.00 Build 0)  -->
<!DOCTYPE svg PUBLIC "-//W3C//DTD SVG 1.1//EN" "http://www.w3.org/Graphics/SVG/1.1/DTD/svg11.dtd">
<svg version="1.1" id="Layer_1" xmlns="http://www.w3.org/2000/svg" xmlns:xlink="http://www.w3.org/1999/xlink" x="0px" y="0px"
	 width="672px" height="516px" viewBox="0 0 672 516" enable-background="new 0 0 672 516" xml:space="preserve">
<path fill="#FFFFFF" d="M284.237,171.109c-0.423-0.409-1.361-0.371-1.536-0.135c-0.449,0.605-1.033,1.324-0.937,2.406
	c0.702-0.142,1.343,0.104,1.906,0.288c0.262-0.283,0.921-0.888,1.051-1.139c0.069-0.127,0.026-0.667-0.026-0.813
	C284.648,171.584,284.35,171.22,284.237,171.109z"/>
<path fill="#FFFFFF" d="M285.707,190.287c0.067-0.208,0-0.919,0-1.149c-0.428,0-1.758-0.137-2.122,0
	c-0.348,0.128-0.716,0.444-0.837,0.823c-0.066,0.208,0,0.917,0,1.149c0.428,0,1.758,0.132,2.123,0
	C285.221,190.981,285.586,190.663,285.707,190.287z"/>
<path fill="#FFFFFF" d="M279.296,181.545c-0.104,0.206,0,0.948,0,1.177c0.426,0,1.759,0.135,2.121,0
	c0.35-0.127,0.702-0.449,0.839-0.822c0.052-0.142,0.024-0.667-0.028-0.811c-0.046-0.135-0.402-0.451-0.475-0.574
	c-0.268-0.449-0.812-0.281-1.124-0.142C280.125,180.6,279.562,181.018,279.296,181.545z"/>
<path fill="#FFFFFF" d="M298.699,174.338c-0.208-0.106-1.078-0.049-1.279,0.05c-0.346,0.166-0.771,0.397-0.86,0.775
	c-0.097,0.401,0,1.707,0,2.134h2.499c-0.146-0.704,0.273-1.345,0.273-1.87C299.332,175.127,298.869,174.428,298.699,174.338z"/>
<path fill="#FFFFFF" d="M295.08,191.601h-2.465c0,0.43-0.133,1.761,0,2.122c0.127,0.351,0.444,0.724,0.823,0.837
	c0.241,0.075,1.089,0.047,1.191-0.043c0.486-0.43,0.936-1.139,0.452-1.834C295.006,192.575,295.08,191.833,295.08,191.601z"/>
<path fill="#FFFFFF" d="M295.121,180.846c0.781,0.917,1.798,0.458,2.919,0.265v-2.364c-0.705,0.144-1.345-0.277-1.871-0.274
	c-0.299,0-1.021,0.466-1.089,0.633C294.952,179.416,294.958,180.656,295.121,180.846z"/>
<path fill="#FFFFFF" d="M289.645,170.175c-1.035-0.293-2.042,0.404-2.209,1.206c-0.107,0.506,0.258,0.832,0.649,0.983
	c0.248,0.099,1.397,0.062,1.693-0.06c0.35-0.142,0.728-0.39,0.863-0.763c0.052-0.144,0.038-0.686-0.038-0.794
	C290.482,170.577,289.858,170.234,289.645,170.175z"/>
<path fill="#FFFFFF" d="M292.12,184.696c-0.427,0-1.759-0.135-2.12,0c-0.35,0.13-0.75,0.446-0.84,0.825
	c-0.097,0.402,0,1.707,0,2.137c0.428,0,1.856,0.194,2.121,0c0.463-0.338,0.728-1.036,0.836-1.646
	C292.163,185.757,292.12,184.958,292.12,184.696z"/>
<path fill="#FFFFFF" d="M282.256,168.913c0.425,0,1.853,0.194,2.123,0c0.458-0.336,0.725-1.033,0.832-1.645
	c0.047-0.255,0.004-1.052,0.004-1.367l-2.959,0.539V168.913z"/>
<path fill="#FFFFFF" d="M279.793,159.214c-0.015,0.097,0.367,0.537,0.488,0.572c0.273,0.081,1.213,0.087,1.479,0
	c0.179-0.059,0.682-0.562,0.742-0.74c0.087-0.265,0.038-1.196-0.04-1.468c-0.036-0.121-0.433-0.513-0.532-0.504
	c-0.658,0.083-1.085-0.468-1.588-0.307c-0.249,0.081-0.714,0.631-0.794,0.876C279.386,158.15,279.874,158.559,279.793,159.214z"/>
<path fill="#FFFFFF" d="M286.036,159.046c0.31,0.127,1.449,0,1.781,0c0.243-0.478,0.817-0.91,0.633-1.433
	c-0.093-0.263-0.435-0.964-0.606-1.033c-0.307-0.13-1.446,0-1.777,0c-0.244,0.478-0.815,0.91-0.634,1.432
	C285.525,158.276,285.868,158.978,286.036,159.046z"/>
<path fill="#FFFFFF" d="M292.12,171.036c0.148,0.345,0.447,0.721,0.823,0.837c0.239,0.071,1.075,0.047,1.275-0.047
	c0.346-0.167,0.726-0.402,0.861-0.775c0.053-0.146,0.025-0.667-0.026-0.813c-0.048-0.132-0.303-0.614-0.619-0.761
	c-0.495-0.232-1.447-0.007-2.315-0.052C292.12,169.736,292.007,170.771,292.12,171.036z"/>
<path fill="#FFFFFF" d="M291.381,159.042c0.578-0.258,1.419-0.279,1.725-0.809c0.189-0.326,0-1.718,0-2.146h-2.448
	c-0.159,0.752-0.252,1.553-0.19,2.426C290.487,158.768,290.929,159.238,291.381,159.042z"/>
<path fill="#FFFFFF" d="M295.38,162.994c0.147,0.08,0.723,0.066,0.851,0c0.248-0.133,0.896-0.769,1.028-1.012
	c0.083-0.151,0.106-0.79,0.04-0.965c-0.047-0.123-0.461-0.492-0.574-0.492h-2.631c0,0.232-0.102,0.983,0,1.142
	C294.425,162.188,294.862,162.706,295.38,162.994z"/>
<path fill="#FFFFFF" d="M296.541,183.443c-0.518-0.248-0.983,0.38-1.46,0.626v2.601h2.465c0-0.425,0.123-1.749,0-2.137
	C297.469,184.283,296.808,183.571,296.541,183.443z"/>
<path fill="#FFFFFF" d="M278.144,168.913c0.312,0.127,1.446,0,1.782,0c0.242-0.478,0.813-0.913,0.628-1.433
	c-0.089-0.265-0.435-0.964-0.601-1.035c-0.312-0.127-1.446,0-1.779,0c-0.244,0.478-0.816,0.912-0.631,1.432
	C277.632,168.14,277.978,168.842,278.144,168.913z"/>
<path fill="#FFFFFF" d="M302.434,177.517c-0.525-0.184-0.955,0.388-1.436,0.634v2.6h2.467v-2.631
	C303.465,178.004,302.693,177.609,302.434,177.517z"/>
<path fill="#FFFFFF" d="M300.486,187.388c-0.516-0.245-0.982,0.383-1.461,0.627c0,0.234-0.09,1.061,0,1.286
	c0.104,0.253,0.761,0.933,1.079,1.054c0.585,0.225,0.988-0.617,1.39-1.106c0.054-0.068,0.033-0.625-0.034-0.754
	C301.33,188.247,300.755,187.516,300.486,187.388z"/>
<path fill="#FFFFFF" d="M308.547,156.581c0.35-0.13,0.704-0.452,0.836-0.825c0.053-0.142,0.029-0.664-0.023-0.811
	c-0.047-0.134-0.346-0.494-0.459-0.607c-0.422-0.412-1.125-0.255-1.645-0.123c-0.312,0.083-0.728,0.345-0.832,0.723
	c-0.084,0.302,0,1.314,0,1.643C306.854,156.581,308.186,156.715,308.547,156.581z"/>
<path fill="#FFFFFF" d="M299.848,166.939c0.309,0.127,1.446,0,1.779,0c0.244-0.48,0.816-0.911,0.631-1.435
	c-0.09-0.26-0.435-0.962-0.601-1.031c-0.31-0.128-1.447,0-1.782,0c-0.24,0.478-0.813,0.908-0.629,1.433
	C299.337,166.166,299.68,166.871,299.848,166.939z"/>
<path fill="#036797" d="M315.569,149.496c-0.038-0.036-0.077-0.071-0.101-0.097c-0.199,0.397-0.785,1.582-0.918,1.995
	c-0.181,0.558-0.309,1.183-0.422,1.824C314.584,151.972,315.065,150.732,315.569,149.496z"/>
<g>
	<g>
		
			<radialGradient id="SVGID_1_" cx="310.627" cy="310.1807" r="345.2809" gradientTransform="matrix(1 0 0 0.9993 0 -0.0173)" gradientUnits="userSpaceOnUse">
			<stop  offset="0.0056" style="stop-color:#ED2224"/>
			<stop  offset="0.6629" style="stop-color:#721011"/>
			<stop  offset="1" style="stop-color:#010101"/>
		</radialGradient>
		<path fill-rule="evenodd" clip-rule="evenodd" fill="url(#SVGID_1_)" d="M336.783,502.081
			c-27.719-62.27-158.401-129.546-196.421-211.847c-25.719-55.661,0.947-121.794,48.403-154.063
			c38.082-25.938,108.24-30.082,147.922,25.444c39.758-55.526,110.016-51.382,148.143-25.444
			c47.453,32.269,73.238,98.402,48.354,154.063C496.244,373.005,357.93,436.894,336.783,502.081z"/>
		
			<radialGradient id="SVGID_2_" cx="349.5684" cy="288.5034" r="246.8491" gradientTransform="matrix(1 0 0 0.9993 0 -0.0173)" gradientUnits="userSpaceOnUse">
			<stop  offset="0.0056" style="stop-color:#ED2224"/>
			<stop  offset="1" style="stop-color:#721011"/>
		</radialGradient>
		<path fill-rule="evenodd" clip-rule="evenodd" fill="url(#SVGID_2_)" d="M336.775,491.524
			c-26.199-58.848-149.698-122.433-185.629-200.208c-24.307-52.604,0.896-115.102,45.743-145.596
			c35.99-24.512,102.294-28.429,139.792,24.046c37.574-52.475,103.969-48.558,140.002-24.046
			c44.844,30.494,69.217,92.992,45.697,145.596C487.473,369.538,356.762,429.922,336.775,491.524z"/>
	</g>
</g>
<g>
	<g>
		<g>
			<path fill="#E2E0CF" d="M43.355,71.967c2.043,5.559,3.13,8.336,5.421,13.886c-1.948,0.819-2.917,1.23-4.846,2.058
				c12.235,28.166,28.906,56.044,48.53,83.714c-2,0.666-2.996,0.996-4.984,1.646c-20.057-27.279-37.188-54.776-49.942-82.57
				c-1.899,0.84-2.844,1.262-4.724,2.11c-2.543-5.366-3.756-8.049-6.059-13.424C33.283,76.355,36.608,74.87,43.355,71.967z"/>
			<path fill="#E2E0CF" d="M69.287,104.075c-0.24-4.273,0.121-7.67,0.981-10.167c0.861-2.496,2.188-4.082,3.912-4.735
				c0.887-0.335,1.898-0.208,3.019,0.38c1.124,0.59,2.269,1.549,3.439,2.865c1.168,1.314,2.328,2.95,3.487,4.898
				c1.16,1.951,2.224,4.092,3.208,6.424c5.659,13.423,12.147,26.802,19.319,40.146c-1.725,0.602-2.585,0.903-4.296,1.504
				c-7.016-12.633-13.409-25.3-19.061-38.005c-1.628-3.665-3.17-6.311-4.71-7.932c-1.538-1.621-2.895-2.209-4.065-1.765
				c-0.525,0.2-1,0.601-1.421,1.202c-0.42,0.6-0.778,1.359-1.062,2.289c-0.285,0.928-0.498,1.994-0.635,3.188
				c-0.138,1.191-0.194,2.487-0.168,3.883c6.4,13.542,13.694,27.031,21.727,40.475c-1.676,0.598-2.513,0.895-4.177,1.489
				c-16.103-26.129-29.391-52.435-38.685-78.979c1.067-1.862,1.612-2.793,2.723-4.665c0.611-0.25,0.916-0.375,1.527-0.623
				C58.452,78.708,63.471,91.415,69.287,104.075z"/>
			<path fill="#E2E0CF" d="M122.151,139.966c-1.509,0.511-3.267,0.268-5.296-0.723c-2.027-0.99-4.155-2.546-6.367-4.671
				c-2.213-2.126-4.418-4.731-6.584-7.826c-2.165-3.093-4.121-6.523-5.815-10.295c-2.024-4.508-3.533-8.784-4.524-12.843
				c-0.993-4.058-1.446-7.692-1.393-10.888s0.626-5.872,1.672-8.011c1.047-2.141,2.57-3.552,4.531-4.221
				c1.747-0.595,3.556-0.477,5.414,0.356c1.859,0.834,3.652,2.202,5.382,4.094c1.735,1.899,3.352,4.221,4.883,6.973
				c1.532,2.752,2.851,5.74,3.985,8.96c-7.558,2.465-11.288,3.725-18.631,6.281c1.561,3.796,3.284,7.247,5.125,10.353
				c1.84,3.105,3.68,5.715,5.478,7.824c1.798,2.109,3.515,3.668,5.133,4.668c1.617,0.998,3.019,1.303,4.201,0.902
				c0.998-0.338,1.779-1.062,2.35-2.17c0.571-1.109,0.957-2.441,1.169-3.995c0.211-1.552,0.249-3.268,0.106-5.14
				c-0.143-1.873-0.445-3.744-0.912-5.606c0.78,0.398,1.169,0.598,1.948,0.998c0.8,3.081,1.357,6.045,1.668,8.882
				c0.312,2.839,0.406,5.383,0.269,7.634c-0.137,2.248-0.509,4.127-1.136,5.629C124.179,138.632,123.301,139.576,122.151,139.966z
				 M110.087,98.349c-0.779-2.173-1.655-4.138-2.641-5.894c-0.986-1.755-2.005-3.216-3.067-4.38
				c-1.063-1.167-2.131-2.003-3.209-2.506c-1.08-0.502-2.094-0.591-3.037-0.269c-0.781,0.267-1.399,0.915-1.852,1.942
				c-0.451,1.025-0.718,2.306-0.789,3.84c-0.069,1.53,0.062,3.287,0.405,5.258c0.343,1.969,0.901,4.043,1.677,6.215
				C102.532,100.852,105.035,100.009,110.087,98.349z"/>
			<path fill="#E2E0CF" d="M147.43,68.221c1.272,6.043,1.954,9.064,3.403,15.105c-4.168,1.166-6.241,1.759-10.362,2.963
				c5.542,20.751,12.621,41.463,20.826,62.147c-2.282,0.739-3.417,1.11-5.676,1.849c-14.896-35.524-26.321-71.145-32.138-106.935
				c2.994-0.875,4.496-1.304,7.505-2.151c3.01-0.85,4.518-1.268,7.542-2.089c0.853,6.045,1.333,9.068,2.388,15.11
				c-2.949,0.811-4.42,1.223-7.352,2.058c1.163,5.983,1.796,8.973,3.155,14.952C140.983,70.004,143.125,69.401,147.43,68.221z"/>
			<path fill="#E2E0CF" d="M180.845,121.566c-1.889,0.538-3.845,0.255-5.9-0.851c-2.052-1.104-4.062-2.835-6.016-5.194
				c-1.95-2.355-3.788-5.25-5.476-8.682c-1.686-3.429-3.088-7.205-4.155-11.319c-1.125-4.335-1.777-8.504-1.941-12.509
				c-0.165-4.006,0.13-7.59,0.856-10.762c0.727-3.17,1.88-5.817,3.42-7.928c1.538-2.108,3.419-3.438,5.599-3.977
				c2.18-0.538,4.312-0.277,6.387,0.779c2.072,1.055,3.984,2.73,5.743,5.017c1.761,2.289,3.302,5.106,4.646,8.446
				c1.345,3.341,2.378,7.012,3.134,11.02c0.839,4.441,1.314,8.713,1.438,12.804c0.125,4.094-0.071,7.773-0.6,11.029
				c-0.53,3.259-1.377,5.96-2.557,8.101C184.243,119.683,182.731,121.029,180.845,121.566z M180.603,116.983
				c0.981-0.275,1.723-1.124,2.246-2.537c0.521-1.408,0.847-3.193,0.982-5.344c0.134-2.155,0.069-4.604-0.192-7.355
				c-0.262-2.753-0.709-5.607-1.334-8.554c-0.906-4.263-1.871-8.21-2.926-11.824c-1.056-3.615-2.207-6.711-3.485-9.292
				c-1.277-2.58-2.679-4.509-4.216-5.784c-1.538-1.277-3.234-1.688-5.077-1.226c-0.949,0.238-1.763,1.035-2.43,2.391
				c-0.665,1.351-1.143,3.102-1.417,5.243c-0.274,2.146-0.33,4.582-0.155,7.308c0.176,2.73,0.612,5.572,1.303,8.528
				c0.999,4.265,2.199,8.22,3.565,11.863c1.365,3.64,2.815,6.751,4.308,9.33c1.495,2.58,3.01,4.528,4.526,5.847
				C177.818,116.894,179.25,117.363,180.603,116.983z"/>
			<path fill="#E2E0CF" d="M188.067,56.72c2.282-0.504,3.426-0.753,5.715-1.243c0.559,4.426,0.855,6.638,1.479,11.064
				c0.313-1.757,0.695-3.449,1.141-5.075c0.446-1.625,0.951-3.079,1.514-4.351c0.563-1.272,1.185-2.312,1.858-3.121
				c0.673-0.808,1.4-1.289,2.18-1.447c0.635-0.128,1.247-0.056,1.831,0.216c0.583,0.271,1.116,0.678,1.592,1.23
				c0.477,0.553,0.88,1.232,1.21,2.036c0.33,0.803,0.546,1.674,0.654,2.614c0.215,1.88,0.095,3.362-0.368,4.441
				c-0.463,1.078-1.207,1.725-2.237,1.94c-0.639,0.134-1.17,0.105-1.587-0.084c-0.417-0.19-0.804-0.425-1.161-0.704
				c-0.356-0.278-0.716-0.522-1.068-0.722c-0.355-0.201-0.774-0.258-1.255-0.154c-0.373,0.081-0.725,0.389-1.044,0.924
				c-0.321,0.537-0.617,1.256-0.884,2.155c-0.266,0.899-0.514,1.947-0.74,3.141c-0.225,1.19-0.432,2.488-0.616,3.884
				c2.06,13.515,4.532,27.031,7.335,40.55c-2.022,0.525-3.03,0.792-5.042,1.324C194.25,95.797,190.664,76.26,188.067,56.72z"/>
			<path fill="#E2E0CF" d="M231.833,99.516c-0.383,2.812-1.048,5.122-2.002,6.936c-0.953,1.812-2.265,2.922-3.957,3.326
				c-0.877,0.209-1.69,0.065-2.429-0.428c-0.743-0.495-1.423-1.29-2.036-2.377c-0.612-1.087-1.156-2.44-1.62-4.05
				c-0.465-1.611-0.853-3.432-1.157-5.451c-2.066-13.664-3.848-27.321-5.275-40.972c-2.017,0.39-3.024,0.588-5.035,0.989
				c-0.127-1.15-0.19-1.726-0.314-2.876c1.628-0.322,2.906-1.168,3.842-2.543c0.937-1.376,1.646-3.125,2.141-5.252
				s0.829-4.542,1.004-7.238c0.175-2.699,0.308-5.549,0.404-8.555c0.681-0.116,1.021-0.174,1.702-0.289
				c0.547,7.924,0.866,11.886,1.575,19.81c2.636-0.482,3.956-0.719,6.6-1.181c0.162,1.937,0.247,2.906,0.417,4.842
				c-2.627,0.467-3.94,0.704-6.559,1.19c1.316,13.614,2.956,27.235,4.856,40.864c0.121,0.863,0.309,1.655,0.567,2.381
				c0.256,0.719,0.554,1.33,0.89,1.828c0.335,0.499,0.709,0.872,1.109,1.113c0.4,0.24,0.804,0.319,1.202,0.228
				c0.596-0.136,1.098-0.573,1.507-1.313c0.408-0.738,0.737-1.613,0.987-2.623C230.886,98.532,231.203,98.86,231.833,99.516z"/>
			<path fill="#E2E0CF" d="M235.915,47.586c0.966,13.599,2.171,27.207,3.564,40.826c0.146,1.426,0.445,2.742,0.892,3.938
				c0.447,1.2,0.994,2.212,1.629,3.021c0.638,0.812,1.349,1.42,2.128,1.818c0.783,0.401,1.588,0.517,2.417,0.346
				c0.538-0.111,1.093-0.468,1.659-1.07c0.567-0.603,1.108-1.385,1.622-2.349c0.515-0.964,0.986-2.059,1.418-3.272
				c0.433-1.215,0.774-2.488,1.022-3.821c-1.084-13.844-2.038-27.675-2.819-41.494c2.358-0.337,3.54-0.501,5.904-0.82
				c0.958,18.833,2.163,37.692,3.533,56.575c-2.152,0.43-3.229,0.647-5.371,1.089c-0.358-4.255-0.532-6.384-0.875-10.639
				c-0.35,1.714-0.827,3.372-1.422,4.961c-0.598,1.596-1.264,3.018-1.994,4.271c-0.73,1.252-1.499,2.283-2.313,3.092
				c-0.812,0.81-1.604,1.299-2.383,1.467c-1.162,0.25-2.303,0.022-3.438-0.697c-1.135-0.721-2.179-1.798-3.134-3.236
				c-0.956-1.438-1.786-3.193-2.487-5.261c-0.7-2.066-1.195-4.333-1.474-6.806c-1.547-13.668-2.88-27.327-3.941-40.976
				C232.395,48.155,233.568,47.963,235.915,47.586z"/>
			<path fill="#E2E0CF" d="M262.294,43.793c2.369-0.299,3.555-0.444,5.928-0.725c0.157,4.083,0.239,6.125,0.404,10.208
				c1.628-4.016,3.397-7.068,5.285-9.171s3.859-3.25,5.891-3.458c1.044-0.106,2.043,0.232,2.986,1.012
				c0.943,0.779,1.773,1.887,2.486,3.324c0.712,1.433,1.285,3.145,1.723,5.131c0.437,1.983,0.674,4.114,0.716,6.399
				c0.227,13.111,0.413,26.236,0.547,39.375c-2.209,0.37-3.312,0.559-5.513,0.94c-0.271-12.606-0.565-25.201-0.878-37.783
				c-0.09-3.632-0.6-6.341-1.537-8.127c-0.937-1.785-2.108-2.606-3.494-2.449c-0.628,0.071-1.288,0.34-1.977,0.802
				c-0.689,0.461-1.383,1.089-2.075,1.886c-0.693,0.799-1.381,1.738-2.06,2.817c-0.678,1.081-1.321,2.272-1.929,3.572
				c0.563,13.806,1.186,27.626,1.841,41.46c-2.172,0.407-3.258,0.612-5.423,1.03C264.118,81.264,263.116,62.516,262.294,43.793z"/>
			<path fill="#E2E0CF" d="M315.215,91.815c-2.243,0.304-3.366,0.459-5.604,0.777c0.097-2.919,0.143-4.379,0.229-7.298
				c-0.699,1.047-1.381,2.115-2.048,3.196c-0.666,1.081-1.382,2.091-2.146,3.034c-0.76,0.938-1.594,1.734-2.496,2.384
				c-0.903,0.652-1.943,1.072-3.117,1.253c-1.086,0.168-2.071-0.022-2.945-0.571c-0.877-0.552-1.625-1.389-2.248-2.507
				c-0.624-1.121-1.103-2.483-1.438-4.091c-0.335-1.607-0.507-3.378-0.516-5.309c-0.01-2.331,0.224-4.476,0.705-6.418
				c0.48-1.94,1.148-3.712,1.999-5.3c0.852-1.589,1.855-3.023,3.009-4.297c1.153-1.272,2.378-2.431,3.679-3.47
				c1.299-1.038,2.649-1.974,4.037-2.804c1.388-0.83,2.752-1.605,4.085-2.319c0.017-1.332,0.022-1.997,0.037-3.329
				c0.025-2.418-0.095-4.453-0.354-6.104c-0.26-1.651-0.642-2.98-1.144-3.972c-0.502-0.991-1.124-1.689-1.84-2.087
				c-0.717-0.398-1.533-0.567-2.431-0.501c-1.008,0.074-1.832,0.371-2.463,0.888c-0.634,0.517-1.133,1.178-1.491,1.979
				c-0.357,0.8-0.6,1.704-0.724,2.705c-0.124,1.002-0.185,2.005-0.181,3.013c0.005,0.939-0.032,1.851-0.112,2.732
				c-0.08,0.88-0.229,1.658-0.449,2.337c-0.219,0.677-0.515,1.235-0.889,1.675c-0.374,0.44-0.863,0.689-1.445,0.751
				c-0.457,0.048-0.88-0.066-1.258-0.346s-0.707-0.696-0.987-1.241c-0.281-0.544-0.497-1.202-0.654-1.966
				c-0.154-0.756-0.241-1.597-0.253-2.51c-0.024-1.788,0.285-3.499,0.919-5.112c0.633-1.613,1.493-3.033,2.583-4.252
				c1.091-1.22,2.374-2.214,3.851-2.978c1.472-0.761,3.033-1.195,4.667-1.304c1.992-0.132,3.677,0.102,5.049,0.697
				c1.374,0.595,2.479,1.483,3.314,2.651c0.836,1.168,1.434,2.612,1.788,4.332c0.355,1.722,0.513,3.628,0.48,5.732
				C316.2,65.169,315.798,78.486,315.215,91.815z M310.357,61.508c-0.852,0.575-1.733,1.219-2.646,1.94
				c-0.909,0.719-1.812,1.521-2.68,2.391c-0.869,0.871-1.701,1.818-2.485,2.823c-0.785,1.005-1.472,2.065-2.063,3.176
				c-0.589,1.108-1.062,2.277-1.406,3.491c-0.346,1.218-0.516,2.47-0.523,3.745c-0.007,1.311,0.114,2.549,0.363,3.708
				c0.249,1.156,0.583,2.151,0.995,2.979c0.414,0.83,0.894,1.464,1.438,1.904c0.543,0.439,1.117,0.62,1.712,0.536
				c0.631-0.088,1.236-0.334,1.81-0.725c0.58-0.396,1.142-0.899,1.691-1.5c0.552-0.604,1.105-1.301,1.662-2.084
				c0.557-0.782,1.132-1.608,1.721-2.472C310.151,73.457,310.235,69.476,310.357,61.508z"/>
			<path fill="#E2E0CF" d="M338.34,82.576c-0.956,2.413-2.125,4.375-3.492,5.88c-1.364,1.503-2.956,2.367-4.779,2.584
				c-0.947,0.113-1.746-0.078-2.401-0.574c-0.652-0.495-1.174-1.247-1.564-2.258c-0.391-1.012-0.652-2.25-0.788-3.713
				c-0.136-1.46-0.154-3.1-0.058-4.91c0.655-12.267,1.104-24.525,1.346-36.773c-2.098,0.094-3.146,0.145-5.241,0.255
				c0.015-1.039,0.021-1.559,0.034-2.598c1.693-0.081,3.098-0.674,4.205-1.771c1.111-1.1,2.029-2.559,2.754-4.374
				c0.725-1.814,1.301-3.907,1.719-6.269c0.418-2.364,0.783-4.87,1.096-7.512c0.699-0.005,1.047-0.007,1.746-0.01
				c-0.021,7.081-0.062,10.62-0.202,17.694c2.734-0.083,4.103-0.117,6.84-0.172c-0.048,1.718-0.074,2.578-0.131,4.295
				c-2.727,0.073-4.088,0.115-6.811,0.215c-0.311,12.14-0.859,24.289-1.635,36.445c-0.049,0.768-0.012,1.479,0.104,2.136
				c0.117,0.66,0.295,1.222,0.536,1.691c0.24,0.467,0.549,0.825,0.909,1.072c0.359,0.247,0.755,0.352,1.178,0.31
				c0.642-0.063,1.246-0.407,1.813-1.015c0.568-0.611,1.082-1.342,1.537-2.206C337.569,81.63,337.828,81.946,338.34,82.576z"/>
			<path fill="#E2E0CF" d="M353.715,88.579c-1.93,0.171-3.662-0.291-5.219-1.408c-1.555-1.116-2.859-2.719-3.93-4.811
				c-1.071-2.093-1.861-4.604-2.377-7.521c-0.517-2.918-0.665-6.09-0.442-9.499c0.267-4.072,0.83-7.867,1.723-11.365
				c0.891-3.494,2.032-6.521,3.444-9.057c1.412-2.537,3.07-4.51,4.979-5.919c1.906-1.409,4.001-2.097,6.266-2.076
				c2.018,0.019,3.837,0.618,5.451,1.773c1.611,1.153,2.957,2.69,4.022,4.598c1.064,1.906,1.829,4.098,2.284,6.571
				c0.454,2.471,0.545,5.049,0.279,7.75c-8.953,0.076-13.421,0.19-22.33,0.555c-0.221,3.379-0.187,6.503,0.098,9.362
				c0.284,2.856,0.778,5.297,1.491,7.316c0.714,2.021,1.634,3.571,2.77,4.652c1.136,1.082,2.44,1.562,3.931,1.455
				c1.258-0.089,2.499-0.517,3.732-1.275c1.231-0.757,2.389-1.717,3.463-2.87c1.075-1.152,2.033-2.462,2.87-3.919
				c0.836-1.455,1.482-2.939,1.931-4.45c0.614,0.466,0.92,0.699,1.532,1.163c-0.719,2.496-1.692,4.851-2.905,7.075
				c-1.21,2.223-2.541,4.191-3.982,5.902c-1.442,1.712-2.95,3.107-4.523,4.182C356.7,87.837,355.183,88.449,353.715,88.579z
				 M363.069,53.793c0.149-1.859,0.079-3.587-0.212-5.186c-0.29-1.601-0.753-2.992-1.39-4.173c-0.635-1.178-1.415-2.112-2.336-2.791
				c-0.922-0.68-1.933-1.025-3.03-1.024c-0.908,0.001-1.805,0.342-2.682,1.032c-0.874,0.686-1.662,1.628-2.371,2.822
				c-0.709,1.195-1.318,2.619-1.828,4.27c-0.51,1.649-0.862,3.434-1.071,5.344C354.109,53.906,357.092,53.846,363.069,53.793z"/>
			<path fill="#E2E0CF" d="M426.32,20.725c-7.672,27.064-18.021,54.056-29.549,81.137c2.457-28.581,1.551-57.069-2.396-85.473
				c3.382,0.365,5.076,0.559,8.467,0.975c1.776,13.448,2.841,26.914,3.166,40.401c4.438-12.785,8.393-25.58,11.839-38.366
				C421.232,19.904,422.928,20.167,426.32,20.725z"/>
			<path fill="#E2E0CF" d="M435.758,86.009c-2.197-0.069-4.066-0.66-5.619-1.795c-1.557-1.138-2.756-2.674-3.61-4.622
				c-0.855-1.951-1.349-4.241-1.5-6.87c-0.15-2.63,0.088-5.438,0.729-8.398c0.676-3.118,1.668-6.024,3-8.684
				c1.333-2.659,2.892-4.922,4.697-6.763c1.807-1.842,3.81-3.203,6.024-4.073c2.215-0.871,4.515-1.106,6.887-0.733
				c2.369,0.374,4.463,1.251,6.24,2.593c1.779,1.343,3.199,3.007,4.239,4.975c1.04,1.969,1.657,4.167,1.843,6.591
				c0.186,2.425-0.106,4.931-0.874,7.537c-0.852,2.89-2.088,5.554-3.674,8.024c-1.586,2.471-3.396,4.613-5.398,6.438
				c-2.003,1.826-4.124,3.262-6.351,4.306C440.17,85.577,437.956,86.078,435.758,86.009z M437.75,83.113
				c1.133,0.047,2.298-0.305,3.493-1.052c1.192-0.746,2.353-1.759,3.462-3.035c1.111-1.279,2.13-2.78,3.053-4.515
				c0.921-1.734,1.666-3.579,2.231-5.54c0.815-2.833,1.355-5.506,1.626-8.025c0.271-2.515,0.194-4.77-0.221-6.759
				c-0.415-1.99-1.206-3.632-2.354-4.923c-1.15-1.292-2.742-2.1-4.755-2.396c-1.037-0.152-2.109,0.098-3.217,0.754
				c-1.106,0.657-2.157,1.632-3.161,2.925c-1.002,1.291-1.911,2.844-2.727,4.65c-0.814,1.803-1.445,3.755-1.906,5.838
				c-0.667,3.011-1.098,5.859-1.289,8.525c-0.192,2.667-0.134,5,0.193,6.984c0.329,1.985,0.941,3.56,1.858,4.726
				C434.954,82.44,436.188,83.048,437.75,83.113z"/>
			<path fill="#E2E0CF" d="M476.075,30.347c0.502,0.131,0.957,0.356,1.371,0.673c0.409,0.314,0.749,0.688,1.012,1.109
				c0.263,0.424,0.448,0.886,0.554,1.388c0.106,0.5,0.105,1.009-0.001,1.513c-0.107,0.505-0.311,0.958-0.606,1.355
				c-0.297,0.399-0.644,0.724-1.044,0.978c-0.398,0.253-0.843,0.42-1.33,0.51c-0.482,0.088-0.973,0.072-1.468-0.048
				c-0.488-0.119-0.934-0.327-1.324-0.628c-0.39-0.301-0.716-0.666-0.973-1.084c-0.254-0.416-0.433-0.883-0.541-1.388
				c-0.107-0.504-0.109-1.024-0.011-1.538c0.1-0.518,0.291-0.987,0.577-1.396c0.286-0.407,0.621-0.746,1.014-1.003
				c0.396-0.257,0.828-0.427,1.304-0.512C475.082,30.191,475.575,30.216,476.075,30.347z M468.438,50.277
				c1.943-0.517,2.916-0.765,4.867-1.241c0.715,0.151,1.071,0.227,1.786,0.381c-3.331,12.473-7.517,24.892-12.419,37.259
				c-2.267-0.184-3.4-0.27-5.67-0.43C461.502,74.299,465.356,62.312,468.438,50.277z"/>
			<path fill="#E2E0CF" d="M481.406,89.287c-1.854-0.214-3.396-0.834-4.647-1.892c-1.25-1.057-2.159-2.428-2.738-4.128
				c-0.579-1.699-0.805-3.663-0.696-5.884c0.107-2.225,0.598-4.568,1.471-7.002c0.97-2.699,2.246-5.176,3.852-7.386
				c1.606-2.211,3.402-4.049,5.407-5.485c2.006-1.437,4.126-2.414,6.373-2.93s4.483-0.469,6.692,0.116
				c1.716,0.454,3.225,1.088,4.521,1.883c1.295,0.793,2.329,1.686,3.095,2.667c0.766,0.981,1.242,2.021,1.438,3.109
				c0.196,1.089,0.065,2.166-0.39,3.23c-0.202,0.473-0.512,0.891-0.925,1.257c-0.414,0.366-0.878,0.659-1.383,0.884
				c-0.506,0.225-1.036,0.375-1.586,0.45c-0.551,0.076-1.068,0.061-1.547-0.053c-0.53-0.126-0.972-0.348-1.308-0.659
				c-0.335-0.312-0.586-0.671-0.756-1.078c-0.17-0.406-0.245-0.843-0.23-1.309c0.013-0.467,0.107-0.926,0.285-1.378
				c0.298-0.754,0.502-1.485,0.61-2.188c0.107-0.704,0.059-1.346-0.136-1.926c-0.195-0.581-0.572-1.097-1.133-1.549
				c-0.559-0.45-1.354-0.809-2.377-1.069c-1.382-0.351-2.732-0.346-4.045,0.018c-1.312,0.363-2.529,1.003-3.649,1.909
				c-1.119,0.905-2.126,2.056-3.025,3.432c-0.901,1.379-1.649,2.9-2.249,4.546c-0.812,2.227-1.358,4.383-1.636,6.438
				c-0.277,2.06-0.286,3.889-0.013,5.485c0.275,1.596,0.84,2.898,1.699,3.914c0.861,1.019,2.041,1.624,3.556,1.84
				c1.336,0.191,2.607,0.123,3.809-0.198c1.202-0.321,2.36-0.82,3.464-1.493c1.105-0.673,2.17-1.482,3.19-2.432
				c1.021-0.949,2.011-1.958,2.973-3.031c0.547,0.448,0.818,0.672,1.362,1.117c-1.433,1.864-2.951,3.5-4.547,4.923
				c-1.595,1.422-3.22,2.593-4.865,3.518c-1.643,0.922-3.305,1.591-4.976,1.997C484.676,89.357,483.031,89.475,481.406,89.287z"/>
			<path fill="#E2E0CF" d="M512.079,93.845c-1.886-0.346-3.437-1.015-4.664-2.044c-1.228-1.029-2.104-2.305-2.638-3.837
				c-0.534-1.534-0.698-3.27-0.508-5.199c0.189-1.93,0.788-3.945,1.802-6.002c1.209-2.457,2.646-4.668,4.327-6.583
				c1.681-1.914,3.495-3.446,5.469-4.576c1.975-1.13,4.062-1.818,6.269-2.058c2.204-0.239,4.423,0.041,6.634,0.812
				c1.968,0.687,3.596,1.659,4.873,2.881c1.275,1.22,2.188,2.57,2.731,4.028s0.718,2.97,0.525,4.528
				c-0.194,1.56-0.753,3.058-1.682,4.514c-8.51-2.755-12.83-4.011-21.535-6.304c-1.008,2.005-1.714,3.925-2.116,5.746
				c-0.404,1.817-0.506,3.432-0.301,4.834c0.203,1.405,0.717,2.568,1.545,3.497c0.826,0.928,1.962,1.535,3.405,1.843
				c1.219,0.26,2.502,0.322,3.854,0.195s2.684-0.382,3.979-0.763c1.293-0.381,2.512-0.874,3.655-1.478
				c1.141-0.604,2.11-1.269,2.903-2.003c0.467,0.444,0.698,0.665,1.162,1.105c-1.289,1.211-2.777,2.278-4.452,3.219
				c-1.674,0.94-3.408,1.725-5.178,2.347c-1.771,0.623-3.534,1.059-5.286,1.309C515.106,94.105,513.517,94.108,512.079,93.845z
				 M529.381,75.883c0.602-1.04,0.963-2.07,1.077-3.101c0.114-1.027,0.012-1.994-0.312-2.893c-0.324-0.901-0.854-1.707-1.583-2.411
				c-0.726-0.702-1.627-1.238-2.7-1.596c-0.889-0.295-1.843-0.377-2.861-0.242c-1.019,0.135-2.016,0.453-2.988,0.958
				c-0.971,0.505-1.903,1.189-2.787,2.042s-1.653,1.84-2.304,2.949C520.747,73.205,523.642,74.063,529.381,75.883z"/>
		</g>
	</g>
</g>
<path fill="#E2E0CF" d="M318.705,210.113c-0.518-0.5-1.666-0.455-1.881-0.165c-0.55,0.741-1.266,1.621-1.146,2.946
	c0.859-0.173,1.645,0.127,2.333,0.353c0.321-0.347,1.128-1.088,1.287-1.395c0.085-0.156,0.032-0.816-0.031-0.996
	C319.209,210.694,318.844,210.249,318.705,210.113z"/>
<path fill="#E2E0CF" d="M319.6,221.919c-0.102,0.185-0.08,0.996,0,1.207c0.061,0.153,0.541,0.547,0.704,0.604
	c0.179,0.064,0.85,0.082,1.007,0c0.307-0.162,1.1-0.938,1.258-1.233c0.102-0.191,0.134-0.973,0.051-1.184
	c-0.059-0.153-0.539-0.547-0.701-0.605c-0.183-0.063-0.852-0.081-1.01,0C320.604,220.871,319.762,221.624,319.6,221.919z"/>
<path fill="#E2E0CF" d="M321.111,216.683c0.136,0.31,0.929,1.143,1.316,1.294c0.718,0.272,1.245-0.735,1.702-1.355
	c0.104-0.145,0-1.065,0-1.349h-3.019C321.111,215.557,321.007,216.449,321.111,216.683z"/>
<path fill="#E2E0CF" d="M327.753,235.205v-3.016c-0.523,0-2.11-0.093-2.616,0c-0.156,0.029-0.562,0.48-0.794,0.678
	c0.232,0.694,0.531,1.476,0.354,2.338H327.753z"/>
<path fill="#E2E0CF" d="M328.357,226.75c-0.522,0-2.152-0.165-2.596,0c-0.428,0.159-0.917,0.547-1.027,1.01
	c-0.118,0.492,0,2.09,0,2.617c0.523,0,2.272,0.237,2.597,0c0.567-0.414,0.892-1.268,1.024-2.015
	C328.41,228.049,328.357,227.072,328.357,226.75z"/>
<path fill="#E2E0CF" d="M325.327,208.969c-1.267-0.359-2.501,0.495-2.706,1.477c-0.131,0.619,0.316,1.019,0.796,1.204
	c0.304,0.122,1.711,0.075,2.073-0.073c0.428-0.173,0.891-0.478,1.056-0.935c0.064-0.177,0.047-0.839-0.046-0.973
	C326.353,209.461,325.589,209.042,325.327,208.969z"/>
<path fill="#E2E0CF" d="M312.654,222.892c-0.126,0.252,0,1.161,0,1.441c0.522,0,2.154,0.166,2.598,0
	c0.429-0.156,0.859-0.55,1.027-1.007c0.063-0.174,0.029-0.816-0.034-0.993c-0.056-0.165-0.493-0.553-0.581-0.703
	c-0.328-0.55-0.994-0.344-1.377-0.174C313.67,221.734,312.98,222.246,312.654,222.892z"/>
<rect x="327.753" y="242.453" fill="#E2E0CF" width="3.022" height="3.022"/>
<rect x="313.258" y="249.703" fill="#E2E0CF" width="3.021" height="3.02"/>
<rect x="321.111" y="243.061" fill="#E2E0CF" width="3.019" height="3.019"/>
<path fill="#E2E0CF" d="M322.328,248.774c-0.613-0.411-1.648-0.434-2.146,0.313c-0.411,0.614-0.434,1.656,0.312,2.148
	c0.613,0.411,1.655,0.434,2.147-0.31C323.053,250.309,323.076,249.272,322.328,248.774z"/>
<path fill="#E2E0CF" d="M324.057,237.243c-0.715-0.272-1.283,0.828-1.74,1.45c-0.104,0.142,0,1.065,0,1.346h3.022
	c0-0.281,0.104-1.175,0-1.41C325.199,238.319,324.447,237.391,324.057,237.243z"/>
<path fill="#E2E0CF" d="M318.068,237.295c-0.634-0.301-1.203,0.469-1.789,0.767c0,0.287-0.121,1.312,0,1.554
	c0.203,0.426,0.55,0.863,1.007,1.028c0.177,0.064,0.829,0.038,0.961-0.04c0.417-0.24,0.886-0.513,1.051-0.97
	c0.064-0.173,0.044-0.825-0.043-0.984C319.098,238.345,318.393,237.451,318.068,237.295z"/>
<path fill="#E2E0CF" d="M320.505,233.596c0.082-0.255,0-1.126,0-1.407c-0.523,0-2.152-0.167-2.598,0
	c-0.427,0.156-0.878,0.544-1.025,1.007c-0.081,0.254,0,1.123,0,1.407c0.523,0,2.152,0.162,2.599,0
	C319.91,234.446,320.357,234.056,320.505,233.596z"/>
<path fill="#E2E0CF" d="M313.86,243.663v2.582c0.587,0.298,1.128,1.001,1.759,0.701c0.327-0.157,1.152-0.962,1.263-1.268
	c0.13-0.359,0-1.61,0-2.015H313.86z"/>
<path fill="#E2E0CF" d="M329.564,247.287h-3.019v3.056c0.862-0.173,1.647,0.128,2.331,0.354c0.265-0.267,0.891-0.782,0.961-0.964
	c0.144-0.364-0.088-0.707-0.273-1.016C329.435,248.49,329.564,247.57,329.564,247.287z"/>
<rect x="309.031" y="238.227" fill="#E2E0CF" width="3.02" height="3.022"/>
<path fill="#E2E0CF" d="M277.528,254.812c-1.47-0.521-3.439-0.874-4.165-0.36c-3.616-0.347-6.656-1.436-10.025-1.765
	c-0.42-0.043-1.615-0.724-2.036-0.796c-5.407-0.923-10.91-2.098-16.316-2.976c-2.243-0.362-4.067-0.912-6.12-0.999
	c-0.436-0.017-0.969,0.521-1.108,0.981c-0.09,0.292,0,1.289,0,1.61l2.237,1.213c3.094,0.197,5.931,0.839,8.634,1.308l22.936,3.746
	c2.102,0.356,4.858,0.084,7.254,0.151c0.08-0.405-0.035-0.845-0.311-1.167C278.281,255.49,277.476,254.795,277.528,254.812z"/>
<path fill="#E2E0CF" d="M325.941,221.115c-0.169,0.463,0,2.093,0,2.616c0.402,0,1.658,0.127,2.015,0
	c0.307-0.113,1.112-0.938,1.238-1.233c0.29-0.677-0.304-1.36-0.851-1.766c-0.342-0.254-0.778-0.44-1.238-0.295
	C326.894,220.501,326.017,220.912,325.941,221.115z"/>
<path fill="#E2E0CF" d="M248.932,311.914c0.162-0.052,0.722,0,0.908,0v3.022h3.019l6.638-2.124c1.262-0.478,2.252-1.315,3.841-1.506
	c0.297-0.041,1.125-0.938,1.033-0.897c6.183-2.668,12.018-5.118,17.479-7.858v-1.509h-3.135l-20.409,7.579
	c-0.43,0.156-1.328,0.237-1.56-0.389c-0.394-1.053-0.967-2.235-2.046-2.689c-1.843-0.044-3.001,0.727-4.288,1.155
	c-7.328,2.438-14.009,5.36-20.492,8.571c-1.213,0.6-2.539,1.022-3.346,2.081c-0.822,1.085-0.86,2.675,0.22,3.625
	c0.115,0.106,1.326,0.161,1.499,0l2.416-2.229c4.384-1.331,7.947-3.256,11.886-4.703L248.932,311.914z"/>
<path fill="#E2E0CF" d="M404.365,235.384c9.25-3.198,19.264-5.743,29.678-7.798c1.723-0.764,4.003-1.105,5.611-2.035l3.062-0.614
	c0.438-0.086,1.614-1.409,1.829-1.85c0.32-0.651-0.295-1.337-0.828-1.766c-0.443-0.353-1.095-0.318-1.6-0.008
	c-0.412,0.251-2.134,0.133-2.625,0.292l-13.503,4.492c-2.15,0.515-3.933,0.92-6.24,1.557c0.165-0.046-0.584-0.084-0.79,0
	c-0.236,0.098-0.794,0.822-0.978,0.845c-3.403,0.394-6.273,1.265-9.12,2.57c-1.899,0.122-3.92,0.435-4.972,1.754
	c-0.261,0.324-0.45,0.758-0.306,1.219C403.65,234.255,404.121,234.965,404.365,235.384z"/>
<path fill="#E2E0CF" d="M404.229,271.977c5.771,1.487,11.953,2.486,17.906,3.658c0.209,0.043,0.631,0.509,0.692,0.625
	c0.33,0.608-0.253,1.04-0.736,1.228c-0.308,0.118-1.714-0.076-2.077,0.076c-0.427,0.173-0.891,0.474-1.056,0.932
	c-0.063,0.179-0.039,0.827,0.041,0.964c0.241,0.414,0.531,0.976,0.941,0.981c11.545,0.118,21.528,2.353,32.331,3.184
	c0.233,0.017,0.753-0.547,0.812-0.701c0.081-0.208,0.103-1.019,0-1.21c-0.159-0.295-1.03-1.143-1.346-1.175
	c-2.505-0.243-5.2-0.355-7.21-0.897c-1.178,0.622-2.198-0.22-3.209-0.122c-2.111-0.521-4.461-0.625-6.07-1.731
	c0.848-0.416,1.691-0.787,2.435-1.293c0.1-0.066,0.098-0.94-0.035-1.048c-1.364-1.103-3.671-1.144-5.618-1.542
	c-3.552-0.733-7.309-0.747-10.82-1.868c-1.597,0.194-3.359-0.153-4.861-0.619c-2.128-0.66-4.824-0.843-7.241-1.254
	c-0.408-0.069-1.639-0.526-2.284-0.526h-4.156c-0.086,0.429,0.027,0.869,0.303,1.192
	C403.201,271.097,403.974,271.913,404.229,271.977z"/>
<path fill="#E2E0CF" d="M331.982,235.205h-3.019c0,0.527-0.163,2.156,0,2.599c0.155,0.429,0.544,0.886,1.007,1.024
	c0.295,0.093,1.334,0.058,1.459-0.052c0.596-0.526,1.146-1.395,0.553-2.246C331.893,236.397,331.982,235.489,331.982,235.205z"/>
<path fill="#E2E0CF" d="M233.326,227.957c0.456,0.214,2.122,0.168,2.608,0.339c6.851,2.376,14.281,4.182,21.17,6.527
	c1.124-0.023,1.987,0.48,2.97,0.782c5.847,1.78,11.774,3.676,18.154,5.019c0.626,0.133,1.101-0.157,1.488-0.597
	c0.493-0.555,0.556-1.812-0.295-2.09c-6.906-2.234-13.777-4.254-20.539-6.593c-1.134,0.064-1.991-0.48-2.981-0.753
	c-6.171-1.713-12.567-3.517-18.398-5.488c-1.643-0.556-3.38-0.784-5.331-0.792c-0.312,0.607-1.108,1.201-0.782,1.812
	C231.64,226.591,232.875,227.749,233.326,227.957z"/>
<path fill="#E2E0CF" d="M435.677,245.909l-6.076,0.096c-4.649,1.103-11.753,0.703-17.878,1.111
	c-0.355,0.026-1.003,0.021-1.323,0.211c-0.69,0.411-1.386,0.891-1.708,1.537c-0.126,0.252,0,1.161,0,1.404
	c3.738,0.341,6.734,0.185,10.067,0.063c0.526-0.02,2.093-0.628,2.616-0.628h9.102c0.825,0,1.732-0.715,2.141-0.564
	c1.35,0.489,2.676,0.191,3.735,0.237c0.973-0.512,2.085-0.735,3.145-0.868l5.804-0.012c0.709,0,1.652-0.385,2.048-1.001
	c0.184-0.289,0-1.615,0-2.02l-9.066-0.012C437.424,245.458,436.58,245.946,435.677,245.909z"/>
<path fill="#E2E0CF" d="M403.098,296.796c1.903,0.432,3.918,0.803,5.555,1.61c2.125,1.048,4.545,1.82,7.264,2.445
	c2.144,0.495,4.469,0.973,6.212,2.004c0.247,0.147,1.198-0.048,1.35,0.017c7.691,3.167,15.624,5.71,23.819,8.221
	c0.502-0.713,1.227-1.005,1.861-1.364c0-0.35,0.12-1.375,0-1.621c-0.201-0.422-0.548-0.868-1.006-1.023
	c-0.216-0.073-1.004,0.087-1.208,0l-2.819-1.208c-0.306-0.133-1.481,0.104-1.811,0c-0.234-0.075-0.803-0.742-0.83-0.747
	l-8.021-2.003c-5.721-1.745-11.734-3.627-17.316-5.725c-1.877-0.113-3.451-0.793-5.361-1.293c-0.186-0.05-0.965-0.953-1.288-1.103
	c-0.2-0.093-1.003,0.087-1.209,0l-2.818-1.21h-3.021c-0.142,0-0.645,0.452-0.705,0.604c-0.08,0.212-0.101,1.022,0,1.207
	C401.905,295.902,402.759,296.719,403.098,296.796z"/>
<path fill="#E2E0CF" d="M229.162,274.437c3.634,0.075,8.093-0.312,11.004,0.423c12.482,0.544,25.778,0.278,36.841-1.36
	c0.515-0.075,0.989-0.452,1.084-0.883c0.104-0.477-0.46-1.224-0.998-1.229l-47.443-0.48c-0.489-0.006-1.208,0.879-1.562,1.514
	c-0.098,0.182-0.035,0.865,0.042,0.999C228.374,273.832,228.663,274.425,229.162,274.437z"/>
<path fill="#E2E0CF" d="M301.121,249.368c-0.64-0.227-1.169,0.477-1.757,0.772v2.583h3.021c0-0.521,0.168-2.153,0-2.617
	C302.313,249.903,301.443,249.48,301.121,249.368z"/>
<path fill="#E2E0CF" d="M306.884,246.021c0.109,0.322,0.534,1.192,0.735,1.265c0.463,0.167,2.096,0,2.619,0v-3.019h-2.582
	C307.357,244.853,306.658,245.382,306.884,246.021z"/>
<path fill="#E2E0CF" d="M310.641,233.393c-0.31,0.139-1.111,0.938-1.268,1.265c-0.301,0.634,0.398,1.172,0.701,1.757h1.977v-3.021
	C311.768,233.393,310.876,233.289,310.641,233.393z"/>
<path fill="#E2E0CF" d="M315.041,217.965c0.365,0.142,0.705-0.093,1.014-0.275c0.225-0.13,1.151,0,1.432,0v-3.019h-3.059
	c0.178,0.862-0.123,1.644-0.348,2.327C314.347,217.268,314.858,217.89,315.041,217.965z"/>
<rect x="310.238" y="228.565" fill="#E2E0CF" width="3.02" height="3.016"/>
<path fill="#E2E0CF" d="M307.035,249.099c-0.426,0.185-0.857,0.549-1.025,1.007c-0.062,0.18-0.062,0.828,0,1.007
	c0.059,0.163,0.452,0.643,0.603,0.707c0.211,0.081,0.978,0.029,1.198-0.035c0.26-0.075,1.129-0.463,1.221-0.671
	c0.148-0.335,0-1.609,0-2.014C308.626,249.099,307.357,248.959,307.035,249.099z"/>
<path fill="#E2E0CF" d="M301.599,244.873c-0.425,0.179-0.885,0.544-1.023,1.007c-0.09,0.292,0,1.285,0,1.571
	c0.583,0.298,1.121,1.005,1.759,0.701c0.324-0.154,1.146-0.958,1.259-1.268c0.13-0.356,0-1.613,0-2.012
	C303.19,244.873,301.923,244.733,301.599,244.873z"/>
<path fill="#E2E0CF" d="M302.386,238.829v3.022c0.285,0,1.204,0.122,1.396,0c0.639-0.405,1.303-0.932,1.627-1.575
	c0.125-0.255,0-1.164,0-1.447H302.386z"/>
<path fill="#E2E0CF" d="M332.563,201.056c-0.634-0.301-1.204,0.469-1.788,0.764v2.582c0.399,0,1.668,0.139,1.993,0
	c0.427-0.182,0.86-0.55,1.025-1.007c0.063-0.176,0.043-0.828-0.041-0.984C333.594,202.104,332.889,201.212,332.563,201.056z"/>
<path fill="#E2E0CF" d="M323.527,205.207c0.025,0.159,0.451,0.648,0.603,0.706c0.21,0.082,0.984,0.064,1.209,0
	c0.262-0.075,1.097-0.495,1.207-0.706c0.131-0.252,0.039-1.297-0.037-1.598c-0.044-0.162-0.388-0.648-0.736-0.915
	c-0.45-0.341-1.435-0.055-2.245-0.081C323.527,203.114,323.434,204.703,323.527,205.207z"/>
<rect x="312.654" y="198.364" fill="#E2E0CF" width="3.018" height="3.016"/>
<path fill="#E2E0CF" d="M318.926,200.112c0.066,0.226,0.613,0.608,0.775,0.666c0.18,0.064,0.838,0.046,0.961-0.046
	c0.625-0.434,1.305-0.894,1.654-1.528c0.103-0.182,0.033-0.851-0.031-1.03c-0.054-0.162-0.419-0.657-0.57-0.718
	c-0.21-0.081-0.984-0.063-1.21,0c-0.261,0.078-0.966,0.564-1.204,0.707C319.532,198.943,318.737,199.476,318.926,200.112z"/>
<path fill="#E2E0CF" d="M313.264,195.547c-0.019,0.119,0.449,0.657,0.597,0.7c0.335,0.099,1.486,0.108,1.812,0
	c0.221-0.072,0.836-0.688,0.908-0.905c0.107-0.324,0.047-1.465-0.049-1.797c-0.043-0.148-0.529-0.628-0.65-0.617
	c-0.806,0.101-1.329-0.573-1.945-0.376c-0.305,0.099-0.875,0.773-0.973,1.074C312.766,194.245,313.362,194.746,313.264,195.547z"/>
<path fill="#E2E0CF" d="M316.279,207.424c0.521,0,2.27,0.237,2.6,0c0.562-0.411,0.888-1.265,1.02-2.015
	c0.057-0.312,0.004-1.288,0.004-1.673l-3.623,0.66V207.424z"/>
<path fill="#E2E0CF" d="M320.908,195.342c0.379,0.156,1.773,0,2.18,0c0.298-0.585,1.001-1.115,0.775-1.754
	c-0.113-0.322-0.533-1.182-0.741-1.265c-0.376-0.159-1.771,0-2.177,0c-0.299,0.584-0.998,1.114-0.775,1.754
	C320.283,194.398,320.703,195.258,320.908,195.342z"/>
<rect x="333.188" y="191.116" fill="#E2E0CF" width="3.022" height="3.016"/>
<path fill="#E2E0CF" d="M328.357,210.023c0.183,0.423,0.548,0.883,1.008,1.025c0.293,0.086,1.316,0.058,1.562-0.058
	c0.423-0.206,0.89-0.492,1.055-0.95c0.064-0.179,0.03-0.816-0.031-0.996c-0.059-0.162-0.372-0.752-0.759-0.932
	c-0.605-0.284-1.772-0.009-2.835-0.064C328.357,208.431,328.219,209.699,328.357,210.023z"/>
<path fill="#E2E0CF" d="M327.453,195.336c0.708-0.315,1.738-0.342,2.111-0.99c0.232-0.399,0-2.104,0-2.628h-2.997
	c-0.194,0.92-0.309,1.901-0.233,2.97C326.357,195,326.898,195.577,327.453,195.336z"/>
<path fill="#E2E0CF" d="M327.354,200.778c0.307-0.11,1.095-0.938,1.256-1.233c0.099-0.188,0.133-0.973,0.053-1.181
	c-0.061-0.156-0.549-0.576-0.706-0.607c-0.507-0.09-2.093,0-2.617,0v3.021C325.738,200.778,326.994,200.905,327.354,200.778z"/>
<path fill="#E2E0CF" d="M332.351,200.176c0.179,0.099,0.886,0.081,1.042,0c0.304-0.162,1.096-0.94,1.259-1.239
	c0.102-0.185,0.13-0.967,0.049-1.181c-0.058-0.151-0.565-0.603-0.703-0.603h-3.222c0,0.284-0.125,1.204,0,1.398
	C331.18,199.189,331.716,199.823,332.351,200.176z"/>
<rect x="302.989" y="233.393" fill="#E2E0CF" width="3.021" height="3.021"/>
<path fill="#E2E0CF" d="M392.982,253.127c-1.357-6.831-2.656-13.656-4.035-20.174c-2.268-10.733-4.764-20.974-6.975-31.741
	c-0.933-4.539-2.096-9.384-3.027-14.07l-2.588-2.654l-2.9-0.622c-0.318-0.067-1.109-1.04-1.314-1.094
	c-3.117-0.825-5.881-1.908-8.747-2.915c-5.141-0.376-10.929-0.257-16.313-0.211l-7.85,0.611c-0.886,0.076-1.722,0.567-2.616,0.637
	c-0.304-0.506-1.06-0.15-1.451-0.092c-8.563,1.297-17.27,2.402-25.534,4.258c-0.498,0.113-2.348-0.246-2.614,0.014l-3.57,3.474
	c-1.503,2.758-3.005,5.32-3.634,8.637c-1.009,5.332-2.086,10.64-3.157,15.677c-1.126,5.285-1.898,10.567-3.104,15.688
	c-0.122,0.51-1.079,1.968-1.042,2.368c0.119,1.215-0.504,2.075-0.796,3.05c-2.458,8.183-5.112,16.571-4.324,27.839
	c1.817,7.097,3.061,14.756,4.998,21.732c0.146,0.509,1.033,1.913,1.181,2.42c0.249,0.839-0.287,1.632-0.46,2.304
	c-0.388,1.5-1.129,2.663-1.5,3.954c-0.408,1.43-0.819,2.828-0.683,4.603c0.041,0.526,0.24,2.459,0.723,2.761
	c1.644,1.019,3.347,2.31,4.782,3.992c0.385,0.964,0.906,1.979,1.687,2.654c0.255,1.151,0.776,2.297,0.633,3.577l-1.349,7.756
	c0.034,6.472,0.113,11.335-0.247,17.303c-0.57,2.07-0.2,4.822-0.917,6.625c-0.202,0.507-0.254,1.786-0.139,2.072
	c0.643,1.552,0.677,3.216,0.822,4.814c0.88,0.399,1.627,0.95,2.213,1.595c0.121,0.136,1.009-0.032,1.119,0.009
	c1.103,0.434,2.168,0.729,2.736,1.551c0.034,1.291,0.531,2.368,0.467,3.479l0.041,9.558l3.444,3.525c0.145,0.135,0.922-0.08,1.083,0
	c0.321,0.16,1.106,1.121,1.418,1.158c1.552,0.191,2.842,0.809,4.389,1.117c1.511,0.301,3.658,0.047,5.479,0.116
	c1.526,0.503,3.019,1.013,4.8,1.222c0.127,1.511-0.166,2.808-0.588,3.918c-0.125,0.319,0.66,1.756,0.908,2.131
	c0.235,0.348,1.211,1.211,1.512,1.512c-0.118,0.06-0.355,0.224-0.607,0.373c1.434,3.523,1.686,7.381,0.958,11.096
	c-0.265,4.2-0.051,8.389,0.293,12.789c0.016,0.203,0.026,0.406,0.038,0.609c0.669,0.777,1.104,1.813,1.127,3.119
	c0.039,2.132,0.172,4.255,0.242,6.375c1.043,0.011,2.166-0.022,3.438-0.139c0.066-0.005,1.337,0.505,1.759,0.505h12.194
	c0.534-1.422,1.288-2.753,2.203-4.005c-0.05-0.044-0.112-0.084-0.156-0.129c-0.248-0.254-0.654-1.067-0.64-1.282l1.184-16.316
	c0.014-0.173,0.043-0.411,0.086-0.652c-0.106-1.113-0.113-2.241-0.033-3.368c-0.728-2.736-0.6-5.697,0.533-8.206
	c-0.069-0.112-0.135-0.223-0.192-0.323c-0.153-0.26-0.205-1.436-0.078-1.797c0.736-2.081,1.994-3.731,3.451-6.082
	c0.414-0.394,1.652-0.775,2.932-1.36c7.361,0.081,14.507-0.55,19.428-3.126l2.865-2.889c1.21-1.708,1.584-4.081,2.355-6.041
	c-0.048-2.724,0.172-5.601-0.144-8.05c0.157-0.729,0.265-1.506,0.573-2.118c-0.004-0.164-0.012-0.324,0-0.497
	c0.218-3.281,0.476-6.544,0.916-9.793c-0.151-0.163-0.319-0.373-0.334-0.466c-0.324-2.177-1.08-4.379-1-6.452
	c0.117-3.042-0.24-5.561,0.103-8.854c0.587-5.69,0.138-12.417,0.251-18.377c0.446-1.132,0.752-2.196,1.537-2.737
	c3.225-0.536,5.258-2.568,6.889-4.742l-0.085-10.243c1.583-4.495,3.438-8.191,4.563-12.244c0.582-2.101,0.973-4.139,1.508-5.653
	C394.552,262.152,393.866,257.573,392.982,253.127z M368.826,290.976c0.093-0.422,0.677-1.644,0.926-1.998
	c0.631-0.888,1.771-1.76,3.326-1.499c0.113,0.02,0.588,0.541,0.582,0.729c-0.029,1.221-0.49,2.391-0.592,3.578l-0.014,4.738
	c0,0.785-0.443,1.806-1.242,1.959c-0.61,0.122-1.067-0.59-1.418-1.099c-0.775-1.138-1.1-2.704-1.522-4.203
	C368.756,292.771,368.736,291.398,368.826,290.976z M365.393,353.61c0.405,0.599-0.098,1.374-0.504,1.785l-2.463,2.386
	c-13.549,0.218-28.195,1.229-41.938,0.233c-0.361-0.025-1.661-1.339-1.854-1.867c-0.271-0.753,0.388-1.545,0.49-2.559
	c0.023-0.249,0.917-1.204,1.179-1.204h3.826c3.212,1.192,8.521,1.112,12.486,0.607c0.527-0.067,2.091-0.607,2.613-0.607h23.929
	C363.975,352.385,364.953,352.958,365.393,353.61z M311.798,191.151c-0.022-0.59,0.649-1.586,1.46-1.945v1.91h3.057
	c-0.174-0.863,0.127-1.65,0.353-2.339c-0.226-0.2-0.632-0.637-0.792-0.683c-0.261-0.075-1.129,0-1.407,0v-1.233
	c0.808-0.029,1.725-0.066,2.443-0.107c1.187-0.066,2.323-0.671,3.85-0.425c0.098,0.015,0.509,0.437,0.745,0.64
	c-0.338,0.732-0.555,1.73-0.346,2.938c0.353,0,1.588,0.104,1.962,0c0.464-0.127,0.727-0.637,0.967-1.048
	c0.081-0.136,0.116-0.799,0.041-0.967c-0.105-0.234-0.73-0.799-0.892-1.016c-0.255-0.341-0.389-0.767-0.301-1.195h3.236
	c0.288,0,0.543-0.666,0.977-0.643v3.26c0,0.139,0.945,0.625,1.264,0.734c0.641,0.226,1.172-0.474,1.758-0.772v-2.782
	c0-0.434,0.598-0.851,1.023-1.007c0.445-0.162,2.075,0,2.633,0c0.027,0.432-0.553,0.651-0.64,0.976c-0.135,0.518,0,2.125,0,2.648
	h3.022c0-0.524,0.139-2.13,0-2.648c-0.087-0.324-0.666-0.544-0.643-0.943c1.393-0.287,2.635-0.68,4.33-0.657
	c-0.02,0.944-0.83,1.817-0.574,2.449c0.307,0.735,0.893,1.76,1.599,1.479c0.46-0.182,1.431-1.132,1.63-1.491
	c0.102-0.185,0.118-1.036,0-1.245c-0.281-0.48-0.999-0.584-1.52-0.859c0.211-0.191,0.805-0.929,1.045-0.941
	c1.312-0.063,2.741,0.191,3.835-0.121c1.319-0.376,3.21-0.643,5.048-0.405c0.298,0.04,1.723,1.337,1.656,1.658l-9.249,44.978
	c-0.448,2.153-0.835,4.729-1.241,7.242c-0.759,4.681-1.994,8.996-2.399,14.111c-0.058,0.721-0.355,1.6-1.103,2.028
	c-1.441,0.826-3.485,1.054-6.056,1.338c-0.632-0.269-2.31-0.446-3.647-0.976c-0.665-0.264-1.191,0.472-1.973,0.243
	c-0.881,0.999-2.169,1.508-3.653,2.168c-0.909-0.139-1.853-0.863-2.556-1.185c-1.81-0.257-3.511,0.032-4.871,0.403
	c0.006,0-0.564,0.66-0.801,0.723c-0.45,0.116-2.024,0.18-2.366,0c-1.146-0.61-2.438-0.914-3.577-1.256l-5.06,2.53
	c-0.469,0.234-1.456-0.167-2.055-0.48c-0.976-0.51-2.137-0.926-3.488-1.089c-0.776-0.66-1.418-1.51-2.15-2.257
	c-0.104-0.11-0.104-0.872-0.053-1.083c0.625-2.53,0.996-4.747,1.534-7.543l4.799-16.921L311.798,191.151z M334.79,313.046
	c-0.229,0.2-0.632,0.623-0.793,0.681c-0.501,0.185-2.097,0.605-2.619,0.605h-17.096c-0.388,0-0.877-1.266-1.021-2.013
	c-0.044-0.234,0.043-0.987-0.05-1.221c-0.127-0.324-0.619-0.561-0.587-1.059l18.95-0.445c1.558,0.092,3.525,0.164,5.215,0.196
	c0.148,0.003,0.51,0.254,0.631,0.312l-2.981,0.597C334.261,311.572,334.562,312.354,334.79,313.046z M304.614,346.075
	c-0.243-0.13-1.782,0.087-2.199-0.035c-0.58-0.163-1.337-0.429-1.388-0.788c-0.509-3.804-0.21-6.46-0.367-9.569
	c0.431-2.535,0.707-6.084,0.486-9.442c1.262-6.095,0.663-11.397,0.759-17.143c-0.811-4.773-2.09-8.785-3.213-13.266l-3.241-9.888
	c-0.672-3.167-1.198-5.946-1.74-9.083c0.095-1.002-0.743-2.026-0.061-3.317c-1.037-4.092-2.61-8.156-3.338-12.77l-0.037-5.647
	c0.277-2.021,1.139-3.65,1.305-5.737c1.103-3.094,1.606-6.434,2.547-9.702c0.885-3.077,1.566-6.371,2.294-9.699
	c0.09-0.423,0.689-1.618,0.785-2.041l8.637-37.492c0.079-0.331,0.64-1.204,1.334-0.839c0.179,0.092,0.665,0.584,0.644,0.691
	l-12.38,50.94c-1.068,4.382-2.052,9.21-2.915,13.911l0.023,4.811c0.15,4.631,1.673,9.202,3.441,12.696l7.384,30.166
	c0.62,2.123,1.517,4.528,2.181,6.82c0.251,0.862-0.23,1.581-0.803,1.974c0.082,0.984,0.655,1.841,0.655,2.663v3.062h13.488
	c0.158,0,0.299,0.089,0.426,0.217c2.697-0.234,5.379-0.244,8.113-0.233c0.094-0.071,0.188-0.118,0.245-0.128
	c2.902-0.538,4.672-0.173,7.696-0.347c0.562-0.036,2.119-0.712,2.646-0.712h7.481c0.581,0,1.577-1.064,1.577-1.627v-3.409
	c0-0.435-0.643-1.054-1.1-1.071l-6.733-0.354c1.911-0.805,4.091-1.546,6.566-1.138c0.355,0.062,1.654-1.409,1.907-1.907
	c0.182-0.348-0.275-1.054,0.338-1.419c-0.688-4.038-0.5-9.08-1.152-13.418c-0.844-5.633-1.209-12.127-1.809-17.952
	c-0.402-3.928-1.403-6.64-1.572-10.46c-0.248-5.726-0.149-11.434,0.614-16.496c2.638-17.485,6.05-34.236,10.16-50.355
	c0.075-0.301-0.047-1.297,0.028-1.601c0.104-0.419,0.762-1.6,0.857-2.02c0.515-2.278,0.653-5.091,1.342-7.216
	c0.162-0.507,0.881-1.957,1.123-2.443c0.302,0.325,1.703,1.401,1.625,1.737c-4.16,18.287-8.386,36.679-11.438,56.072
	c-0.457,2.9-0.898,5.326-1.342,8.244c0.162,2.983-0.115,5.893-0.898,8.678c0.227,0.671,0.754,1.893,0.863,3.19l0.087,3.809
	c0.373,4.312,1.326,8.632,1.606,14.113l1.268,7.919c-0.513,0.811,0.252,1.977-0.15,3.728c0.177,0.53,0.727,1.751,0.813,3.048
	l0.017,6.642c0,0.423,0.504,1.69,0.498,1.754c-0.309,5.435,0.137,9.306-0.04,14.374c-0.072,1.995-0.451,3.341-0.625,5.807
	c-0.249,3.58-1.222,6.565-1.858,10.096c-0.029,3.572-0.035,7.575-0.521,10.913c-0.02,0.144-0.526,1.4-0.781,1.749
	c-0.666,0.926-1.783,1.372-3.076,1.817l-35.874-0.014C306.774,346.896,305.633,346.613,304.614,346.075z M327.163,368.371
	c-0.046-0.11-0.087-0.871-0.013-1.085c0.157-0.46,0.66-1.011,1.025-1.011h8.238c0.139,0,0.561,0.483,0.812,0.698
	c-0.202,0.948-1.004,1.944-1.073,3.122c-0.012,0.275-0.863,1.121-1.152,1.314c-0.376,0.252-1.8,1.033-2.137,0.918
	c-1.309-0.46-2.587-0.949-4.173-1.232C327.892,370.543,327.594,369.475,327.163,368.371z M331.378,387.006v-3.817
	c0-0.522,0.358-2.156,0.616-2.666c0.315-0.628,1.003-1.126,1.658-1.474c0.336-0.18,1.934-0.31,2.154-0.086l2.217,2.211V385
	c0,0.523-0.298,2.223-0.62,2.691c-0.553,0.799-1.62,1.094-2.721,1.525c-0.109,0.045-0.973,0.154-1.142,0.012
	C332.777,388.575,332.109,387.756,331.378,387.006z M337.114,408.559c-0.261,0.24-1.002,1.047-1.308,1.207
	c-0.156,0.08-0.847,0.08-1.006,0c-0.304-0.16-1.308-0.967-1.308-1.211l0.014-9.053c0.108-1.22,1.771-1.854,3.474-1.32
	c-0.059-0.018,0.559,0.405,0.519,0.689C337.104,401.661,336.286,405.371,337.114,408.559z M340.125,393.417
	c-0.093,0.179-0.55,0.644-0.693,0.644h-5.435c-0.281,0-1.149-0.452-1.4-0.629c-0.368-0.256-0.901-0.892-0.603-0.999
	c2.062-0.729,5.135-1.117,7.375-0.202C339.592,392.323,340.489,392.723,340.125,393.417z M373.5,309.523
	c-0.964,4.099-0.115,10.191-0.555,15.068c-0.096,1.054-0.258,2.177-0.803,3.208c0.104,10.778-0.069,21.354-0.347,31.631
	c-0.023,0.743-0.532,1.406-1.024,1.969c-0.082,0.092-0.846-0.05-0.927,0.045c-0.892,1.013-2.183,1.517-3.45,2.07
	c-1.719,0.749-3.779,1.201-5.824,1.534l-3.218,0.02c-0.427,0-1.755,0.701-2.107,0.603c-1.536-0.434-2.837-1.25-3.923-2.229
	c-7.58-0.798-16.414-0.266-25.404-0.474l-2.391,1.296c0,0.203,0.122,0.909,0,1.054c-0.654,0.767-1.477,1.435-2.234,2.177
	c-4.452-0.07-8.152-1.042-11.068-2.738l-2.307-2.408l0.115-10.009c0.764-0.105,1.713-0.16,2.711-0.573
	c0.49-0.203,1.124,0.715,1.599,1.396c0.336,0.483-0.526,0.885-0.306,1.641c0.427,1.485,0.826,3.006,1.557,4.321
	c1.568,1.025,3.525,1.812,5.707,2.292l42.879,0.008c1.754-0.44,3.456-0.97,5.06-1.948c0.811-0.943,1.419-2.432,1.951-4.076
	c0.489-15.994,0.151-35.434,0.284-52.943c0-0.408,0.59-1.699,0.88-2.012c0.37-0.411,0.723-1.192,1.493-0.926
	c1.157,0.405,1.963,1.303,2.691,2.174C373.862,304.012,374.07,307.104,373.5,309.523z M377.301,290.438
	c-0.379-0.162-0.383-0.571-0.232-0.877c0.122-0.257,0.934-1.083,1.145-1.132c0.367-0.081,1.375-0.55,1.34,0.88
	C379.535,289.815,378.422,290.918,377.301,290.438z"/>
<path fill="#E2E0CF" d="M311.244,207.424c0.382,0.156,1.771,0,2.182,0c0.295-0.584,0.996-1.117,0.77-1.754
	c-0.109-0.324-0.533-1.181-0.735-1.268c-0.382-0.156-1.771,0-2.179,0c-0.299,0.584-1,1.117-0.773,1.754
	C310.618,206.478,311.041,207.337,311.244,207.424z"/>
<path fill="#E2E0CF" d="M334.398,230.377h-3.056c0.173,0.863-0.128,1.645-0.355,2.339c0.228,0.197,0.636,0.648,0.796,0.677
	c0.506,0.092,2.092,0,2.615,0V230.377z"/>
<path fill="#E2E0CF" d="M306.815,230.979c0.155-0.029,0.646-0.452,0.706-0.602c0.08-0.214,0.051-0.996-0.053-1.181
	c-0.2-0.359-1.092-1.372-1.482-1.563c-0.631-0.307-1.204,0.466-1.789,0.765v2.582C304.722,230.979,306.308,231.071,306.815,230.979z
	"/>
<path fill="#E2E0CF" d="M311.781,216.542c-0.109-0.321-0.535-1.193-0.737-1.268c-0.46-0.168-2.093,0-2.62,0v3.022h2.582
	C311.307,217.71,312.008,217.178,311.781,216.542z"/>
<path fill="#E2E0CF" d="M310.317,213.242c0.731,0.237,1.239-0.854,1.733-1.454c0.066-0.081,0.031-0.752-0.032-0.932
	c-0.058-0.162-0.434-0.59-0.562-0.735c-0.457-0.509-1.219-0.22-1.854-0.254c0.169,0.833-0.131,1.618-0.356,2.301
	C309.512,212.437,310.005,213.138,310.317,213.242z"/>
<path fill="#E2E0CF" d="M307.932,225.225c0.718,0.272,1.294-0.715,1.702-1.354c0.157-0.243,0-1.548,0-1.951
	c-0.403,0-1.67-0.139-1.995,0c-0.424,0.182-0.858,0.55-1.026,1.007c-0.063,0.177-0.082,0.846,0,1.008
	C306.774,224.235,307.544,225.074,307.932,225.225z"/>
<path fill="#E2E0CF" d="M450.816,346.955c-1.289-1.187-2.884-2.035-4.898-2.442c-0.295-0.058-1.066-1.028-1.389-1.188
	c-0.162-0.081-0.846,0.081-1.008,0c-0.322-0.162-1.086-1.049-1.407-1.209c-0.163-0.082-0.791-0.024-0.745,0.005
	c-4.674-3.132-9.9-5.343-14.519-8.226c-0.675-0.42-1.394-1.141-1.267-2.049h3.242c0.26,0,1.318-1.002,1.283-1.257
	c-0.216-1.638-1.297-2.668-2.677-3.308c-7.935-3.676-15.468-7.875-23.578-11.428c-0.26-0.112-1.161-0.182-1.405-0.315
	c-0.319-0.169-1.115-1.01-1.238-1.042c-2.538-0.66-4.333-2.009-6.434-2.83c-0.994-0.391-2.061-0.852-3.133-1.013
	c-0.178-0.029-0.711,0.506-0.771,0.66c-0.082,0.208-0.086,1.001,0,1.207c0.094,0.217,0.688,0.796,0.906,0.906l8.456,4.229
	c0.232,0.12,0.771,0.802,1.005,0.906c0.169,0.076,0.848-0.08,1.01,0c0.32,0.162,1.085,1.048,1.407,1.208
	c0.161,0.084,0.841-0.075,1.009,0c0.234,0.107,0.773,0.795,1.057,0.921c4.411,1.964,8.322,4.506,12.744,6.74
	c0.083,0.041,0.639,0.6,0.734,0.776c0.336,0.614-0.25,1.111-0.651,1.209l-2.813,0.619c-0.298,0.067-1.244,0.955-1.264,1.233
	c-0.064,1.025,0.685,1.807,1.419,2.049c0.291,0.095,0.865,0.735,0.748,0.686c3.046,1.266,5.878,2.308,8.354,3.599
	c9.279,4.828,18.568,9.665,27.883,14.18c0.315,0.154,0.933,0,1.115,0v-4.229L450.816,346.955z"/>
<path fill="#E2E0CF" d="M336.194,246.968c-0.993-0.075-1.819,0.741-2.073,1.534c-0.397,1.242,0.654,1.905,1.477,2.081
	c0.912,0.195,1.322-0.79,1.822-1.363c0.059-0.07,0.041-0.747-0.042-0.903C337.218,248.01,336.472,246.988,336.194,246.968z"/>
<rect x="335.607" y="235.812" fill="#E2E0CF" width="3.018" height="3.016"/>
<path fill="#E2E0CF" d="M338.603,230.047c-0.632-0.301-1.202,0.469-1.79,0.767c0,0.287-0.109,1.3,0,1.575
	c0.127,0.31,0.932,1.143,1.321,1.291c0.716,0.275,1.209-0.755,1.701-1.355c0.065-0.083,0.04-0.764-0.041-0.923
	C339.635,231.098,338.932,230.203,338.603,230.047z"/>
<rect x="338.625" y="225.543" fill="#E2E0CF" width="3.021" height="3.022"/>
<path fill="#E2E0CF" d="M336.414,214.066c-0.256-0.13-1.32-0.061-1.566,0.061c-0.423,0.203-0.943,0.486-1.054,0.949
	c-0.118,0.492,0,2.09,0,2.614h3.06c-0.179-0.862,0.336-1.647,0.336-2.29C337.189,215.033,336.622,214.177,336.414,214.066z"/>
<path fill="#E2E0CF" d="M340.987,217.959c-0.644-0.226-1.17,0.475-1.758,0.776v3.184h3.02v-3.222
	C342.249,218.556,341.305,218.073,340.987,217.959z"/>
<rect x="334.398" y="243.061" fill="#E2E0CF" width="3.021" height="3.019"/>
<path fill="#E2E0CF" d="M332.031,222.035c0.958,1.123,2.202,0.562,3.576,0.324v-2.895c-0.864,0.176-1.648-0.339-2.291-0.335
	c-0.367,0-1.251,0.57-1.334,0.775C331.825,220.284,331.834,221.803,332.031,222.035z"/>
<path fill="#E2E0CF" d="M333.771,225.216c-0.634-0.304-1.203,0.466-1.788,0.767v3.184h3.019c0-0.521,0.151-2.142,0-2.617
	C334.908,226.244,334.098,225.373,333.771,225.216z"/>
<path fill="#E2E0CF" d="M343.861,203.8c0.46,0.168,2.092,0,2.619,0v-3.022h-2.582c-0.301,0.584-1.002,1.117-0.775,1.754
	C343.236,202.854,343.659,203.725,343.861,203.8z"/>
<path fill="#E2E0CF" d="M340.24,193.53c0.178,0.063,0.846,0.081,1.004,0c0.305-0.159,1.092-0.947,1.149-1.083
	c0.567-1.358-0.521-2.043-1.341-2.211c-0.911-0.194-1.325,0.787-1.823,1.36c-0.061,0.07-0.036,0.75,0.042,0.886
	C339.511,192.894,339.78,193.362,340.24,193.53z"/>
<path fill="#E2E0CF" d="M340.437,214.469c-0.081,0.156-0.038,0.828,0.041,0.967c0.243,0.411,0.503,0.938,0.966,1.048
	c0.498,0.115,2.096,0,2.617,0v-3.057c-0.862,0.173-1.644-0.128-2.334-0.354C341.404,213.421,340.599,214.165,340.437,214.469z"/>
<rect x="346.48" y="183.866" fill="#E2E0CF" width="3.016" height="3.019"/>
<path fill="#E2E0CF" d="M337.82,205.007c0.379,0.156,1.771,0,2.18,0c0.298-0.587,0.999-1.115,0.772-1.757
	c-0.11-0.318-0.532-1.178-0.735-1.262c-0.379-0.156-1.771,0-2.182,0c-0.295,0.584-0.996,1.112-0.771,1.754
	C337.195,204.061,337.615,204.923,337.82,205.007z"/>
<rect x="338.023" y="195.947" fill="#E2E0CF" width="3.019" height="3.019"/>
<rect x="342.854" y="206.819" fill="#E2E0CF" width="3.02" height="3.019"/>
<rect x="344.061" y="195.947" fill="#E2E0CF" width="3.021" height="3.019"/>
<path fill="#E2E0CF" d="M348.472,192.323c0.428-0.159,0.862-0.553,1.024-1.01c0.064-0.174,0.035-0.813-0.029-0.993
	c-0.058-0.165-0.422-0.605-0.561-0.744c-0.519-0.503-1.379-0.312-2.015-0.15c-0.382,0.101-0.892,0.422-1.019,0.886
	c-0.103,0.371,0,1.609,0,2.012C346.399,192.323,348.029,192.488,348.472,192.323z"/>
<path fill="#E2E0CF" d="M335.607,210.002c0.587,0.298,1.154,1.068,1.789,0.767c0.326-0.156,1.072-1.03,1.229-1.334
	c0.084-0.16,0.034-0.816-0.029-0.993c-0.058-0.165-0.396-0.648-0.74-0.915c-0.452-0.344-1.437-0.058-2.248-0.081V210.002z"/>
<path fill="#E2E0CF" d="M328.1,215.419c-0.102,0.185-0.08,0.996,0,1.207c0.061,0.153,0.541,0.547,0.704,0.604
	c0.179,0.064,0.85,0.082,1.007,0c0.307-0.162,1.1-0.938,1.258-1.233c0.102-0.191,0.134-0.973,0.051-1.184
	c-0.059-0.153-0.539-0.547-0.701-0.605c-0.183-0.063-0.852-0.081-1.01,0C329.104,214.371,328.262,215.124,328.1,215.419z"/>
<path fill="#E2E0CF" d="M321.397,227.12h-3.019v3.056c0.862-0.173,1.647,0.128,2.331,0.354c0.265-0.267,0.891-0.782,0.961-0.964
	c0.144-0.364-0.088-0.707-0.273-1.016C321.268,228.323,321.397,227.403,321.397,227.12z"/>
</svg>
