<?xml version="1.0" encoding="utf-8"?>
<!-- Generator: Adobe Illustrator 15.0.0, SVG Export Plug-In . SVG Version: 6.00 Build 0)  -->
<!DOCTYPE svg PUBLIC "-//W3C//DTD SVG 1.1//EN" "http://www.w3.org/Graphics/SVG/1.1/DTD/svg11.dtd">
<svg version="1.1" id="Layer_1" xmlns="http://www.w3.org/2000/svg" xmlns:xlink="http://www.w3.org/1999/xlink" x="0px" y="0px"
	 width="424px" height="397px" viewBox="0 0 424 397" enable-background="new 0 0 424 397" xml:space="preserve">
<path fill="#FFFFFF" d="M160.24,58.914c-0.423-0.409-1.361-0.371-1.536-0.135c-0.449,0.605-1.033,1.324-0.937,2.406
	c0.702-0.142,1.343,0.104,1.906,0.288c0.262-0.283,0.921-0.888,1.051-1.139c0.069-0.127,0.026-0.667-0.026-0.813
	C160.651,59.389,160.353,59.025,160.24,58.914z"/>
<path fill="#FFFFFF" d="M161.71,78.091c0.067-0.208,0-0.919,0-1.149c-0.428,0-1.758-0.137-2.122,0
	c-0.348,0.128-0.716,0.444-0.837,0.823c-0.066,0.208,0,0.917,0,1.149c0.428,0,1.758,0.132,2.123,0
	C161.224,78.786,161.589,78.467,161.71,78.091z"/>
<path fill="#FFFFFF" d="M155.299,69.35c-0.104,0.206,0,0.948,0,1.177c0.426,0,1.759,0.135,2.121,0
	c0.35-0.127,0.702-0.449,0.839-0.822c0.052-0.142,0.024-0.667-0.028-0.811c-0.046-0.135-0.402-0.451-0.475-0.574
	c-0.268-0.449-0.812-0.281-1.124-0.142C156.127,68.404,155.565,68.823,155.299,69.35z"/>
<path fill="#FFFFFF" d="M174.702,62.143c-0.208-0.106-1.078-0.049-1.279,0.05c-0.346,0.166-0.771,0.397-0.86,0.775
	c-0.097,0.401,0,1.707,0,2.134h2.499c-0.146-0.704,0.273-1.345,0.273-1.87C175.335,62.932,174.872,62.232,174.702,62.143z"/>
<path fill="#FFFFFF" d="M171.083,79.406h-2.465c0,0.43-0.133,1.761,0,2.122c0.127,0.351,0.444,0.724,0.823,0.837
	c0.241,0.075,1.089,0.047,1.191-0.043c0.486-0.43,0.936-1.139,0.452-1.834C171.009,80.379,171.083,79.638,171.083,79.406z"/>
<path fill="#FFFFFF" d="M171.124,68.65c0.781,0.917,1.798,0.458,2.919,0.265v-2.364c-0.705,0.144-1.345-0.277-1.871-0.274
	c-0.299,0-1.021,0.466-1.089,0.633C170.955,67.22,170.961,68.461,171.124,68.65z"/>
<path fill="#FFFFFF" d="M165.648,57.98c-1.035-0.293-2.042,0.404-2.209,1.206c-0.107,0.506,0.258,0.832,0.649,0.983
	c0.248,0.099,1.397,0.062,1.693-0.06c0.35-0.142,0.728-0.39,0.863-0.763c0.052-0.144,0.038-0.686-0.038-0.794
	C166.485,58.382,165.861,58.039,165.648,57.98z"/>
<path fill="#FFFFFF" d="M168.123,72.501c-0.427,0-1.759-0.135-2.12,0c-0.35,0.13-0.75,0.446-0.84,0.825
	c-0.097,0.402,0,1.707,0,2.137c0.428,0,1.856,0.194,2.121,0c0.463-0.338,0.728-1.036,0.836-1.646
	C168.166,73.562,168.123,72.763,168.123,72.501z"/>
<path fill="#FFFFFF" d="M158.259,56.718c0.425,0,1.853,0.194,2.123,0c0.458-0.336,0.725-1.033,0.832-1.645
	c0.047-0.255,0.004-1.052,0.004-1.367l-2.959,0.539V56.718z"/>
<path fill="#FFFFFF" d="M155.796,47.019c-0.015,0.097,0.367,0.537,0.488,0.572c0.273,0.081,1.213,0.087,1.479,0
	c0.179-0.059,0.682-0.562,0.742-0.74c0.087-0.265,0.038-1.196-0.04-1.468c-0.036-0.121-0.433-0.513-0.532-0.504
	c-0.658,0.083-1.085-0.468-1.588-0.307c-0.249,0.081-0.714,0.631-0.794,0.876C155.389,45.955,155.877,46.364,155.796,47.019z"/>
<path fill="#FFFFFF" d="M162.039,46.851c0.31,0.127,1.449,0,1.781,0c0.243-0.478,0.817-0.91,0.633-1.433
	c-0.093-0.263-0.435-0.964-0.606-1.033c-0.307-0.13-1.446,0-1.777,0c-0.244,0.478-0.815,0.91-0.634,1.432
	C161.528,46.081,161.871,46.782,162.039,46.851z"/>
<path fill="#FFFFFF" d="M168.123,58.84c0.148,0.345,0.447,0.721,0.823,0.837c0.239,0.071,1.075,0.047,1.275-0.047
	c0.346-0.167,0.726-0.402,0.861-0.775c0.053-0.146,0.025-0.667-0.026-0.813c-0.048-0.132-0.303-0.614-0.619-0.761
	c-0.495-0.232-1.447-0.007-2.315-0.052C168.123,57.541,168.01,58.576,168.123,58.84z"/>
<path fill="#FFFFFF" d="M167.384,46.846c0.578-0.258,1.419-0.279,1.725-0.809c0.189-0.326,0-1.718,0-2.146h-2.448
	c-0.159,0.752-0.252,1.553-0.19,2.426C166.49,46.572,166.932,47.042,167.384,46.846z"/>
<path fill="#FFFFFF" d="M171.383,50.799c0.147,0.08,0.723,0.066,0.851,0c0.248-0.133,0.896-0.769,1.028-1.012
	c0.083-0.151,0.106-0.79,0.04-0.965c-0.047-0.123-0.461-0.492-0.574-0.492h-2.631c0,0.232-0.102,0.983,0,1.142
	C170.428,49.993,170.865,50.51,171.383,50.799z"/>
<path fill="#FFFFFF" d="M172.543,71.248c-0.518-0.248-0.983,0.38-1.46,0.626v2.601h2.465c0-0.425,0.123-1.749,0-2.137
	C173.472,72.087,172.811,71.375,172.543,71.248z"/>
<path fill="#FFFFFF" d="M154.146,56.718c0.312,0.127,1.446,0,1.782,0c0.242-0.478,0.813-0.913,0.628-1.433
	c-0.089-0.265-0.435-0.964-0.601-1.035c-0.312-0.127-1.446,0-1.779,0c-0.244,0.478-0.816,0.912-0.631,1.432
	C153.635,55.945,153.981,56.647,154.146,56.718z"/>
<path fill="#FFFFFF" d="M178.437,65.322c-0.525-0.184-0.955,0.388-1.436,0.634v2.6h2.467v-2.631
	C179.468,65.809,178.696,65.414,178.437,65.322z"/>
<path fill="#FFFFFF" d="M176.489,75.193c-0.516-0.245-0.982,0.383-1.461,0.627c0,0.234-0.09,1.061,0,1.286
	c0.104,0.253,0.761,0.933,1.079,1.054c0.585,0.225,0.988-0.617,1.39-1.106c0.054-0.068,0.033-0.625-0.034-0.754
	C177.333,76.051,176.758,75.321,176.489,75.193z"/>
<path fill="#FFFFFF" d="M184.55,44.386c0.35-0.13,0.704-0.452,0.836-0.825c0.053-0.142,0.029-0.664-0.023-0.811
	c-0.047-0.134-0.346-0.494-0.459-0.607c-0.422-0.412-1.125-0.255-1.645-0.123c-0.312,0.083-0.728,0.345-0.832,0.723
	c-0.084,0.302,0,1.314,0,1.643C182.857,44.386,184.188,44.52,184.55,44.386z"/>
<path fill="#FFFFFF" d="M175.851,54.744c0.309,0.127,1.446,0,1.779,0c0.244-0.48,0.816-0.911,0.631-1.435
	c-0.09-0.26-0.435-0.962-0.601-1.031c-0.31-0.128-1.447,0-1.782,0c-0.24,0.478-0.813,0.908-0.629,1.433
	C175.34,53.971,175.683,54.675,175.851,54.744z"/>
<path fill="#036797" d="M191.572,37.301c-0.038-0.036-0.077-0.071-0.101-0.097c-0.199,0.397-0.785,1.582-0.918,1.995
	c-0.181,0.558-0.309,1.183-0.422,1.824C190.587,39.777,191.068,38.537,191.572,37.301z"/>
<g>
	<g>
		
			<radialGradient id="SVGID_1_" cx="186.6299" cy="197.8955" r="345.2809" gradientTransform="matrix(1 0 0 0.9993 0 -0.0061)" gradientUnits="userSpaceOnUse">
			<stop  offset="0.0056" style="stop-color:#ED2224"/>
			<stop  offset="0.6629" style="stop-color:#721011"/>
			<stop  offset="1" style="stop-color:#010101"/>
		</radialGradient>
		<path fill-rule="evenodd" clip-rule="evenodd" fill="url(#SVGID_1_)" d="M212.786,389.886
			C185.067,327.616,54.385,260.34,16.365,178.039C-9.354,122.378,17.312,56.245,64.768,23.976
			C102.85-1.961,173.008-6.105,212.69,49.42C252.448-6.105,322.706-1.961,360.833,23.976
			c47.453,32.269,73.238,98.402,48.354,154.063C372.247,260.81,233.933,324.698,212.786,389.886z"/>
		
			<radialGradient id="SVGID_2_" cx="225.5713" cy="176.2183" r="246.8496" gradientTransform="matrix(1 0 0 0.9993 0 -0.0061)" gradientUnits="userSpaceOnUse">
			<stop  offset="0.0056" style="stop-color:#ED2224"/>
			<stop  offset="1" style="stop-color:#721011"/>
		</radialGradient>
		<path fill-rule="evenodd" clip-rule="evenodd" fill="url(#SVGID_2_)" d="M212.778,379.329
			C186.579,320.481,63.081,256.896,27.149,179.121C2.842,126.518,28.045,64.019,72.892,33.525
			c35.99-24.512,102.294-28.429,139.792,24.046C250.259,5.097,316.653,9.014,352.687,33.525
			c44.844,30.494,69.217,92.992,45.697,145.596C363.476,257.343,232.765,317.727,212.778,379.329z"/>
	</g>
</g>
<path fill="#E2E0CF" d="M194.708,97.917c-0.518-0.5-1.666-0.455-1.881-0.165c-0.55,0.741-1.266,1.621-1.146,2.946
	c0.859-0.173,1.645,0.127,2.333,0.353c0.321-0.347,1.128-1.088,1.287-1.395c0.085-0.156,0.032-0.816-0.031-0.996
	C195.212,98.499,194.847,98.053,194.708,97.917z"/>
<path fill="#E2E0CF" d="M195.603,109.724c-0.102,0.185-0.08,0.996,0,1.207c0.061,0.153,0.541,0.547,0.704,0.604
	c0.179,0.064,0.85,0.082,1.007,0c0.307-0.162,1.1-0.938,1.258-1.233c0.102-0.191,0.134-0.973,0.051-1.184
	c-0.059-0.153-0.539-0.547-0.701-0.605c-0.183-0.063-0.852-0.081-1.01,0C196.606,108.676,195.765,109.429,195.603,109.724z"/>
<path fill="#E2E0CF" d="M197.114,104.488c0.136,0.31,0.929,1.143,1.316,1.294c0.718,0.272,1.245-0.735,1.702-1.355
	c0.104-0.145,0-1.065,0-1.349h-3.019C197.114,103.362,197.01,104.253,197.114,104.488z"/>
<path fill="#E2E0CF" d="M203.756,123.01v-3.016c-0.523,0-2.11-0.093-2.616,0c-0.156,0.029-0.562,0.48-0.794,0.678
	c0.232,0.694,0.531,1.476,0.354,2.338H203.756z"/>
<path fill="#E2E0CF" d="M204.36,114.555c-0.522,0-2.152-0.165-2.596,0c-0.428,0.159-0.917,0.547-1.027,1.01
	c-0.118,0.492,0,2.09,0,2.617c0.523,0,2.272,0.237,2.597,0c0.567-0.414,0.892-1.268,1.024-2.015
	C204.413,115.854,204.36,114.876,204.36,114.555z"/>
<path fill="#E2E0CF" d="M201.33,96.774c-1.267-0.359-2.501,0.495-2.706,1.477c-0.131,0.619,0.316,1.019,0.796,1.204
	c0.304,0.122,1.711,0.075,2.073-0.073c0.428-0.173,0.891-0.478,1.056-0.935c0.064-0.177,0.047-0.839-0.046-0.973
	C202.355,97.266,201.592,96.846,201.33,96.774z"/>
<path fill="#E2E0CF" d="M188.657,110.696c-0.126,0.252,0,1.161,0,1.441c0.522,0,2.154,0.166,2.598,0
	c0.429-0.156,0.859-0.55,1.027-1.007c0.063-0.174,0.029-0.816-0.034-0.993c-0.056-0.165-0.493-0.553-0.581-0.703
	c-0.328-0.55-0.994-0.344-1.377-0.174C189.673,109.539,188.983,110.051,188.657,110.696z"/>
<rect x="203.756" y="130.257" fill="#E2E0CF" width="3.022" height="3.022"/>
<rect x="189.261" y="137.508" fill="#E2E0CF" width="3.021" height="3.02"/>
<rect x="197.114" y="130.865" fill="#E2E0CF" width="3.019" height="3.019"/>
<path fill="#E2E0CF" d="M198.331,136.579c-0.613-0.411-1.648-0.434-2.146,0.313c-0.411,0.614-0.434,1.656,0.312,2.148
	c0.613,0.411,1.655,0.434,2.147-0.31C199.056,138.113,199.079,137.077,198.331,136.579z"/>
<path fill="#E2E0CF" d="M200.06,125.047c-0.715-0.272-1.283,0.828-1.74,1.45c-0.104,0.142,0,1.065,0,1.346h3.022
	c0-0.281,0.104-1.175,0-1.41C201.202,126.124,200.45,125.195,200.06,125.047z"/>
<path fill="#E2E0CF" d="M194.071,125.1c-0.634-0.301-1.203,0.469-1.789,0.767c0,0.287-0.121,1.312,0,1.554
	c0.203,0.426,0.55,0.863,1.007,1.028c0.177,0.064,0.829,0.038,0.961-0.04c0.417-0.24,0.886-0.513,1.051-0.97
	c0.064-0.173,0.044-0.825-0.043-0.984C195.101,126.15,194.396,125.256,194.071,125.1z"/>
<path fill="#E2E0CF" d="M196.508,121.4c0.082-0.255,0-1.126,0-1.407c-0.523,0-2.152-0.167-2.598,0
	c-0.427,0.156-0.878,0.544-1.025,1.007c-0.081,0.254,0,1.123,0,1.407c0.523,0,2.152,0.162,2.599,0
	C195.913,122.251,196.36,121.861,196.508,121.4z"/>
<path fill="#E2E0CF" d="M189.863,131.467v2.582c0.587,0.298,1.128,1.001,1.759,0.701c0.327-0.157,1.152-0.962,1.263-1.268
	c0.13-0.359,0-1.61,0-2.015H189.863z"/>
<path fill="#E2E0CF" d="M205.567,135.091h-3.019v3.056c0.862-0.173,1.647,0.128,2.331,0.354c0.265-0.267,0.891-0.782,0.961-0.964
	c0.144-0.364-0.088-0.707-0.273-1.016C205.438,136.295,205.567,135.375,205.567,135.091z"/>
<rect x="185.034" y="126.031" fill="#E2E0CF" width="3.02" height="3.022"/>
<path fill="#E2E0CF" d="M153.531,142.617c-1.47-0.521-3.439-0.874-4.165-0.36c-3.616-0.347-6.656-1.436-10.025-1.765
	c-0.42-0.043-1.615-0.724-2.036-0.796c-5.407-0.923-10.91-2.098-16.316-2.976c-2.243-0.362-4.067-0.912-6.12-0.999
	c-0.436-0.017-0.969,0.521-1.108,0.981c-0.09,0.292,0,1.289,0,1.61l2.237,1.213c3.094,0.197,5.931,0.839,8.634,1.308l22.936,3.746
	c2.102,0.356,4.858,0.084,7.254,0.151c0.08-0.405-0.035-0.845-0.311-1.167C154.284,143.294,153.479,142.6,153.531,142.617z"/>
<path fill="#E2E0CF" d="M201.944,108.919c-0.169,0.463,0,2.093,0,2.616c0.402,0,1.658,0.127,2.015,0
	c0.307-0.113,1.112-0.938,1.238-1.233c0.29-0.677-0.304-1.36-0.851-1.766c-0.342-0.254-0.778-0.44-1.238-0.295
	C202.896,108.306,202.02,108.717,201.944,108.919z"/>
<path fill="#E2E0CF" d="M124.935,199.719c0.162-0.052,0.722,0,0.908,0v3.022h3.019l6.638-2.124c1.262-0.478,2.252-1.315,3.841-1.506
	c0.297-0.041,1.125-0.938,1.033-0.897c6.183-2.668,12.018-5.118,17.479-7.858v-1.509h-3.135l-20.409,7.579
	c-0.43,0.156-1.328,0.237-1.56-0.389c-0.394-1.053-0.967-2.235-2.046-2.689c-1.843-0.044-3.001,0.727-4.288,1.155
	c-7.328,2.438-14.009,5.36-20.492,8.571c-1.213,0.6-2.539,1.022-3.346,2.081c-0.822,1.085-0.86,2.675,0.22,3.625
	c0.115,0.106,1.326,0.161,1.499,0l2.416-2.229c4.384-1.331,7.947-3.256,11.886-4.703L124.935,199.719z"/>
<path fill="#E2E0CF" d="M280.368,123.189c9.25-3.198,19.264-5.743,29.678-7.798c1.723-0.764,4.003-1.105,5.611-2.035l3.062-0.614
	c0.438-0.086,1.614-1.409,1.829-1.85c0.32-0.651-0.295-1.337-0.828-1.766c-0.443-0.353-1.095-0.318-1.6-0.008
	c-0.412,0.251-2.134,0.133-2.625,0.292l-13.503,4.492c-2.15,0.515-3.933,0.92-6.24,1.557c0.165-0.046-0.584-0.084-0.79,0
	c-0.236,0.098-0.794,0.822-0.978,0.845c-3.403,0.394-6.273,1.265-9.12,2.57c-1.899,0.122-3.92,0.435-4.972,1.754
	c-0.261,0.324-0.45,0.758-0.306,1.219C279.653,122.06,280.124,122.77,280.368,123.189z"/>
<path fill="#E2E0CF" d="M280.232,159.781c5.771,1.487,11.953,2.486,17.906,3.658c0.209,0.043,0.631,0.509,0.692,0.625
	c0.33,0.608-0.253,1.04-0.736,1.228c-0.308,0.118-1.714-0.076-2.077,0.076c-0.427,0.173-0.891,0.474-1.056,0.932
	c-0.063,0.179-0.039,0.827,0.041,0.964c0.241,0.414,0.531,0.976,0.941,0.981c11.545,0.118,21.528,2.353,32.331,3.184
	c0.233,0.017,0.753-0.547,0.812-0.701c0.081-0.208,0.103-1.019,0-1.21c-0.159-0.295-1.03-1.143-1.346-1.175
	c-2.505-0.243-5.2-0.355-7.21-0.897c-1.178,0.622-2.198-0.22-3.209-0.122c-2.111-0.521-4.461-0.625-6.07-1.731
	c0.848-0.416,1.691-0.787,2.435-1.293c0.1-0.066,0.098-0.94-0.035-1.048c-1.364-1.103-3.671-1.144-5.618-1.542
	c-3.552-0.733-7.309-0.747-10.82-1.868c-1.597,0.194-3.359-0.153-4.861-0.619c-2.128-0.66-4.824-0.843-7.241-1.254
	c-0.408-0.069-1.639-0.526-2.284-0.526h-4.156c-0.086,0.429,0.027,0.869,0.303,1.192
	C279.204,158.901,279.977,159.717,280.232,159.781z"/>
<path fill="#E2E0CF" d="M207.985,123.01h-3.019c0,0.527-0.163,2.156,0,2.599c0.155,0.429,0.544,0.886,1.007,1.024
	c0.295,0.093,1.334,0.058,1.459-0.052c0.596-0.526,1.146-1.395,0.553-2.246C207.896,124.202,207.985,123.293,207.985,123.01z"/>
<path fill="#E2E0CF" d="M109.329,115.762c0.456,0.214,2.122,0.168,2.608,0.339c6.851,2.376,14.281,4.182,21.17,6.527
	c1.124-0.023,1.987,0.48,2.97,0.782c5.847,1.78,11.774,3.676,18.154,5.019c0.626,0.133,1.101-0.157,1.488-0.597
	c0.493-0.555,0.556-1.812-0.295-2.09c-6.906-2.234-13.777-4.254-20.539-6.593c-1.134,0.064-1.991-0.48-2.981-0.753
	c-6.171-1.713-12.567-3.517-18.398-5.488c-1.643-0.556-3.38-0.784-5.331-0.792c-0.312,0.607-1.108,1.201-0.782,1.812
	C107.643,114.396,108.877,115.554,109.329,115.762z"/>
<path fill="#E2E0CF" d="M311.68,133.713l-6.076,0.096c-4.649,1.103-11.753,0.703-17.878,1.111c-0.355,0.026-1.003,0.021-1.323,0.211
	c-0.69,0.411-1.386,0.891-1.708,1.537c-0.126,0.252,0,1.161,0,1.404c3.738,0.341,6.734,0.185,10.067,0.063
	c0.526-0.02,2.093-0.628,2.616-0.628h9.102c0.825,0,1.732-0.715,2.141-0.564c1.35,0.489,2.676,0.191,3.735,0.237
	c0.973-0.512,2.085-0.735,3.145-0.868l5.804-0.012c0.709,0,1.652-0.385,2.048-1.001c0.184-0.289,0-1.615,0-2.02l-9.066-0.012
	C313.427,133.262,312.583,133.751,311.68,133.713z"/>
<path fill="#E2E0CF" d="M279.101,184.601c1.903,0.432,3.918,0.803,5.555,1.61c2.125,1.048,4.545,1.82,7.264,2.445
	c2.144,0.495,4.469,0.973,6.212,2.004c0.247,0.147,1.198-0.048,1.35,0.017c7.691,3.167,15.624,5.71,23.819,8.221
	c0.502-0.713,1.227-1.005,1.861-1.364c0-0.35,0.12-1.375,0-1.621c-0.201-0.422-0.548-0.868-1.006-1.023
	c-0.216-0.073-1.004,0.087-1.208,0l-2.819-1.208c-0.306-0.133-1.481,0.104-1.811,0c-0.234-0.075-0.803-0.742-0.83-0.747
	l-8.021-2.003c-5.721-1.745-11.734-3.627-17.316-5.725c-1.877-0.113-3.451-0.793-5.361-1.293c-0.186-0.05-0.965-0.953-1.288-1.103
	c-0.2-0.093-1.003,0.087-1.209,0l-2.818-1.21h-3.021c-0.142,0-0.645,0.452-0.705,0.604c-0.08,0.212-0.101,1.022,0,1.207
	C277.908,183.707,278.762,184.523,279.101,184.601z"/>
<path fill="#E2E0CF" d="M105.165,162.241c3.634,0.075,8.093-0.312,11.004,0.423c12.482,0.544,25.778,0.278,36.841-1.36
	c0.515-0.075,0.989-0.452,1.084-0.883c0.104-0.477-0.46-1.224-0.998-1.229l-47.443-0.48c-0.489-0.006-1.208,0.879-1.562,1.514
	c-0.098,0.182-0.035,0.865,0.042,0.999C104.377,161.637,104.666,162.229,105.165,162.241z"/>
<path fill="#E2E0CF" d="M177.124,137.173c-0.64-0.227-1.169,0.477-1.757,0.772v2.583h3.021c0-0.521,0.168-2.153,0-2.617
	C178.316,137.708,177.446,137.285,177.124,137.173z"/>
<path fill="#E2E0CF" d="M182.887,133.826c0.109,0.322,0.534,1.192,0.735,1.265c0.463,0.167,2.096,0,2.619,0v-3.019h-2.582
	C183.36,132.657,182.661,133.187,182.887,133.826z"/>
<path fill="#E2E0CF" d="M186.644,121.198c-0.31,0.139-1.111,0.938-1.268,1.265c-0.301,0.634,0.398,1.172,0.701,1.757h1.977v-3.021
	C187.771,121.198,186.879,121.093,186.644,121.198z"/>
<path fill="#E2E0CF" d="M191.044,105.77c0.365,0.142,0.705-0.093,1.014-0.275c0.225-0.13,1.151,0,1.432,0v-3.019h-3.059
	c0.178,0.862-0.123,1.644-0.348,2.327C190.35,105.072,190.861,105.695,191.044,105.77z"/>
<rect x="186.241" y="116.37" fill="#E2E0CF" width="3.02" height="3.016"/>
<path fill="#E2E0CF" d="M183.038,136.903c-0.426,0.185-0.857,0.549-1.025,1.007c-0.062,0.18-0.062,0.828,0,1.007
	c0.059,0.163,0.452,0.643,0.603,0.707c0.211,0.081,0.978,0.029,1.198-0.035c0.26-0.075,1.129-0.463,1.221-0.671
	c0.148-0.335,0-1.609,0-2.014C184.629,136.903,183.36,136.764,183.038,136.903z"/>
<path fill="#E2E0CF" d="M177.602,132.677c-0.425,0.179-0.885,0.544-1.023,1.007c-0.09,0.292,0,1.285,0,1.571
	c0.583,0.298,1.121,1.005,1.759,0.701c0.324-0.154,1.146-0.958,1.259-1.268c0.13-0.356,0-1.613,0-2.012
	C179.193,132.677,177.926,132.538,177.602,132.677z"/>
<path fill="#E2E0CF" d="M178.389,126.633v3.022c0.285,0,1.204,0.122,1.396,0c0.639-0.405,1.303-0.932,1.627-1.575
	c0.125-0.255,0-1.164,0-1.447H178.389z"/>
<path fill="#E2E0CF" d="M208.566,88.86c-0.634-0.301-1.204,0.469-1.788,0.764v2.582c0.399,0,1.668,0.139,1.993,0
	c0.427-0.182,0.86-0.55,1.025-1.007c0.063-0.176,0.043-0.828-0.041-0.984C209.597,89.908,208.892,89.017,208.566,88.86z"/>
<path fill="#E2E0CF" d="M199.53,93.011c0.025,0.159,0.451,0.648,0.603,0.706c0.21,0.082,0.984,0.064,1.209,0
	c0.262-0.075,1.097-0.495,1.207-0.706c0.131-0.252,0.039-1.297-0.037-1.598c-0.044-0.162-0.388-0.648-0.736-0.915
	c-0.45-0.341-1.435-0.055-2.245-0.081C199.53,90.918,199.437,92.507,199.53,93.011z"/>
<rect x="188.657" y="86.168" fill="#E2E0CF" width="3.018" height="3.016"/>
<path fill="#E2E0CF" d="M194.929,87.917c0.066,0.226,0.613,0.608,0.775,0.666c0.18,0.064,0.838,0.046,0.961-0.046
	c0.625-0.434,1.305-0.894,1.654-1.528c0.103-0.182,0.033-0.851-0.031-1.03c-0.054-0.162-0.419-0.657-0.57-0.718
	c-0.21-0.081-0.984-0.063-1.21,0c-0.261,0.078-0.966,0.564-1.204,0.707C195.535,86.748,194.74,87.28,194.929,87.917z"/>
<path fill="#E2E0CF" d="M189.267,83.352c-0.019,0.119,0.449,0.657,0.597,0.7c0.335,0.099,1.486,0.108,1.812,0
	c0.221-0.072,0.836-0.688,0.908-0.905c0.107-0.324,0.047-1.465-0.049-1.797c-0.043-0.148-0.529-0.628-0.65-0.617
	c-0.806,0.101-1.329-0.573-1.945-0.376c-0.305,0.099-0.875,0.773-0.973,1.074C188.769,82.05,189.365,82.55,189.267,83.352z"/>
<path fill="#E2E0CF" d="M192.282,95.229c0.521,0,2.27,0.237,2.6,0c0.562-0.411,0.888-1.265,1.02-2.015
	c0.057-0.312,0.004-1.288,0.004-1.673l-3.623,0.66V95.229z"/>
<path fill="#E2E0CF" d="M196.911,83.147c0.379,0.156,1.773,0,2.18,0c0.298-0.585,1.001-1.115,0.775-1.754
	c-0.113-0.322-0.533-1.182-0.741-1.265c-0.376-0.159-1.771,0-2.177,0c-0.299,0.584-0.998,1.114-0.775,1.754
	C196.286,82.203,196.706,83.063,196.911,83.147z"/>
<rect x="209.191" y="78.921" fill="#E2E0CF" width="3.022" height="3.016"/>
<path fill="#E2E0CF" d="M204.36,97.828c0.183,0.423,0.548,0.883,1.008,1.025c0.293,0.086,1.316,0.058,1.562-0.058
	c0.423-0.206,0.89-0.492,1.055-0.95c0.064-0.179,0.03-0.816-0.031-0.996c-0.059-0.162-0.372-0.752-0.759-0.932
	c-0.605-0.284-1.772-0.009-2.835-0.064C204.36,96.236,204.222,97.503,204.36,97.828z"/>
<path fill="#E2E0CF" d="M203.456,83.141c0.708-0.315,1.738-0.342,2.111-0.99c0.232-0.399,0-2.104,0-2.628h-2.997
	c-0.194,0.92-0.309,1.901-0.233,2.97C202.36,82.805,202.901,83.381,203.456,83.141z"/>
<path fill="#E2E0CF" d="M203.356,88.583c0.307-0.11,1.095-0.938,1.256-1.233c0.099-0.188,0.133-0.973,0.053-1.181
	c-0.061-0.156-0.549-0.576-0.706-0.607c-0.507-0.09-2.093,0-2.617,0v3.021C201.741,88.583,202.997,88.71,203.356,88.583z"/>
<path fill="#E2E0CF" d="M208.354,87.98c0.179,0.099,0.886,0.081,1.042,0c0.304-0.162,1.096-0.94,1.259-1.239
	c0.102-0.185,0.13-0.967,0.049-1.181c-0.058-0.151-0.565-0.603-0.703-0.603h-3.222c0,0.284-0.125,1.204,0,1.398
	C207.183,86.994,207.719,87.627,208.354,87.98z"/>
<rect x="178.992" y="121.198" fill="#E2E0CF" width="3.021" height="3.021"/>
<path fill="#E2E0CF" d="M268.985,140.932c-1.357-6.831-2.656-13.656-4.035-20.174c-2.268-10.733-4.764-20.974-6.975-31.741
	c-0.933-4.539-2.096-9.384-3.027-14.07l-2.588-2.654l-2.9-0.622c-0.318-0.067-1.109-1.04-1.314-1.094
	c-3.117-0.825-5.881-1.908-8.747-2.915c-5.141-0.376-10.929-0.257-16.313-0.211l-7.85,0.611c-0.886,0.076-1.722,0.567-2.616,0.637
	c-0.304-0.506-1.06-0.15-1.451-0.092c-8.563,1.297-17.27,2.402-25.534,4.258c-0.498,0.113-2.348-0.246-2.614,0.014l-3.57,3.474
	c-1.503,2.758-3.005,5.32-3.634,8.637c-1.009,5.332-2.086,10.64-3.157,15.677c-1.126,5.285-1.898,10.567-3.104,15.688
	c-0.122,0.51-1.079,1.968-1.042,2.368c0.119,1.215-0.504,2.075-0.796,3.05c-2.458,8.183-5.112,16.571-4.324,27.839
	c1.817,7.097,3.061,14.756,4.998,21.732c0.146,0.509,1.033,1.913,1.181,2.42c0.249,0.839-0.287,1.632-0.46,2.304
	c-0.388,1.5-1.129,2.663-1.5,3.954c-0.408,1.43-0.819,2.828-0.683,4.603c0.041,0.526,0.24,2.459,0.723,2.761
	c1.644,1.019,3.347,2.31,4.782,3.992c0.385,0.964,0.906,1.979,1.687,2.654c0.255,1.151,0.776,2.297,0.633,3.577l-1.349,7.756
	c0.034,6.472,0.113,11.335-0.247,17.303c-0.57,2.07-0.2,4.822-0.917,6.625c-0.202,0.507-0.254,1.786-0.139,2.072
	c0.643,1.552,0.677,3.216,0.822,4.814c0.88,0.399,1.627,0.95,2.213,1.595c0.121,0.136,1.009-0.032,1.119,0.009
	c1.103,0.434,2.168,0.729,2.736,1.551c0.034,1.291,0.531,2.368,0.467,3.479l0.041,9.558l3.444,3.525c0.145,0.135,0.922-0.08,1.083,0
	c0.321,0.16,1.106,1.121,1.418,1.158c1.552,0.191,2.842,0.809,4.389,1.117c1.511,0.301,3.658,0.047,5.479,0.116
	c1.526,0.503,3.019,1.013,4.8,1.222c0.127,1.511-0.166,2.808-0.588,3.918c-0.125,0.319,0.66,1.756,0.908,2.131
	c0.235,0.348,1.211,1.211,1.512,1.512c-0.118,0.06-0.355,0.224-0.607,0.373c1.434,3.523,1.686,7.381,0.958,11.096
	c-0.265,4.2-0.051,8.389,0.293,12.789c0.016,0.203,0.026,0.406,0.038,0.609c0.669,0.777,1.104,1.813,1.127,3.119
	c0.039,2.132,0.172,4.255,0.242,6.375c1.043,0.011,2.166-0.022,3.438-0.139c0.066-0.005,1.337,0.505,1.759,0.505h12.194
	c0.534-1.422,1.288-2.753,2.203-4.005c-0.05-0.044-0.112-0.084-0.156-0.129c-0.248-0.254-0.654-1.067-0.64-1.282l1.184-16.316
	c0.014-0.173,0.043-0.411,0.086-0.652c-0.106-1.113-0.113-2.241-0.033-3.368c-0.728-2.736-0.6-5.697,0.533-8.206
	c-0.069-0.112-0.135-0.223-0.192-0.323c-0.153-0.26-0.205-1.436-0.078-1.797c0.736-2.081,1.994-3.731,3.451-6.082
	c0.414-0.394,1.652-0.775,2.932-1.36c7.361,0.081,14.507-0.55,19.428-3.126l2.865-2.889c1.21-1.708,1.584-4.081,2.355-6.041
	c-0.048-2.724,0.172-5.601-0.144-8.05c0.157-0.729,0.265-1.506,0.573-2.118c-0.004-0.164-0.012-0.324,0-0.497
	c0.218-3.281,0.476-6.544,0.916-9.793c-0.151-0.163-0.319-0.373-0.334-0.466c-0.324-2.177-1.08-4.379-1-6.452
	c0.117-3.042-0.24-5.561,0.103-8.854c0.587-5.69,0.138-12.417,0.251-18.377c0.446-1.132,0.752-2.196,1.537-2.737
	c3.225-0.536,5.258-2.568,6.889-4.742l-0.085-10.243c1.583-4.495,3.438-8.191,4.563-12.244c0.582-2.101,0.973-4.139,1.508-5.653
	C270.555,149.957,269.869,145.378,268.985,140.932z M244.829,178.781c0.093-0.422,0.677-1.644,0.926-1.998
	c0.631-0.888,1.771-1.76,3.326-1.499c0.113,0.02,0.588,0.541,0.582,0.729c-0.029,1.221-0.49,2.391-0.592,3.578l-0.014,4.738
	c0,0.785-0.443,1.806-1.242,1.959c-0.61,0.122-1.067-0.59-1.418-1.099c-0.775-1.138-1.1-2.704-1.522-4.203
	C244.759,180.575,244.739,179.203,244.829,178.781z M241.396,241.415c0.405,0.599-0.098,1.374-0.504,1.785l-2.463,2.386
	c-13.549,0.218-28.195,1.229-41.938,0.233c-0.361-0.025-1.661-1.339-1.854-1.867c-0.271-0.753,0.388-1.545,0.49-2.559
	c0.023-0.249,0.917-1.204,1.179-1.204h3.826c3.212,1.192,8.521,1.112,12.486,0.607c0.527-0.067,2.091-0.607,2.613-0.607h23.929
	C239.978,240.19,240.956,240.763,241.396,241.415z M187.801,78.956c-0.022-0.59,0.649-1.586,1.46-1.945v1.91h3.057
	c-0.174-0.863,0.127-1.65,0.353-2.339c-0.226-0.2-0.632-0.637-0.792-0.683c-0.261-0.075-1.129,0-1.407,0v-1.233
	c0.808-0.029,1.725-0.066,2.443-0.107c1.187-0.066,2.323-0.671,3.85-0.425c0.098,0.015,0.509,0.437,0.745,0.64
	c-0.338,0.732-0.555,1.73-0.346,2.938c0.353,0,1.588,0.104,1.962,0c0.464-0.127,0.727-0.637,0.967-1.048
	c0.081-0.136,0.116-0.799,0.041-0.967c-0.105-0.234-0.73-0.799-0.892-1.016c-0.255-0.341-0.389-0.767-0.301-1.195h3.236
	c0.288,0,0.543-0.666,0.977-0.643v3.26c0,0.139,0.945,0.625,1.264,0.734c0.641,0.226,1.172-0.474,1.758-0.772v-2.782
	c0-0.434,0.598-0.851,1.023-1.007c0.445-0.162,2.075,0,2.633,0c0.027,0.432-0.553,0.651-0.64,0.976c-0.135,0.518,0,2.125,0,2.648
	h3.022c0-0.524,0.139-2.13,0-2.648c-0.087-0.324-0.666-0.544-0.643-0.943c1.393-0.287,2.635-0.68,4.33-0.657
	c-0.02,0.944-0.83,1.817-0.574,2.449c0.307,0.735,0.893,1.76,1.599,1.479c0.46-0.182,1.431-1.132,1.63-1.491
	c0.102-0.185,0.118-1.036,0-1.245c-0.281-0.48-0.999-0.584-1.52-0.859c0.211-0.191,0.805-0.929,1.045-0.941
	c1.312-0.063,2.741,0.191,3.835-0.121c1.319-0.376,3.21-0.643,5.048-0.405c0.298,0.04,1.723,1.337,1.656,1.658l-9.249,44.978
	c-0.448,2.153-0.835,4.729-1.241,7.242c-0.759,4.681-1.994,8.996-2.399,14.111c-0.058,0.721-0.355,1.6-1.103,2.028
	c-1.441,0.826-3.485,1.054-6.056,1.338c-0.632-0.269-2.31-0.446-3.647-0.976c-0.665-0.264-1.191,0.472-1.973,0.243
	c-0.881,0.999-2.169,1.508-3.653,2.168c-0.909-0.139-1.853-0.863-2.556-1.185c-1.81-0.257-3.511,0.032-4.871,0.403
	c0.006,0-0.564,0.66-0.801,0.723c-0.45,0.116-2.024,0.18-2.366,0c-1.146-0.61-2.438-0.914-3.577-1.256l-5.06,2.53
	c-0.469,0.234-1.456-0.167-2.055-0.48c-0.976-0.51-2.137-0.926-3.488-1.089c-0.776-0.66-1.418-1.51-2.15-2.257
	c-0.104-0.11-0.104-0.872-0.053-1.083c0.625-2.53,0.996-4.747,1.534-7.543l4.799-16.921L187.801,78.956z M210.793,200.851
	c-0.229,0.2-0.632,0.623-0.793,0.681c-0.501,0.185-2.097,0.605-2.619,0.605h-17.096c-0.388,0-0.877-1.266-1.021-2.013
	c-0.044-0.234,0.043-0.987-0.05-1.221c-0.127-0.324-0.619-0.561-0.587-1.059l18.95-0.445c1.558,0.092,3.525,0.164,5.215,0.196
	c0.148,0.003,0.51,0.254,0.631,0.312l-2.981,0.597C210.264,199.377,210.564,200.159,210.793,200.851z M180.617,233.88
	c-0.243-0.13-1.782,0.087-2.199-0.035c-0.58-0.163-1.337-0.429-1.388-0.788c-0.509-3.804-0.21-6.46-0.367-9.569
	c0.431-2.535,0.707-6.084,0.486-9.442c1.262-6.095,0.663-11.397,0.759-17.143c-0.811-4.773-2.09-8.785-3.213-13.266l-3.241-9.888
	c-0.672-3.167-1.198-5.946-1.74-9.083c0.095-1.002-0.743-2.026-0.061-3.317c-1.037-4.092-2.61-8.156-3.338-12.77l-0.037-5.647
	c0.277-2.021,1.139-3.65,1.305-5.737c1.103-3.094,1.606-6.434,2.547-9.702c0.885-3.077,1.566-6.371,2.294-9.699
	c0.09-0.423,0.689-1.618,0.785-2.041l8.637-37.492c0.079-0.331,0.64-1.204,1.334-0.839c0.179,0.092,0.665,0.584,0.644,0.691
	l-12.38,50.94c-1.068,4.382-2.052,9.21-2.915,13.911l0.023,4.811c0.15,4.631,1.673,9.202,3.441,12.696l7.384,30.166
	c0.62,2.123,1.517,4.528,2.181,6.82c0.251,0.862-0.23,1.581-0.803,1.974c0.082,0.984,0.655,1.841,0.655,2.663v3.062h13.488
	c0.158,0,0.299,0.089,0.426,0.217c2.697-0.234,5.379-0.244,8.113-0.233c0.094-0.071,0.188-0.118,0.245-0.128
	c2.902-0.538,4.672-0.173,7.696-0.347c0.562-0.036,2.119-0.712,2.646-0.712h7.481c0.581,0,1.577-1.064,1.577-1.627v-3.409
	c0-0.435-0.643-1.054-1.1-1.071l-6.733-0.354c1.911-0.805,4.091-1.546,6.566-1.138c0.355,0.062,1.654-1.409,1.907-1.907
	c0.182-0.348-0.275-1.054,0.338-1.419c-0.688-4.038-0.5-9.08-1.152-13.418c-0.844-5.633-1.209-12.127-1.809-17.952
	c-0.402-3.928-1.403-6.64-1.572-10.46c-0.248-5.726-0.149-11.434,0.614-16.496c2.638-17.485,6.05-34.236,10.16-50.355
	c0.075-0.301-0.047-1.297,0.028-1.601c0.104-0.419,0.762-1.6,0.857-2.02c0.515-2.278,0.653-5.091,1.342-7.216
	c0.162-0.507,0.881-1.957,1.123-2.443c0.302,0.325,1.703,1.401,1.625,1.737c-4.16,18.287-8.386,36.679-11.438,56.072
	c-0.457,2.9-0.898,5.326-1.342,8.244c0.162,2.983-0.115,5.893-0.898,8.678c0.227,0.671,0.754,1.893,0.863,3.19l0.087,3.809
	c0.373,4.312,1.326,8.632,1.606,14.113l1.268,7.919c-0.513,0.811,0.252,1.977-0.15,3.728c0.177,0.53,0.727,1.751,0.813,3.048
	l0.017,6.642c0,0.423,0.504,1.69,0.498,1.754c-0.309,5.435,0.137,9.306-0.04,14.374c-0.072,1.995-0.451,3.341-0.625,5.807
	c-0.249,3.58-1.222,6.565-1.858,10.096c-0.029,3.572-0.035,7.575-0.521,10.913c-0.02,0.144-0.526,1.4-0.781,1.749
	c-0.666,0.926-1.783,1.372-3.076,1.817l-35.874-0.014C182.777,234.701,181.636,234.418,180.617,233.88z M203.166,256.176
	c-0.046-0.11-0.087-0.871-0.013-1.085c0.157-0.46,0.66-1.011,1.025-1.011h8.238c0.139,0,0.561,0.483,0.812,0.698
	c-0.202,0.948-1.004,1.944-1.073,3.122c-0.012,0.275-0.863,1.121-1.152,1.314c-0.376,0.252-1.8,1.033-2.137,0.918
	c-1.309-0.46-2.587-0.949-4.173-1.232C203.895,258.348,203.597,257.279,203.166,256.176z M207.381,274.811v-3.817
	c0-0.522,0.358-2.156,0.616-2.666c0.315-0.628,1.003-1.126,1.658-1.474c0.336-0.18,1.934-0.31,2.154-0.086l2.217,2.211v3.826
	c0,0.523-0.298,2.223-0.62,2.691c-0.553,0.799-1.62,1.094-2.721,1.525c-0.109,0.045-0.973,0.154-1.142,0.012
	C208.78,276.38,208.112,275.561,207.381,274.811z M213.117,296.363c-0.261,0.24-1.002,1.047-1.308,1.207
	c-0.156,0.08-0.847,0.08-1.006,0c-0.304-0.16-1.308-0.967-1.308-1.211l0.014-9.053c0.108-1.22,1.771-1.854,3.474-1.32
	c-0.059-0.018,0.559,0.405,0.519,0.689C213.107,289.466,212.289,293.176,213.117,296.363z M216.128,281.222
	c-0.093,0.179-0.55,0.644-0.693,0.644H210c-0.281,0-1.149-0.452-1.4-0.629c-0.368-0.256-0.901-0.892-0.603-0.999
	c2.062-0.729,5.135-1.117,7.375-0.202C215.595,280.128,216.492,280.527,216.128,281.222z M249.503,197.328
	c-0.964,4.099-0.115,10.191-0.555,15.068c-0.096,1.054-0.258,2.177-0.803,3.208c0.104,10.778-0.069,21.354-0.347,31.631
	c-0.023,0.743-0.532,1.406-1.024,1.969c-0.082,0.092-0.846-0.05-0.927,0.045c-0.892,1.013-2.183,1.517-3.45,2.07
	c-1.719,0.749-3.779,1.201-5.824,1.534l-3.218,0.02c-0.427,0-1.755,0.701-2.107,0.603c-1.536-0.434-2.837-1.25-3.923-2.229
	c-7.58-0.798-16.414-0.266-25.404-0.474l-2.391,1.296c0,0.203,0.122,0.909,0,1.054c-0.654,0.767-1.477,1.435-2.234,2.177
	c-4.452-0.07-8.152-1.042-11.068-2.738l-2.307-2.408l0.115-10.009c0.764-0.105,1.713-0.16,2.711-0.573
	c0.49-0.203,1.124,0.715,1.599,1.396c0.336,0.483-0.526,0.885-0.306,1.641c0.427,1.485,0.826,3.006,1.557,4.321
	c1.568,1.025,3.525,1.812,5.707,2.292l42.879,0.008c1.754-0.44,3.456-0.97,5.06-1.948c0.811-0.943,1.419-2.432,1.951-4.076
	c0.489-15.994,0.151-35.434,0.284-52.943c0-0.408,0.59-1.699,0.88-2.012c0.37-0.411,0.723-1.192,1.493-0.926
	c1.157,0.405,1.963,1.303,2.691,2.174C249.865,191.816,250.073,194.908,249.503,197.328z M253.304,178.242
	c-0.379-0.162-0.383-0.571-0.232-0.877c0.122-0.257,0.934-1.083,1.145-1.132c0.367-0.081,1.375-0.55,1.34,0.88
	C255.538,177.62,254.425,178.723,253.304,178.242z"/>
<path fill="#E2E0CF" d="M187.247,95.229c0.382,0.156,1.771,0,2.182,0c0.295-0.584,0.996-1.117,0.77-1.754
	c-0.109-0.324-0.533-1.181-0.735-1.268c-0.382-0.156-1.771,0-2.179,0c-0.299,0.584-1,1.117-0.773,1.754
	C186.621,94.282,187.044,95.142,187.247,95.229z"/>
<path fill="#E2E0CF" d="M210.401,118.182h-3.056c0.173,0.863-0.128,1.645-0.355,2.339c0.228,0.197,0.636,0.648,0.796,0.677
	c0.506,0.092,2.092,0,2.615,0V118.182z"/>
<path fill="#E2E0CF" d="M182.818,118.784c0.155-0.029,0.646-0.452,0.706-0.602c0.08-0.214,0.051-0.996-0.053-1.181
	c-0.2-0.359-1.092-1.372-1.482-1.563c-0.631-0.307-1.204,0.466-1.789,0.765v2.582C180.725,118.784,182.311,118.876,182.818,118.784z
	"/>
<path fill="#E2E0CF" d="M187.784,104.346c-0.109-0.321-0.535-1.193-0.737-1.268c-0.46-0.168-2.093,0-2.62,0v3.022h2.582
	C187.31,105.515,188.011,104.983,187.784,104.346z"/>
<path fill="#E2E0CF" d="M186.32,101.046c0.731,0.237,1.239-0.854,1.733-1.454c0.066-0.081,0.031-0.752-0.032-0.932
	c-0.058-0.162-0.434-0.59-0.562-0.735c-0.457-0.509-1.219-0.22-1.854-0.254c0.169,0.833-0.131,1.618-0.356,2.301
	C185.515,100.242,186.008,100.942,186.32,101.046z"/>
<path fill="#E2E0CF" d="M183.935,113.029c0.718,0.272,1.294-0.715,1.702-1.354c0.157-0.243,0-1.548,0-1.951
	c-0.403,0-1.67-0.139-1.995,0c-0.424,0.182-0.858,0.55-1.026,1.007c-0.063,0.177-0.082,0.846,0,1.008
	C182.777,112.04,183.547,112.879,183.935,113.029z"/>
<path fill="#E2E0CF" d="M326.819,234.76c-1.289-1.187-2.884-2.035-4.898-2.442c-0.295-0.058-1.066-1.028-1.389-1.188
	c-0.162-0.081-0.846,0.081-1.008,0c-0.322-0.162-1.086-1.049-1.407-1.209c-0.163-0.082-0.791-0.024-0.745,0.005
	c-4.674-3.132-9.9-5.343-14.519-8.226c-0.675-0.42-1.394-1.141-1.267-2.049h3.242c0.26,0,1.318-1.002,1.283-1.257
	c-0.216-1.638-1.297-2.668-2.677-3.308c-7.935-3.676-15.468-7.875-23.578-11.428c-0.26-0.112-1.161-0.182-1.405-0.315
	c-0.319-0.169-1.115-1.01-1.238-1.042c-2.538-0.66-4.333-2.009-6.434-2.83c-0.994-0.391-2.061-0.852-3.133-1.013
	c-0.178-0.029-0.711,0.506-0.771,0.66c-0.082,0.208-0.086,1.001,0,1.207c0.094,0.217,0.688,0.796,0.906,0.906l8.456,4.229
	c0.232,0.12,0.771,0.802,1.005,0.906c0.169,0.076,0.848-0.08,1.01,0c0.32,0.162,1.085,1.048,1.407,1.208
	c0.161,0.084,0.841-0.075,1.009,0c0.234,0.107,0.773,0.795,1.057,0.921c4.411,1.964,8.322,4.506,12.744,6.74
	c0.083,0.041,0.639,0.6,0.734,0.776c0.336,0.614-0.25,1.111-0.651,1.209l-2.813,0.619c-0.298,0.067-1.244,0.955-1.264,1.233
	c-0.064,1.025,0.685,1.807,1.419,2.049c0.291,0.095,0.865,0.735,0.748,0.686c3.046,1.266,5.878,2.308,8.354,3.599
	c9.279,4.828,18.568,9.665,27.883,14.18c0.315,0.154,0.933,0,1.115,0v-4.229L326.819,234.76z"/>
<path fill="#E2E0CF" d="M212.197,134.772c-0.993-0.075-1.819,0.741-2.073,1.534c-0.397,1.242,0.654,1.905,1.477,2.081
	c0.912,0.195,1.322-0.79,1.822-1.363c0.059-0.07,0.041-0.747-0.042-0.903C213.221,135.814,212.475,134.793,212.197,134.772z"/>
<rect x="211.61" y="123.617" fill="#E2E0CF" width="3.018" height="3.016"/>
<path fill="#E2E0CF" d="M214.605,117.852c-0.632-0.301-1.202,0.469-1.79,0.767c0,0.287-0.109,1.3,0,1.575
	c0.127,0.31,0.932,1.143,1.321,1.291c0.716,0.275,1.209-0.755,1.701-1.355c0.065-0.083,0.04-0.764-0.041-0.923
	C215.638,118.902,214.935,118.008,214.605,117.852z"/>
<rect x="214.628" y="113.348" fill="#E2E0CF" width="3.021" height="3.022"/>
<path fill="#E2E0CF" d="M212.417,101.871c-0.256-0.13-1.32-0.061-1.566,0.061c-0.423,0.203-0.943,0.486-1.054,0.949
	c-0.118,0.492,0,2.09,0,2.614h3.06c-0.179-0.862,0.336-1.647,0.336-2.29C213.192,102.838,212.625,101.981,212.417,101.871z"/>
<path fill="#E2E0CF" d="M216.99,105.764c-0.644-0.226-1.17,0.475-1.758,0.776v3.184h3.02v-3.222
	C218.252,106.36,217.308,105.877,216.99,105.764z"/>
<rect x="210.401" y="130.865" fill="#E2E0CF" width="3.021" height="3.019"/>
<path fill="#E2E0CF" d="M208.034,109.84c0.958,1.123,2.202,0.562,3.576,0.324v-2.895c-0.864,0.176-1.648-0.339-2.291-0.335
	c-0.367,0-1.251,0.57-1.334,0.775C207.828,108.089,207.837,109.608,208.034,109.84z"/>
<path fill="#E2E0CF" d="M209.773,113.021c-0.634-0.304-1.203,0.466-1.788,0.767v3.184h3.019c0-0.521,0.151-2.142,0-2.617
	C210.911,114.048,210.101,113.177,209.773,113.021z"/>
<path fill="#E2E0CF" d="M219.864,91.604c0.46,0.168,2.092,0,2.619,0v-3.022h-2.582c-0.301,0.584-1.002,1.117-0.775,1.754
	C219.239,90.658,219.662,91.529,219.864,91.604z"/>
<path fill="#E2E0CF" d="M216.243,81.335c0.178,0.063,0.846,0.081,1.004,0c0.305-0.159,1.092-0.947,1.149-1.083
	c0.567-1.358-0.521-2.043-1.341-2.211c-0.911-0.194-1.325,0.787-1.823,1.36c-0.061,0.07-0.036,0.75,0.042,0.886
	C215.514,80.698,215.783,81.167,216.243,81.335z"/>
<path fill="#E2E0CF" d="M216.439,102.273c-0.081,0.156-0.038,0.828,0.041,0.967c0.243,0.411,0.503,0.938,0.966,1.048
	c0.498,0.115,2.096,0,2.617,0v-3.057c-0.862,0.173-1.644-0.128-2.334-0.354C217.407,101.226,216.602,101.97,216.439,102.273z"/>
<rect x="222.483" y="71.67" fill="#E2E0CF" width="3.016" height="3.019"/>
<path fill="#E2E0CF" d="M213.823,92.812c0.379,0.156,1.771,0,2.18,0c0.298-0.587,0.999-1.115,0.772-1.757
	c-0.11-0.318-0.532-1.178-0.735-1.262c-0.379-0.156-1.771,0-2.182,0c-0.295,0.584-0.996,1.112-0.771,1.754
	C213.198,91.865,213.618,92.728,213.823,92.812z"/>
<rect x="214.026" y="83.752" fill="#E2E0CF" width="3.019" height="3.019"/>
<rect x="218.856" y="94.624" fill="#E2E0CF" width="3.02" height="3.019"/>
<rect x="220.063" y="83.752" fill="#E2E0CF" width="3.021" height="3.019"/>
<path fill="#E2E0CF" d="M224.475,80.128c0.428-0.159,0.862-0.553,1.024-1.01c0.064-0.174,0.035-0.813-0.029-0.993
	c-0.058-0.165-0.422-0.605-0.561-0.744c-0.519-0.503-1.379-0.312-2.015-0.15c-0.382,0.101-0.892,0.422-1.019,0.886
	c-0.103,0.371,0,1.609,0,2.012C222.402,80.128,224.032,80.293,224.475,80.128z"/>
<path fill="#E2E0CF" d="M211.61,97.807c0.587,0.298,1.154,1.068,1.789,0.767c0.326-0.156,1.072-1.03,1.229-1.334
	c0.084-0.16,0.034-0.816-0.029-0.993c-0.058-0.165-0.396-0.648-0.74-0.915c-0.452-0.344-1.437-0.058-2.248-0.081V97.807z"/>
<path fill="#E2E0CF" d="M204.103,103.224c-0.102,0.185-0.08,0.996,0,1.207c0.061,0.153,0.541,0.547,0.704,0.604
	c0.179,0.064,0.85,0.082,1.007,0c0.307-0.162,1.1-0.938,1.258-1.233c0.102-0.191,0.134-0.973,0.051-1.184
	c-0.059-0.153-0.539-0.547-0.701-0.605c-0.183-0.063-0.852-0.081-1.01,0C205.106,102.176,204.265,102.929,204.103,103.224z"/>
<path fill="#E2E0CF" d="M197.4,114.924h-3.019v3.056c0.862-0.173,1.647,0.128,2.331,0.354c0.265-0.267,0.891-0.782,0.961-0.964
	c0.144-0.364-0.088-0.707-0.273-1.016C197.271,116.128,197.4,115.208,197.4,114.924z"/>
</svg>
