<?xml version="1.0" encoding="utf-8"?>
<!-- Generator: Adobe Illustrator 15.0.0, SVG Export Plug-In . SVG Version: 6.00 Build 0)  -->
<!DOCTYPE svg PUBLIC "-//W3C//DTD SVG 1.1//EN" "http://www.w3.org/Graphics/SVG/1.1/DTD/svg11.dtd">
<svg version="1.1" id="Layer_1" xmlns="http://www.w3.org/2000/svg" xmlns:xlink="http://www.w3.org/1999/xlink" x="0px" y="0px"
	 width="504px" height="504px" viewBox="0 0 504 504" enable-background="new 0 0 504 504" xml:space="preserve">
<g>
	<ellipse fill="#FFFFFF" cx="243.19" cy="376.594" rx="234.91" ry="10.771"/>
	<ellipse fill="#FDFDFD" cx="243.19" cy="376.594" rx="232.382" ry="10.656"/>
	<ellipse fill="#FCFCFC" cx="243.19" cy="376.594" rx="229.853" ry="10.539"/>
	<ellipse fill="#FAFBFB" cx="243.189" cy="376.594" rx="227.325" ry="10.424"/>
	<ellipse fill="#F9F9FA" cx="243.19" cy="376.595" rx="224.796" ry="10.308"/>
	<ellipse fill="#F8F8F9" cx="243.19" cy="376.594" rx="222.267" ry="10.191"/>
	<ellipse fill="#F7F7F8" cx="243.19" cy="376.595" rx="219.739" ry="10.075"/>
	<ellipse fill="#F6F6F7" cx="243.19" cy="376.595" rx="217.211" ry="9.96"/>
	<ellipse fill="#F5F6F6" cx="243.19" cy="376.594" rx="214.682" ry="9.844"/>
	<ellipse fill="#F4F5F5" cx="243.19" cy="376.595" rx="212.153" ry="9.728"/>
	<ellipse fill="#F3F4F4" cx="243.19" cy="376.595" rx="209.624" ry="9.612"/>
	<ellipse fill="#F3F3F4" cx="243.19" cy="376.594" rx="207.096" ry="9.496"/>
	<ellipse fill="#F2F2F3" cx="243.19" cy="376.594" rx="204.567" ry="9.381"/>
	<ellipse fill="#F1F1F2" cx="243.19" cy="376.594" rx="202.038" ry="9.264"/>
	<ellipse fill="#F0F1F1" cx="243.19" cy="376.594" rx="199.51" ry="9.148"/>
	<ellipse fill="#EFF0F0" cx="243.19" cy="376.595" rx="196.981" ry="9.032"/>
	<ellipse fill="#EEEFF0" cx="243.19" cy="376.594" rx="194.453" ry="8.916"/>
	<ellipse fill="#EEEEEF" cx="243.19" cy="376.595" rx="191.924" ry="8.8"/>
	<ellipse fill="#EDEDEE" cx="243.19" cy="376.595" rx="189.396" ry="8.685"/>
	<ellipse fill="#ECEDED" cx="243.19" cy="376.594" rx="186.867" ry="8.568"/>
	<ellipse fill="#EBECED" cx="243.19" cy="376.594" rx="184.338" ry="8.453"/>
	<ellipse fill="#EAEBEC" cx="243.19" cy="376.594" rx="181.81" ry="8.336"/>
	<ellipse fill="#EAEAEB" cx="243.19" cy="376.594" rx="179.281" ry="8.221"/>
	<ellipse fill="#E9E9EA" cx="243.19" cy="376.595" rx="176.752" ry="8.104"/>
	<ellipse fill="#E8E9E9" cx="243.19" cy="376.594" rx="174.225" ry="7.988"/>
	<ellipse fill="#E7E8E9" cx="243.19" cy="376.594" rx="171.695" ry="7.873"/>
	<ellipse fill="#E6E7E8" cx="243.19" cy="376.595" rx="169.167" ry="7.757"/>
	<ellipse fill="#E5E6E7" cx="243.19" cy="376.594" rx="166.638" ry="7.641"/>
	<ellipse fill="#E4E5E6" cx="243.19" cy="376.594" rx="164.109" ry="7.525"/>
	<ellipse fill="#E4E4E6" cx="243.19" cy="376.594" rx="161.581" ry="7.408"/>
	<ellipse fill="#E3E4E5" cx="243.19" cy="376.594" rx="159.053" ry="7.293"/>
	<ellipse fill="#E2E3E4" cx="243.19" cy="376.594" rx="156.523" ry="7.178"/>
	<ellipse fill="#E1E2E3" cx="243.19" cy="376.594" rx="153.995" ry="7.061"/>
	<ellipse fill="#E0E1E2" cx="243.19" cy="376.594" rx="151.467" ry="6.945"/>
	<ellipse fill="#DFE0E2" cx="243.19" cy="376.595" rx="148.938" ry="6.829"/>
	<ellipse fill="#DFE0E1" cx="243.19" cy="376.594" rx="146.409" ry="6.713"/>
	<ellipse fill="#DEDFE0" cx="243.19" cy="376.594" rx="143.881" ry="6.598"/>
	<ellipse fill="#DDDEDF" cx="243.19" cy="376.593" rx="141.352" ry="6.481"/>
	<ellipse fill="#DCDDDF" cx="243.19" cy="376.594" rx="138.823" ry="6.365"/>
	<ellipse fill="#DBDDDE" cx="243.19" cy="376.594" rx="136.295" ry="6.25"/>
	<ellipse fill="#DBDCDD" cx="243.19" cy="376.594" rx="133.766" ry="6.133"/>
	<ellipse fill="#DADBDC" cx="243.19" cy="376.594" rx="131.238" ry="6.018"/>
	<ellipse fill="#D9DADC" cx="243.19" cy="376.595" rx="128.709" ry="5.901"/>
	<ellipse fill="#D8D9DB" cx="243.19" cy="376.594" rx="126.181" ry="5.785"/>
	<ellipse fill="#D7D9DA" cx="243.19" cy="376.594" rx="123.651" ry="5.67"/>
	<ellipse fill="#D6D8D9" cx="243.19" cy="376.594" rx="121.123" ry="5.553"/>
	<ellipse fill="#D6D7D8" cx="243.19" cy="376.594" rx="118.595" ry="5.438"/>
	<ellipse fill="#D5D6D8" cx="243.19" cy="376.594" rx="116.066" ry="5.322"/>
	<ellipse fill="#D4D5D7" cx="243.19" cy="376.594" rx="113.537" ry="5.205"/>
	<ellipse fill="#D3D5D6" cx="243.19" cy="376.594" rx="111.009" ry="5.09"/>
	<ellipse fill="#D2D4D5" cx="243.19" cy="376.594" rx="108.48" ry="4.975"/>
	<ellipse fill="#D1D3D5" cx="243.19" cy="376.594" rx="105.951" ry="4.857"/>
	<ellipse fill="#D1D2D4" cx="243.19" cy="376.594" rx="103.423" ry="4.742"/>
	<ellipse fill="#D0D1D3" cx="243.19" cy="376.594" rx="100.895" ry="4.627"/>
	<ellipse fill="#CFD0D2" cx="243.19" cy="376.594" rx="98.366" ry="4.51"/>
	<ellipse fill="#CED0D1" cx="243.19" cy="376.594" rx="95.838" ry="4.395"/>
	<ellipse fill="#CDCFD1" cx="243.19" cy="376.594" rx="93.309" ry="4.277"/>
	<ellipse fill="#CCCED0" cx="243.19" cy="376.594" rx="90.779" ry="4.162"/>
	<ellipse fill="#CCCDCF" cx="243.19" cy="376.594" rx="88.252" ry="4.047"/>
	<ellipse fill="#CBCCCE" cx="243.19" cy="376.594" rx="85.723" ry="3.93"/>
	<ellipse fill="#CACCCE" cx="243.19" cy="376.594" rx="83.194" ry="3.814"/>
	<ellipse fill="#C9CBCD" cx="243.19" cy="376.595" rx="80.666" ry="3.698"/>
	<ellipse fill="#C8CACC" cx="243.19" cy="376.594" rx="78.137" ry="3.582"/>
	<ellipse fill="#C8C9CB" cx="243.19" cy="376.594" rx="75.608" ry="3.467"/>
	<ellipse fill="#C7C8CA" cx="243.19" cy="376.594" rx="73.08" ry="3.352"/>
	<ellipse fill="#C6C8CA" cx="243.19" cy="376.594" rx="70.551" ry="3.234"/>
	<ellipse fill="#C5C7C9" cx="243.19" cy="376.594" rx="68.022" ry="3.119"/>
	<ellipse fill="#C4C6C8" cx="243.19" cy="376.594" rx="65.494" ry="3.002"/>
	<ellipse fill="#C3C5C7" cx="243.19" cy="376.594" rx="62.965" ry="2.887"/>
	<ellipse fill="#C3C4C6" cx="243.19" cy="376.594" rx="60.437" ry="2.771"/>
	<ellipse fill="#C2C4C6" cx="243.19" cy="376.594" rx="57.908" ry="2.654"/>
	<ellipse fill="#C1C3C5" cx="243.19" cy="376.594" rx="55.38" ry="2.539"/>
	<ellipse fill="#C0C2C4" cx="243.19" cy="376.593" rx="52.852" ry="2.423"/>
	<ellipse fill="#BFC1C3" cx="243.19" cy="376.594" rx="50.322" ry="2.307"/>
	<ellipse fill="#BEC0C2" cx="243.19" cy="376.594" rx="47.794" ry="2.191"/>
	<ellipse fill="#BEBFC2" cx="243.19" cy="376.595" rx="45.265" ry="2.075"/>
	<ellipse fill="#BDBFC1" cx="243.19" cy="376.594" rx="42.737" ry="1.959"/>
	<ellipse fill="#BCBEC0" cx="243.191" cy="376.592" rx="40.207" ry="1.846"/>
</g>
<g>
	<path fill="#3E1517" d="M243.19,361.629c-168.17,0-182.512-18.016-192.079-43.346c-9.567-25.33-27.583-137.908-27.583-172.807
		c0-56.855,82.742-73.739,219.662-73.739s219.662,16.884,219.662,73.739c0,34.899-18.016,147.478-27.582,172.807
		C425.702,343.613,411.36,361.629,243.19,361.629"/>
	<path fill="#4F1111" d="M438.32,308.395c9.228-34.4,22.579-118.965,24.337-155.73c-26.725,4.523-47.648,21.842-47.648,69.926
		C415.008,261.274,419.104,292.101,438.32,308.395z"/>
	<path fill="#4F1111" d="M23.572,148.38c0.882,37.351,17.793,142.555,27.19,168.903c39.746,0.076,87.561-7.143,111.504-24.894
		c27.334-20.262,40.441-74.164,13.398-101.207C143.23,158.747,66.711,150.436,23.572,148.38z"/>
	<polygon fill="#4F1111" points="397.557,375.389 337.071,375.389 331.76,337.244 402.868,337.244 	"/>
	<polygon fill="#4F1111" points="149.309,375.389 88.821,375.389 83.512,337.244 154.621,337.244 	"/>
	<path fill="#E6E7E8" d="M243.19,151.306c84.164,0,160.876-5.923,218.756-15.642c-9.248-49.004-90.059-63.928-218.756-63.928
		S33.682,86.661,24.435,135.665C82.314,145.383,159.026,151.306,243.19,151.306z"/>
	<path fill="#E6E7E8" d="M243.19,319.377c-69.246,0-133.408,4.018-186.227,10.848c12.718,18.861,45.939,31.404,186.227,31.404
		s173.509-12.543,186.228-31.404C376.598,323.395,312.436,319.377,243.19,319.377z"/>
	<g>
		<path fill="#D1D3D4" d="M22.323,163.245c0.387,4.67,0.885,9.756,1.479,15.197h135.393c-10.599-6.236-23.061-11.232-36.395-15.197
			H22.323z"/>
		<path fill="#D1D3D4" d="M32.054,238.114h158.617c0.479-5.112,0.491-10.221-0.071-15.197H29.68
			C30.443,227.976,31.241,233.055,32.054,238.114z"/>
		<path fill="#D1D3D4" d="M40.033,282.587c1.101,5.448,2.188,10.555,3.243,15.194h110.865c3.127-1.684,6.056-3.463,8.656-5.393
			c3.649-2.703,7.018-6.042,10.098-9.802H40.033z"/>
		<path fill="#D1D3D4" d="M25.538,193.079c0.623,4.936,1.295,10.014,2.018,15.197H187.1c-2.127-5.57-5.229-10.684-9.274-15.197
			H25.538z"/>
		<path fill="#D1D3D4" d="M34.497,252.75c0.892,5.188,1.799,10.276,2.708,15.197h144.972c2.367-4.815,4.332-9.915,5.789-15.197
			H34.497z"/>
	</g>
	<path fill="#E6E7E8" d="M348.257,250.719c0,17.387-14.093,31.482-31.482,31.482c-17.382,0-31.478-14.096-31.478-31.482
		c0-17.385,14.096-31.479,31.478-31.479C334.165,219.24,348.257,233.334,348.257,250.719z"/>
	<g>
		<path fill="#FFFFFF" d="M378.358,189.139c-34.01-34.012-89.154-34.012-123.163,0l24.687,24.684
			c20.375-20.375,53.414-20.379,73.79,0L378.358,189.139z"/>
	</g>
	<path fill="#ED1C24" d="M318.803,198.637l-2.03-30.283l-2.028,30.283C316.098,198.584,317.45,198.584,318.803,198.637z"/>
	<path fill="#A7A9AC" d="M301.678,297.78c0,5.355-4.336,9.691-9.689,9.691s-9.693-4.335-9.693-9.691c0-5.352,4.34-9.689,9.693-9.689
		S301.678,292.428,301.678,297.78z"/>
	<g>
		<path fill="#D1D3D4" d="M460.843,193.079h-42.935c-1.219,4.576-2.117,9.645-2.686,15.197h43.602
			C459.547,203.092,460.219,198.014,460.843,193.079z"/>
		<path fill="#D1D3D4" d="M454.327,238.114c0.813-5.059,1.61-10.138,2.373-15.197h-42.22c0.002,5.219,0.09,10.281,0.271,15.197
			H454.327z"/>
		<path fill="#D1D3D4" d="M449.176,267.948c0.909-4.921,1.816-10.01,2.707-15.197h-36.209c0.486,5.305,1.137,10.396,2.02,15.197
			H449.176z"/>
		<path fill="#D1D3D4" d="M423.668,178.442h38.908c0.596-5.441,1.095-10.527,1.48-15.197h-27.595
			C431.465,167.095,427.141,172.091,423.668,178.442z"/>
		<path fill="#D1D3D4" d="M443.104,297.782c1.056-4.64,2.145-9.746,3.243-15.194h-24.931c1.875,5.595,4.195,10.699,7.115,15.194
			H443.104z"/>
	</g>
</g>
<linearGradient id="SVGID_1_" gradientUnits="userSpaceOnUse" x1="23.5278" y1="216.6826" x2="462.8521" y2="216.6826">
	<stop  offset="0" style="stop-color:#000000"/>
	<stop  offset="0.07" style="stop-color:#000000;stop-opacity:0.8625"/>
	<stop  offset="0.5092" style="stop-color:#000000;stop-opacity:0"/>
	<stop  offset="0.9325" style="stop-color:#000000;stop-opacity:0.8625"/>
	<stop  offset="1" style="stop-color:#000000"/>
</linearGradient>
<path opacity="0.2" fill="url(#SVGID_1_)" d="M243.19,361.629c-168.17,0-182.512-18.016-192.079-43.346
	c-9.567-25.33-27.583-137.908-27.583-172.807c0-56.855,82.742-73.739,219.662-73.739s219.662,16.884,219.662,73.739
	c0,34.899-18.016,147.478-27.582,172.807C425.702,343.613,411.36,361.629,243.19,361.629"/>
<path opacity="0.3" fill="#F0D693" stroke="#000000" stroke-width="0.5" stroke-miterlimit="10" d="M243.19,361.629
	c-168.17,0-182.512-18.016-192.079-43.346c-9.567-25.33-27.583-137.908-27.583-172.807c0-56.855,82.742-73.739,219.662-73.739
	s219.662,16.884,219.662,73.739c0,34.899-18.016,147.478-27.582,172.807C425.702,343.613,411.36,361.629,243.19,361.629"/>
</svg>
