<?xml version="1.0" encoding="utf-8"?>
<!-- Generator: Adobe Illustrator 15.0.0, SVG Export Plug-In . SVG Version: 6.00 Build 0)  -->
<!DOCTYPE svg PUBLIC "-//W3C//DTD SVG 1.1//EN" "http://www.w3.org/Graphics/SVG/1.1/DTD/svg11.dtd">
<svg version="1.1" id="Layer_1" xmlns="http://www.w3.org/2000/svg" xmlns:xlink="http://www.w3.org/1999/xlink" x="0px" y="0px"
	 width="504px" height="504px" viewBox="0 0 504 504" enable-background="new 0 0 504 504" xml:space="preserve">
<g>
	<ellipse fill="#FFFFFF" cx="256.098" cy="466.61" rx="234.91" ry="10.771"/>
	<ellipse fill="#FDFDFD" cx="256.097" cy="466.61" rx="232.382" ry="10.654"/>
	<ellipse fill="#FCFCFC" cx="256.097" cy="466.61" rx="229.854" ry="10.539"/>
	<ellipse fill="#FAFBFB" cx="256.097" cy="466.61" rx="227.324" ry="10.424"/>
	<ellipse fill="#F9F9FA" cx="256.097" cy="466.61" rx="224.796" ry="10.307"/>
	<ellipse fill="#F8F8F9" cx="256.097" cy="466.61" rx="222.268" ry="10.191"/>
	<ellipse fill="#F7F7F8" cx="256.097" cy="466.61" rx="219.739" ry="10.076"/>
	<ellipse fill="#F6F6F7" cx="256.097" cy="466.61" rx="217.21" ry="9.959"/>
	<ellipse fill="#F5F6F6" cx="256.097" cy="466.61" rx="214.682" ry="9.844"/>
	<ellipse fill="#F4F5F5" cx="256.097" cy="466.61" rx="212.152" ry="9.727"/>
	<ellipse fill="#F3F4F4" cx="256.097" cy="466.61" rx="209.625" ry="9.611"/>
	<ellipse fill="#F3F3F4" cx="256.097" cy="466.61" rx="207.096" ry="9.496"/>
	<ellipse fill="#F2F2F3" cx="256.097" cy="466.61" rx="204.567" ry="9.379"/>
	<ellipse fill="#F1F1F2" cx="256.097" cy="466.61" rx="202.039" ry="9.264"/>
	<ellipse fill="#F0F1F1" cx="256.097" cy="466.61" rx="199.51" ry="9.148"/>
	<ellipse fill="#EFF0F0" cx="256.097" cy="466.61" rx="196.981" ry="9.031"/>
	<ellipse fill="#EEEFF0" cx="256.097" cy="466.61" rx="194.453" ry="8.916"/>
	<ellipse fill="#EEEEEF" cx="256.097" cy="466.609" rx="191.925" ry="8.8"/>
	<ellipse fill="#EDEDEE" cx="256.097" cy="466.61" rx="189.396" ry="8.684"/>
	<ellipse fill="#ECEDED" cx="256.097" cy="466.61" rx="186.867" ry="8.568"/>
	<ellipse fill="#EBECED" cx="256.097" cy="466.609" rx="184.338" ry="8.452"/>
	<ellipse fill="#EAEBEC" cx="256.097" cy="466.61" rx="181.81" ry="8.336"/>
	<ellipse fill="#EAEAEB" cx="256.097" cy="466.61" rx="179.281" ry="8.221"/>
	<ellipse fill="#E9E9EA" cx="256.097" cy="466.61" rx="176.752" ry="8.104"/>
	<ellipse fill="#E8E9E9" cx="256.097" cy="466.61" rx="174.225" ry="7.988"/>
	<ellipse fill="#E7E8E9" cx="256.097" cy="466.609" rx="171.695" ry="7.872"/>
	<ellipse fill="#E6E7E8" cx="256.097" cy="466.61" rx="169.167" ry="7.756"/>
	<ellipse fill="#E5E6E7" cx="256.097" cy="466.61" rx="166.639" ry="7.641"/>
	<ellipse fill="#E4E5E6" cx="256.097" cy="466.609" rx="164.109" ry="7.524"/>
	<ellipse fill="#E4E4E6" cx="256.097" cy="466.61" rx="161.581" ry="7.408"/>
	<ellipse fill="#E3E4E5" cx="256.097" cy="466.61" rx="159.053" ry="7.293"/>
	<ellipse fill="#E2E3E4" cx="256.097" cy="466.61" rx="156.524" ry="7.176"/>
	<path fill="#E1E2E3" d="M256.097,459.55c85.05,0,153.996,3.16,153.996,7.061c0,3.898-68.946,7.061-153.996,7.061
		c-85.047,0-153.993-3.162-153.993-7.061C102.104,462.71,171.05,459.55,256.097,459.55z"/>
	<path fill="#E0E1E2" d="M256.097,459.665c83.653,0,151.467,3.109,151.467,6.945c0,3.834-67.813,6.945-151.467,6.945
		c-83.65,0-151.464-3.111-151.464-6.945C104.633,462.774,172.447,459.665,256.097,459.665z"/>
	<ellipse fill="#DFE0E2" cx="256.097" cy="466.609" rx="148.938" ry="6.829"/>
	<ellipse fill="#DFE0E1" cx="256.097" cy="466.61" rx="146.41" ry="6.713"/>
	<ellipse fill="#DEDFE0" cx="256.097" cy="466.609" rx="143.881" ry="6.597"/>
	<path fill="#DDDEDF" d="M256.097,460.13c78.067,0,141.353,2.9,141.353,6.48c0,3.578-63.285,6.48-141.353,6.48
		c-78.064,0-141.35-2.902-141.35-6.48C114.747,463.03,178.033,460.13,256.097,460.13z"/>
	<path fill="#DCDDDF" d="M256.097,460.245c76.671,0,138.824,2.85,138.824,6.365c0,3.514-62.153,6.365-138.824,6.365
		c-76.667,0-138.821-2.852-138.821-6.365C117.276,463.095,179.43,460.245,256.097,460.245z"/>
	<ellipse fill="#DBDDDE" cx="256.097" cy="466.609" rx="136.295" ry="6.249"/>
	<ellipse fill="#DBDCDD" cx="256.097" cy="466.61" rx="133.767" ry="6.133"/>
	<path fill="#DADBDC" d="M256.097,460.593c72.481,0,131.238,2.693,131.238,6.018c0,3.322-58.757,6.018-131.238,6.018
		c-72.478,0-131.235-2.695-131.235-6.018C124.862,463.286,183.619,460.593,256.097,460.593z"/>
	<ellipse fill="#D9DADC" cx="256.097" cy="466.609" rx="128.709" ry="5.901"/>
	<ellipse fill="#D8D9DB" cx="256.097" cy="466.61" rx="126.181" ry="5.785"/>
	<ellipse fill="#D7D9DA" cx="256.097" cy="466.609" rx="123.652" ry="5.669"/>
	<path fill="#D6D8D9" d="M256.097,461.058c66.896,0,121.124,2.484,121.124,5.553c0,3.064-54.229,5.553-121.124,5.553
		c-66.892,0-121.121-2.488-121.121-5.553C134.977,463.542,189.205,461.058,256.097,461.058z"/>
	<ellipse fill="#D6D7D8" cx="256.097" cy="466.61" rx="118.595" ry="5.438"/>
	<path fill="#D5D6D8" d="M256.097,461.288c64.103,0,116.066,2.383,116.066,5.322c0,2.938-51.964,5.32-116.066,5.32
		c-64.099,0-116.063-2.383-116.063-5.32C140.034,463.671,191.999,461.288,256.097,461.288z"/>
	<ellipse fill="#D4D5D7" cx="256.097" cy="466.61" rx="113.538" ry="5.205"/>
	<path fill="#D3D5D6" d="M256.097,461.521c61.31,0,111.01,2.277,111.01,5.09c0,2.809-49.7,5.09-111.01,5.09
		c-61.306,0-111.006-2.281-111.006-5.09C145.091,463.798,194.791,461.521,256.097,461.521z"/>
	<path fill="#D2D4D5" d="M256.097,461.636c59.912,0,108.48,2.227,108.48,4.973c0,2.748-48.568,4.975-108.48,4.975
		c-59.909,0-108.478-2.227-108.478-4.975C147.619,463.862,196.188,461.636,256.097,461.636z"/>
	<path fill="#D1D3D5" d="M256.097,461.753c58.517,0,105.952,2.174,105.952,4.857c0,2.682-47.436,4.857-105.952,4.857
		c-58.513,0-105.949-2.176-105.949-4.857C150.148,463.927,197.584,461.753,256.097,461.753z"/>
	<path fill="#D1D2D4" d="M256.097,461.868c57.119,0,103.424,2.123,103.424,4.74c0,2.619-46.305,4.742-103.424,4.742
		c-57.116,0-103.42-2.123-103.42-4.742C152.677,463.991,198.981,461.868,256.097,461.868z"/>
	<path fill="#D0D1D3" d="M256.097,461.985c55.724,0,100.895,2.068,100.895,4.625c0,2.553-45.171,4.625-100.895,4.625
		c-55.719,0-100.892-2.072-100.892-4.625C155.206,464.054,200.378,461.985,256.097,461.985z"/>
	<path fill="#CFD0D2" d="M256.097,462.101c54.326,0,98.367,2.018,98.367,4.508s-44.041,4.512-98.367,4.512
		c-54.323,0-98.363-2.021-98.363-4.512S201.774,462.101,256.097,462.101z"/>
	<path fill="#CED0D1" d="M256.097,462.216c52.931,0,95.838,1.967,95.838,4.393c0,2.428-42.907,4.395-95.838,4.395
		c-52.926,0-95.834-1.967-95.834-4.395C160.263,464.183,203.171,462.216,256.097,462.216z"/>
	<ellipse fill="#CDCFD1" cx="256.097" cy="466.609" rx="93.309" ry="4.278"/>
	<path fill="#CCCED0" d="M256.097,462.448c50.137,0,90.781,1.863,90.781,4.16c0,2.299-40.645,4.164-90.781,4.164
		c-50.133,0-90.777-1.865-90.777-4.164C165.32,464.312,205.964,462.448,256.097,462.448z"/>
	<path fill="#CCCDCF" d="M256.097,462.563c48.74,0,88.252,1.811,88.252,4.047c0,2.232-39.512,4.045-88.252,4.045
		c-48.737,0-88.249-1.812-88.249-4.045C167.849,464.374,207.36,462.563,256.097,462.563z"/>
	<path fill="#CBCCCE" d="M256.097,462.681c47.344,0,85.724,1.758,85.724,3.928s-38.38,3.932-85.724,3.932
		c-47.34,0-85.72-1.762-85.72-3.932S208.757,462.681,256.097,462.681z"/>
	<path fill="#CACCCE" d="M256.097,462.796c45.947,0,83.195,1.707,83.195,3.814c0,2.105-37.248,3.812-83.195,3.812
		c-45.944,0-83.191-1.707-83.191-3.812C172.906,464.503,210.153,462.796,256.097,462.796z"/>
	<path fill="#C9CBCD" d="M256.097,462.911c44.551,0,80.666,1.656,80.666,3.697c0,2.043-36.115,3.699-80.666,3.699
		c-44.547,0-80.663-1.656-80.663-3.699C175.435,464.567,211.55,462.911,256.097,462.911z"/>
	<path fill="#C8CACC" d="M256.097,463.028c43.154,0,78.138,1.604,78.138,3.58c0,1.979-34.983,3.584-78.138,3.584
		c-43.151,0-78.134-1.605-78.134-3.584C177.963,464.632,212.946,463.028,256.097,463.028z"/>
	<path fill="#C8C9CB" d="M256.097,463.144c41.758,0,75.609,1.551,75.609,3.465s-33.852,3.467-75.609,3.467
		c-41.754,0-75.605-1.553-75.605-3.467S214.343,463.144,256.097,463.144z"/>
	<path fill="#C7C8CA" d="M256.097,463.261c40.361,0,73.081,1.498,73.081,3.348c0,1.852-32.72,3.352-73.081,3.352
		c-40.358,0-73.077-1.5-73.077-3.352C183.02,464.759,215.739,463.261,256.097,463.261z"/>
	<path fill="#C6C8CA" d="M256.097,463.376c38.965,0,70.552,1.447,70.552,3.232c0,1.787-31.587,3.236-70.552,3.236
		c-38.961,0-70.548-1.449-70.548-3.236C185.549,464.823,217.136,463.376,256.097,463.376z"/>
	<path fill="#C5C7C9" d="M256.097,463.491c37.568,0,68.023,1.396,68.023,3.117c0,1.723-30.455,3.119-68.023,3.119
		c-37.564,0-68.02-1.396-68.02-3.119C188.077,464.888,218.533,463.491,256.097,463.491z"/>
	<path fill="#C4C6C8" d="M256.097,463.606c36.172,0,65.495,1.344,65.495,3.002s-29.323,3.004-65.495,3.004
		c-36.167,0-65.491-1.346-65.491-3.004S219.93,463.606,256.097,463.606z"/>
	<path fill="#C3C5C7" d="M256.097,463.724c34.775,0,62.966,1.291,62.966,2.885s-28.19,2.889-62.966,2.889
		c-34.772,0-62.962-1.295-62.962-2.889S221.325,463.724,256.097,463.724z"/>
	<path fill="#C3C4C6" d="M256.097,463.839c33.379,0,60.438,1.24,60.438,2.77c0,1.531-27.059,2.771-60.438,2.771
		c-33.375,0-60.434-1.24-60.434-2.771C195.664,465.079,222.723,463.839,256.097,463.839z"/>
	<path fill="#C2C4C6" d="M256.097,463.956c31.982,0,57.909,1.188,57.909,2.652c0,1.467-25.927,2.656-57.909,2.656
		c-31.978,0-57.905-1.189-57.905-2.656C198.192,465.144,224.119,463.956,256.097,463.956z"/>
	<path fill="#C1C3C5" d="M256.097,464.071c30.586,0,55.381,1.137,55.381,2.537c0,1.402-24.795,2.539-55.381,2.539
		c-30.582,0-55.376-1.137-55.376-2.539C200.721,465.208,225.516,464.071,256.097,464.071z"/>
	<path fill="#C0C2C4" d="M256.097,464.187c29.189,0,52.852,1.084,52.852,2.422s-23.662,2.424-52.852,2.424
		c-29.185,0-52.848-1.086-52.848-2.424S226.912,464.187,256.097,464.187z"/>
	<path fill="#BFC1C3" d="M256.097,464.304c27.793,0,50.323,1.031,50.323,2.305c0,1.275-22.53,2.309-50.323,2.309
		c-27.789,0-50.319-1.033-50.319-2.309C205.778,465.335,228.309,464.304,256.097,464.304z"/>
	<path fill="#BEC0C2" d="M256.097,464.419c26.396,0,47.795,0.98,47.795,2.189c0,1.211-21.398,2.191-47.795,2.191
		c-26.392,0-47.791-0.98-47.791-2.191C208.307,465.399,229.705,464.419,256.097,464.419z"/>
	<path fill="#BEBFC2" d="M256.097,464.536c25,0,45.266,0.928,45.266,2.072c0,1.146-20.266,2.076-45.266,2.076
		c-24.996,0-45.262-0.93-45.262-2.076C210.835,465.464,231.102,464.536,256.097,464.536z"/>
	<path fill="#BDBFC1" d="M256.097,464.651c23.604,0,42.737,0.877,42.737,1.957c0,1.082-19.134,1.961-42.737,1.961
		c-23.599,0-42.734-0.879-42.734-1.961C213.363,465.528,232.498,464.651,256.097,464.651z"/>
	<path fill="#BCBEC0" d="M296.306,466.608c0,1.018-18.002,1.844-40.209,1.844c-22.203,0-40.205-0.826-40.205-1.844
		s18.002-1.842,40.205-1.842C278.304,464.767,296.306,465.591,296.306,466.608z"/>
</g>
<g>
	<path fill="#58AA55" d="M111.298,433.097c0,0-29.246-145.646-29.246-249.485c0-103.837,92.488-152.936,174.377-152.936
		c81.885,0,174.371,49.099,174.371,152.936c0,103.838-29.244,249.485-29.244,249.485H111.298z"/>
	<path fill="#1A6734" d="M145.227,433.097c0,0-53.229-232.84-4.684-259.118c0.628,4.725-20.167-111.718,115.884-111.718
		c34.512,0,129.338,10.528,115.883,111.718c48.547,26.278-4.684,259.118-4.684,259.118H145.227z"/>
	<path fill="#8DCB88" d="M163.614,433.097c0,0-47.637-224.74-10.204-252.098c-9.941-77.794,42.183-104.7,103.018-104.7
		c60.834,0,112.957,26.906,103.016,104.7c37.434,27.357-10.203,252.098-10.203,252.098H163.614z"/>
	<path fill="#1F451F" d="M286.298,309.587c0,16.678-13.521,30.197-30.201,30.197c-16.679,0-30.199-13.52-30.199-30.197
		c0-16.682,13.52-30.201,30.199-30.201C272.777,279.386,286.298,292.905,286.298,309.587z"/>
	<path fill="#1A6734" d="M275.392,309.587c0,10.654-8.637,19.293-19.295,19.293c-10.656,0-19.294-8.639-19.294-19.293
		c0-10.658,8.639-19.297,19.294-19.297C266.755,290.29,275.392,298.929,275.392,309.587z"/>
	<g>
		<path fill="#1A6734" d="M210.836,378.114c0,9.691-7.855,17.549-17.551,17.549c-9.689,0-17.546-7.857-17.546-17.549
			c0-9.689,7.856-17.547,17.546-17.547C202.98,360.567,210.836,368.425,210.836,378.114z"/>
		<circle fill="#1A6734" cx="318.914" cy="378.114" r="17.547"/>
	</g>
	<path fill="#1F451F" d="M157.632,211.73c-26.447,21.206,34.441,66.723,47.993,55.855
		C219.176,256.718,184.074,190.528,157.632,211.73z M180.415,132.45c-9.359,33.34,39.187,120.188,62.001,120.188h2.865V90.625
		C220.361,92.002,189.689,99.408,180.415,132.45z M354.566,211.73c-26.441-21.203-61.543,44.987-47.992,55.855
		C320.125,278.454,381.013,232.937,354.566,211.73z M331.783,132.45c-9.273-33.04-39.943-40.448-64.861-41.825v162.012h2.861
		C292.597,252.638,341.144,165.79,331.783,132.45z"/>
	<g>
		<defs>
			<path id="SVGID_1_" d="M157.632,211.73c-26.447,21.206,34.441,66.723,47.993,55.855
				C219.176,256.718,184.074,190.528,157.632,211.73z M180.415,132.45c-9.359,33.34,39.187,120.188,62.001,120.188h2.865V90.625
				C220.361,92.002,189.689,99.408,180.415,132.45z M354.566,211.73c-26.441-21.203-61.543,44.987-47.992,55.855
				C320.125,278.454,381.013,232.937,354.566,211.73z M331.783,132.45c-9.273-33.04-39.943-40.448-64.861-41.825v162.012h2.861
				C292.597,252.638,341.144,165.79,331.783,132.45z"/>
		</defs>
		<clipPath id="SVGID_2_">
			<use xlink:href="#SVGID_1_"  overflow="visible"/>
		</clipPath>
		<g clip-path="url(#SVGID_2_)">
			<g>
				
					<line fill="none" stroke="#E8C453" stroke-width="1.2515" stroke-miterlimit="10" x1="186.983" y1="-23.136" x2="518.173" y2="308.054"/>
				
					<line fill="none" stroke="#E8C453" stroke-width="1.2515" stroke-miterlimit="10" x1="162.898" y1="-23.136" x2="494.087" y2="308.054"/>
				
					<line fill="none" stroke="#E8C453" stroke-width="1.2515" stroke-miterlimit="10" x1="138.812" y1="-23.136" x2="470.003" y2="308.054"/>
				
					<line fill="none" stroke="#E8C453" stroke-width="1.2515" stroke-miterlimit="10" x1="114.728" y1="-23.136" x2="445.917" y2="308.054"/>
				
					<line fill="none" stroke="#E8C453" stroke-width="1.2515" stroke-miterlimit="10" x1="90.642" y1="-23.136" x2="421.832" y2="308.054"/>
				
					<line fill="none" stroke="#E8C453" stroke-width="1.2515" stroke-miterlimit="10" x1="66.558" y1="-23.136" x2="397.748" y2="308.054"/>
				
					<line fill="none" stroke="#E8C453" stroke-width="1.2515" stroke-miterlimit="10" x1="42.472" y1="-23.136" x2="373.662" y2="308.054"/>
				
					<line fill="none" stroke="#E8C453" stroke-width="1.2515" stroke-miterlimit="10" x1="18.387" y1="-23.136" x2="349.578" y2="308.054"/>
				
					<line fill="none" stroke="#E8C453" stroke-width="1.2515" stroke-miterlimit="10" x1="-5.698" y1="-23.136" x2="325.492" y2="308.054"/>
				
					<line fill="none" stroke="#E8C453" stroke-width="1.2515" stroke-miterlimit="10" x1="-29.784" y1="-23.136" x2="301.406" y2="308.054"/>
				
					<line fill="none" stroke="#E8C453" stroke-width="1.2515" stroke-miterlimit="10" x1="-53.868" y1="-23.136" x2="277.322" y2="308.054"/>
				
					<line fill="none" stroke="#E8C453" stroke-width="1.2515" stroke-miterlimit="10" x1="-77.954" y1="-23.136" x2="253.236" y2="308.054"/>
				
					<line fill="none" stroke="#E8C453" stroke-width="1.2515" stroke-miterlimit="10" x1="-102.038" y1="-23.136" x2="229.152" y2="308.054"/>
				
					<line fill="none" stroke="#E8C453" stroke-width="1.2515" stroke-miterlimit="10" x1="-126.124" y1="-23.136" x2="205.066" y2="308.054"/>
			</g>
			<g>
				
					<line fill="none" stroke="#E8C453" stroke-width="1.2515" stroke-miterlimit="10" x1="307.132" y1="308.056" x2="638.322" y2="-23.134"/>
				
					<line fill="none" stroke="#E8C453" stroke-width="1.2515" stroke-miterlimit="10" x1="283.046" y1="308.056" x2="614.236" y2="-23.134"/>
				
					<line fill="none" stroke="#E8C453" stroke-width="1.2515" stroke-miterlimit="10" x1="258.96" y1="308.056" x2="590.152" y2="-23.134"/>
				
					<line fill="none" stroke="#E8C453" stroke-width="1.2515" stroke-miterlimit="10" x1="234.877" y1="308.056" x2="566.066" y2="-23.134"/>
				
					<line fill="none" stroke="#E8C453" stroke-width="1.2515" stroke-miterlimit="10" x1="210.793" y1="308.056" x2="541.982" y2="-23.134"/>
				
					<line fill="none" stroke="#E8C453" stroke-width="1.2515" stroke-miterlimit="10" x1="186.707" y1="308.056" x2="517.896" y2="-23.134"/>
				
					<line fill="none" stroke="#E8C453" stroke-width="1.2515" stroke-miterlimit="10" x1="162.622" y1="308.056" x2="493.812" y2="-23.134"/>
				
					<line fill="none" stroke="#E8C453" stroke-width="1.2515" stroke-miterlimit="10" x1="138.537" y1="308.056" x2="469.726" y2="-23.134"/>
				
					<line fill="none" stroke="#E8C453" stroke-width="1.2515" stroke-miterlimit="10" x1="114.451" y1="308.056" x2="445.64" y2="-23.134"/>
				
					<line fill="none" stroke="#E8C453" stroke-width="1.2515" stroke-miterlimit="10" x1="90.367" y1="308.056" x2="421.556" y2="-23.134"/>
				
					<line fill="none" stroke="#E8C453" stroke-width="1.2515" stroke-miterlimit="10" x1="66.281" y1="308.056" x2="397.47" y2="-23.134"/>
				
					<line fill="none" stroke="#E8C453" stroke-width="1.2515" stroke-miterlimit="10" x1="42.196" y1="308.056" x2="373.386" y2="-23.134"/>
				
					<line fill="none" stroke="#E8C453" stroke-width="1.2515" stroke-miterlimit="10" x1="18.111" y1="308.056" x2="349.3" y2="-23.134"/>
				
					<line fill="none" stroke="#E8C453" stroke-width="1.2515" stroke-miterlimit="10" x1="-5.974" y1="308.056" x2="325.216" y2="-23.134"/>
			</g>
		</g>
	</g>
	<path fill="none" stroke="#E8C453" stroke-width="5.0062" stroke-miterlimit="10" d="M157.632,211.73
		c-26.447,21.206,34.441,66.723,47.993,55.855C219.176,256.718,184.074,190.528,157.632,211.73z M180.415,132.45
		c-9.359,33.34,39.187,120.188,62.001,120.188h2.865V90.625C220.361,92.002,189.689,99.408,180.415,132.45z M354.566,211.73
		c-26.441-21.203-61.543,44.987-47.992,55.855C320.125,278.454,381.013,232.937,354.566,211.73z M331.783,132.45
		c-9.273-33.04-39.943-40.448-64.861-41.825v162.012h2.861C292.597,252.638,341.144,165.79,331.783,132.45z"/>
	<rect x="104.984" y="433.097" fill="#1A6734" width="302.885" height="15.932"/>
	<rect x="99.978" y="449.028" fill="#1F451F" width="64.904" height="15.93"/>
	<rect x="347.97" y="449.028" fill="#1F451F" width="64.906" height="15.93"/>
</g>
<linearGradient id="SVGID_3_" gradientUnits="userSpaceOnUse" x1="82.0522" y1="231.8862" x2="430.8003" y2="231.8862">
	<stop  offset="0" style="stop-color:#000000"/>
	<stop  offset="0.07" style="stop-color:#000000;stop-opacity:0.8625"/>
	<stop  offset="0.5092" style="stop-color:#000000;stop-opacity:0"/>
	<stop  offset="0.9325" style="stop-color:#000000;stop-opacity:0.8625"/>
	<stop  offset="1" style="stop-color:#000000"/>
</linearGradient>
<path opacity="0.2" fill="url(#SVGID_3_)" d="M111.298,433.097c0,0-29.246-145.646-29.246-249.485
	c0-103.837,92.488-152.936,174.377-152.936c81.885,0,174.371,49.099,174.371,152.936c0,103.838-29.244,249.485-29.244,249.485
	H111.298z"/>
<linearGradient id="SVGID_4_" gradientUnits="userSpaceOnUse" x1="256.4263" y1="433.0967" x2="256.4262" y2="30.6763">
	<stop  offset="0" style="stop-color:#000000"/>
	<stop  offset="0.0896" style="stop-color:#000000;stop-opacity:0.9104"/>
	<stop  offset="1" style="stop-color:#000000;stop-opacity:0"/>
</linearGradient>
<path opacity="0.3" fill="url(#SVGID_4_)" d="M111.298,433.097c0,0-29.246-145.646-29.246-249.485
	c0-103.837,92.488-152.936,174.377-152.936c81.885,0,174.371,49.099,174.371,152.936c0,103.838-29.244,249.485-29.244,249.485
	H111.298z"/>
</svg>
