<?xml version="1.0" encoding="utf-8"?>
<!-- Generator: Adobe Illustrator 15.0.0, SVG Export Plug-In . SVG Version: 6.00 Build 0)  -->
<!DOCTYPE svg PUBLIC "-//W3C//DTD SVG 1.1//EN" "http://www.w3.org/Graphics/SVG/1.1/DTD/svg11.dtd">
<svg version="1.1" id="Layer_1" xmlns="http://www.w3.org/2000/svg" xmlns:xlink="http://www.w3.org/1999/xlink" x="0px" y="0px"
	 width="504px" height="504px" viewBox="0 0 504 504" enable-background="new 0 0 504 504" xml:space="preserve">
<g>
	<ellipse fill="#FFFFFF" cx="245.468" cy="413.973" rx="234.91" ry="10.77"/>
	<ellipse fill="#FDFDFD" cx="245.467" cy="413.972" rx="232.381" ry="10.655"/>
	<ellipse fill="#FCFCFC" cx="245.467" cy="413.971" rx="229.852" ry="10.539"/>
	<ellipse fill="#FAFBFB" cx="245.467" cy="413.972" rx="227.325" ry="10.423"/>
	<ellipse fill="#F9F9FA" cx="245.467" cy="413.972" rx="224.795" ry="10.308"/>
	<path fill="#F8F8F9" d="M245.467,403.781c122.756,0,222.266,4.561,222.266,10.191c0,5.627-99.51,10.189-222.266,10.189
		c-122.754,0-222.267-4.562-222.267-10.189C23.201,408.342,122.713,403.781,245.467,403.781z"/>
	<ellipse fill="#F7F7F8" cx="245.467" cy="413.972" rx="219.739" ry="10.075"/>
	<ellipse fill="#F6F6F7" cx="245.467" cy="413.972" rx="217.209" ry="9.96"/>
	<ellipse fill="#F5F6F6" cx="245.467" cy="413.972" rx="214.682" ry="9.843"/>
	<ellipse fill="#F4F5F5" cx="245.467" cy="413.972" rx="212.153" ry="9.728"/>
	<ellipse fill="#F3F4F4" cx="245.467" cy="413.972" rx="209.625" ry="9.612"/>
	<ellipse fill="#F3F3F4" cx="245.467" cy="413.972" rx="207.096" ry="9.495"/>
	<ellipse fill="#F2F2F3" cx="245.467" cy="413.972" rx="204.567" ry="9.38"/>
	<ellipse fill="#F1F1F2" cx="245.467" cy="413.971" rx="202.038" ry="9.264"/>
	<ellipse fill="#F0F1F1" cx="245.467" cy="413.972" rx="199.51" ry="9.147"/>
	<ellipse fill="#EFF0F0" cx="245.467" cy="413.972" rx="196.981" ry="9.032"/>
	<ellipse fill="#EEEFF0" cx="245.467" cy="413.972" rx="194.452" ry="8.915"/>
	<ellipse fill="#EEEEEF" cx="245.467" cy="413.972" rx="191.924" ry="8.8"/>
	<ellipse fill="#EDEDEE" cx="245.467" cy="413.972" rx="189.395" ry="8.685"/>
	<ellipse fill="#ECEDED" cx="245.467" cy="413.972" rx="186.868" ry="8.567"/>
	<ellipse fill="#EBECED" cx="245.467" cy="413.972" rx="184.338" ry="8.452"/>
	<path fill="#EAEBEC" d="M245.467,405.635c100.413,0,181.809,3.732,181.809,8.338c0,4.602-81.396,8.336-181.809,8.336
		c-100.409,0-181.809-3.734-181.809-8.336C63.659,409.367,145.058,405.635,245.467,405.635z"/>
	<ellipse fill="#EAEAEB" cx="245.467" cy="413.972" rx="179.282" ry="8.22"/>
	<ellipse fill="#E9E9EA" cx="245.467" cy="413.972" rx="176.752" ry="8.104"/>
	<ellipse fill="#E8E9E9" cx="245.467" cy="413.972" rx="174.223" ry="7.987"/>
	<ellipse fill="#E7E8E9" cx="245.467" cy="413.972" rx="171.696" ry="7.872"/>
	<ellipse fill="#E6E7E8" cx="245.467" cy="413.972" rx="169.167" ry="7.757"/>
	<ellipse fill="#E5E6E7" cx="245.467" cy="413.972" rx="166.637" ry="7.64"/>
	<ellipse fill="#E4E5E6" cx="245.467" cy="413.972" rx="164.11" ry="7.524"/>
	<ellipse fill="#E4E4E6" cx="245.467" cy="413.972" rx="161.581" ry="7.409"/>
	<ellipse fill="#E3E4E5" cx="245.467" cy="413.972" rx="159.053" ry="7.292"/>
	<ellipse fill="#E2E3E4" cx="245.467" cy="413.972" rx="156.524" ry="7.177"/>
	<ellipse fill="#E1E2E3" cx="245.467" cy="413.973" rx="153.995" ry="7.061"/>
	<ellipse fill="#E0E1E2" cx="245.467" cy="413.972" rx="151.467" ry="6.944"/>
	<ellipse fill="#DFE0E2" cx="245.467" cy="413.972" rx="148.938" ry="6.829"/>
	<ellipse fill="#DFE0E1" cx="245.467" cy="413.971" rx="146.409" ry="6.713"/>
	<ellipse fill="#DEDFE0" cx="245.467" cy="413.972" rx="143.881" ry="6.597"/>
	<ellipse fill="#DDDEDF" cx="245.467" cy="413.972" rx="141.352" ry="6.481"/>
	<path fill="#DCDDDF" d="M245.467,407.607c76.67,0,138.825,2.85,138.825,6.363c0,3.516-62.154,6.365-138.825,6.365
		c-76.668,0-138.822-2.85-138.822-6.365C106.645,410.457,168.799,407.607,245.467,407.607z"/>
	<ellipse fill="#DBDDDE" cx="245.467" cy="413.972" rx="136.295" ry="6.249"/>
	<ellipse fill="#DBDCDD" cx="245.467" cy="413.971" rx="133.766" ry="6.133"/>
	<ellipse fill="#DADBDC" cx="245.467" cy="413.972" rx="131.237" ry="6.017"/>
	<ellipse fill="#D9DADC" cx="245.467" cy="413.972" rx="128.709" ry="5.901"/>
	<ellipse fill="#D8D9DB" cx="245.467" cy="413.971" rx="126.18" ry="5.785"/>
	<ellipse fill="#D7D9DA" cx="245.467" cy="413.972" rx="123.651" ry="5.669"/>
	<ellipse fill="#D6D8D9" cx="245.467" cy="413.972" rx="121.124" ry="5.554"/>
	<ellipse fill="#D6D7D8" cx="245.467" cy="413.972" rx="118.594" ry="5.437"/>
	<ellipse fill="#D5D6D8" cx="245.467" cy="413.972" rx="116.067" ry="5.321"/>
	<ellipse fill="#D4D5D7" cx="245.467" cy="413.971" rx="113.538" ry="5.205"/>
	<ellipse fill="#D3D5D6" cx="245.467" cy="413.972" rx="111.008" ry="5.089"/>
	<ellipse fill="#D2D4D5" cx="245.467" cy="413.972" rx="108.481" ry="4.974"/>
	<ellipse fill="#D1D3D5" cx="245.467" cy="413.971" rx="105.952" ry="4.857"/>
	<ellipse fill="#D1D2D4" cx="245.467" cy="413.972" rx="103.422" ry="4.741"/>
	<ellipse fill="#D0D1D3" cx="245.467" cy="413.972" rx="100.895" ry="4.626"/>
	<ellipse fill="#CFD0D2" cx="245.467" cy="413.971" rx="98.366" ry="4.51"/>
	<ellipse fill="#CED0D1" cx="245.467" cy="413.972" rx="95.836" ry="4.394"/>
	<ellipse fill="#CDCFD1" cx="245.467" cy="413.972" rx="93.309" ry="4.278"/>
	<ellipse fill="#CCCED0" cx="245.467" cy="413.971" rx="90.78" ry="4.162"/>
	<ellipse fill="#CCCDCF" cx="245.467" cy="413.972" rx="88.252" ry="4.046"/>
	<ellipse fill="#CBCCCE" cx="245.467" cy="413.971" rx="85.723" ry="3.93"/>
	<ellipse fill="#CACCCE" cx="245.467" cy="413.972" rx="83.194" ry="3.813"/>
	<ellipse fill="#C9CBCD" cx="245.467" cy="413.972" rx="80.667" ry="3.698"/>
	<ellipse fill="#C8CACC" cx="245.467" cy="413.971" rx="78.137" ry="3.582"/>
	<ellipse fill="#C8C9CB" cx="245.467" cy="413.972" rx="75.608" ry="3.466"/>
	<path fill="#C7C8CA" d="M245.467,410.621c40.362,0,73.081,1.5,73.081,3.35s-32.719,3.352-73.081,3.352
		c-40.358,0-73.077-1.502-73.077-3.352S205.109,410.621,245.467,410.621z"/>
	<ellipse fill="#C6C8CA" cx="245.467" cy="413.971" rx="70.551" ry="3.234"/>
	<ellipse fill="#C5C7C9" cx="245.467" cy="413.972" rx="68.022" ry="3.118"/>
	<ellipse fill="#C4C6C8" cx="245.467" cy="413.971" rx="65.495" ry="3.002"/>
	<ellipse fill="#C3C5C7" cx="245.467" cy="413.972" rx="62.965" ry="2.886"/>
	<path fill="#C3C4C6" d="M245.467,411.201c33.379,0,60.438,1.24,60.438,2.77s-27.059,2.771-60.438,2.771
		c-33.376,0-60.434-1.242-60.434-2.771S212.091,411.201,245.467,411.201z"/>
	<ellipse fill="#C2C4C6" cx="245.467" cy="413.971" rx="57.909" ry="2.654"/>
	<ellipse fill="#C1C3C5" cx="245.467" cy="413.972" rx="55.379" ry="2.538"/>
	<ellipse fill="#C0C2C4" cx="245.467" cy="413.972" rx="52.85" ry="2.423"/>
	<ellipse fill="#BFC1C3" cx="245.467" cy="413.971" rx="50.323" ry="2.307"/>
	<ellipse fill="#BEC0C2" cx="245.467" cy="413.972" rx="47.793" ry="2.19"/>
	<ellipse fill="#BEBFC2" cx="245.467" cy="413.972" rx="45.264" ry="2.075"/>
	<ellipse fill="#BDBFC1" cx="245.467" cy="413.971" rx="42.737" ry="1.959"/>
	<ellipse fill="#BCBEC0" cx="245.469" cy="413.971" rx="40.206" ry="1.844"/>
</g>
<g>
	<polygon fill="#003432" points="139.497,406.986 97.526,406.986 95.35,362.207 141.672,362.207 	"/>
	<polygon fill="#003232" points="401.409,406.986 359.438,406.986 357.263,362.207 403.583,362.207 	"/>
	<path fill="#003432" d="M249.467,397.641c-142.623,0-219.33-3.176-219.33-125.441v-77.834c0-122.266,76.707-125.441,219.33-125.441
		c142.624,0,219.331,3.176,219.331,125.441v77.834C468.798,394.465,392.091,397.641,249.467,397.641z"/>
	<path fill="#467684" d="M249.467,81.968c-146.74,0-206.286,4.307-206.286,112.397v77.834c0,108.088,59.546,112.398,206.286,112.398
		c146.741,0,206.288-4.311,206.288-112.398v-77.834C455.755,86.275,396.208,81.968,249.467,81.968z"/>
	
		<line fill="none" stroke="#48331B" stroke-width="4.3475" stroke-linecap="round" stroke-miterlimit="10" x1="89.78" y1="129.723" x2="409.153" y2="129.723"/>
	
		<line fill="none" stroke="#48331B" stroke-width="4.3475" stroke-linecap="round" stroke-miterlimit="10" x1="87.606" y1="140.494" x2="411.329" y2="140.494"/>
	
		<line fill="none" stroke="#48331B" stroke-width="4.3475" stroke-linecap="round" stroke-miterlimit="10" x1="85.434" y1="151.266" x2="413.501" y2="151.266"/>
	
		<line fill="none" stroke="#48331B" stroke-width="4.3475" stroke-linecap="round" stroke-miterlimit="10" x1="83.258" y1="162.037" x2="415.675" y2="162.037"/>
	
		<line fill="none" stroke="#48331B" stroke-width="4.3475" stroke-linecap="round" stroke-miterlimit="10" x1="81.084" y1="172.812" x2="417.851" y2="172.812"/>
	
		<line fill="none" stroke="#48331B" stroke-width="4.3475" stroke-linecap="round" stroke-miterlimit="10" x1="78.912" y1="183.586" x2="420.024" y2="183.586"/>
	
		<line fill="none" stroke="#48331B" stroke-width="4.3475" stroke-linecap="round" stroke-miterlimit="10" x1="76.741" y1="194.355" x2="422.194" y2="194.355"/>
	
		<line fill="none" stroke="#48331B" stroke-width="4.3475" stroke-linecap="round" stroke-miterlimit="10" x1="74.565" y1="205.134" x2="424.37" y2="205.134"/>
	
		<line fill="none" stroke="#48331B" stroke-width="4.3475" stroke-linecap="round" stroke-miterlimit="10" x1="72.389" y1="215.906" x2="426.546" y2="215.906"/>
	
		<line fill="none" stroke="#48331B" stroke-width="4.3475" stroke-linecap="round" stroke-miterlimit="10" x1="70.219" y1="226.679" x2="428.716" y2="226.679"/>
	
		<line fill="none" stroke="#48331B" stroke-width="4.3475" stroke-linecap="round" stroke-miterlimit="10" x1="68.042" y1="237.454" x2="430.89" y2="237.454"/>
	<path fill="#003432" d="M399.374,268.709H99.562c-7.175,0-13.042,5.869-13.042,13.043v48.299c0,7.176,5.867,13.045,13.042,13.045
		h299.812c7.172,0,13.041-5.869,13.041-13.045v-48.299C412.415,274.578,406.546,268.709,399.374,268.709z"/>
	<g>
		<g>
			<circle fill="#E7C157" cx="135.136" cy="305.904" r="26.879"/>
			<path fill="#F0D697" d="M152.25,305.904c0,9.451-7.664,17.107-17.114,17.107c-9.448,0-17.111-7.656-17.111-17.107
				c0-9.455,7.663-17.113,17.111-17.113C144.586,288.791,152.25,296.449,152.25,305.904z"/>
		</g>
		<g>
			<path fill="#E7C157" d="M390.679,305.904c0,14.844-12.037,26.877-26.879,26.877c-14.848,0-26.883-12.033-26.883-26.877
				c0-14.846,12.035-26.883,26.883-26.883C378.642,279.021,390.679,291.059,390.679,305.904z"/>
			<path fill="#F0D697" d="M380.911,305.904c0,9.451-7.662,17.107-17.111,17.107c-9.451,0-17.115-7.656-17.115-17.107
				c0-9.455,7.664-17.113,17.115-17.113C373.249,288.791,380.911,296.449,380.911,305.904z"/>
		</g>
	</g>
	<rect x="173.516" y="281.596" fill="#F0D693" width="151.903" height="24.309"/>
</g>
<linearGradient id="SVGID_1_" gradientUnits="userSpaceOnUse" x1="30.1372" y1="233.2822" x2="468.7979" y2="233.2822">
	<stop  offset="0" style="stop-color:#000000"/>
	<stop  offset="0.07" style="stop-color:#000000;stop-opacity:0.8625"/>
	<stop  offset="0.5092" style="stop-color:#000000;stop-opacity:0"/>
	<stop  offset="0.9325" style="stop-color:#000000;stop-opacity:0.8625"/>
	<stop  offset="1" style="stop-color:#000000"/>
</linearGradient>
<path opacity="0.2" fill="url(#SVGID_1_)" d="M249.467,397.641c-142.623,0-219.33-3.176-219.33-125.441v-77.834
	c0-122.266,76.707-125.441,219.33-125.441c142.624,0,219.331,3.176,219.331,125.441v77.834
	C468.798,394.465,392.091,397.641,249.467,397.641z"/>
<path display="none" opacity="0.3" fill="#003432" d="M245.467,402.975c-142.623,0-219.33-3.176-219.33-125.441v-77.834
	c0-122.266,76.707-125.441,219.33-125.441c142.624,0,219.331,3.176,219.331,125.441v77.834
	C464.798,399.799,388.091,402.975,245.467,402.975z"/>
</svg>
