<?xml version="1.0" encoding="utf-8"?>
<!-- Generator: Adobe Illustrator 15.0.0, SVG Export Plug-In . SVG Version: 6.00 Build 0)  -->
<!DOCTYPE svg PUBLIC "-//W3C//DTD SVG 1.1//EN" "http://www.w3.org/Graphics/SVG/1.1/DTD/svg11.dtd">
<svg version="1.1" id="Layer_1" xmlns="http://www.w3.org/2000/svg" xmlns:xlink="http://www.w3.org/1999/xlink" x="0px" y="0px"
	 width="417.687px" height="339.519px" viewBox="0 0 417.687 339.519" enable-background="new 0 0 417.687 339.519"
	 xml:space="preserve">
<g>
	<ellipse fill="#FFFFFF" cx="208.844" cy="341.169" rx="234.91" ry="10.771"/>
	<path fill="#FDFDFD" d="M208.842,330.513c128.343,0,232.384,4.771,232.384,10.656c0,5.883-104.041,10.654-232.384,10.654
		c-128.338,0-232.38-4.771-232.38-10.654C-23.538,335.285,80.504,330.513,208.842,330.513z"/>
	<ellipse fill="#FCFCFC" cx="208.844" cy="341.169" rx="229.853" ry="10.539"/>
	<ellipse fill="#FAFBFB" cx="208.844" cy="341.168" rx="227.323" ry="10.423"/>
	<ellipse fill="#F9F9FA" cx="208.844" cy="341.169" rx="224.794" ry="10.307"/>
	<ellipse fill="#F8F8F9" cx="208.844" cy="341.169" rx="222.267" ry="10.191"/>
	<ellipse fill="#F7F7F8" cx="208.844" cy="341.17" rx="219.737" ry="10.075"/>
	<ellipse fill="#F6F6F7" cx="208.844" cy="341.169" rx="217.21" ry="9.959"/>
	<ellipse fill="#F5F6F6" cx="208.844" cy="341.169" rx="214.681" ry="9.844"/>
	<ellipse fill="#F4F5F5" cx="208.844" cy="341.169" rx="212.151" ry="9.727"/>
	<ellipse fill="#F3F4F4" cx="208.844" cy="341.169" rx="209.624" ry="9.611"/>
	<ellipse fill="#F3F3F4" cx="208.844" cy="341.169" rx="207.095" ry="9.496"/>
	<ellipse fill="#F2F2F3" cx="208.844" cy="341.169" rx="204.567" ry="9.379"/>
	<ellipse fill="#F1F1F2" cx="208.844" cy="341.169" rx="202.038" ry="9.264"/>
	<ellipse fill="#F0F1F1" cx="208.844" cy="341.168" rx="199.509" ry="9.147"/>
	<ellipse fill="#EFF0F0" cx="208.844" cy="341.169" rx="196.979" ry="9.031"/>
	<ellipse fill="#EEEFF0" cx="208.844" cy="341.169" rx="194.452" ry="8.916"/>
	<ellipse fill="#EEEEEF" cx="208.844" cy="341.169" rx="191.923" ry="8.801"/>
	<ellipse fill="#EDEDEE" cx="208.844" cy="341.169" rx="189.396" ry="8.684"/>
	<ellipse fill="#ECEDED" cx="208.844" cy="341.169" rx="186.866" ry="8.568"/>
	<ellipse fill="#EBECED" cx="208.844" cy="341.168" rx="184.337" ry="8.452"/>
	<ellipse fill="#EAEBEC" cx="208.844" cy="341.169" rx="181.81" ry="8.336"/>
	<ellipse fill="#EAEAEB" cx="208.844" cy="341.169" rx="179.28" ry="8.221"/>
	<ellipse fill="#E9E9EA" cx="208.844" cy="341.168" rx="176.751" ry="8.104"/>
	<ellipse fill="#E8E9E9" cx="208.844" cy="341.169" rx="174.224" ry="7.988"/>
	<ellipse fill="#E7E8E9" cx="208.844" cy="341.168" rx="171.694" ry="7.872"/>
	<ellipse fill="#E6E7E8" cx="208.844" cy="341.169" rx="169.165" ry="7.756"/>
	<ellipse fill="#E5E6E7" cx="208.844" cy="341.169" rx="166.638" ry="7.641"/>
	<ellipse fill="#E4E5E6" cx="208.844" cy="341.168" rx="164.108" ry="7.524"/>
	<ellipse fill="#E4E4E6" cx="208.844" cy="341.169" rx="161.581" ry="7.408"/>
	<ellipse fill="#E3E4E5" cx="208.844" cy="341.168" rx="159.052" ry="7.292"/>
	<ellipse fill="#E2E3E4" cx="208.844" cy="341.169" rx="156.522" ry="7.176"/>
	<ellipse fill="#E1E2E3" cx="208.844" cy="341.169" rx="153.995" ry="7.061"/>
	<ellipse fill="#E0E1E2" cx="208.844" cy="341.169" rx="151.466" ry="6.945"/>
	<ellipse fill="#DFE0E2" cx="208.844" cy="341.169" rx="148.937" ry="6.828"/>
	<ellipse fill="#DFE0E1" cx="208.844" cy="341.169" rx="146.409" ry="6.713"/>
	<ellipse fill="#DEDFE0" cx="208.844" cy="341.168" rx="143.88" ry="6.597"/>
	<ellipse fill="#DDDEDF" cx="208.844" cy="341.169" rx="141.351" ry="6.48"/>
	<ellipse fill="#DCDDDF" cx="208.844" cy="341.169" rx="138.823" ry="6.365"/>
	<ellipse fill="#DBDDDE" cx="208.844" cy="341.168" rx="136.294" ry="6.249"/>
	<ellipse fill="#DBDCDD" cx="208.844" cy="341.169" rx="133.765" ry="6.133"/>
	<ellipse fill="#DADBDC" cx="208.844" cy="341.168" rx="131.237" ry="6.017"/>
	<ellipse fill="#D9DADC" cx="208.844" cy="341.168" rx="128.708" ry="5.901"/>
	<ellipse fill="#D8D9DB" cx="208.844" cy="341.169" rx="126.179" ry="5.785"/>
	<ellipse fill="#D7D9DA" cx="208.844" cy="341.168" rx="123.651" ry="5.669"/>
	<ellipse fill="#D6D8D9" cx="208.844" cy="341.168" rx="121.122" ry="5.554"/>
	<ellipse fill="#D6D7D8" cx="208.844" cy="341.169" rx="118.595" ry="5.438"/>
	<ellipse fill="#D5D6D8" cx="208.844" cy="341.168" rx="116.065" ry="5.321"/>
	<ellipse fill="#D4D5D7" cx="208.844" cy="341.169" rx="113.536" ry="5.205"/>
	<ellipse fill="#D3D5D6" cx="208.844" cy="341.169" rx="111.009" ry="5.09"/>
	<ellipse fill="#D2D4D5" cx="208.844" cy="341.168" rx="108.479" ry="4.974"/>
	<ellipse fill="#D1D3D5" cx="208.844" cy="341.169" rx="105.95" ry="4.857"/>
	<ellipse fill="#D1D2D4" cx="208.844" cy="341.168" rx="103.423" ry="4.741"/>
	<ellipse fill="#D0D1D3" cx="208.844" cy="341.169" rx="100.894" ry="4.625"/>
	<ellipse fill="#CFD0D2" cx="208.844" cy="341.169" rx="98.366" ry="4.51"/>
	<ellipse fill="#CED0D1" cx="208.844" cy="341.168" rx="95.837" ry="4.394"/>
	<ellipse fill="#CDCFD1" cx="208.844" cy="341.169" rx="93.308" ry="4.277"/>
	<ellipse fill="#CCCED0" cx="208.844" cy="341.168" rx="90.78" ry="4.161"/>
	<ellipse fill="#CCCDCF" cx="208.844" cy="341.168" rx="88.251" ry="4.046"/>
	<ellipse fill="#CBCCCE" cx="208.844" cy="341.169" rx="85.722" ry="3.93"/>
	<ellipse fill="#CACCCE" cx="208.844" cy="341.169" rx="83.194" ry="3.814"/>
	<ellipse fill="#C9CBCD" cx="208.844" cy="341.168" rx="80.665" ry="3.698"/>
	<ellipse fill="#C8CACC" cx="208.844" cy="341.169" rx="78.136" ry="3.582"/>
	<ellipse fill="#C8C9CB" cx="208.844" cy="341.168" rx="75.608" ry="3.466"/>
	<ellipse fill="#C7C8CA" cx="208.844" cy="341.168" rx="73.079" ry="3.351"/>
	<ellipse fill="#C6C8CA" cx="208.844" cy="341.169" rx="70.552" ry="3.234"/>
	<ellipse fill="#C5C7C9" cx="208.844" cy="341.168" rx="68.022" ry="3.118"/>
	<ellipse fill="#C4C6C8" cx="208.844" cy="341.168" rx="65.493" ry="3.003"/>
	<ellipse fill="#C3C5C7" cx="208.844" cy="341.168" rx="62.964" ry="2.886"/>
	<ellipse fill="#C3C4C6" cx="208.844" cy="341.168" rx="60.437" ry="2.771"/>
	<ellipse fill="#C2C4C6" cx="208.844" cy="341.169" rx="57.907" ry="2.654"/>
	<ellipse fill="#C1C3C5" cx="208.844" cy="341.169" rx="55.378" ry="2.539"/>
	<ellipse fill="#C0C2C4" cx="208.844" cy="341.168" rx="52.851" ry="2.423"/>
	<ellipse fill="#BFC1C3" cx="208.844" cy="341.169" rx="50.323" ry="2.307"/>
	<ellipse fill="#BEC0C2" cx="208.844" cy="341.168" rx="47.794" ry="2.19"/>
	<ellipse fill="#BEBFC2" cx="208.844" cy="341.169" rx="45.265" ry="2.074"/>
	<ellipse fill="#BDBFC1" cx="208.844" cy="341.169" rx="42.735" ry="1.959"/>
	<ellipse fill="#BCBEC0" cx="208.845" cy="341.167" rx="40.207" ry="1.844"/>
</g>
<g>
	<polygon fill="#48331B" points="84.988,339.517 60.74,339.517 55.218,310.898 90.508,310.898 	"/>
	<polygon fill="#48331B" points="356.947,339.517 332.699,339.517 327.179,310.898 362.468,310.898 	"/>
	<path fill="#E8C453" d="M208.844,328.181c69.61,0,158.433-0.414,182.054-24.033c23.619-23.615,26.789-101.102,26.789-140.054
		c0-38.955-3.17-116.441-26.789-140.059C367.277,0.416,278.455,0,208.844,0C139.233,0,50.41,0.416,26.789,24.035
		C3.172,47.652,0,125.139,0,164.094c0,38.952,3.172,116.439,26.789,140.054C50.41,327.767,139.233,328.181,208.844,328.181z"/>
	<path fill="#D56A27" d="M208.844,38.654c-44.548,0-148.872,0-166.434,17.566C32.294,66.333,22.089,97.69,22.089,169.613
		c0,71.925,10.205,108.804,20.321,118.916c17.562,17.564,121.886,17.564,166.434,17.564c44.546,0,148.87,0,166.435-17.564
		c10.115-10.111,20.32-46.99,20.32-118.916c0-71.923-10.205-103.28-20.32-113.393C357.714,38.654,253.39,38.654,208.844,38.654z"/>
	<path fill="#D2BB98" d="M27.572,247.312c3.896,22.393,9.371,35.75,14.838,41.217c17.562,17.564,121.886,17.564,166.434,17.564
		c44.546,0,148.87,0,166.435-17.564c5.465-5.467,10.941-18.824,14.838-41.217H27.572z"/>
	<path fill="#AA4811" d="M85.681,273.603c0,7.076-5.737,12.811-12.816,12.811s-12.816-5.734-12.816-12.811
		c0-7.084,5.737-12.82,12.816-12.82S85.681,266.519,85.681,273.603z"/>
	<path fill="#AA4811" d="M357.64,273.603c0,7.076-5.738,12.811-12.814,12.811c-7.082,0-12.818-5.734-12.818-12.811
		c0-7.084,5.736-12.82,12.818-12.82C351.902,260.783,357.64,266.519,357.64,273.603z"/>
	<path fill="#AA4811" d="M289.65,273.603c0,7.076-5.738,12.811-12.816,12.811c-7.08,0-12.816-5.734-12.816-12.811
		c0-7.084,5.736-12.82,12.816-12.82C283.912,260.783,289.65,266.519,289.65,273.603z"/>
	<path fill="#AA4811" d="M153.67,273.603c0,7.076-5.736,12.811-12.813,12.811c-7.081,0-12.818-5.734-12.818-12.811
		c0-7.084,5.737-12.82,12.818-12.82C147.934,260.783,153.67,266.519,153.67,273.603z"/>
	<path fill="#AA4811" d="M221.662,273.603c0,7.076-5.738,12.811-12.817,12.811c-7.079,0-12.819-5.734-12.819-12.811
		c0-7.084,5.74-12.82,12.819-12.82C215.923,260.783,221.662,266.519,221.662,273.603z"/>
	<g>
		<g>
			<defs>
				<path id="SVGID_1_" d="M178.264,72.574H56.914c-6.074,0-11.043,4.969-11.043,11.043v121.347c0,6.076,4.969,11.045,11.043,11.045
					h121.35c6.074,0,11.044-4.969,11.044-11.045V83.617C189.308,77.543,184.338,72.574,178.264,72.574z"/>
			</defs>
			<clipPath id="SVGID_2_">
				<use xlink:href="#SVGID_1_"  overflow="visible"/>
			</clipPath>
			<g clip-path="url(#SVGID_2_)">
				<rect x="40.793" y="67.404" fill="#AA4811" width="153.686" height="153.781"/>
				<g>
					
						<line fill="none" stroke="#E8C453" stroke-width="1.3805" stroke-miterlimit="10" x1="40.698" y1="53.351" x2="40.698" y2="235.234"/>
					
						<line fill="none" stroke="#E8C453" stroke-width="1.3805" stroke-miterlimit="10" x1="53.512" y1="53.351" x2="53.512" y2="235.234"/>
					
						<line fill="none" stroke="#E8C453" stroke-width="1.3805" stroke-miterlimit="10" x1="66.328" y1="53.351" x2="66.328" y2="235.234"/>
					
						<line fill="none" stroke="#E8C453" stroke-width="1.3805" stroke-miterlimit="10" x1="79.142" y1="53.351" x2="79.142" y2="235.234"/>
					
						<line fill="none" stroke="#E8C453" stroke-width="1.3805" stroke-miterlimit="10" x1="91.958" y1="53.351" x2="91.958" y2="235.234"/>
					
						<line fill="none" stroke="#E8C453" stroke-width="1.3805" stroke-miterlimit="10" x1="104.771" y1="53.351" x2="104.771" y2="235.234"/>
					
						<line fill="none" stroke="#E8C453" stroke-width="1.3805" stroke-miterlimit="10" x1="117.588" y1="53.351" x2="117.588" y2="235.234"/>
					
						<line fill="none" stroke="#E8C453" stroke-width="1.3805" stroke-miterlimit="10" x1="130.402" y1="53.351" x2="130.402" y2="235.234"/>
					
						<line fill="none" stroke="#E8C453" stroke-width="1.3805" stroke-miterlimit="10" x1="143.219" y1="53.351" x2="143.219" y2="235.234"/>
					
						<line fill="none" stroke="#E8C453" stroke-width="1.3805" stroke-miterlimit="10" x1="156.034" y1="53.351" x2="156.034" y2="235.234"/>
					
						<line fill="none" stroke="#E8C453" stroke-width="1.3805" stroke-miterlimit="10" x1="168.848" y1="53.351" x2="168.848" y2="235.234"/>
					
						<line fill="none" stroke="#E8C453" stroke-width="1.3805" stroke-miterlimit="10" x1="181.664" y1="53.351" x2="181.664" y2="235.234"/>
					
						<line fill="none" stroke="#E8C453" stroke-width="1.3805" stroke-miterlimit="10" x1="194.479" y1="53.351" x2="194.479" y2="235.234"/>
					
						<line fill="none" stroke="#E8C453" stroke-width="1.3805" stroke-miterlimit="10" x1="208.532" y1="67.404" x2="26.647" y2="67.404"/>
					
						<line fill="none" stroke="#E8C453" stroke-width="1.3805" stroke-miterlimit="10" x1="208.532" y1="80.215" x2="26.647" y2="80.215"/>
					
						<line fill="none" stroke="#E8C453" stroke-width="1.3805" stroke-miterlimit="10" x1="208.532" y1="93.033" x2="26.647" y2="93.033"/>
					
						<line fill="none" stroke="#E8C453" stroke-width="1.3805" stroke-miterlimit="10" x1="208.532" y1="105.845" x2="26.647" y2="105.845"/>
					
						<line fill="none" stroke="#E8C453" stroke-width="1.3805" stroke-miterlimit="10" x1="208.532" y1="118.664" x2="26.647" y2="118.664"/>
					
						<line fill="none" stroke="#E8C453" stroke-width="1.3805" stroke-miterlimit="10" x1="208.532" y1="131.478" x2="26.647" y2="131.478"/>
					
						<line fill="none" stroke="#E8C453" stroke-width="1.3805" stroke-miterlimit="10" x1="208.532" y1="144.294" x2="26.647" y2="144.294"/>
					
						<line fill="none" stroke="#E8C453" stroke-width="1.3805" stroke-miterlimit="10" x1="208.532" y1="157.107" x2="26.647" y2="157.107"/>
					
						<line fill="none" stroke="#E8C453" stroke-width="1.3805" stroke-miterlimit="10" x1="208.532" y1="169.924" x2="26.647" y2="169.924"/>
					
						<line fill="none" stroke="#E8C453" stroke-width="1.3805" stroke-miterlimit="10" x1="208.532" y1="182.737" x2="26.647" y2="182.737"/>
					
						<line fill="none" stroke="#E8C453" stroke-width="1.3805" stroke-miterlimit="10" x1="208.532" y1="195.554" x2="26.647" y2="195.554"/>
					
						<line fill="none" stroke="#E8C453" stroke-width="1.3805" stroke-miterlimit="10" x1="208.532" y1="208.368" x2="26.647" y2="208.368"/>
					
						<line fill="none" stroke="#E8C453" stroke-width="1.3805" stroke-miterlimit="10" x1="208.532" y1="221.185" x2="26.647" y2="221.185"/>
				</g>
			</g>
		</g>
		<path fill="none" stroke="#E8C453" stroke-width="5.5218" stroke-miterlimit="10" d="M178.264,72.574H56.914
			c-6.074,0-11.043,4.969-11.043,11.043v121.347c0,6.076,4.969,11.045,11.043,11.045h121.35c6.074,0,11.044-4.969,11.044-11.045
			V83.617C189.308,77.543,184.338,72.574,178.264,72.574z"/>
	</g>
	<path fill="#AA4811" d="M378.548,140.979c0,46.375-37.59,83.964-83.969,83.964c-46.371,0-83.962-37.589-83.962-83.964
		c0-46.373,37.591-83.967,83.962-83.967C340.958,57.012,378.548,94.605,378.548,140.979z"/>
	<path fill="#D8C05A" d="M369.615,140.979c0,41.441-33.592,75.031-75.035,75.031c-41.438,0-75.027-33.589-75.027-75.031
		c0-41.438,33.59-75.031,75.027-75.031C336.023,65.947,369.615,99.541,369.615,140.979z"/>
	<polygon fill="#AA4811" points="300.33,140.979 288.839,140.979 294.583,85.559 	"/>
	<circle fill="#AA4811" cx="294.583" cy="140.979" r="31.398"/>
	<circle fill="#E8C453" stroke="#E8C453" stroke-miterlimit="10" cx="294.583" cy="140.979" r="26.189"/>
	<g>
		<rect x="293.203" y="71.051" fill="#AA4811" width="2.762" height="14.508"/>
		
			<rect x="263.343" y="81.694" transform="matrix(0.3828 0.9238 -0.9238 0.3828 243.7528 -198.7119)" fill="#AA4811" width="14.51" height="2.763"/>
		
			<rect x="243.011" y="95.281" transform="matrix(0.7072 0.707 -0.707 0.7072 141.6154 -148.6357)" fill="#AA4811" width="14.505" height="2.762"/>
		
			<rect x="229.425" y="115.616" transform="matrix(0.9239 0.3826 -0.3826 0.9239 62.7655 -81.6468)" fill="#AA4811" width="14.504" height="2.76"/>
		<rect x="224.654" y="139.598" fill="#AA4811" width="14.506" height="2.76"/>
		
			<rect x="235.295" y="157.706" transform="matrix(0.383 0.9238 -0.9238 0.383 298.4243 -116.8434)" fill="#AA4811" width="2.759" height="14.51"/>
		
			<rect x="248.88" y="178.039" transform="matrix(0.7068 0.7075 -0.7075 0.7068 204.4769 -122.712)" fill="#AA4811" width="2.761" height="14.512"/>
		
			<rect x="269.21" y="191.627" transform="matrix(0.9236 0.3833 -0.3833 0.9236 96.9017 -88.5294)" fill="#AA4811" width="2.762" height="14.513"/>
		<rect x="293.197" y="196.396" fill="#AA4811" width="2.762" height="14.517"/>
		
			<rect x="311.306" y="197.504" transform="matrix(0.3827 0.9239 -0.9239 0.3827 380.4045 -171.5393)" fill="#AA4811" width="14.516" height="2.761"/>
		
			<rect x="331.638" y="183.916" transform="matrix(0.707 0.7072 -0.7072 0.707 230.3373 -185.3784)" fill="#AA4811" width="14.514" height="2.761"/>
		
			<rect x="345.225" y="163.586" transform="matrix(0.9237 0.3831 -0.3831 0.9237 90.0768 -122.4375)" fill="#AA4811" width="14.511" height="2.759"/>
		<rect x="349.996" y="139.6" fill="#AA4811" width="14.51" height="2.76"/>
		
			<rect x="351.099" y="109.74" transform="matrix(0.383 0.9238 -0.9238 0.383 325.5725 -253.4163)" fill="#AA4811" width="2.759" height="14.514"/>
		
			<rect x="337.513" y="89.407" transform="matrix(0.7068 0.7075 -0.7075 0.7068 167.765 -211.4071)" fill="#AA4811" width="2.761" height="14.513"/>
		
			<rect x="317.18" y="75.824" transform="matrix(0.924 0.3825 -0.3825 0.924 55.9935 -115.5193)" fill="#AA4811" width="2.763" height="14.513"/>
	</g>
</g>
<linearGradient id="SVGID_3_" gradientUnits="userSpaceOnUse" x1="17.1431" y1="129.8062" x2="434.8306" y2="129.8062">
	<stop  offset="0" style="stop-color:#000000"/>
	<stop  offset="0.07" style="stop-color:#000000;stop-opacity:0.8625"/>
	<stop  offset="0.5092" style="stop-color:#000000;stop-opacity:0"/>
	<stop  offset="0.9325" style="stop-color:#000000;stop-opacity:0.8625"/>
	<stop  offset="1" style="stop-color:#000000"/>
</linearGradient>
<path display="none" opacity="0.2" fill="url(#SVGID_3_)" d="M225.987,293.898c69.61,0,158.434-0.415,182.055-24.033
	c23.618-23.618,26.789-101.104,26.789-140.057c0-38.955-3.171-116.441-26.789-140.059C384.42-33.87,295.597-34.286,225.987-34.286
	S67.553-33.87,43.932-10.25C20.315,13.367,17.143,90.853,17.143,129.808c0,38.952,3.172,116.438,26.789,140.057
	C67.553,293.483,156.376,293.898,225.987,293.898z"/>
<linearGradient id="SVGID_4_" gradientUnits="userSpaceOnUse" x1="225.9868" y1="293.8979" x2="225.9868" y2="-34.2852">
	<stop  offset="0" style="stop-color:#000000"/>
	<stop  offset="0.0896" style="stop-color:#000000;stop-opacity:0.9104"/>
	<stop  offset="1" style="stop-color:#000000;stop-opacity:0"/>
</linearGradient>
<path display="none" opacity="0.3" fill="url(#SVGID_4_)" d="M225.987,293.898c69.61,0,158.434-0.415,182.055-24.033
	c23.618-23.618,26.789-101.104,26.789-140.057c0-38.955-3.171-116.441-26.789-140.059C384.42-33.87,295.597-34.286,225.987-34.286
	S67.553-33.87,43.932-10.25C20.315,13.367,17.143,90.853,17.143,129.808c0,38.952,3.172,116.438,26.789,140.057
	C67.553,293.483,156.376,293.898,225.987,293.898z"/>
</svg>
