<?xml version="1.0" encoding="utf-8"?>
<!-- Generator: Adobe Illustrator 15.0.0, SVG Export Plug-In . SVG Version: 6.00 Build 0)  -->
<!DOCTYPE svg PUBLIC "-//W3C//DTD SVG 1.1//EN" "http://www.w3.org/Graphics/SVG/1.1/DTD/svg11.dtd">
<svg version="1.1" id="Layer_1" xmlns="http://www.w3.org/2000/svg" xmlns:xlink="http://www.w3.org/1999/xlink" x="0px" y="0px"
	 width="576px" height="468px" viewBox="0 0 576 468" enable-background="new 0 0 576 468" xml:space="preserve">
<g>
	<polygon fill="#48331B" points="164.146,455.747 139.897,455.747 134.376,427.128 169.665,427.128 	"/>
	<polygon fill="#48331B" points="436.104,455.747 411.855,455.747 406.336,427.128 441.625,427.128 	"/>
	<path fill="#E8C453" d="M288.002,444.411c69.609,0,158.432-0.414,182.053-24.033c23.619-23.615,26.789-101.104,26.789-140.056
		c0-38.955-3.17-116.441-26.789-140.059c-23.621-23.619-112.443-24.035-182.053-24.035c-69.61,0-158.435,0.416-182.056,24.035
		c-23.617,23.618-26.789,101.104-26.789,140.059c0,38.952,3.172,116.44,26.789,140.056
		C129.567,443.997,218.392,444.411,288.002,444.411z"/>
	<path fill="#D56A27" d="M288.002,154.882c-44.548,0-148.872,0-166.435,17.567c-10.115,10.111-20.32,41.469-20.32,113.393
		c0,71.927,10.205,108.806,20.32,118.917c17.562,17.564,121.887,17.564,166.435,17.564c44.545,0,148.869,0,166.434-17.564
		c10.115-10.111,20.32-46.99,20.32-118.917c0-71.924-10.205-103.281-20.32-113.393C436.871,154.882,332.547,154.882,288.002,154.882
		z"/>
	<path fill="#D2BB98" d="M106.729,363.542c3.896,22.393,9.371,35.75,14.838,41.217c17.562,17.564,121.887,17.564,166.435,17.564
		c44.545,0,148.869,0,166.434-17.564c5.465-5.467,10.941-18.824,14.838-41.217H106.729z"/>
	<path fill="#AA4811" d="M164.839,389.833c0,7.076-5.738,12.811-12.816,12.811c-7.08,0-12.816-5.734-12.816-12.811
		c0-7.084,5.736-12.82,12.816-12.82C159.101,377.013,164.839,382.749,164.839,389.833z"/>
	<path fill="#AA4811" d="M436.797,389.833c0,7.076-5.738,12.811-12.814,12.811c-7.082,0-12.818-5.734-12.818-12.811
		c0-7.084,5.736-12.82,12.818-12.82C431.059,377.013,436.797,382.749,436.797,389.833z"/>
	<path fill="#AA4811" d="M368.807,389.833c0,7.076-5.738,12.811-12.816,12.811c-7.08,0-12.816-5.734-12.816-12.811
		c0-7.084,5.736-12.82,12.816-12.82C363.068,377.013,368.807,382.749,368.807,389.833z"/>
	<path fill="#AA4811" d="M232.827,389.833c0,7.076-5.736,12.811-12.812,12.811c-7.082,0-12.818-5.734-12.818-12.811
		c0-7.084,5.736-12.82,12.818-12.82C227.091,377.013,232.827,382.749,232.827,389.833z"/>
	<path fill="#AA4811" d="M300.818,389.833c0,7.076-5.738,12.811-12.816,12.811c-7.079,0-12.819-5.734-12.819-12.811
		c0-7.084,5.74-12.82,12.819-12.82C295.08,377.013,300.818,382.749,300.818,389.833z"/>
	<g>
		<g>
			<defs>
				<path id="SVGID_1_" d="M257.421,188.803h-121.35c-6.074,0-11.043,4.969-11.043,11.043v121.347
					c0,6.076,4.969,11.045,11.043,11.045h121.35c6.074,0,11.045-4.969,11.045-11.045V199.846
					C268.466,193.771,263.495,188.803,257.421,188.803z"/>
			</defs>
			<clipPath id="SVGID_2_">
				<use xlink:href="#SVGID_1_"  overflow="visible"/>
			</clipPath>
			<g clip-path="url(#SVGID_2_)">
				<rect x="119.95" y="183.633" fill="#AA4811" width="153.686" height="153.782"/>
				<g>
					
						<line fill="none" stroke="#E8C453" stroke-width="1.3805" stroke-miterlimit="10" x1="119.856" y1="169.578" x2="119.856" y2="351.464"/>
					
						<line fill="none" stroke="#E8C453" stroke-width="1.3805" stroke-miterlimit="10" x1="132.669" y1="169.578" x2="132.669" y2="351.464"/>
					
						<line fill="none" stroke="#E8C453" stroke-width="1.3805" stroke-miterlimit="10" x1="145.485" y1="169.578" x2="145.485" y2="351.464"/>
					
						<line fill="none" stroke="#E8C453" stroke-width="1.3805" stroke-miterlimit="10" x1="158.3" y1="169.578" x2="158.3" y2="351.464"/>
					
						<line fill="none" stroke="#E8C453" stroke-width="1.3805" stroke-miterlimit="10" x1="171.116" y1="169.578" x2="171.116" y2="351.464"/>
					
						<line fill="none" stroke="#E8C453" stroke-width="1.3805" stroke-miterlimit="10" x1="183.929" y1="169.578" x2="183.929" y2="351.464"/>
					
						<line fill="none" stroke="#E8C453" stroke-width="1.3805" stroke-miterlimit="10" x1="196.745" y1="169.578" x2="196.745" y2="351.464"/>
					
						<line fill="none" stroke="#E8C453" stroke-width="1.3805" stroke-miterlimit="10" x1="209.56" y1="169.578" x2="209.56" y2="351.464"/>
					
						<line fill="none" stroke="#E8C453" stroke-width="1.3805" stroke-miterlimit="10" x1="222.376" y1="169.578" x2="222.376" y2="351.464"/>
					
						<line fill="none" stroke="#E8C453" stroke-width="1.3805" stroke-miterlimit="10" x1="235.192" y1="169.578" x2="235.192" y2="351.464"/>
					
						<line fill="none" stroke="#E8C453" stroke-width="1.3805" stroke-miterlimit="10" x1="248.005" y1="169.578" x2="248.005" y2="351.464"/>
					
						<line fill="none" stroke="#E8C453" stroke-width="1.3805" stroke-miterlimit="10" x1="260.821" y1="169.578" x2="260.821" y2="351.464"/>
					
						<line fill="none" stroke="#E8C453" stroke-width="1.3805" stroke-miterlimit="10" x1="273.636" y1="169.578" x2="273.636" y2="351.464"/>
					
						<line fill="none" stroke="#E8C453" stroke-width="1.3805" stroke-miterlimit="10" x1="287.689" y1="183.633" x2="105.806" y2="183.633"/>
					
						<line fill="none" stroke="#E8C453" stroke-width="1.3805" stroke-miterlimit="10" x1="287.689" y1="196.443" x2="105.806" y2="196.443"/>
					
						<line fill="none" stroke="#E8C453" stroke-width="1.3805" stroke-miterlimit="10" x1="287.689" y1="209.262" x2="105.806" y2="209.262"/>
					
						<line fill="none" stroke="#E8C453" stroke-width="1.3805" stroke-miterlimit="10" x1="287.689" y1="222.072" x2="105.806" y2="222.072"/>
					
						<line fill="none" stroke="#E8C453" stroke-width="1.3805" stroke-miterlimit="10" x1="287.689" y1="234.893" x2="105.806" y2="234.893"/>
					
						<line fill="none" stroke="#E8C453" stroke-width="1.3805" stroke-miterlimit="10" x1="287.689" y1="247.705" x2="105.806" y2="247.705"/>
					
						<line fill="none" stroke="#E8C453" stroke-width="1.3805" stroke-miterlimit="10" x1="287.689" y1="260.521" x2="105.806" y2="260.521"/>
					
						<line fill="none" stroke="#E8C453" stroke-width="1.3805" stroke-miterlimit="10" x1="287.689" y1="273.336" x2="105.806" y2="273.336"/>
					
						<line fill="none" stroke="#E8C453" stroke-width="1.3805" stroke-miterlimit="10" x1="287.689" y1="286.152" x2="105.806" y2="286.152"/>
					
						<line fill="none" stroke="#E8C453" stroke-width="1.3805" stroke-miterlimit="10" x1="287.689" y1="298.965" x2="105.806" y2="298.965"/>
					
						<line fill="none" stroke="#E8C453" stroke-width="1.3805" stroke-miterlimit="10" x1="287.689" y1="311.782" x2="105.806" y2="311.782"/>
					
						<line fill="none" stroke="#E8C453" stroke-width="1.3805" stroke-miterlimit="10" x1="287.689" y1="324.597" x2="105.806" y2="324.597"/>
					
						<line fill="none" stroke="#E8C453" stroke-width="1.3805" stroke-miterlimit="10" x1="287.689" y1="337.415" x2="105.806" y2="337.415"/>
				</g>
			</g>
		</g>
		<path fill="none" stroke="#E8C453" stroke-width="5.5218" stroke-miterlimit="10" d="M257.421,188.803h-121.35
			c-6.074,0-11.043,4.969-11.043,11.043v121.347c0,6.076,4.969,11.045,11.043,11.045h121.35c6.074,0,11.045-4.969,11.045-11.045
			V199.846C268.466,193.771,263.495,188.803,257.421,188.803z"/>
	</g>
	<path fill="#AA4811" d="M457.705,257.207c0,46.375-37.59,83.966-83.969,83.966c-46.371,0-83.961-37.591-83.961-83.966
		c0-46.373,37.59-83.967,83.961-83.967C420.115,173.24,457.705,210.834,457.705,257.207z"/>
	<path fill="#D8C05A" d="M448.771,257.207c0,41.441-33.592,75.03-75.035,75.03c-41.438,0-75.027-33.589-75.027-75.03
		c0-41.438,33.59-75.031,75.027-75.031C415.18,182.176,448.771,215.77,448.771,257.207z"/>
	<polygon fill="#AA4811" points="379.486,257.207 367.996,257.207 373.74,201.787 	"/>
	<circle fill="#AA4811" cx="373.74" cy="257.207" r="31.398"/>
	<circle fill="#E8C453" stroke="#E8C453" stroke-miterlimit="10" cx="373.74" cy="257.207" r="26.189"/>
	<g>
		<rect x="372.359" y="187.279" fill="#AA4811" width="2.762" height="14.508"/>
		
			<rect x="342.5" y="197.922" transform="matrix(0.3828 0.9238 -0.9238 0.3828 399.9799 -200.1057)" fill="#AA4811" width="14.51" height="2.764"/>
		
			<rect x="322.167" y="211.509" transform="matrix(0.7072 0.707 -0.707 0.7072 246.9841 -170.5733)" fill="#AA4811" width="14.505" height="2.762"/>
		
			<rect x="308.582" y="231.843" transform="matrix(0.9239 0.3826 -0.3826 0.9239 113.2538 -103.0882)" fill="#AA4811" width="14.504" height="2.761"/>
		<rect x="303.811" y="255.826" fill="#AA4811" width="14.506" height="2.76"/>
		
			<rect x="314.451" y="273.934" transform="matrix(0.383 0.9238 -0.9238 0.383 454.635 -118.2479)" fill="#AA4811" width="2.759" height="14.511"/>
		
			<rect x="328.037" y="294.267" transform="matrix(0.7068 0.7075 -0.7075 0.7068 309.9168 -144.6285)" fill="#AA4811" width="2.761" height="14.513"/>
		
			<rect x="348.367" y="307.857" transform="matrix(0.9236 0.3833 -0.3833 0.9236 147.4993 -109.9934)" fill="#AA4811" width="2.762" height="14.511"/>
		<rect x="372.354" y="312.626" fill="#AA4811" width="2.762" height="14.516"/>
		
			<rect x="390.463" y="313.733" transform="matrix(0.3827 0.9239 -0.9239 0.3827 536.6457 -172.9215)" fill="#AA4811" width="14.515" height="2.761"/>
		
			<rect x="410.795" y="300.145" transform="matrix(0.707 0.7072 -0.7072 0.707 335.7274 -207.3044)" fill="#AA4811" width="14.514" height="2.761"/>
		
			<rect x="424.382" y="279.813" transform="matrix(0.9237 0.3831 -0.3831 0.9237 140.6364 -143.8937)" fill="#AA4811" width="14.511" height="2.76"/>
		<rect x="429.152" y="255.828" fill="#AA4811" width="14.51" height="2.76"/>
		
			<rect x="430.256" y="225.967" transform="matrix(0.383 0.9238 -0.9238 0.383 481.7833 -254.8208)" fill="#AA4811" width="2.759" height="14.514"/>
		
			<rect x="416.669" y="205.635" transform="matrix(0.7068 0.7075 -0.7075 0.7068 273.2042 -233.3239)" fill="#AA4811" width="2.761" height="14.514"/>
		
			<rect x="396.336" y="192.052" transform="matrix(0.924 0.3825 -0.3825 0.924 106.4637 -136.9568)" fill="#AA4811" width="2.763" height="14.513"/>
	</g>
</g>
</svg>
